<svg xmlns="http://www.w3.org/2000/svg" width="800" height="800" preserveAspectRatio="xMidYMid meet" viewBox="0 0 600 600">
  <g fill="#000000" stroke="none" transform="translate(0.000000,600.000000) scale(0.100000,-0.100000)">
    <path d="M1534 3991 c-64 -39 -65 -53 -62 -561 3 -506 1 -488 71 -530 31 -20 62 -20 1457 -20 1395 0 1426 0 1457 20 71 43 68 22 68 545 0 430 -1 473 -18 502 -36 68 72 63 -1509 63 -1393 0 -1434 -1 -1464 -19z m2905 -25 c50 -27 51 -33 51 -527 l0 -461 -29 -29 c-20 -19 -40 -29 -59 -29 l-30 0 -4 115 c-3 103 -5 117 -26 137 l-23 23 -1319 0 -1319 0 -23 -23 c-21 -20 -23 -34 -26 -137 l-4 -115 -30 0 c-19 0 -39 10 -59 29 l-29 29 0 467 c0 299 4 473 10 485 28 51 -41 49 1478 50 1204 0 1417 -2 1441 -14z m-125 -822 c9 -9 16 -32 16 -55 l0 -39 -1330 0 -1330 0 0 39 c0 77 -119 71 1330 71 1167 0 1300 -2 1314 -16z m16 -174 l0 -50 -1330 0 -1330 0 0 50 0 50 1330 0 1330 0 0 -50z m-2665 -60 c3 -6 -1 -7 -9 -4 -18 7 -21 14 -7 14 6 0 13 -4 16 -10z"/>
    <path d="M2822 3383 c3 -16 21 -18 181 -21 172 -2 177 -2 177 18 0 19 -6 20 -181 20 -166 0 -180 -1 -177 -17z"/>
    <path d="M2473 2696 c-81 -93 -78 -163 14 -302 48 -72 66 -136 52 -187 -20 -73 -83 -112 -143 -88 -17 7 -36 13 -41 14 -6 0 -10 20 -10 45 0 34 5 48 24 63 13 10 32 19 42 19 13 0 19 7 19 21 0 19 -4 21 -32 15 -46 -8 -88 -57 -88 -102 0 -141 190 -165 250 -31 37 80 24 144 -50 262 -76 120 -78 175 -9 247 21 23 39 47 39 55 0 26 -29 12 -67 -31z"/>
    <path d="M3019 2717 c-58 -48 -83 -119 -67 -189 5 -26 32 -73 68 -121 67 -88 86 -137 76 -193 -10 -53 -63 -104 -109 -104 -48 0 -87 33 -87 74 0 41 17 64 55 74 38 11 41 38 3 35 -42 -3 -77 -32 -90 -75 -10 -35 -9 -45 8 -77 38 -72 130 -88 195 -34 88 74 81 198 -16 313 -87 104 -96 182 -30 255 52 56 47 87 -6 42z"/>
    <path d="M3578 2719 c-35 -26 -64 -75 -72 -122 -10 -54 15 -121 69 -187 57 -69 77 -111 77 -163 2 -98 -78 -161 -156 -126 -63 29 -50 128 19 141 33 6 25 33 -10 31 -75 -5 -111 -110 -60 -172 65 -77 181 -55 226 43 38 83 23 145 -62 259 -84 112 -90 182 -24 253 52 55 47 83 -7 43z"/>
    <path d="M3096 2472 c-3 -5 1 -9 9 -9 8 0 12 4 9 9 -3 4 -7 8 -9 8 -2 0 -6 -4 -9 -8z"/>
  </g>
</svg>
