<svg xmlns="http://www.w3.org/2000/svg" viewBox="10.5 76.338788 579.398389 447.57793">
<g transform="translate(0,600) scale(.1,-.1)" fill="currentColor" stroke="none">
<path d="M2735 5225 c-230 -50 -413 -226 -471 -455 -23 -87 -25 -305 -4 -344
27 -52 102 -71 160 -41 46 24 54 49 60 200 6 126 10 146 35 200 38 80 117 156
192 186 80 32 216 32 287 1 103 -47 174 -127 208 -234 16 -54 18 -99 18 -454
l0 -395 -89 3 c-69 2 -94 -2 -114 -15 -55 -36 -59 -50 -57 -248 l1 -182 -163
7 c-676 29 -1376 134 -2138 321 -118 28 -208 45 -247 45 -120 0 -222 -59 -278
-161 -27 -49 -30 -63 -30 -144 0 -73 4 -99 22 -135 44 -88 140 -161 232 -176
37 -6 42 -10 50 -43 215 -839 285 -1092 331 -1187 61 -127 176 -271 266 -334
16 -11 22 -30 27 -75 4 -33 13 -85 22 -115 50 -179 45 -231 -27 -270 -92 -50
-128 -106 -128 -200 0 -68 25 -125 73 -167 55 -48 93 -55 262 -51 133 3 155 6
194 27 92 49 128 111 141 251 15 155 39 198 161 290 l80 60 1173 0 c1065 0
1175 -1 1187 -16 7 -9 40 -35 73 -57 117 -79 153 -137 162 -264 11 -143 50
-214 145 -264 39 -21 60 -24 195 -27 189 -5 223 4 285 68 72 73 85 168 38 262
-20 40 -69 81 -109 93 -65 19 -71 63 -31 223 17 66 31 139 31 162 0 39 5 46
85 122 101 96 190 224 234 336 25 66 171 600 288 1056 l28 109 60 17 c84 23
116 42 168 100 60 67 81 130 75 224 -14 215 -205 331 -438 267 -497 -138 -943
-233 -1335 -285 -247 -33 -270 -35 -275 -28 -3 4 -4 114 -2 245 4 229 5 237
24 237 70 0 120 88 87 153 -27 52 -43 57 -210 57 -143 0 -159 -2 -183 -21 -27
-21 -45 -70 -38 -104 5 -27 34 -66 52 -68 31 -5 48 -23 51 -52 2 -17 0 -35 -3
-40 -4 -6 -40 -8 -93 -5 l-87 5 1 410 c2 455 0 469 -63 600 -115 235 -399 374
-651 320z m896 -1650 c-1 -55 -6 -104 -10 -108 -4 -4 -107 -11 -229 -14 l-222
-6 0 117 0 116 231 -2 232 -3 -2 -100z m-3025 -4 c1316 -324 2423 -405 3564
-260 357 45 796 136 1222 253 91 25 183 46 203 46 75 0 122 -90 80 -154 -19
-29 -30 -34 -230 -90 -568 -160 -1069 -252 -1638 -301 -852 -73 -1817 -7
-2752 190 -231 49 -640 148 -688 167 -97 38 -64 188 40 188 22 0 111 -18 199
-39z m132 -460 c182 -47 537 -117 782 -156 529 -84 897 -115 1426 -122 618 -8
1081 25 1624 118 246 42 686 141 773 175 22 8 22 9 -17 -136 -18 -69 -57 -215
-86 -325 -110 -427 -141 -529 -186 -615 -93 -181 -250 -317 -452 -390 -167
-61 -111 -59 -1602 -60 -1294 0 -1370 1 -1455 19 -248 51 -435 173 -565 368
-62 93 -77 135 -156 436 -36 139 -93 349 -125 468 -32 119 -59 222 -59 228 0
15 9 14 98 -8z m592 -1645 c52 -18 114 -37 137 -41 24 -4 46 -11 49 -17 3 -5
-7 -24 -24 -41 -61 -63 -102 -180 -102 -288 0 -76 -21 -115 -67 -129 -56 -17
-221 -10 -233 10 -18 27 -6 54 34 76 58 33 96 72 117 122 36 82 34 148 -7 315
-3 15 -5 27 -3 27 2 0 47 -15 99 -34z m3440 29 c0 -3 -10 -34 -21 -68 -14 -40
-22 -89 -23 -137 -1 -120 46 -200 152 -254 25 -13 32 -23 32 -46 0 -44 -25
-52 -152 -48 -106 3 -111 4 -134 31 -17 20 -24 40 -24 71 0 115 -42 232 -113
312 -22 25 -38 46 -36 48 2 2 45 13 94 25 50 12 115 33 145 45 56 24 80 30 80
21z"/>
</g>
</svg>
