<svg xmlns="http://www.w3.org/2000/svg" viewBox="20.215682 86.223961 560.46993 420.698053">
<g transform="translate(0,600) scale(.1,-.1)" fill="currentColor" stroke="none">
<path d="M2778 5124 c-167 -40 -308 -170 -358 -332 -14 -46 -20 -94 -20 -185
-1 -67 2 -130 5 -140 11 -27 62 -49 95 -42 56 12 65 34 70 179 4 113 8 138 30
181 55 112 163 177 295 178 122 1 230 -67 286 -181 24 -47 24 -50 27 -439 l3
-393 -76 0 c-67 0 -79 -3 -100 -25 -25 -24 -25 -26 -25 -205 l0 -180 -82 0
c-133 0 -455 19 -693 40 -489 45 -822 99 -1590 260 -169 36 -244 36 -311 2
-123 -63 -169 -219 -99 -337 33 -58 82 -90 167 -112 65 -17 69 -19 78 -53 48
-187 265 -1005 285 -1075 57 -199 178 -389 326 -514 40 -33 76 -61 81 -61 4 0
8 -13 8 -29 0 -16 14 -82 30 -146 33 -128 36 -156 19 -204 -9 -25 -24 -38 -63
-57 -90 -43 -126 -129 -91 -219 10 -27 31 -56 53 -73 34 -26 40 -27 181 -30
138 -3 149 -2 191 21 25 13 58 42 74 64 24 35 30 56 37 138 5 53 15 111 23
129 19 46 71 102 122 132 24 14 55 39 68 55 l25 29 1159 0 1159 0 9 -21 c5
-11 41 -42 79 -67 97 -65 125 -113 136 -231 9 -99 23 -140 63 -188 45 -53 93
-65 252 -61 127 3 142 5 172 26 45 33 66 77 66 143 1 46 -4 62 -28 93 -15 20
-49 47 -74 59 -81 39 -88 83 -42 267 17 65 30 130 30 143 0 17 10 31 29 44 81
51 207 191 271 300 86 144 91 162 330 1068 87 332 79 305 95 305 7 0 42 9 78
20 256 79 220 440 -47 467 -56 6 -89 0 -316 -52 -526 -122 -980 -199 -1388
-239 -73 -7 -135 -9 -137 -6 -2 4 -1 113 2 242 l6 235 23 -5 c16 -3 32 5 54
26 35 36 38 60 9 96 l-20 26 -154 0 -154 0 -20 -26 c-26 -34 -26 -54 0 -88 15
-19 30 -26 55 -26 l34 0 0 -50 0 -51 -100 3 -101 3 1 375 c0 303 -3 386 -15
433 -69 265 -328 424 -587 361z m802 -1452 l0 -119 -127 -6 c-71 -4 -163 -7
-205 -7 l-78 0 0 125 0 125 205 0 205 0 0 -118z m-2833 -6 c526 -111 791 -157
1143 -200 977 -120 1945 -92 2832 80 184 35 528 109 677 144 160 39 194 39
232 1 38 -38 40 -88 4 -123 -20 -21 -94 -42 -472 -136 -703 -175 -991 -223
-1563 -263 -199 -14 -786 -13 -1011 1 -634 40 -1087 113 -1933 313 -222 53
-273 68 -288 87 -35 43 -15 120 36 140 39 16 85 10 343 -44z m163 -395 c872
-203 1468 -269 2324 -258 733 9 1200 73 1900 258 125 33 230 58 233 56 2 -3
-26 -117 -62 -253 -37 -137 -98 -368 -137 -514 -109 -412 -143 -485 -303 -645
-141 -142 -275 -213 -473 -251 -117 -23 -2659 -22 -2779 1 -307 58 -539 243
-665 530 -15 33 -65 204 -112 381 -46 176 -110 413 -140 526 -58 212 -61 228
-48 228 4 0 122 -27 262 -59z m527 -1712 c46 -16 112 -34 148 -40 l66 -11 -56
-58 c-69 -73 -93 -129 -109 -253 -18 -136 -19 -137 -167 -137 -117 0 -119 0
-125 24 -8 32 0 43 44 62 117 49 156 191 104 382 -18 66 -18 73 -4 67 10 -4
54 -20 99 -36z m3231 -31 c-30 -101 -30 -228 -1 -283 26 -49 56 -77 108 -102
42 -19 55 -44 35 -68 -10 -12 -39 -15 -124 -15 -146 0 -153 6 -165 138 -10
113 -49 199 -117 262 -25 23 -44 43 -42 44 2 2 46 13 98 25 52 12 120 32 150
45 82 35 81 35 58 -46z"/>
</g>
</svg>
