<svg xmlns="http://www.w3.org/2000/svg" width="800" height="800" preserveAspectRatio="xMidYMid meet" viewBox="0 0 600 600">
  <g fill="#000000" stroke="none" transform="translate(0.000000,600.000000) scale(0.100000,-0.100000)">
    <path d="M2265 4297 c-60 -20 -85 -35 -142 -90 -35 -33 -60 -68 -75 -106 -22 -55 -23 -66 -26 -488 l-3 -432 -255 -3 -256 -3 -29 -33 c-20 -22 -29 -43 -29 -66 0 -42 33 -86 66 -86 18 0 29 -11 48 -47 30 -62 70 -182 102 -308 37 -149 72 -253 107 -318 38 -72 127 -167 185 -196 40 -20 42 -24 42 -66 0 -59 -26 -112 -62 -124 -36 -13 -54 -50 -39 -80 10 -19 20 -21 91 -21 73 0 80 2 99 26 12 15 21 32 21 38 0 6 11 34 24 62 19 41 33 55 69 73 l44 21 759 -2 c697 -3 762 -4 793 -20 18 -10 37 -15 42 -13 4 3 11 0 15 -6 4 -8 3 -9 -4 -5 -7 4 -12 3 -12 -3 0 -5 4 -12 9 -16 5 -3 19 -34 31 -70 12 -36 30 -70 40 -75 10 -6 53 -10 94 -10 64 0 77 3 86 19 14 28 -5 67 -42 82 -38 15 -58 56 -58 116 l0 49 64 42 c70 46 138 128 180 216 14 30 50 145 81 257 30 111 71 241 90 288 25 60 32 87 23 92 -30 19 -86 -117 -152 -369 -25 -94 -57 -199 -72 -234 -47 -113 -120 -195 -214 -243 -108 -55 -107 -55 -996 -55 -505 0 -842 4 -875 10 -85 16 -188 72 -248 135 -67 71 -111 166 -156 335 -63 236 -103 355 -142 420 -2 3 634 4 1412 2 945 -1 1415 1 1415 8 0 5 9 10 20 10 11 0 20 -4 20 -10 0 -5 15 -10 33 -10 63 0 102 71 72 130 -33 63 34 60 -1290 60 l-1206 0 3 433 3 432 24 50 c14 28 25 56 24 63 -1 7 1 11 4 8 3 -3 22 9 41 26 60 52 117 73 202 72 88 -1 130 -16 190 -70 66 -60 93 -122 98 -230 l4 -92 -33 -7 c-58 -13 -108 -44 -139 -86 -31 -43 -58 -145 -43 -160 5 -5 110 -8 239 -7 l229 3 -3 45 c-7 93 -90 189 -177 206 l-32 6 -5 96 c-4 80 -10 107 -32 150 -60 119 -155 183 -279 188 -42 2 -89 -2 -112 -9z m419 -443 c5 -14 4 -15 -9 -4 -17 14 -19 20 -6 20 5 0 12 -7 15 -16z m71 -43 c49 -22 91 -69 100 -113 4 -18 14 -37 22 -43 9 -7 -53 -9 -197 -7 l-210 3 6 27 c30 123 163 186 279 133z m-705 -641 c0 -5 -4 -10 -10 -10 -5 0 -10 5 -10 10 0 6 5 10 10 10 6 0 10 -4 10 -10z m2471 -37 c13 -16 12 -17 -3 -4 -17 13 -22 21 -14 21 2 0 10 -8 17 -17z m-16 -18 c28 -27 31 -43 13 -68 -12 -16 -112 -17 -1512 -17 -850 0 -1504 4 -1509 9 -4 4 -7 24 -5 42 2 24 10 37 28 46 20 10 334 13 1493 13 l1468 0 24 -25z m-2934 -104 c-8 -5 -10 -14 -6 -22 6 -11 5 -11 -5 -2 -14 12 -6 33 13 33 8 0 7 -3 -2 -9z m2812 -146 c-3 -9 -8 -14 -10 -11 -3 3 -2 9 2 15 9 16 15 13 8 -4z m-388 -755 c-3 -5 -14 -10 -23 -9 -14 0 -13 2 3 9 27 11 27 11 20 0z m-1884 -46 c24 -4 44 -2 53 5 11 9 20 10 35 1 25 -13 28 -22 4 -13 -11 4 -14 3 -9 -5 4 -7 3 -12 -3 -12 -5 0 -13 4 -16 10 -13 21 -72 -50 -90 -111 -10 -33 -22 -62 -26 -64 -13 -9 -120 -12 -125 -4 -3 5 13 19 34 33 44 27 72 83 72 142 0 29 3 35 16 30 9 -3 33 -9 55 -12z m1703 5 c4 6 12 11 17 11 6 0 7 -5 3 -11 -7 -12 55 -8 104 7 20 6 22 3 22 -35 0 -62 23 -106 71 -136 51 -33 40 -42 -38 -35 l-58 5 -22 65 c-26 76 -54 104 -114 115 -35 5 -40 9 -24 15 11 4 23 3 26 -2 4 -6 9 -6 13 1z m274 -194 c-3 -3 -9 2 -12 12 -6 14 -5 15 5 6 7 -7 10 -15 7 -18z"/>
    <path d="M1894 2309 c-4 -7 -3 -9 4 -5 5 3 13 0 15 -6 4 -9 6 -10 6 -1 1 17 -16 25 -25 12z"/>
  </g>
</svg>
