<svg xmlns="http://www.w3.org/2000/svg" width="800" height="800" preserveAspectRatio="xMidYMid meet" viewBox="0 0 600 600">
  <g fill="#000000" stroke="none" transform="translate(0.000000,600.000000) scale(0.100000,-0.100000)">
    <path d="M3012 4758 c-65 -68 -91 -184 -62 -274 7 -21 32 -66 56 -101 24 -35 48 -82 55 -106 21 -80 -5 -175 -66 -240 -21 -22 -25 -31 -15 -40 9 -9 18 -4 41 23 96 114 102 258 14 373 -50 65 -68 113 -67 177 0 66 21 118 67 169 31 33 36 51 15 51 -3 0 -20 -15 -38 -32z"/>
    <path d="M2697 4630 c-77 -91 -76 -190 6 -308 69 -101 70 -186 1 -276 -21 -27 -30 -47 -24 -51 16 -10 38 12 71 70 24 41 29 62 29 115 0 69 -14 104 -73 188 -55 77 -44 192 23 257 27 26 31 45 10 45 -5 0 -24 -18 -43 -40z"/>
    <path d="M3296 4639 c-79 -94 -81 -204 -5 -309 76 -105 78 -191 8 -282 -16 -20 -29 -42 -29 -48 0 -21 24 -4 57 39 73 95 67 205 -16 316 -64 85 -63 172 4 260 39 51 41 55 21 55 -8 0 -26 -14 -40 -31z"/>
    <path d="M2986 3720 c-928 -5 -939 -5 -946 -25 -15 -43 21 -104 63 -105 10 0 17 -8 17 -20 0 -18 -7 -20 -84 -20 -92 0 -96 -3 -96 -64 0 -19 9 -41 20 -54 18 -19 31 -22 98 -22 l78 0 17 -69 c60 -230 240 -463 450 -581 48 -27 58 -36 53 -54 -4 -16 -229 -778 -262 -887 -3 -10 -20 -19 -44 -23 -74 -12 -140 -104 -140 -192 0 -16 11 -52 24 -81 37 -79 127 -124 206 -103 137 37 182 204 89 331 -9 12 -4 40 22 127 l33 112 423 0 422 0 15 -52 c37 -128 117 -405 122 -422 4 -12 2 -16 -5 -11 -7 4 -23 -1 -37 -10 -20 -13 -25 -23 -22 -48 l3 -32 133 -5 c73 -3 137 -3 142 -2 6 2 10 21 10 42 0 43 -22 64 -62 58 -20 -3 -29 21 -128 367 -165 573 -237 819 -244 836 -5 12 2 20 24 29 109 45 272 190 354 314 65 98 101 175 129 278 l22 78 70 0 c97 0 117 15 113 83 l-3 52 -82 3 c-75 3 -83 5 -83 22 0 13 7 20 18 20 30 0 65 45 64 81 -1 36 -8 45 -37 50 -11 2 -443 2 -959 -1z m969 -44 c7 -12 4 -21 -10 -36 -20 -19 -35 -20 -920 -20 -495 0 -910 0 -921 0 -25 0 -55 57 -37 68 6 4 431 6 945 5 830 -2 934 -3 943 -17z m-88 -163 c-30 -379 -312 -721 -667 -809 -109 -27 -288 -25 -395 5 -265 74 -486 279 -593 551 -35 88 -62 212 -62 281 l0 49 861 0 862 0 -6 -77z m-1738 -55 c1 -16 -9 -18 -73 -18 -79 0 -86 5 -86 55 0 23 4 24 73 27 77 3 81 0 86 -64z m1915 30 c-2 -16 -6 -34 -9 -39 -4 -5 -38 -9 -77 -9 l-70 0 6 31 c3 17 6 37 6 43 0 7 24 10 74 8 l73 -3 -3 -31z m-1311 -787 l25 -10 -23 -83 c-12 -46 -70 -244 -129 -440 -58 -196 -106 -364 -106 -373 0 -12 -5 -15 -16 -11 -9 3 -27 9 -41 12 -16 4 -22 11 -19 21 4 8 27 85 52 171 25 85 83 284 130 440 46 156 84 286 84 289 0 2 4 2 9 -1 4 -3 20 -10 34 -15z m653 -191 c193 -668 284 -986 284 -995 0 -17 -70 -12 -75 5 -2 8 -41 141 -85 295 -45 154 -106 366 -137 470 -96 331 -113 390 -113 397 0 10 64 37 67 29 1 -3 28 -94 59 -201z m-468 148 c78 -11 219 -3 288 17 24 7 12 40 119 -325 31 -107 58 -202 61 -210 3 -13 -43 -15 -379 -12 l-383 2 26 83 c15 45 51 169 81 275 53 190 54 193 79 187 14 -2 62 -10 108 -17z m490 -597 c7 -21 12 -40 12 -42 0 -2 -187 -4 -415 -4 -365 0 -415 2 -409 15 3 8 8 27 11 43 l6 27 392 0 392 0 11 -39z m-936 -307 c72 -37 100 -152 56 -229 -63 -109 -213 -104 -267 9 -35 72 -23 142 34 199 47 47 111 54 177 21z m1296 -300 c3 -20 -1 -21 -118 -20 -103 1 -120 3 -120 17 0 8 3 19 7 23 4 3 57 5 117 4 104 -3 111 -4 114 -24z"/>
    <path d="M2347 1699 c-21 -12 -47 -61 -47 -89 0 -33 26 -75 55 -88 42 -19 74 -14 106 17 23 23 29 38 29 71 0 75 -81 125 -143 89z m95 -36 c39 -35 10 -123 -41 -123 -32 0 -71 39 -71 71 0 57 70 90 112 52z"/>
    <path d="M2360 2906 c0 -2 8 -10 18 -17 15 -13 16 -12 3 4 -13 16 -21 21 -21 13z"/>
  </g>
</svg>
