<svg xmlns="http://www.w3.org/2000/svg" width="800" height="800" preserveAspectRatio="xMidYMid meet" viewBox="0 0 600 600">
  <g fill="#000000" stroke="none" transform="translate(0.000000,600.000000) scale(0.100000,-0.100000)">
    <path d="M2186 3863 c-35 -9 -94 -51 -119 -85 -44 -60 -47 -85 -47 -402 l0 -301 -36 -20 c-46 -25 -102 -87 -126 -142 -14 -33 -20 -68 -20 -141 -1 -86 -4 -100 -25 -125 -23 -28 -23 -32 -23 -267 0 -262 -3 -250 65 -250 18 0 38 6 44 14 6 7 12 56 14 108 l2 94 1080 -1 1080 0 11 -98 c5 -53 15 -102 21 -108 6 -6 30 -9 54 -7 l44 3 3 242 c2 240 2 241 -21 270 -21 25 -24 39 -25 123 -1 139 -46 227 -143 282 l-39 22 0 310 c0 292 -1 312 -21 352 -26 55 -87 110 -136 123 -38 11 -1596 14 -1637 4z m1672 -66 c23 -15 52 -46 64 -70 22 -41 23 -52 26 -339 l3 -298 -60 0 -61 0 0 133 c0 111 -3 137 -19 163 -37 60 -58 64 -375 64 -319 0 -340 -4 -376 -62 -17 -29 -20 -50 -20 -164 l0 -132 -44 -3 c-24 -2 -42 -1 -40 2 2 3 4 63 5 132 1 108 -2 132 -18 159 -37 65 -55 68 -376 68 -315 0 -331 -3 -372 -58 -17 -23 -20 -46 -23 -163 l-3 -135 -57 -2 -57 -2 5 308 c5 333 6 336 64 385 56 48 30 47 887 44 l805 -2 42 -28z m-984 -398 c43 -20 56 -64 56 -193 l0 -116 -358 0 c-197 0 -361 2 -363 4 -2 2 -2 64 1 136 5 129 6 132 33 156 l28 24 289 0 c195 0 297 -4 314 -11z m888 -18 l33 -29 4 -131 3 -131 -367 0 -367 0 4 131 4 131 32 29 32 29 295 0 295 0 32 -29z m-1572 -301 c0 -5 -5 -10 -11 -10 -5 0 -7 5 -4 10 3 6 8 10 11 10 2 0 4 -4 4 -10z m875 0 c3 -5 1 -10 -4 -10 -6 0 -11 5 -11 10 0 6 2 10 4 10 3 0 8 -4 11 -10z m759 2 c3 -5 -1 -9 -9 -9 -8 0 -12 4 -9 9 3 4 7 8 9 8 2 0 6 -4 9 -8z m-1769 -12 c-3 -5 -12 -10 -18 -10 -7 0 -6 4 3 10 19 12 23 12 15 0z m1915 -34 c111 -59 151 -125 158 -258 l4 -88 -1132 -2 -1132 -3 4 90 c4 72 10 100 31 142 35 68 101 118 177 134 19 4 445 6 945 6 868 -2 912 -3 945 -21z m181 -405 c24 -19 24 -20 24 -243 0 -182 -2 -222 -14 -220 -7 1 -18 -2 -25 -7 -8 -7 -12 15 -14 82 -2 60 -8 100 -18 114 l-14 23 -1090 0 -1089 0 -15 -22 c-9 -12 -16 -38 -16 -58 0 -64 -13 -140 -22 -134 -5 3 -16 0 -24 -7 -8 -6 -17 -9 -21 -5 -3 3 -1 6 5 6 7 0 11 70 11 228 1 218 2 228 22 245 20 16 90 17 1149 17 1095 0 1128 -1 1151 -19z"/>
    <path d="M2119 3713 c-13 -16 -12 -17 4 -4 9 7 17 15 17 17 0 8 -8 3 -21 -13z"/>
    <path d="M2136 3693 c-6 -14 -5 -15 5 -6 7 7 10 15 7 18 -3 3 -9 -2 -12 -12z"/>
    <path d="M1890 2090 c-8 -5 -10 -10 -5 -10 6 0 17 5 25 10 8 5 11 10 5 10 -5 0 -17 -5 -25 -10z"/>
  </g>
</svg>
