<svg xmlns="http://www.w3.org/2000/svg" viewBox="111.180835 120.249756 377.644165 338.750244">
<g transform="translate(0,600) scale(.1,-.1)" fill="currentColor" stroke="none">
<path d="M2840 4794 c-244 -45 -297 -63 -570 -194 -284 -136 -362 -159 -551
-160 l-76 0 -7 -61 c-15 -152 -117 -259 -248 -259 -26 0 -50 -5 -54 -12 -10
-16 -5 -1131 5 -1141 5 -5 34 15 66 43 l59 50 -3 470 c-3 458 -2 470 17 470
35 0 140 60 180 104 44 48 73 99 92 161 l12 41 101 11 c133 14 217 43 466 162
355 169 536 211 790 182 191 -23 304 -61 592 -200 205 -99 294 -129 427 -144
l105 -12 12 -40 c37 -126 121 -216 238 -256 l49 -17 -1 -461 -2 -461 53 -50
c29 -27 57 -50 64 -50 11 0 24 480 24 926 l0 221 -67 5 c-149 11 -228 96 -248
269 l-6 55 -57 -4 c-167 -12 -286 21 -562 153 -198 95 -344 150 -480 180 -73
16 -365 29 -420 19z"/>
<path d="M2053 3958 c-36 -18 -41 -52 -22 -153 44 -231 46 -391 8 -590 -10
-55 -19 -100 -19 -101 0 -1 -55 -4 -121 -8 -144 -8 -206 -20 -277 -53 -51 -24
-176 -131 -137 -118 11 4 52 17 90 29 l70 21 1360 0 c1487 0 1374 4 1510 -50
35 -14 -34 54 -98 96 -72 47 -156 67 -315 76 l-119 6 -18 81 c-36 161 -31 452
11 635 27 114 -10 154 -116 126 -460 -119 -1160 -128 -1630 -21 -58 13 -116
27 -130 30 -14 3 -35 0 -47 -6z m174 -133 c392 -114 1157 -113 1551 1 46 14
86 23 88 22 1 -2 -9 -46 -23 -98 -47 -178 -42 -423 13 -607 l6 -23 -862 0
c-816 0 -861 1 -856 18 68 218 64 510 -9 695 -9 22 -12 22 92 -8z"/>
<path d="M1425 2869 c-16 -5 -36 -7 -44 -4 -17 7 -67 -24 -108 -67 -68 -72
-93 -162 -93 -345 l0 -103 1821 0 1821 0 -4 148 c-6 160 -16 201 -68 277 -31
45 -98 93 -135 96 -80 7 -3166 6 -3190 -2z"/>
<path d="M1119 2244 c-5 -7 -8 -97 -7 -210 l3 -199 1885 0 1885 0 3 199 c1
110 -1 203 -6 208 -14 14 -3752 15 -3763 2z"/>
<path d="M1204 1703 c3 -38 9 -119 12 -180 l7 -113 63 0 63 0 11 58 c7 31 23
108 36 170 13 63 24 118 24 123 0 5 -50 9 -111 9 l-112 0 7 -67z"/>
<path d="M4580 1767 c0 -1 16 -80 35 -176 19 -95 35 -175 35 -177 0 -2 29 -4
64 -4 l63 0 7 103 c4 56 9 137 13 180 l6 77 -112 0 c-61 0 -111 -1 -111 -3z"/>
</g>
</svg>
