<svg xmlns="http://www.w3.org/2000/svg" width="800" height="800" preserveAspectRatio="xMidYMid meet" viewBox="0 0 600 600">
  <g fill="#000000" stroke="none" transform="translate(0.000000,600.000000) scale(0.100000,-0.100000)">
    <path d="M1787 3787 c-45 -15 -66 -92 -40 -146 15 -30 72 -59 93 -46 6 4 10 -26 10 -85 0 -103 9 -130 46 -130 l25 0 -3 -577 -3 -578 -40 0 c-22 0 -41 -4 -43 -10 -3 -14 458 -19 472 -5 10 10 -45 14 -257 15 l-107 0 0 578 0 577 1060 0 1060 0 0 -580 0 -579 -30 5 c-43 9 -340 -6 -340 -17 0 -6 101 -8 243 -7 157 2 240 7 237 13 -3 6 -23 10 -45 10 l-40 0 -3 578 c-2 565 -2 577 17 577 41 0 51 26 51 125 0 78 3 93 14 89 25 -10 86 26 93 55 17 66 -3 127 -46 138 -36 9 -2397 9 -2424 0z m2433 -37 c12 -12 20 -33 20 -55 0 -22 -8 -43 -20 -55 -20 -20 -33 -20 -1222 -20 -1104 0 -1203 1 -1220 17 -25 23 -24 87 2 113 20 20 33 20 1220 20 1187 0 1200 0 1220 -20z m-102 -250 l-3 -95 -1115 0 -1115 0 -5 93 c-3 52 -4 94 -3 95 1 1 506 2 1123 2 l1121 0 -3 -95z"/>
    <path d="M2418 3543 c12 -2 32 -2 45 0 12 2 2 4 -23 4 -25 0 -35 -2 -22 -4z"/>
    <path d="M3008 3543 c6 -2 18 -2 25 0 6 3 1 5 -13 5 -14 0 -19 -2 -12 -5z"/>
    <path d="M2238 3204 c-15 -8 -35 -28 -43 -44 -18 -34 -21 -165 -4 -176 6 -3 62 -6 125 -6 l114 0 0 -217 0 -216 -80 3 c-68 3 -80 1 -80 -12 0 -13 14 -16 80 -16 l80 0 0 -86 c0 -83 -1 -87 -40 -144 -22 -32 -45 -60 -52 -62 -6 -2 -8 -10 -4 -16 5 -8 50 -12 147 -12 117 0 139 2 139 15 0 8 -4 15 -10 15 -5 0 -27 27 -50 59 -39 58 -40 62 -40 145 l0 86 80 0 c64 0 80 3 80 15 0 12 -16 15 -80 15 l-80 0 0 215 0 216 114 -2 c62 -1 118 1 125 5 17 11 14 141 -4 176 -28 55 -53 60 -282 60 -164 -1 -214 -4 -235 -16z m483 -42 c20 -22 29 -43 29 -67 l0 -35 -275 0 -275 0 0 28 c0 35 34 90 63 102 12 5 114 8 225 7 l204 -2 29 -33z m27 -144 c-7 -19 -539 -19 -545 0 -4 9 55 12 272 12 217 0 276 -3 273 -12z m-248 -252 l0 -214 -25 -4 -25 -5 0 218 0 219 25 0 25 0 0 -214z m0 -339 c0 -92 1 -95 38 -148 l38 -54 -98 0 c-54 0 -98 2 -98 4 0 2 16 26 35 52 34 48 35 51 35 144 0 95 0 95 25 95 25 0 25 0 25 -93z"/>
    <path d="M3288 3204 c-42 -22 -58 -63 -58 -144 0 -56 3 -72 16 -77 9 -3 65 -6 125 -7 l109 -1 0 -216 0 -216 -81 5 c-74 4 -81 3 -77 -13 3 -16 13 -18 81 -16 l77 2 0 -84 c0 -82 -1 -86 -41 -146 -22 -33 -45 -61 -50 -61 -5 0 -9 -7 -9 -15 0 -13 23 -15 145 -15 122 0 145 2 145 15 0 8 -4 15 -9 15 -5 0 -28 26 -50 57 -41 57 -41 59 -41 146 l0 89 77 -3 c69 -3 78 -2 81 15 4 17 -3 18 -77 15 l-81 -4 0 216 0 217 114 0 c63 0 119 3 125 7 17 10 14 141 -4 175 -28 55 -53 60 -282 60 -164 -1 -214 -4 -235 -16z m446 -14 c32 -12 66 -65 66 -102 l0 -28 -275 0 -275 0 0 34 c0 37 30 83 64 96 29 12 389 12 420 0z m64 -172 c-4 -10 -67 -13 -273 -13 -206 0 -269 3 -272 13 -4 9 55 12 272 12 217 0 276 -3 273 -12z m-248 -257 l0 -219 -25 2 -25 1 0 218 0 217 25 0 25 0 0 -219z m0 -336 c0 -93 1 -96 35 -144 19 -26 35 -50 35 -52 0 -2 -44 -4 -99 -4 l-99 0 39 55 c38 55 39 57 39 148 0 91 0 92 25 92 25 0 25 0 25 -95z"/>
    <path d="M2723 2223 c-46 -2 -83 -8 -83 -13 0 -6 137 -10 360 -10 358 0 470 11 238 23 -118 7 -348 6 -515 0z"/>
  </g>
</svg>
