<svg xmlns="http://www.w3.org/2000/svg" width="800" height="800" preserveAspectRatio="xMidYMid meet" viewBox="0 0 600 600">
  <g fill="#000000" stroke="none" transform="translate(0.000000,600.000000) scale(0.100000,-0.100000)">
    <path d="M3155 3836 c-42 -18 -93 -79 -99 -118 -3 -18 -7 -46 -10 -63 -6 -42 -29 -105 -38 -105 -5 0 -8 23 -8 51 0 67 -32 124 -83 151 -56 28 -71 19 -65 -43 6 -62 31 -98 85 -124 43 -21 54 -43 53 -109 l-1 -31 -17 35 c-18 36 -73 80 -101 80 -36 0 -43 -15 -28 -53 16 -36 59 -67 95 -67 11 0 25 -7 32 -15 10 -13 9 -15 -9 -15 -16 0 -21 -6 -21 -26 0 -14 -11 -40 -24 -57 -32 -43 -40 -85 -21 -121 8 -15 15 -29 15 -30 0 0 -124 0 -275 2 l-275 3 -25 -25 c-31 -31 -32 -70 -2 -99 22 -22 26 -22 314 -22 l293 0 0 -357 0 -358 -93 0 c-59 0 -97 -4 -105 -12 -17 -17 -15 -65 4 -72 9 -3 125 -6 258 -6 254 0 266 2 266 45 0 38 -19 45 -117 45 l-93 0 0 358 0 357 291 -2 291 -1 24 23 c29 29 31 65 5 96 l-19 24 -281 0 c-246 0 -280 2 -274 15 19 42 14 95 -11 133 -14 21 -26 49 -26 62 0 20 -5 25 -26 25 -25 0 -25 0 -9 28 14 24 22 27 66 27 46 0 54 4 85 38 23 24 34 46 32 60 -3 19 -9 22 -48 21 -54 0 -92 -24 -115 -71 -26 -54 -37 -48 -15 9 12 29 26 65 32 81 7 19 17 27 33 27 39 0 113 77 127 133 19 73 -6 100 -67 73z m45 -35 c0 -51 -40 -110 -94 -138 l-29 -15 5 46 c6 50 25 78 73 107 38 24 45 24 45 0z m-250 -116 c20 -32 27 -85 12 -85 -32 0 -82 69 -82 114 0 24 2 25 25 14 14 -6 34 -26 45 -43z m230 -134 c0 -20 -62 -61 -93 -61 l-32 1 37 34 c35 33 88 48 88 26z m-271 -36 c33 -17 48 -45 25 -45 -23 0 -52 18 -64 40 -13 25 -1 26 39 5z m94 -80 c-3 -9 -8 -14 -10 -11 -3 3 -2 9 2 15 9 16 15 13 8 -4z m27 -68 c0 -10 12 -34 27 -53 30 -40 33 -86 7 -115 -21 -23 -115 -27 -133 -6 -26 32 -23 71 8 117 17 25 31 52 31 60 0 10 10 15 30 15 22 0 30 -5 30 -18z m618 -229 c15 -15 15 -51 0 -66 -17 -17 -1279 -17 -1296 0 -7 7 -12 21 -12 33 0 12 5 26 12 33 17 17 1279 17 1296 0z m-618 -458 l0 -360 -30 0 -30 0 0 358 0 358 30 2 30 2 0 -360z m218 -407 c3 -10 -51 -13 -247 -13 -230 0 -264 3 -244 24 4 3 115 5 247 4 181 -2 240 -6 244 -15z"/>
    <path d="M1797 3573 c-9 -2 -24 -17 -32 -32 -12 -25 -11 -52 16 -247 16 -120 39 -300 52 -398 l22 -179 -34 -228 c-37 -244 -36 -259 13 -259 38 0 46 15 68 128 l22 112 252 0 251 0 12 -107 c7 -59 17 -113 23 -120 16 -19 66 -16 76 5 5 10 3 106 -6 231 -14 213 -14 214 6 230 40 31 40 101 1 122 -13 6 -117 10 -290 9 -211 0 -270 2 -273 12 -2 7 -22 164 -44 348 -40 325 -42 336 -67 358 -26 22 -34 24 -68 15z m55 -40 c9 -10 18 -43 21 -73 7 -85 66 -560 75 -603 l7 -39 274 1 c171 0 281 -3 293 -10 14 -8 18 -19 16 -42 l-3 -32 -327 -3 c-181 -1 -328 1 -328 5 0 18 -85 688 -95 750 -9 52 35 82 67 46z m72 -934 c-12 -55 -33 -154 -45 -220 -19 -99 -26 -119 -41 -119 -23 0 -23 -5 12 232 17 110 30 202 30 204 0 2 15 4 33 4 l34 0 -23 -101z m484 12 c7 -48 12 -95 12 -102 0 -12 -43 -14 -246 -14 -240 0 -245 0 -240 20 3 11 13 57 23 103 l17 82 211 0 211 0 12 -89z m82 67 c0 -31 18 -288 25 -360 6 -53 4 -58 -14 -58 -16 0 -21 9 -26 43 -3 23 -16 122 -28 220 l-23 177 33 0 c28 0 33 -4 33 -22z"/>
    <path d="M4143 3570 c-14 -6 -25 -23 -32 -47 -9 -39 -53 -370 -74 -568 l-12 -110 -265 -2 c-146 -2 -271 -3 -277 -3 -24 0 -53 -40 -53 -70 0 -20 9 -39 26 -55 l26 -24 -15 -218 c-10 -148 -12 -222 -5 -230 13 -17 63 -17 76 0 8 10 32 172 32 216 0 8 79 11 254 11 l253 0 19 -107 c20 -112 31 -133 68 -133 51 0 52 14 15 258 l-35 227 38 295 c21 162 44 342 51 400 16 115 11 140 -30 159 -28 13 -30 13 -60 1z m61 -35 c9 -10 14 -26 11 -43 -10 -56 -95 -731 -95 -755 0 -4 -147 -6 -327 -5 l-328 3 -3 30 c-7 54 5 56 306 55 151 -1 276 0 277 2 2 2 22 158 46 348 42 342 51 380 85 380 7 0 19 -7 28 -15z m-634 -857 c0 -12 -9 -92 -20 -178 -11 -85 -23 -174 -26 -197 -4 -34 -9 -43 -25 -43 -18 0 -20 5 -14 58 6 60 25 335 25 365 0 12 8 17 30 17 24 0 30 -4 30 -22z m474 -60 c9 -46 19 -92 22 -103 5 -20 0 -20 -243 -20 l-248 0 14 103 14 102 212 0 212 0 17 -82z m76 78 c0 -2 14 -94 30 -204 35 -237 35 -232 12 -232 -15 0 -22 20 -41 119 -12 66 -33 165 -45 220 l-23 101 34 0 c18 0 33 -2 33 -4z"/>
    <path d="M2800 3466 c0 -2 8 -10 18 -17 15 -13 16 -12 3 4 -13 16 -21 21 -21 13z"/>
    <path d="M4002 3250 c0 -14 2 -19 5 -12 2 6 2 18 0 25 -3 6 -5 1 -5 -13z"/>
    <path d="M3381 2754 c0 -11 3 -14 6 -6 3 7 2 16 -1 19 -3 4 -6 -2 -5 -13z"/>
    <path d="M2611 2734 c0 -11 3 -14 6 -6 3 7 2 16 -1 19 -3 4 -6 -2 -5 -13z"/>
  </g>
</svg>
