<svg xmlns="http://www.w3.org/2000/svg" width="800" height="800" preserveAspectRatio="xMidYMid meet" viewBox="0 0 600 600">
  <g fill="#000000" stroke="none" transform="translate(0.000000,600.000000) scale(0.100000,-0.100000)">
    <path d="M2450 3730 c-155 -33 -216 -63 -527 -262 -114 -73 -221 -139 -237 -146 -16 -7 -106 -24 -199 -37 -206 -29 -245 -47 -289 -134 l-28 -55 0 -232 0 -232 32 -48 c50 -72 82 -85 206 -82 134 4 134 21 0 28 -120 6 -157 25 -189 94 -24 54 -28 239 -5 230 8 -3 40 1 70 10 63 19 118 73 133 134 16 61 13 62 -109 62 l-110 0 7 28 c11 44 45 92 84 118 29 19 64 27 157 39 170 22 234 34 269 52 26 13 254 157 413 260 77 50 210 110 299 136 74 20 97 21 478 22 388 0 402 -1 470 -22 111 -36 198 -92 385 -249 96 -80 191 -154 210 -164 20 -10 123 -31 240 -50 281 -44 376 -77 483 -166 l29 -24 -117 0 c-129 0 -135 -3 -116 -63 26 -78 116 -126 234 -127 l77 0 0 -130 c0 -126 -1 -132 -25 -155 -24 -25 -27 -25 -193 -25 l-169 0 -6 54 c-11 112 -83 213 -186 263 -74 37 -190 39 -263 6 -105 -48 -184 -156 -195 -267 l-6 -56 -777 0 -777 0 -6 54 c-12 114 -88 221 -192 268 -70 31 -191 32 -257 1 -70 -32 -131 -94 -164 -166 -57 -123 -32 -263 63 -361 149 -153 418 -114 512 75 17 34 31 69 31 78 0 14 74 16 787 16 l788 0 12 -40 c22 -74 81 -145 153 -184 61 -34 70 -36 155 -36 78 0 97 4 140 27 28 14 68 44 89 65 39 38 86 123 86 155 0 15 17 17 163 17 89 -1 173 0 185 0 13 1 37 15 53 32 l29 31 0 164 c0 143 -3 170 -22 221 -41 112 -182 217 -348 262 -41 11 -156 32 -255 47 -108 16 -195 34 -217 45 -21 11 -91 63 -155 117 -280 232 -336 268 -468 302 -72 18 -109 20 -454 19 -324 0 -388 -3 -461 -19z m-1152 -700 l94 0 -7 -27 c-15 -61 -81 -112 -147 -113 l-38 0 0 68 c0 37 -4 73 -10 80 -7 9 -7 9 2 2 7 -5 54 -10 106 -10z m3469 -62 c12 -24 24 -54 28 -67 l7 -24 -84 5 c-62 3 -94 10 -123 27 -35 19 -85 75 -85 94 0 4 53 7 118 7 l118 0 21 -42z m-2760 -149 c101 -48 159 -144 157 -259 -2 -114 -60 -207 -158 -255 -147 -72 -309 -20 -383 124 -28 54 -33 73 -33 134 1 147 99 264 239 286 65 11 107 3 178 -30z m2147 26 c134 -35 221 -148 219 -285 -1 -162 -125 -285 -288 -285 -163 0 -286 121 -288 285 -2 140 97 263 233 291 54 10 62 10 124 -6z"/>
    <path d="M1825 2696 c-97 -43 -119 -161 -44 -235 36 -36 87 -48 139 -32 119 35 130 205 18 260 -51 24 -71 26 -113 7z m118 -46 c63 -50 49 -147 -25 -183 -115 -56 -205 104 -104 185 30 25 97 23 129 -2z"/>
    <path d="M4025 2691 c-54 -24 -90 -87 -82 -142 16 -120 156 -169 241 -84 70 69 51 182 -38 224 -52 26 -70 26 -121 2z m136 -50 c57 -58 31 -158 -48 -180 -72 -20 -133 29 -133 107 0 63 40 102 105 102 38 0 52 -5 76 -29z"/>
    <path d="M3890 2396 c0 -2 8 -10 18 -17 15 -13 16 -12 3 4 -13 16 -21 21 -21 13z"/>
    <path d="M2492 3620 c-188 -50 -332 -171 -392 -329 -16 -40 -17 -51 -6 -60 9 -7 262 -11 819 -11 795 0 807 0 827 20 40 40 34 48 -155 211 -92 80 -152 123 -205 148 l-75 36 -370 2 c-338 2 -376 1 -443 -17z m355 -185 l-2 -175 -363 0 -362 0 14 35 c37 88 122 179 219 233 110 61 194 80 364 81 l133 1 -3 -175z m448 160 c33 -9 83 -30 110 -46 57 -35 320 -260 320 -275 0 -5 -168 -10 -422 -12 l-423 -2 0 175 0 175 178 0 c128 0 195 -4 237 -15z"/>
    <path d="M1200 3276 c0 -2 8 -10 18 -17 15 -13 16 -12 3 4 -13 16 -21 21 -21 13z"/>
    <path d="M2940 3075 c0 -13 18 -15 133 -13 174 4 172 22 -3 26 -112 2 -130 0 -130 -13z"/>
    <path d="M4008 2933 c7 -3 16 -2 19 1 4 3 -2 6 -13 5 -11 0 -14 -3 -6 -6z"/>
    <path d="M3853 2293 c4 -3 1 -13 -6 -22 -11 -14 -10 -14 5 -2 16 12 16 31 1 31 -4 0 -3 -3 0 -7z"/>
  </g>
</svg>
