<svg xmlns="http://www.w3.org/2000/svg" width="800" height="800" preserveAspectRatio="xMidYMid meet" viewBox="0 0 600 600">
  <g fill="#000000" stroke="none" transform="translate(0.000000,600.000000) scale(0.100000,-0.100000)">
    <path d="M2871 4439 c-100 -9 -206 -32 -228 -50 -8 -8 -13 -36 -13 -82 0 -108 41 -154 174 -198 45 -15 67 -28 74 -44 6 -14 23 -26 41 -30 l31 -7 0 -331 c0 -321 -1 -333 -20 -345 -11 -7 -20 -20 -20 -31 0 -10 -9 -26 -19 -35 -11 -10 -21 -32 -23 -49 -3 -26 -8 -31 -48 -42 -63 -16 -111 -41 -158 -81 -56 -48 -74 -99 -70 -204 l3 -85 -550 -236 c-576 -247 -596 -255 -607 -273 -14 -21 -8 -63 13 -90 40 -51 157 -96 249 -96 52 0 72 9 335 148 154 82 334 177 400 211 66 35 165 88 221 117 83 45 107 53 133 48 31 -6 32 -8 26 -48 -3 -22 -16 -162 -31 -310 -25 -265 -25 -270 -7 -295 73 -100 368 -105 449 -8 25 29 26 36 20 97 -4 36 -18 174 -31 307 -12 133 -26 246 -30 252 -3 7 -3 11 2 10 4 -1 16 1 25 5 17 8 198 -83 694 -350 353 -189 348 -187 429 -182 81 5 190 51 224 95 22 26 27 68 13 91 -10 14 -212 104 -769 342 l-383 163 0 94 c0 57 -5 106 -14 126 -27 62 -122 129 -221 156 -33 9 -40 15 -41 37 -1 14 -11 36 -23 48 -12 12 -21 29 -21 38 0 18 -25 42 -37 35 -4 -3 -7 147 -5 333 l3 337 32 9 c18 5 36 19 42 32 6 15 24 26 50 33 71 18 119 43 163 86 41 42 42 44 42 111 0 39 -5 75 -12 85 -19 25 -118 47 -258 57 -69 5 -132 9 -140 8 -8 0 -57 -4 -109 -9z m319 -39 c47 -6 101 -15 122 -21 35 -9 36 -10 40 -64 2 -45 0 -54 -12 -50 -114 34 -404 45 -551 21 -53 -9 -103 -18 -111 -21 -13 -5 -15 3 -13 46 2 51 3 53 39 65 88 31 333 42 486 24z m-15 -140 c50 -6 108 -16 130 -21 l40 -11 -36 -32 c-20 -17 -53 -37 -73 -44 -32 -12 -38 -11 -63 8 -36 26 -142 43 -213 35 -60 -8 -120 -29 -131 -47 -11 -17 -90 16 -135 58 -22 19 -34 33 -27 29 7 -3 31 -1 55 5 112 28 309 36 453 20z m-59 -111 c45 -12 60 -29 24 -29 -12 0 -24 -10 -29 -24 -12 -31 -47 -41 -54 -15 -8 29 -97 28 -104 -1 -6 -23 -5 -22 -28 -14 -9 4 -21 17 -26 30 -4 13 -15 24 -24 24 -27 0 -16 19 18 29 45 13 170 13 223 0z m-86 -429 l0 -350 -25 0 -25 0 0 350 0 350 25 0 25 0 0 -350z m21 -390 c10 -6 19 -20 19 -30 0 -11 9 -25 20 -32 11 -7 20 -22 20 -33 0 -19 -7 -20 -105 -20 -102 0 -105 1 -105 22 0 12 9 27 20 33 11 6 20 19 20 30 0 35 67 53 111 30z m141 -170 c69 -21 137 -65 169 -110 10 -14 20 -47 23 -73 4 -42 2 -47 -12 -41 -10 4 -55 21 -102 38 -81 28 -93 30 -255 30 -149 1 -180 -2 -250 -22 -44 -13 -89 -29 -100 -36 -11 -7 -29 -16 -39 -19 -14 -6 -16 -4 -9 5 6 7 13 36 16 63 4 44 11 55 50 90 50 43 133 81 212 95 75 13 221 4 297 -20z m33 -210 c107 -27 159 -57 163 -94 l4 -29 -27 21 c-126 100 -499 112 -680 23 -33 -17 -61 -29 -62 -27 -1 1 0 12 4 24 9 38 115 81 248 102 85 13 259 3 350 -20z m172 -45 c0 -8 -4 -12 -9 -9 -4 3 -8 9 -8 15 0 5 4 9 8 9 5 0 9 -7 9 -15z m-183 -30 c33 -9 80 -25 105 -37 25 -12 51 -22 57 -21 19 1 3 -36 -24 -57 -17 -14 -40 -20 -76 -20 -46 0 -54 -3 -81 -36 -25 -29 -41 -38 -80 -45 -134 -22 -257 -3 -378 57 -78 39 -107 60 -107 79 0 26 128 78 235 95 82 12 277 4 349 -15z m-603 -68 c-10 -9 -11 -8 -5 6 3 10 9 15 12 12 3 -3 0 -11 -7 -18z m1322 -242 c620 -264 617 -263 617 -281 0 -44 -117 -109 -215 -119 -54 -6 -66 -4 -115 23 -688 368 -950 502 -981 498 -29 -3 -29 -3 -11 14 14 13 30 16 68 13 44 -5 54 -2 83 22 26 23 31 33 26 54 -6 23 -5 24 7 10 7 -9 242 -114 521 -234z m-1259 145 c25 -14 46 -27 46 -30 0 -3 -26 -18 -58 -34 -31 -15 -241 -125 -467 -245 -225 -119 -426 -223 -447 -231 -32 -12 -47 -12 -100 -1 -105 22 -194 77 -186 117 2 12 166 87 568 259 l565 242 16 -26 c9 -15 37 -38 63 -51z m489 -135 c25 -226 49 -526 44 -547 -11 -43 -74 -63 -202 -63 -92 0 -118 4 -157 22 -59 27 -57 6 -23 359 14 142 25 262 25 268 0 7 52 11 154 11 l154 0 5 -50z"/>
    <path d="M2645 3191 c-3 -5 -2 -12 3 -15 5 -3 9 1 9 9 0 17 -3 19 -12 6z"/>
    <path d="M4207 2099 c7 -7 15 -10 18 -7 3 3 -2 9 -12 12 -14 6 -15 5 -6 -5z"/>
  </g>
</svg>
