<svg xmlns="http://www.w3.org/2000/svg" width="800" height="800" preserveAspectRatio="xMidYMid meet" viewBox="0 0 600 600">
  <g fill="#000000" stroke="none" transform="translate(0.000000,600.000000) scale(0.100000,-0.100000)">
    <path d="M2029 4438 c0 -7 0 -623 1 -1368 0 -745 0 -1361 0 -1367 0 -8 13 -13 34 -13 26 0 33 -4 32 -17 0 -10 6 -18 14 -18 9 0 14 7 12 18 -3 16 45 17 888 17 883 0 890 0 890 -20 0 -11 7 -20 15 -20 8 0 15 9 15 19 0 15 8 21 33 23 l32 3 0 1375 0 1375 -982 3 c-783 2 -983 0 -984 -10z m1939 -1370 l2 -1343 -957 0 -958 0 2 1345 c2 740 3 1345 3 1345 0 0 429 -1 953 -2 l952 -2 3 -1343z"/>
    <path d="M2130 3070 l0 -1270 880 0 880 0 0 1270 0 1270 -880 0 -880 0 0 -1270z m1140 1030 l0 -210 -555 0 -555 0 0 210 0 210 555 0 555 0 0 -210z m595 -1030 l0 -1240 -285 0 -285 0 3 1240 2 1240 283 0 282 0 0 -1240z m-595 706 c0 -46 2 -90 3 -98 2 -7 2 -10 0 -5 -3 4 -70 7 -149 7 -116 0 -150 3 -169 16 -23 15 -27 15 -50 0 -32 -21 -161 -22 -201 -1 -25 13 -31 13 -51 0 -26 -17 -198 -21 -208 -5 -3 6 -17 10 -30 10 -13 0 -27 -4 -30 -10 -4 -6 -53 -10 -116 -10 l-109 0 0 90 0 90 555 0 555 0 0 -84z m-846 -102 c3 -8 2 -12 -4 -9 -6 3 -10 10 -10 16 0 14 7 11 14 -7z m256 6 c0 -5 -5 -10 -11 -10 -5 0 -7 5 -4 10 3 6 8 10 11 10 2 0 4 -4 4 -10z m260 0 c0 -5 -5 -10 -11 -10 -5 0 -7 5 -4 10 3 6 8 10 11 10 2 0 4 -4 4 -10z m-545 -10 c-3 -5 -12 -10 -18 -10 -7 0 -6 4 3 10 19 12 23 12 15 0z m320 -8 c-3 -3 -11 0 -18 7 -9 10 -8 11 6 5 10 -3 15 -9 12 -12z m-349 -29 c12 -17 13 -17 19 0 4 9 18 17 31 17 29 0 30 -11 4 -35 -12 -11 -20 -31 -20 -49 0 -25 -11 -43 -50 -81 l-50 -49 2 -391 3 -390 108 0 108 0 -1 395 0 395 -45 45 c-50 51 -56 78 -25 117 11 14 17 29 14 34 -3 5 34 9 81 9 55 0 84 -4 80 -10 -3 -5 1 -10 9 -10 9 0 16 5 16 10 0 6 11 10 25 10 30 0 31 -4 5 -37 -11 -14 -20 -37 -20 -50 0 -13 -18 -48 -40 -77 l-40 -53 2 -304 3 -304 89 -3 c65 -2 92 1 98 10 4 7 8 145 8 306 l0 293 -45 56 c-50 61 -55 83 -24 114 11 11 18 27 15 35 -4 11 10 14 74 14 47 0 80 -4 80 -10 0 -14 27 -13 32 1 2 6 14 9 27 7 l23 -3 -21 -27 c-12 -14 -21 -38 -21 -52 0 -17 -15 -40 -51 -73 l-52 -48 8 -120 c9 -143 10 -116 -16 -395 -11 -124 -22 -236 -22 -250 l-2 -25 139 -3 c77 -1 143 1 148 6 6 6 -2 116 -18 268 -24 234 -25 271 -16 384 l11 125 -49 50 c-53 53 -64 91 -35 115 8 7 15 21 15 31 0 18 10 19 148 19 l147 0 -3 -580 -2 -580 -555 0 -555 0 0 580 0 580 96 0 c81 0 99 -3 110 -17z m356 -176 c19 -26 20 -44 19 -315 l0 -287 -65 -3 -66 -3 0 289 0 289 30 38 c16 20 27 42 23 49 -12 20 39 -28 59 -57z m-232 -397 l1 -375 -80 -3 -81 -3 0 373 0 372 42 43 42 43 38 -37 38 -38 0 -375z m487 408 l42 -43 -11 -120 c-8 -101 -6 -153 11 -335 12 -118 24 -232 27 -252 l6 -38 -116 0 c-114 0 -116 0 -116 23 0 12 9 117 21 232 16 161 19 244 14 353 l-6 142 38 39 c21 21 40 39 43 40 3 0 24 -18 47 -41z m293 -1158 l0 -150 -555 0 -555 0 0 150 0 150 555 0 555 0 0 -150z m0 -330 l0 -150 -555 0 -555 0 0 150 0 150 555 0 555 0 0 -150z"/>
    <path d="M3211 4264 c0 -11 3 -14 6 -6 3 7 2 16 -1 19 -3 4 -6 -2 -5 -13z"/>
    <path d="M2580 4150 c-15 -15 -40 -116 -40 -164 0 -14 -5 -17 -22 -12 -60 17 -91 19 -86 5 16 -48 352 -73 488 -36 69 19 86 29 76 46 -4 6 -20 5 -48 -5 -22 -7 -44 -14 -48 -14 -4 0 -13 37 -20 81 -18 115 -21 117 -165 117 -99 0 -120 -3 -135 -18z m178 -11 c54 12 79 -7 88 -65 l6 -41 -68 -5 c-38 -2 -99 -3 -136 0 -62 4 -68 6 -68 27 0 37 20 84 38 87 9 2 35 0 58 -4 23 -5 58 -5 82 1z m32 -141 c66 8 69 7 73 -14 3 -19 -2 -22 -41 -28 -57 -8 -176 -8 -223 0 -30 5 -35 10 -32 28 4 21 7 22 80 14 41 -4 106 -4 143 0z"/>
    <path d="M2501 4094 c0 -11 3 -14 6 -6 3 7 2 16 -1 19 -3 4 -6 -2 -5 -13z"/>
    <path d="M3370 3160 c0 -269 2 -310 15 -310 13 0 15 41 15 310 0 269 -2 310 -15 310 -13 0 -15 -41 -15 -310z"/>
    <path d="M3091 2964 c0 -11 3 -14 6 -6 3 7 2 16 -1 19 -3 4 -6 -2 -5 -13z"/>
    <path d="M2400 3450 c-9 -6 -10 -10 -3 -10 6 0 15 5 18 10 8 12 4 12 -15 0z"/>
    <path d="M2585 2320 c-15 -24 12 -30 130 -30 120 0 158 9 124 31 -20 12 -246 11 -254 -1z"/>
    <path d="M2585 1990 c-4 -6 -5 -14 -2 -16 2 -3 63 -5 133 -6 103 0 129 2 129 13 0 18 -249 26 -260 9z"/>
  </g>
</svg>
