<svg xmlns="http://www.w3.org/2000/svg" width="800" height="800" preserveAspectRatio="xMidYMid meet" viewBox="0 0 600 600">
  <g fill="#000000" stroke="none" transform="translate(0.000000,600.000000) scale(0.100000,-0.100000)">
    <path d="M2747 4022 c-24 -26 -21 -68 5 -86 15 -11 39 -14 85 -11 l63 4 0 -62 0 -62 -87 -3 c-414 -12 -818 -125 -883 -247 -13 -24 -17 -25 -107 -25 -81 0 -96 -3 -114 -21 -16 -16 -19 -28 -15 -53 l6 -33 -117 -1 c-118 -2 -118 -2 -145 -32 -38 -41 -37 -83 1 -121 l29 -29 176 0 176 0 0 -82 c0 -45 5 -226 10 -402 8 -236 15 -334 26 -370 31 -100 132 -195 228 -216 36 -8 316 -10 946 -8 l895 3 43 23 c66 35 129 98 159 160 27 55 27 58 39 391 7 185 13 373 13 419 l1 82 174 0 c167 0 176 1 201 23 15 13 28 37 31 58 5 30 1 42 -23 69 l-29 32 -117 0 -117 0 0 37 c0 61 -23 74 -124 72 l-85 -2 -37 41 c-21 23 -56 52 -80 66 -145 85 -434 149 -732 161 l-143 6 3 61 3 61 52 -3 c49 -4 90 9 105 32 13 20 8 53 -10 69 -16 15 -49 17 -254 17 -215 0 -236 -2 -251 -18z m490 -28 c3 -8 1 -20 -4 -25 -8 -8 -335 -14 -460 -9 -14 0 -18 32 -6 43 3 4 109 7 235 7 198 0 229 -2 235 -16z m-184 -73 c14 -1 17 -11 17 -58 l0 -58 -72 2 -72 1 3 53 c1 30 4 56 6 59 3 5 69 6 118 1z m247 -157 c127 -8 333 -41 440 -70 114 -30 244 -91 284 -133 l30 -31 -1052 0 c-579 0 -1052 4 -1052 8 0 4 23 23 50 44 206 150 712 221 1300 182z m970 -285 c15 -27 -1 -46 -51 -59 -55 -15 -66 -44 -68 -165 -2 -163 -20 -725 -26 -788 -9 -109 -66 -196 -159 -245 l-51 -27 -915 0 -915 0 -45 23 c-60 32 -107 77 -135 133 -30 58 -33 80 -40 284 -20 593 -26 739 -35 755 -9 17 -34 30 -68 36 -19 3 -42 25 -42 38 0 36 -4 36 1282 36 l1257 0 11 -21z m-2472 -94 c3 -3 9 -30 12 -60 l6 -55 -168 0 c-155 0 -170 2 -188 20 -11 11 -20 27 -20 36 0 24 19 54 40 62 22 8 310 6 318 -3z m2745 -16 c21 -26 16 -66 -10 -86 -12 -9 -66 -13 -186 -13 l-169 0 3 43 c3 55 8 67 30 75 10 4 84 6 166 5 140 -2 149 -3 166 -24z"/>
    <path d="M4102 3255 c0 -16 2 -22 5 -12 2 9 2 23 0 30 -3 6 -5 -1 -5 -18z"/>
    <path d="M4091 2784 c0 -11 3 -14 6 -6 3 7 2 16 -1 19 -3 4 -6 -2 -5 -13z"/>
  </g>
</svg>
