<svg xmlns="http://www.w3.org/2000/svg" viewBox="0 0 1200 1200">
<g fill="currentColor" transform="translate(0 1200) scale(.1 -.1)">
<path d="M4160 8865 c-228 -36 -416 -138 -582 -314 -97 -103 -161 -207 -213
-343 -21 -54 -41 -96 -45 -93 -4 3 -11 17 -14 32 -16 63 -115 209 -192 282
-148 141 -374 223 -568 206 -92 -8 -129 -21 -169 -59 -19 -18 -39 -26 -63 -26
-31 0 -35 -3 -32 -22 3 -25 18 -31 124 -49 53 -9 76 -9 92 0 11 6 32 11 46 11
31 0 43 17 17 25 -11 3 -25 13 -33 22 -12 15 -3 16 97 11 169 -9 295 -62 427
-178 77 -67 217 -277 218 -324 0 -49 23 -107 47 -123 21 -14 25 -14 42 1 10 9
21 36 24 60 22 161 172 438 297 549 171 151 342 229 534 243 113 8 147 31 113
75 -18 24 -73 28 -167 14z"/>
<path d="M6190 8564 c-63 -30 -146 -69 -185 -86 -38 -17 -126 -57 -194 -89
-67 -33 -124 -59 -126 -59 -2 0 -47 -21 -102 -46 -54 -25 -161 -75 -238 -111
-77 -36 -156 -73 -175 -83 -44 -23 -119 -55 -146 -64 -37 -11 -57 -41 -49 -75
10 -46 35 -54 146 -48 68 3 101 1 106 -7 4 -6 6 -114 3 -241 l-5 -229 -75 -27
c-185 -68 -258 -96 -620 -242 -212 -85 -569 -229 -795 -320 -225 -91 -459
-186 -518 -211 -59 -25 -152 -62 -205 -82 -53 -20 -117 -45 -142 -56 -25 -11
-60 -27 -77 -35 -70 -30 -76 -115 -10 -144 43 -19 44 -35 6 -92 -40 -61 -48
-122 -20 -157 18 -23 26 -25 90 -23 l70 3 3 -563 c2 -309 1 -568 -1 -574 -5
-20 -17 -7 -51 51 -38 68 -116 155 -147 167 -57 21 -85 -39 -59 -124 14 -46
13 -49 -11 -93 -23 -42 -25 -53 -20 -127 3 -45 13 -104 22 -130 24 -69 16 -83
-33 -58 -97 50 -172 48 -172 -3 0 -28 35 -122 55 -149 13 -18 14 -18 39 0 27
19 32 43 16 74 -16 28 7 25 76 -12 63 -32 158 -118 204 -184 42 -61 69 -112
63 -119 -4 -3 -27 -6 -51 -6 -43 0 -49 4 -117 73 -40 39 -79 83 -88 96 -15 22
-18 23 -47 11 -44 -18 -36 -39 52 -134 15 -16 25 -33 21 -39 -3 -5 -42 -6 -95
-2 -63 4 -94 3 -104 -6 -20 -16 -21 -381 -1 -398 10 -8 337 -11 1168 -11 635
0 1160 0 1167 0 13 0 17 57 4 77 -6 10 -249 13 -1138 15 l-1129 3 0 115 0 115
1136 3 1136 2 6 37 c4 20 4 40 0 46 -3 5 -40 7 -82 5 l-76 -3 -2 740 c-2 574
-5 745 -15 763 -27 51 -33 52 -520 52 -497 0 -481 2 -513 -60 -13 -26 -15
-126 -15 -756 1 -400 -2 -729 -5 -732 -2 -3 -71 -5 -152 -5 l-148 1 -5 907
c-3 499 -2 911 1 916 3 5 348 10 840 10 l834 1 2 -608 c1 -335 2 -615 2 -621
1 -8 15 -13 36 -13 29 0 37 5 46 28 8 19 10 284 8 885 l-4 858 1275 0 1275 0
2 -871 c2 -644 5 -876 14 -886 15 -18 53 -18 68 0 9 11 11 169 9 620 -2 333
-1 606 2 606 3 0 379 0 835 1 l830 0 0 -916 0 -916 -150 -2 -150 -2 -5 747 -5
748 -28 27 -27 28 -470 0 -470 0 -27 -28 -28 -27 -2 -742 c-2 -407 -5 -743 -8
-746 -3 -3 -40 -6 -83 -6 l-77 -1 0 -40 0 -40 1140 -5 1140 -5 0 -115 0 -115
-1138 -3 -1138 -2 3 -45 3 -46 1165 1 c1136 0 1165 0 1181 19 13 16 15 46 13
197 -4 213 1 206 -114 197 -118 -9 -122 -4 -57 70 30 34 70 90 88 125 99 184
103 197 72 227 -21 22 -61 16 -138 -20 -32 -14 -62 -22 -66 -18 -4 4 2 35 13
68 17 48 21 85 22 187 1 84 -3 131 -11 139 -7 7 -9 30 -6 64 5 45 2 56 -16 74
-16 16 -29 20 -44 15 -35 -10 -112 -91 -152 -160 -21 -35 -42 -64 -46 -64 -5
0 -8 247 -7 568 l3 567 55 0 c70 0 99 11 104 38 12 57 17 247 7 265 -10 19
-29 20 -1108 21 -604 1 -1102 6 -1106 10 -4 4 -6 50 -5 102 l3 94 128 1 c138
2 167 12 167 58 0 29 -9 39 -60 68 -70 39 -226 129 -325 188 -49 29 -107 61
-127 72 l-38 18 0 180 c0 103 4 181 10 185 5 3 17 1 27 -4 21 -12 -38 12 678
-276 319 -129 804 -324 1078 -434 426 -172 506 -201 550 -201 63 0 87 12 71
36 -5 10 -91 50 -190 89 -98 40 -359 146 -579 235 -515 208 -1206 484 -1360
543 -66 24 -156 59 -200 75 l-80 30 0 239 0 238 106 -4 c98 -3 108 -2 128 18
26 26 27 62 4 84 -10 8 -49 27 -88 42 -38 15 -81 34 -95 42 -14 8 -79 40 -145
72 -115 55 -154 74 -290 136 -119 54 -181 83 -255 118 -41 19 -147 67 -235
107 -88 39 -173 78 -189 86 -48 23 -85 16 -206 -42z m286 -100 c66 -31 162
-75 214 -99 52 -23 120 -54 150 -68 236 -111 359 -164 623 -271 15 -6 26 -15
24 -20 -3 -10 -2286 -12 -2289 -1 -2 4 33 22 77 40 44 18 150 64 235 102 167
75 166 75 555 253 143 65 267 119 276 119 9 1 70 -24 135 -55z m882 -999 c1
-271 -1 -435 -7 -435 -6 0 -26 10 -46 21 l-36 22 -932 -2 c-907 -2 -932 -2
-965 -21 -18 -11 -39 -20 -45 -20 -9 0 -11 104 -10 437 2 241 3 438 3 438 0 0
458 -1 1017 -2 l1018 -3 3 -435z m-2127 -310 c-1 -129 -5 -182 -14 -188 -37
-23 -278 -163 -377 -218 -165 -92 -190 -124 -133 -168 27 -22 26 -22 188 -5
82 8 87 2 83 -122 l-3 -99 -27 1 c-16 0 -498 1 -1073 2 -898 2 -1044 4 -1039
16 3 8 60 35 127 60 179 66 255 96 1012 401 380 153 713 286 740 297 158 62
331 132 410 167 50 22 94 39 99 37 5 -1 8 -83 7 -181z m2102 -214 c73 -44 335
-194 357 -204 34 -15 114 -65 117 -73 2 -5 -641 -9 -1472 -9 -811 0 -1475 3
-1475 6 0 4 24 19 53 34 96 50 181 98 326 183 79 46 156 89 171 95 20 9 267
11 944 9 l917 -3 62 -38z m-2358 -737 l0 -79 -1065 0 -1065 0 -6 70 c-3 39 -3
72 -1 75 3 4 2084 18 2127 14 6 0 10 -34 10 -80z m4860 -4 l0 -75 -1065 0
-1065 0 -3 64 c-2 35 -1 70 2 77 5 12 180 14 1068 12 l1063 -3 0 -75z m-6623
-1085 l3 -920 -84 -3 c-46 -2 -88 1 -93 6 -6 6 4 28 23 56 36 55 69 135 69
171 0 32 -20 76 -32 69 -10 -6 -21 -30 -48 -103 -30 -84 -40 -64 -40 80 l0
132 46 53 c25 30 50 54 55 54 5 0 9 -24 10 -52 1 -40 3 -47 8 -28 10 31 2 89
-15 114 -7 10 -10 25 -7 32 9 25 -22 15 -52 -16 -15 -16 -31 -27 -35 -25 -5 3
-5 418 0 1303 0 1 43 1 95 0 l95 -3 2 -920z m6440 920 c11 -4 13 -122 13 -652
-1 -445 -4 -648 -11 -650 -6 -2 -31 15 -55 37 -48 43 -55 46 -81 26 -14 -10
-17 -28 -14 -113 2 -102 14 -137 41 -127 23 9 25 33 10 121 -8 47 -15 87 -15
89 0 2 7 4 15 4 9 0 15 -9 15 -21 0 -16 5 -20 20 -16 11 3 23 1 26 -4 3 -5 0
-9 -5 -9 -18 0 -13 -15 27 -73 l37 -55 -1 -128 c-1 -71 -4 -128 -8 -127 -3 1
-10 3 -15 5 -12 4 -61 115 -61 138 0 11 -4 20 -10 20 -5 0 -10 -9 -10 -20 0
-11 -7 -23 -15 -26 -16 -7 -20 -34 -7 -50 4 -5 14 -27 21 -49 8 -22 26 -58 42
-80 51 -75 47 -80 -56 -80 l-90 0 0 915 c0 503 1 918 3 923 4 8 163 10 184 2z
m-5554 -1107 l-3 -731 -198 0 -198 0 1 723 c0 398 3 727 6 732 3 4 93 8 200 8
l194 0 -2 -732z m481 715 c11 -22 15 -1443 4 -1443 -4 0 -93 -1 -198 -3 l-190
-2 -5 725 c-3 399 -4 728 -2 733 2 4 88 7 192 7 170 0 190 -2 199 -17z m3915
-714 l-2 -731 -197 -1 -197 -1 1 723 c1 398 4 727 7 732 3 5 92 9 197 9 l192
0 -1 -731z m481 -2 l0 -728 -185 -1 c-102 0 -189 0 -195 1 -7 1 -9 248 -8 724
1 397 2 725 2 730 1 4 88 6 194 5 l192 -3 0 -728z m-6122 -81 c62 -125 73
-172 83 -373 7 -151 2 -160 -49 -87 -17 25 -42 58 -55 73 -50 57 -85 150 -103
279 -12 87 -9 238 6 262 13 21 65 -47 118 -154z m7103 132 c10 -30 6 -176 -8
-253 -21 -122 -59 -222 -105 -272 -23 -27 -50 -63 -58 -80 -9 -18 -22 -33 -29
-33 -10 0 -11 32 -8 143 6 214 37 319 135 460 43 61 61 70 73 35z m-416 -260
c0 -7 -5 -20 -10 -28 -8 -12 -10 -9 -10 13 0 15 5 27 10 27 6 0 10 -6 10 -12z
m570 -203 c0 -42 -105 -189 -193 -272 -48 -45 -62 -53 -95 -53 -21 0 -41 3
-45 6 -9 9 51 116 94 169 46 56 83 87 155 130 63 38 84 43 84 20z"/>
<path d="M5679 7736 c-20 -14 -42 -40 -48 -57 -16 -46 -15 -441 1 -457 16 -16
254 -17 264 -1 12 20 11 422 -2 454 -20 53 -58 78 -122 83 -48 3 -62 -1 -93
-22z m120 -73 c21 -17 22 -24 19 -193 l-3 -175 -54 0 -54 0 2 175 c2 164 3
176 22 193 12 9 27 17 34 17 7 0 22 -8 34 -17z"/>
<path d="M6263 7740 c-59 -35 -63 -56 -63 -293 0 -171 3 -217 14 -226 9 -8 55
-11 137 -9 l124 3 3 228 c2 218 1 230 -19 258 -42 59 -133 78 -196 39z m116
-83 c21 -23 21 -31 19 -193 l-3 -169 -55 0 -55 0 -2 155 c-1 185 2 209 30 220
34 13 42 12 66 -13z"/>
<path d="M6845 7741 c-64 -38 -66 -49 -65 -293 0 -121 3 -225 6 -229 8 -14
248 -11 262 3 9 9 12 73 12 225 0 237 -4 258 -63 293 -41 26 -112 26 -152 1z
m104 -78 c20 -17 21 -29 24 -193 l2 -175 -55 0 -55 0 0 177 c0 165 1 178 20
192 26 20 38 20 64 -1z"/>
<path d="M2635 8434 c-16 -13 -27 -25 -25 -27 3 -2 37 -24 75 -48 92 -57 204
-149 293 -243 72 -76 99 -89 122 -61 20 25 -3 58 -125 180 -111 111 -224 198
-280 214 -25 7 -36 4 -60 -15z"/>
<path d="M4075 8269 c-158 -23 -373 -120 -515 -231 -68 -54 -79 -90 -36 -109
21 -10 32 -5 97 45 80 61 234 144 314 169 83 26 212 47 295 47 84 0 218 -24
262 -46 57 -29 106 -8 94 39 -16 66 -309 115 -511 86z"/>
<path d="M2584 7995 c-274 -70 -487 -231 -616 -465 -39 -72 -61 -137 -54 -164
10 -42 41 -42 109 2 164 104 431 229 607 282 158 48 262 86 333 122 49 24 132
22 132 -4 0 -24 10 -31 23 -15 9 10 7 19 -10 37 -21 22 -25 23 -142 16 -222
-12 -494 -99 -762 -242 -77 -41 -142 -74 -146 -74 -29 0 47 113 129 191 240
231 602 317 885 209 67 -25 94 -25 108 0 16 31 -3 56 -57 74 -188 61 -381 72
-539 31z"/>
<path d="M3710 7895 c-8 -2 -59 -11 -113 -20 -103 -19 -130 -36 -120 -75 8
-29 37 -33 101 -13 46 15 89 18 227 18 159 -1 175 -3 250 -29 135 -47 213 -93
293 -174 80 -80 109 -89 126 -41 11 34 -8 61 -101 141 -112 97 -273 168 -423
188 -70 9 -205 12 -240 5z"/>
<path d="M3456 7684 c-26 -25 -19 -39 39 -83 104 -79 191 -204 240 -347 10
-29 18 -90 21 -147 3 -104 12 -127 49 -127 41 0 48 22 42 128 -13 216 -117
414 -290 553 -53 42 -77 48 -101 23z"/>
<path d="M3011 7655 c-101 -58 -238 -178 -308 -270 -81 -107 -147 -276 -159
-407 -7 -86 1 -108 42 -108 31 0 40 21 49 110 9 88 48 205 96 287 53 90 209
241 307 297 64 37 82 53 82 70 0 51 -42 59 -109 21z"/>
<path d="M3236 7617 c-21 -32 -122 -312 -156 -435 -28 -98 -80 -353 -95 -466
-8 -61 5 -72 55 -46 l37 19 22 143 c35 222 137 587 202 722 17 36 18 42 4 63
-20 29 -50 30 -69 0z"/>
<path d="M6250 6259 c-246 -20 -449 -121 -552 -271 -68 -101 -75 -139 -79
-439 -4 -293 -6 -289 60 -248 l34 21 -6 217 c-3 119 -1 224 3 232 7 12 35 14
160 13 83 -1 154 -4 157 -7 3 -4 5 -85 4 -182 -2 -169 -1 -175 18 -175 11 0
32 5 46 10 l27 10 -3 168 -4 167 215 5 c118 3 219 2 224 -2 5 -4 8 -81 7 -172
-2 -155 -1 -165 18 -175 11 -6 31 -11 45 -11 l26 0 0 180 c0 99 3 180 8 180 4
0 73 1 154 2 81 1 151 -1 154 -5 4 -4 7 -107 5 -230 -1 -122 2 -226 6 -232 12
-15 71 -44 77 -37 3 3 6 120 6 261 0 271 -6 314 -50 401 -111 217 -421 347
-760 319z m246 -100 c87 -15 174 -44 245 -79 91 -47 199 -154 199 -200 0 -7
-188 -10 -600 -10 -497 0 -600 2 -600 13 0 17 48 83 86 119 71 66 220 133 349
157 71 13 250 13 321 0z"/>
<path d="M6200 5330 c-121 -13 -198 -29 -307 -65 -438 -146 -771 -489 -909
-935 -128 -416 -26 -933 254 -1275 204 -250 497 -430 817 -501 39 -9 144 -18
240 -21 145 -4 187 -2 286 16 402 72 757 315 967 662 170 279 237 627 182 949
-58 348 -236 653 -505 869 -285 228 -657 337 -1025 301z m435 -130 c453 -102
804 -426 953 -880 170 -517 -21 -1098 -470 -1431 -466 -346 -1103 -343 -1566
6 -269 202 -441 483 -504 820 -28 149 -21 363 16 510 75 304 252 572 496 753
151 112 361 204 531 232 41 6 81 13 89 15 8 2 92 2 185 1 132 -2 192 -8 270
-26z"/>
<path d="M6300 4850 c-11 -11 -20 -25 -20 -32 0 -6 -42 -117 -94 -247 -52
-130 -104 -262 -116 -293 -20 -54 -24 -58 -53 -59 -18 0 -59 -2 -92 -5 -33 -2
-171 -11 -308 -19 -136 -8 -252 -17 -257 -20 -6 -3 -10 -17 -10 -30 0 -19 26
-45 118 -118 64 -52 127 -103 139 -113 12 -11 61 -50 110 -89 48 -38 102 -84
120 -101 l32 -31 -23 -74 c-13 -41 -45 -148 -71 -239 -26 -91 -56 -193 -67
-227 -44 -140 -7 -156 139 -60 54 35 158 101 231 146 92 58 132 89 132 102 0
18 -36 59 -52 59 -4 0 -80 -48 -168 -107 -98 -64 -165 -102 -170 -97 -6 6 2
43 20 94 16 47 48 150 70 230 22 80 45 156 51 169 19 45 25 39 -272 271 -52
41 -107 84 -122 95 -15 11 -27 25 -27 31 0 13 10 13 370 34 151 9 188 14 201
28 9 9 31 55 49 102 18 47 39 99 46 115 7 17 29 75 49 130 20 55 42 116 50
135 22 60 42 45 79 -60 58 -160 157 -414 168 -427 6 -8 35 -13 72 -13 33 -1
94 -5 135 -9 82 -10 97 -7 112 20 11 22 -2 53 -27 63 -9 3 -63 9 -120 13
l-103 6 -16 33 c-8 17 -15 35 -15 38 0 3 -32 85 -71 183 -39 98 -87 221 -105
273 -43 120 -70 144 -114 100z"/>
<path d="M7169 4226 c-550 -454 -763 -632 -794 -664 -16 -17 -33 -32 -37 -32
-3 0 -48 48 -99 108 -104 121 -116 132 -141 132 -24 0 -58 -35 -58 -60 0 -22
252 -311 281 -322 15 -6 38 9 102 65 45 40 88 78 95 85 43 40 658 544 717 587
54 39 65 54 65 86 0 29 -31 59 -61 59 -9 0 -41 -20 -70 -44z"/>
<path d="M6747 3632 c-10 -10 -17 -29 -17 -43 0 -22 57 -216 94 -319 32 -91
18 -100 -62 -40 -29 22 -98 70 -153 106 -95 63 -101 65 -123 51 -29 -19 -39
-53 -21 -70 8 -6 57 -39 110 -72 53 -33 149 -95 213 -137 123 -82 162 -95 182
-58 7 14 6 29 -4 57 -8 21 -26 76 -40 123 -13 47 -43 147 -65 224 -23 76 -41
146 -41 155 0 40 -45 54 -73 23z"/>
</g>
</svg>
