<svg xmlns="http://www.w3.org/2000/svg" width="800" height="800" preserveAspectRatio="xMidYMid meet" viewBox="0 0 600 600">
  <g fill="#000000" stroke="none" transform="translate(0.000000,600.000000) scale(0.100000,-0.100000)">
    <path d="M2978 4402 l-1107 -2 -20 -26 c-21 -27 -21 -27 -21 -1350 l0 -1323 22 -21 c22 -20 28 -20 1150 -20 l1129 0 25 25 24 24 -2 1325 c-3 1262 -4 1325 -21 1344 -10 11 -30 22 -45 23 -15 2 -525 3 -1134 1z m1156 -54 c13 -19 16 -59 16 -240 l0 -218 -1145 0 -1145 0 0 221 c0 133 4 228 10 240 10 19 34 19 1130 19 l1119 0 15 -22z m-1461 -536 c36 -99 10 -92 327 -92 318 0 300 -5 333 89 l18 51 399 0 400 0 0 -940 0 -940 -1145 0 -1145 0 0 940 0 940 398 0 398 0 17 -48z m624 -4 l-23 -53 -255 -3 c-140 -1 -263 0 -275 2 -13 4 -25 19 -33 43 -7 21 -15 44 -17 51 -5 9 61 12 310 12 l316 0 -23 -52z m853 -1972 c0 -91 -3 -118 -16 -130 -14 -14 -130 -16 -1125 -16 -746 0 -1117 3 -1130 10 -17 10 -19 22 -19 130 l0 120 1145 0 1145 0 0 -114z"/>
    <path d="M2035 4231 c-3 -5 -2 -12 3 -15 5 -3 9 1 9 9 0 17 -3 19 -12 6z"/>
    <path d="M2463 4225 c0 -8 4 -12 9 -9 5 3 6 10 3 15 -9 13 -12 11 -12 -6z"/>
    <path d="M2952 4228 c-13 -13 -17 -163 -6 -192 5 -14 40 -16 284 -16 244 0 279 2 284 16 11 29 7 179 -6 192 -17 17 -539 17 -556 0z m532 -101 l1 -77 -257 0 -258 0 0 79 0 78 256 -1 257 -1 1 -78z"/>
    <path d="M2060 4192 c-40 -41 -41 -83 -1 -123 20 -20 39 -29 61 -29 41 0 90 47 90 87 0 41 -38 82 -82 90 -32 5 -41 1 -68 -25z m108 -29 c16 -22 15 -44 -4 -71 -31 -44 -104 -16 -104 40 0 10 9 27 21 39 24 24 65 20 87 -8z"/>
    <path d="M2309 4191 c-20 -20 -29 -39 -29 -61 0 -22 9 -41 29 -61 60 -60 151 -20 151 67 0 37 -51 84 -90 84 -22 0 -41 -9 -61 -29z m109 -29 c16 -21 15 -43 -4 -70 -35 -50 -115 -8 -100 53 11 44 74 54 104 17z"/>
    <path d="M3667 4159 c-24 -14 -22 -56 3 -64 25 -8 50 10 50 36 0 24 -30 40 -53 28z"/>
    <path d="M3785 4140 c-8 -27 12 -52 39 -48 16 2 21 10 21 33 0 25 -4 31 -27 33 -19 2 -28 -2 -33 -18z m45 -10 c0 -5 -4 -10 -10 -10 -5 0 -10 5 -10 10 0 6 5 10 10 10 6 0 10 -4 10 -10z"/>
    <path d="M3921 4142 c-20 -38 31 -71 59 -37 6 8 9 23 5 35 -8 25 -51 27 -64 2z m39 -14 c0 -4 -4 -8 -9 -8 -6 0 -12 4 -15 8 -3 5 1 9 9 9 8 0 15 -4 15 -9z"/>
    <path d="M2460 4010 c-9 -6 -10 -10 -3 -10 6 0 15 5 18 10 8 12 4 12 -15 0z"/>
  </g>
</svg>
