<svg xmlns="http://www.w3.org/2000/svg" viewBox="0 0 600 600">
<g transform="scale(.4784689)" fill="currentColor" stroke="none">
<path d="M585.342041,990.211182 
	C585.161621,982.619080 584.879761,982.090088 577.962036,981.352112 
	C547.859680,978.140503 518.443420,971.830444 490.323883,960.567139 
	C477.264862,955.336243 464.430756,949.214050 452.269379,942.160339 
	C438.804840,934.350708 425.653748,925.738892 413.450195,916.103516 
	C404.394196,908.953247 396.231445,900.254395 389.185242,891.081970 
	C380.415436,879.666016 371.915039,867.672058 365.716736,854.766235 
	C360.516205,843.938049 357.746185,831.609314 355.835663,819.636108 
	C354.206726,809.427429 354.203339,798.641357 355.459656,788.352234 
	C358.738922,761.495361 379.910461,740.056152 406.986481,736.236206 
	C425.859680,733.573547 442.727081,737.793335 457.283569,750.159790 
	C463.929321,755.805481 468.673615,762.930115 472.502838,770.851196 
	C477.766052,781.738586 478.407806,793.362610 478.309204,804.925415 
	C478.060242,834.118103 491.292664,856.511658 513.213562,874.013306 
	C532.461060,889.380615 555.001831,898.125977 579.276428,902.279907 
	C584.243103,903.129822 585.282288,902.083679 585.283569,896.093628 
	C585.297668,828.763184 585.290894,761.432800 585.292480,694.102356 
	C585.292664,686.269348 585.372925,678.435730 585.298645,670.603516 
	C585.234741,663.877380 584.156799,663.248352 577.732544,661.133545 
	C568.280151,658.021973 558.943420,654.488953 549.754639,650.661865 
	C531.962402,643.251709 514.096741,635.958801 496.672455,627.745361 
	C485.652008,622.550659 475.241638,615.998840 464.794006,609.665771 
	C446.268311,598.436218 429.341522,585.159241 414.333862,569.453613 
	C397.426819,551.760254 384.735657,531.501526 376.722595,508.384369 
	C368.617432,485.001617 365.881134,460.875000 366.997162,436.210846 
	C368.095215,411.943787 372.517426,388.380615 381.079590,365.610901 
	C391.106262,338.946472 406.153931,315.575317 426.246246,295.346313 
	C453.029297,268.381012 485.366058,251.406143 521.526306,240.731064 
	C540.750488,235.055771 560.264282,231.414444 580.144897,229.485291 
	C585.185303,228.996170 585.275635,225.549194 585.282776,221.955093 
	C585.319641,203.289261 585.379639,184.622818 585.269043,165.957565 
	C585.209961,155.987228 588.742615,147.437698 595.033142,139.960007 
	C605.522644,127.490860 619.367676,123.422058 634.913635,125.715599 
	C657.640625,129.068573 671.395752,145.558563 671.391846,168.572250 
	C671.388611,187.231491 671.194946,205.891083 670.998047,224.549591 
	C670.963867,227.790314 672.139648,229.397064 675.482239,229.820557 
	C683.402283,230.824051 691.371887,231.696091 699.171448,233.335022 
	C713.467529,236.339020 727.807068,239.320084 741.855530,243.279236 
	C767.713989,250.566681 792.219910,261.134094 814.532654,276.301361 
	C839.490356,293.266541 859.184143,314.744293 867.858459,344.219055 
	C873.841064,364.547852 874.731079,385.332855 864.917480,405.101471 
	C855.668762,423.732178 840.198975,434.291321 819.759521,436.814117 
	C811.613159,437.819580 802.894409,437.976807 794.996887,436.126709 
	C787.336670,434.332214 779.742920,430.384247 773.266602,425.771973 
	C756.928528,414.136292 749.752869,397.329193 749.533020,377.580261 
	C749.415283,367.003632 745.159729,358.199707 739.053467,350.147583 
	C730.728455,339.169800 719.718140,331.240692 707.222595,325.916504 
	C697.666870,321.844940 687.449524,319.285370 677.447693,316.318909 
	C672.652161,314.896545 671.487061,315.910187 671.460266,321.109772 
	C671.373413,337.941956 671.414001,354.774841 671.416443,371.607452 
	C671.424011,422.438690 671.483459,473.269989 671.371643,524.100952 
	C671.360962,528.967957 672.633240,531.127380 677.778870,532.754883 
	C717.319824,545.261292 755.974060,559.961304 791.774475,581.316406 
	C810.132874,592.267212 827.167053,604.989441 842.008911,620.348694 
	C855.292969,634.095642 866.533630,649.441345 875.421692,666.505920 
	C892.685059,699.651001 897.447205,735.196533 895.286743,771.832520 
	C893.701111,798.720764 887.417480,824.800598 876.148926,849.329651 
	C867.401184,868.371216 857.130249,886.764893 842.126404,901.713745 
	C830.393005,913.404236 818.735596,925.646118 805.171875,934.897583 
	C790.069824,945.198242 773.143677,953.027405 756.473450,960.774536 
	C735.828918,970.368774 713.544250,974.854919 691.258850,978.947021 
	C686.687012,979.786499 682.032104,980.626099 677.413513,980.637146 
	C672.377014,980.649231 671.320496,982.929382 671.348511,987.400940 
	C671.496948,1011.065552 671.009766,1034.740967 671.541382,1058.394653 
	C672.149353,1085.449463 649.155762,1105.048584 621.068542,1101.237793 
	C599.735840,1098.343384 584.567383,1080.181152 585.200928,1059.171265 
	C585.888794,1036.361694 585.348145,1013.515137 585.342041,990.211182 
M595.721680,1082.212158 
	C596.779297,1083.811523 597.633728,1085.601318 598.926941,1086.979736 
	C608.559875,1097.247925 620.355835,1100.246704 634.245789,1098.805298 
	C653.876953,1096.768066 668.979004,1078.795044 668.997009,1059.542358 
	C669.008362,1047.375732 669.022766,1035.209106 669.020386,1023.042480 
	C669.018311,1012.375977 669.447632,1001.684143 668.851196,991.050293 
	C668.270020,980.688232 668.237915,980.232483 677.778809,978.224243 
	C686.056213,976.481934 694.582520,976.789307 702.739929,973.341003 
	C709.020813,970.685913 716.507080,971.048340 723.150879,969.050293 
	C736.040161,965.173828 748.875916,961.002441 761.436462,956.178894 
	C777.491882,950.013245 792.201599,941.159302 805.780823,930.669189 
	C816.233521,922.594299 826.070129,913.721375 836.158142,905.176636 
	C836.645142,904.764038 836.879883,904.067383 837.292114,903.550903 
	C841.000305,898.905029 844.888550,894.392029 848.402100,889.603882 
	C854.119751,881.811890 860.555664,874.329102 864.880798,865.799194 
	C868.617981,858.428955 873.585266,851.683777 875.499146,843.077881 
	C877.649170,833.410645 883.006470,824.500183 885.810242,814.921570 
	C888.127014,807.006531 888.920044,798.621094 890.093689,790.402039 
	C891.555481,780.164795 894.226257,769.802246 893.673767,759.640625 
	C892.680359,741.368164 889.836975,723.183533 887.403870,705.010681 
	C886.740234,700.054321 885.153809,695.124939 883.314758,690.449158 
	C881.420410,685.632690 878.680542,681.150940 876.347534,676.504211 
	C873.080811,669.997681 870.383606,663.130127 866.472229,657.040466 
	C860.985168,648.497437 854.652588,640.492676 848.564514,632.345154 
	C847.504333,630.926453 845.751953,630.047363 844.515198,628.734497 
	C839.583740,623.499268 835.085144,617.795227 829.756470,613.010681 
	C823.129517,607.060303 815.996460,601.633972 808.797302,596.370728 
	C800.146057,590.045898 791.593201,583.416626 782.271851,578.221619 
	C770.982727,571.929993 759.017639,566.813599 747.185730,561.546509 
	C738.931335,557.871948 730.425964,554.755554 721.996155,551.483948 
	C719.549805,550.534485 716.904907,550.087585 714.478699,549.097351 
	C709.872925,547.217529 705.467163,544.801697 700.781860,543.173523 
	C693.989624,540.813171 687.031982,538.923706 680.126343,536.896484 
	C677.415161,536.100525 674.662354,535.439941 671.913208,534.781433 
	C669.195068,534.130371 667.379517,533.064392 668.188538,529.676880 
	C668.758545,527.290283 668.990295,524.769409 668.991699,522.308289 
	C669.028381,458.141693 669.025085,393.975128 668.980408,329.808563 
	C668.978271,326.676605 668.615540,323.536926 668.286987,320.414948 
	C667.687805,314.722504 669.835449,311.867828 674.987610,313.152740 
	C685.049683,315.662048 694.920776,318.937622 704.870911,321.895874 
	C706.725647,322.447327 708.866089,322.581085 710.386292,323.621277 
	C717.240173,328.310791 723.849609,333.356232 730.675476,338.088196 
	C741.519226,345.605499 747.577576,356.443207 750.895752,368.677948 
	C753.573975,378.552887 752.412842,388.972351 756.493408,399.042328 
	C759.950439,407.573608 764.621765,414.171448 771.271179,419.944489 
	C773.707031,422.059235 775.624878,424.976013 778.352234,426.503479 
	C782.984619,429.097839 787.892578,431.773285 793.008606,432.798492 
	C800.947815,434.389496 809.222412,435.622253 817.234314,435.112518 
	C823.455872,434.716766 830.173584,433.944580 835.666687,429.430450 
	C839.720642,426.098907 844.792297,424.034760 849.042664,420.906128 
	C854.859497,416.624420 858.355286,410.563782 861.869934,404.237762 
	C866.680359,395.579437 869.422974,386.541565 869.854858,376.903870 
	C870.103149,371.363586 868.365723,365.764587 868.103210,360.164825 
	C867.565369,348.689514 864.184937,338.009979 858.596741,328.220581 
	C854.718384,321.426422 849.477173,315.400330 844.741821,309.108673 
	C841.381042,304.643463 838.689636,298.315063 834.182129,296.411743 
	C828.371155,293.958069 827.771057,287.623230 822.724182,285.404022 
	C822.573547,285.337830 822.444397,285.223816 822.303101,285.135559 
	C812.844788,279.230286 803.564575,273.010223 793.869629,267.523132 
	C786.508240,263.356781 778.657227,260.039093 770.940247,256.528076 
	C768.744019,255.528900 765.959229,255.662094 763.948059,254.444214 
	C752.603516,247.574539 739.549500,245.702881 727.245483,241.696503 
	C721.358582,239.779617 715.113586,238.888397 708.981323,237.814987 
	C697.273987,235.765762 685.545715,233.823914 673.795715,232.037552 
	C669.470032,231.379929 667.770874,229.515106 668.437805,225.166672 
	C668.662903,223.699112 668.991333,222.222549 668.994324,220.749542 
	C669.032288,202.249649 669.166870,183.748077 668.972595,165.250153 
	C668.815002,150.248398 660.345520,139.288162 648.285706,132.706161 
	C635.539490,125.749535 621.481323,125.689255 607.699646,132.747604 
	C597.360229,138.043015 591.756714,146.496765 589.179382,157.001404 
	C587.705444,163.008835 588.080505,169.524460 588.025635,175.814804 
	C587.887512,191.646927 588.001038,207.481079 587.966492,223.314331 
	C587.949951,230.898773 586.220032,231.490158 578.769409,232.432480 
	C572.329895,233.246918 565.185791,231.767471 559.371643,236.471954 
	C558.365967,237.285690 556.183411,236.733887 554.551636,236.658569 
	C553.081787,236.590729 551.532776,235.898911 550.171997,236.192642 
	C541.783142,238.003571 533.400696,239.874008 525.099487,242.043671 
	C522.467834,242.731506 520.181030,244.652542 517.579590,245.559906 
	C512.171936,247.446136 506.484741,248.616760 501.227051,250.829178 
	C490.833496,255.202759 480.598267,259.968231 470.420166,264.828430 
	C467.466766,266.238739 464.971436,268.585358 462.193115,270.390442 
	C457.558899,273.401367 452.618713,276.000824 448.258057,279.358826 
	C442.382141,283.883728 436.893494,288.917847 431.309692,293.814453 
	C419.248749,304.391052 409.715637,317.145569 401.440063,330.687378 
	C395.329376,340.686615 390.130402,351.351959 385.589233,362.167328 
	C381.860413,371.048035 379.492279,380.529266 376.903351,389.850525 
	C374.649689,397.964844 372.026855,406.135406 371.178802,414.445557 
	C369.766418,428.285828 369.259125,442.254089 369.131195,456.175476 
	C369.062592,463.640533 368.423737,471.551453 373.425568,478.194031 
	C373.771759,478.653778 373.687531,479.447205 373.777039,480.089111 
	C374.650482,486.352112 375.282806,492.661316 376.479004,498.861816 
	C377.159821,502.390839 378.730804,505.752808 379.951447,509.171936 
	C382.140961,515.304810 383.483215,521.956787 386.776489,527.431152 
	C392.506744,536.956543 399.574585,545.667358 405.857971,554.872253 
	C416.150482,569.950378 430.131073,581.227417 444.404724,592.090637 
	C453.077484,598.691223 462.420227,604.431519 471.613647,610.321594 
	C479.172577,615.164490 486.679443,620.216064 494.700928,624.180725 
	C507.718475,630.614685 521.082275,636.363953 534.409485,642.149658 
	C542.135742,645.503784 550.045959,648.445251 557.935425,651.407166 
	C561.135010,652.608337 564.555908,653.213135 567.774475,654.371765 
	C571.609497,655.752380 575.209534,658.029968 579.135437,658.862244 
	C586.719788,660.470093 587.974487,661.523438 587.974854,669.139648 
	C587.978333,741.972900 587.968689,814.806091 588.022461,887.639343 
	C588.025085,891.266418 588.492981,894.902527 588.896240,898.517517 
	C589.342529,902.517944 585.979431,906.582092 582.109924,905.676453 
	C572.779358,903.492920 563.535217,900.906616 554.329285,898.231445 
	C540.263184,894.143860 527.322205,887.653870 515.355103,879.232483 
	C505.147797,872.049500 496.164246,863.383423 489.675140,852.851685 
	C479.666077,836.607117 474.729309,818.820190 475.854309,799.367554 
	C476.463531,788.833252 472.954956,778.666077 468.536072,769.234985 
	C465.946808,763.708862 461.966431,758.439941 457.469849,754.293884 
	C450.580414,747.941589 442.758667,742.922180 433.263794,740.413391 
	C412.724243,734.986206 394.467010,738.296509 378.280823,752.335205 
	C370.121643,759.411926 363.318939,767.682983 360.344513,777.986938 
	C357.301605,788.528137 355.179352,799.503662 356.996674,810.669128 
	C358.374146,819.132446 359.072449,827.861938 361.748108,835.916443 
	C364.670807,844.714600 370.447205,852.572998 373.295898,861.385376 
	C376.769928,872.132080 384.433533,879.889099 390.541107,888.658325 
	C395.674683,896.029053 402.660126,902.182739 409.228668,908.453125 
	C412.958160,912.013367 417.527252,914.686157 421.665222,917.828369 
	C428.281921,922.852905 434.596832,928.325745 441.512939,932.891663 
	C449.614624,938.240540 458.001221,943.264221 466.672852,947.614441 
	C475.919342,952.252930 485.524658,956.250122 495.195679,959.945435 
	C503.183746,962.997620 511.417572,965.493530 519.683594,967.709900 
	C530.981445,970.739136 542.343445,973.620850 553.811157,975.893555 
	C561.730652,977.463135 569.911926,977.660034 577.910461,978.895813 
	C588.036987,980.460327 587.982849,980.646484 587.977051,990.657654 
	C587.963257,1014.324280 587.877014,1037.991577 588.036438,1061.657227 
	C588.086365,1069.069824 589.828552,1076.134766 594.659546,1082.087280 
	C594.791565,1082.080688 594.923584,1082.074097 595.721680,1082.212158 
z"/>
<path d="M594.929321,1081.942505 
	C589.828552,1076.134766 588.086365,1069.069824 588.036438,1061.657227 
	C587.877014,1037.991577 587.963257,1014.324280 587.977051,990.657654 
	C587.982849,980.646484 588.036987,980.460327 577.910461,978.895813 
	C569.911926,977.660034 561.730652,977.463135 553.811157,975.893555 
	C542.343445,973.620850 530.981445,970.739136 519.683594,967.709900 
	C511.417572,965.493530 503.183746,962.997620 495.195679,959.945435 
	C485.524658,956.250122 475.919342,952.252930 466.672852,947.614441 
	C458.001221,943.264221 449.614624,938.240540 441.512939,932.891663 
	C434.596832,928.325745 428.281921,922.852905 421.665222,917.828369 
	C417.527252,914.686157 412.958160,912.013367 409.228668,908.453125 
	C402.660126,902.182739 395.674683,896.029053 390.541107,888.658325 
	C384.433533,879.889099 376.769928,872.132080 373.295898,861.385376 
	C370.447205,852.572998 364.670807,844.714600 361.748108,835.916443 
	C359.072449,827.861938 358.374146,819.132446 356.996674,810.669128 
	C355.179352,799.503662 357.301605,788.528137 360.344513,777.986938 
	C363.318939,767.682983 370.121643,759.411926 378.280823,752.335205 
	C394.467010,738.296509 412.724243,734.986206 433.263794,740.413391 
	C442.758667,742.922180 450.580414,747.941589 457.469849,754.293884 
	C461.966431,758.439941 465.946808,763.708862 468.536072,769.234985 
	C472.954956,778.666077 476.463531,788.833252 475.854309,799.367554 
	C474.729309,818.820190 479.666077,836.607117 489.675140,852.851685 
	C496.164246,863.383423 505.147797,872.049500 515.355103,879.232483 
	C527.322205,887.653870 540.263184,894.143860 554.329285,898.231445 
	C563.535217,900.906616 572.779358,903.492920 582.109924,905.676453 
	C585.979431,906.582092 589.342529,902.517944 588.896240,898.517517 
	C588.492981,894.902527 588.025085,891.266418 588.022461,887.639343 
	C587.968689,814.806091 587.978333,741.972900 587.974854,669.139648 
	C587.974487,661.523438 586.719788,660.470093 579.135437,658.862244 
	C575.209534,658.029968 571.609497,655.752380 567.774475,654.371765 
	C564.555908,653.213135 561.135010,652.608337 557.935425,651.407166 
	C550.045959,648.445251 542.135742,645.503784 534.409485,642.149658 
	C521.082275,636.363953 507.718475,630.614685 494.700928,624.180725 
	C486.679443,620.216064 479.172577,615.164490 471.613647,610.321594 
	C462.420227,604.431519 453.077484,598.691223 444.404724,592.090637 
	C430.131073,581.227417 416.150482,569.950378 405.857971,554.872253 
	C399.574585,545.667358 392.506744,536.956543 386.776489,527.431152 
	C383.483215,521.956787 382.140961,515.304810 379.951447,509.171936 
	C378.730804,505.752808 377.159821,502.390839 376.479004,498.861816 
	C375.282806,492.661316 374.650482,486.352112 373.777039,480.089111 
	C373.687531,479.447205 373.771759,478.653778 373.425568,478.194031 
	C368.423737,471.551453 369.062592,463.640533 369.131195,456.175476 
	C369.259125,442.254089 369.766418,428.285828 371.178802,414.445557 
	C372.026855,406.135406 374.649689,397.964844 376.903351,389.850525 
	C379.492279,380.529266 381.860413,371.048035 385.589233,362.167328 
	C390.130402,351.351959 395.329376,340.686615 401.440063,330.687378 
	C409.715637,317.145569 419.248749,304.391052 431.309692,293.814453 
	C436.893494,288.917847 442.382141,283.883728 448.258057,279.358826 
	C452.618713,276.000824 457.558899,273.401367 462.193115,270.390442 
	C464.971436,268.585358 467.466766,266.238739 470.420166,264.828430 
	C480.598267,259.968231 490.833496,255.202759 501.227051,250.829178 
	C506.484741,248.616760 512.171936,247.446136 517.579590,245.559906 
	C520.181030,244.652542 522.467834,242.731506 525.099487,242.043671 
	C533.400696,239.874008 541.783142,238.003571 550.171997,236.192642 
	C551.532776,235.898911 553.081787,236.590729 554.551636,236.658569 
	C556.183411,236.733887 558.365967,237.285690 559.371643,236.471954 
	C565.185791,231.767471 572.329895,233.246918 578.769409,232.432480 
	C586.220032,231.490158 587.949951,230.898773 587.966492,223.314331 
	C588.001038,207.481079 587.887512,191.646927 588.025635,175.814804 
	C588.080505,169.524460 587.705444,163.008835 589.179382,157.001404 
	C591.756714,146.496765 597.360229,138.043015 607.699646,132.747604 
	C621.481323,125.689255 635.539490,125.749535 648.285706,132.706161 
	C660.345520,139.288162 668.815002,150.248398 668.972595,165.250153 
	C669.166870,183.748077 669.032288,202.249649 668.994324,220.749542 
	C668.991333,222.222549 668.662903,223.699112 668.437805,225.166672 
	C667.770874,229.515106 669.470032,231.379929 673.795715,232.037552 
	C685.545715,233.823914 697.273987,235.765762 708.981323,237.814987 
	C715.113586,238.888397 721.358582,239.779617 727.245483,241.696503 
	C739.549500,245.702881 752.603516,247.574539 763.948059,254.444214 
	C765.959229,255.662094 768.744019,255.528900 770.940247,256.528076 
	C778.657227,260.039093 786.508240,263.356781 793.869629,267.523132 
	C803.564575,273.010223 812.844788,279.230286 822.303101,285.135559 
	C822.444397,285.223816 822.573547,285.337830 822.724182,285.404022 
	C827.771057,287.623230 828.371155,293.958069 834.182129,296.411743 
	C838.689636,298.315063 841.381042,304.643463 844.741821,309.108673 
	C849.477173,315.400330 854.718384,321.426422 858.596741,328.220581 
	C864.184937,338.009979 867.565369,348.689514 868.103210,360.164825 
	C868.365723,365.764587 870.103149,371.363586 869.854858,376.903870 
	C869.422974,386.541565 866.680359,395.579437 861.869934,404.237762 
	C858.355286,410.563782 854.859497,416.624420 849.042664,420.906128 
	C844.792297,424.034760 839.720642,426.098907 835.666687,429.430450 
	C830.173584,433.944580 823.455872,434.716766 817.234314,435.112518 
	C809.222412,435.622253 800.947815,434.389496 793.008606,432.798492 
	C787.892578,431.773285 782.984619,429.097839 778.352234,426.503479 
	C775.624878,424.976013 773.707031,422.059235 771.271179,419.944489 
	C764.621765,414.171448 759.950439,407.573608 756.493408,399.042328 
	C752.412842,388.972351 753.573975,378.552887 750.895752,368.677948 
	C747.577576,356.443207 741.519226,345.605499 730.675476,338.088196 
	C723.849609,333.356232 717.240173,328.310791 710.386292,323.621277 
	C708.866089,322.581085 706.725647,322.447327 704.870911,321.895874 
	C694.920776,318.937622 685.049683,315.662048 674.987610,313.152740 
	C669.835449,311.867828 667.687805,314.722504 668.286987,320.414948 
	C668.615540,323.536926 668.978271,326.676605 668.980408,329.808563 
	C669.025085,393.975128 669.028381,458.141693 668.991699,522.308289 
	C668.990295,524.769409 668.758545,527.290283 668.188538,529.676880 
	C667.379517,533.064392 669.195068,534.130371 671.913208,534.781433 
	C674.662354,535.439941 677.415161,536.100525 680.126343,536.896484 
	C687.031982,538.923706 693.989624,540.813171 700.781860,543.173523 
	C705.467163,544.801697 709.872925,547.217529 714.478699,549.097351 
	C716.904907,550.087585 719.549805,550.534485 721.996155,551.483948 
	C730.425964,554.755554 738.931335,557.871948 747.185730,561.546509 
	C759.017639,566.813599 770.982727,571.929993 782.271851,578.221619 
	C791.593201,583.416626 800.146057,590.045898 808.797302,596.370728 
	C815.996460,601.633972 823.129517,607.060303 829.756470,613.010681 
	C835.085144,617.795227 839.583740,623.499268 844.515198,628.734497 
	C845.751953,630.047363 847.504333,630.926453 848.564514,632.345154 
	C854.652588,640.492676 860.985168,648.497437 866.472229,657.040466 
	C870.383606,663.130127 873.080811,669.997681 876.347534,676.504211 
	C878.680542,681.150940 881.420410,685.632690 883.314758,690.449158 
	C885.153809,695.124939 886.740234,700.054321 887.403870,705.010681 
	C889.836975,723.183533 892.680359,741.368164 893.673767,759.640625 
	C894.226257,769.802246 891.555481,780.164795 890.093689,790.402039 
	C888.920044,798.621094 888.127014,807.006531 885.810242,814.921570 
	C883.006470,824.500183 877.649170,833.410645 875.499146,843.077881 
	C873.585266,851.683777 868.617981,858.428955 864.880798,865.799194 
	C860.555664,874.329102 854.119751,881.811890 848.402100,889.603882 
	C844.888550,894.392029 841.000305,898.905029 837.292114,903.550903 
	C836.879883,904.067383 836.645142,904.764038 836.158142,905.176636 
	C826.070129,913.721375 816.233521,922.594299 805.780823,930.669189 
	C792.201599,941.159302 777.491882,950.013245 761.436462,956.178894 
	C748.875916,961.002441 736.040161,965.173828 723.150879,969.050293 
	C716.507080,971.048340 709.020813,970.685913 702.739929,973.341003 
	C694.582520,976.789307 686.056213,976.481934 677.778809,978.224243 
	C668.237915,980.232483 668.270020,980.688232 668.851196,991.050293 
	C669.447632,1001.684143 669.018311,1012.375977 669.020386,1023.042480 
	C669.022766,1035.209106 669.008362,1047.375732 668.997009,1059.542358 
	C668.979004,1078.795044 653.876953,1096.768066 634.245789,1098.805298 
	C620.355835,1100.246704 608.559875,1097.247925 598.926941,1086.979736 
	C597.633728,1085.601318 596.779297,1083.811523 595.358826,1082.106812 
	C594.995972,1082.001465 594.929321,1081.942505 594.929321,1081.942505 
M523.078857,475.778229 
	C524.351196,481.684448 530.804504,481.239105 534.286621,484.696442 
	C537.257996,487.646576 542.329895,488.476929 546.466919,490.258026 
	C557.916504,495.187500 569.297852,500.284302 580.842773,504.979187 
	C585.521179,506.881714 589.469299,503.216309 588.868835,498.229370 
	C588.454285,494.786804 588.023560,491.316711 588.020203,487.858490 
	C587.967529,433.547333 587.975220,379.236145 588.012390,324.924988 
	C588.013855,322.794250 588.316467,320.639648 588.707458,318.538788 
	C589.333435,315.175659 587.906067,313.055328 584.674988,313.151917 
	C581.312012,313.252472 577.984985,314.746582 574.627686,314.805817 
	C565.108826,314.973877 556.980042,319.371521 548.451477,322.656281 
	C545.668274,323.728180 542.645325,324.177399 541.183960,324.545593 
	C538.359680,326.773895 536.709473,328.440979 534.742188,329.540955 
	C531.905151,331.127167 528.190247,331.633362 525.984680,333.771118 
	C517.830322,341.674805 509.969299,349.903381 502.356445,358.333557 
	C498.906494,362.153839 495.829315,366.489380 493.456268,371.045929 
	C491.613403,374.584412 491.261566,378.873535 489.979156,382.740204 
	C489.288177,384.823669 487.403259,386.644836 487.155029,388.715942 
	C486.466309,394.462830 486.264984,400.275085 486.029327,406.067932 
	C485.385651,421.891449 487.795135,436.987915 496.891724,450.439240 
	C500.954987,456.447693 504.947601,462.505280 509.114319,468.440826 
	C509.681458,469.248657 511.088409,469.453827 512.087280,469.974854 
	C513.469421,470.695770 514.795959,471.534760 516.213989,472.172760 
	C518.266846,473.096283 520.380188,473.885162 522.792664,474.793976 
	C522.792664,474.793976 523.018433,475.035828 523.078857,475.778229 
M693.625244,701.882385 
	C686.352844,698.873718 679.080444,695.865112 671.381714,692.680054 
	C671.381714,763.471619 671.381714,833.130493 671.381714,904.122925 
	C680.160339,901.661133 688.212097,899.750732 696.033508,897.148132 
	C725.803406,887.241882 748.455872,868.994568 762.317322,840.362366 
	C779.527710,804.812439 772.418823,762.875610 744.432556,735.377075 
	C729.851379,721.050049 712.593567,710.869446 693.625244,701.882385 
z"/>
<path d="M595.025757,1082.034424 
	C594.923584,1082.074097 594.791565,1082.080688 594.794434,1082.014893 
	C594.929321,1081.942505 594.995972,1082.001465 595.025757,1082.034424 
z"/>
<path d="M523.048645,475.407043 
	C536.945190,482.043121 550.818054,489.161102 564.830994,495.991577 
	C569.149292,498.096527 573.832581,499.465820 578.380005,501.084259 
	C584.672302,503.323669 585.402161,502.869568 585.414246,496.365631 
	C585.446350,479.036377 585.380066,461.707001 585.372742,444.377655 
	C585.355408,403.219513 585.350220,362.061401 585.338196,320.903259 
	C585.336365,314.526031 585.321716,314.475983 578.810547,315.770599 
	C555.044250,320.496094 533.285706,329.343018 515.459290,346.411743 
	C504.128601,357.260895 496.189728,370.206055 491.879883,385.190460 
	C485.870209,406.084656 486.271973,426.659271 496.873840,446.243134 
	C503.006226,457.570953 511.995941,466.399567 522.307739,474.431274 
	C520.380188,473.885162 518.266846,473.096283 516.213989,472.172760 
	C514.795959,471.534760 513.469421,470.695770 512.087280,469.974854 
	C511.088409,469.453827 509.681458,469.248657 509.114319,468.440826 
	C504.947601,462.505280 500.954987,456.447693 496.891724,450.439240 
	C487.795135,436.987915 485.385651,421.891449 486.029327,406.067932 
	C486.264984,400.275085 486.466309,394.462830 487.155029,388.715942 
	C487.403259,386.644836 489.288177,384.823669 489.979156,382.740204 
	C491.261566,378.873535 491.613403,374.584412 493.456268,371.045929 
	C495.829315,366.489380 498.906494,362.153839 502.356445,358.333557 
	C509.969299,349.903381 517.830322,341.674805 525.984680,333.771118 
	C528.190247,331.633362 531.905151,331.127167 534.742188,329.540955 
	C536.709473,328.440979 538.359680,326.773895 541.183960,324.545593 
	C542.645325,324.177399 545.668274,323.728180 548.451477,322.656281 
	C556.980042,319.371521 565.108826,314.973877 574.627686,314.805817 
	C577.984985,314.746582 581.312012,313.252472 584.674988,313.151917 
	C587.906067,313.055328 589.333435,315.175659 588.707458,318.538788 
	C588.316467,320.639648 588.013855,322.794250 588.012390,324.924988 
	C587.975220,379.236145 587.967529,433.547333 588.020203,487.858490 
	C588.023560,491.316711 588.454285,494.786804 588.868835,498.229370 
	C589.469299,503.216309 585.521179,506.881714 580.842773,504.979187 
	C569.297852,500.284302 557.916504,495.187500 546.466919,490.258026 
	C542.329895,488.476929 537.257996,487.646576 534.286621,484.696442 
	C530.804504,481.239105 524.351196,481.684448 523.048645,475.407043 
z"/>
</g>
</svg>
