<svg xmlns="http://www.w3.org/2000/svg" viewBox="0 0 1200 1200">
<g fill="currentColor" transform="translate(0 1200) scale(.1 -.1)">
<path d="M4045 9464 c-140 -19 -194 -30 -285 -60 -111 -35 -227 -96 -317 -165
-71 -55 -190 -183 -239 -256 -100 -151 -202 -405 -269 -673 -51 -203 -86 -310
-141 -432 -70 -153 -91 -213 -110 -306 -31 -159 -12 -297 63 -450 36 -75 48
-111 51 -159 6 -91 -12 -134 -120 -283 -18 -25 -40 -67 -50 -95 l-16 -49 -102
-18 c-198 -35 -291 -113 -371 -308 -34 -85 -47 -144 -153 -710 -99 -528 -164
-911 -208 -1235 -37 -265 -45 -552 -19 -655 46 -182 166 -257 486 -304 234
-35 782 -60 1165 -54 199 2 239 6 258 20 37 26 55 57 78 138 21 73 22 75 60
83 22 5 113 7 204 4 91 -3 206 0 255 5 143 17 150 16 153 -10 2 -13 13 -27 25
-32 21 -9 207 -21 865 -56 318 -17 323 -17 342 2 11 11 37 86 63 179 105 379
137 494 179 650 16 61 38 139 49 175 21 66 35 125 47 193 4 21 12 39 17 40 13
3 23 -67 34 -253 6 -85 17 -261 25 -390 8 -129 18 -306 22 -392 7 -169 12
-186 59 -174 15 4 27 16 31 31 8 31 -11 448 -32 700 -8 105 -16 205 -17 223
l-2 32 1440 0 c792 0 1445 3 1450 8 6 4 17 21 25 37 13 24 23 31 53 33 33 3
43 -2 71 -32 57 -63 81 -47 81 56 0 75 18 109 73 141 80 47 172 -33 172 -148
0 -58 14 -85 44 -85 28 0 37 11 60 73 12 32 27 52 46 62 66 34 100 10 100 -71
0 -50 2 -54 28 -60 48 -10 72 -23 72 -40 0 -16 26 -43 42 -44 4 0 14 7 22 16
34 34 10 102 -44 124 -19 8 -30 20 -30 32 0 32 -26 84 -56 112 -40 36 -115 37
-168 1 -40 -27 -56 -31 -56 -13 0 6 -12 27 -26 45 l-26 35 16 176 c34 377 31
610 -14 917 -43 296 -141 618 -238 782 -17 28 -28 54 -25 57 14 13 118 5 181
-15 153 -49 275 -136 320 -230 31 -63 54 -84 80 -70 55 30 23 110 -88 221 -89
89 -168 131 -291 155 -88 16 -116 30 -83 41 10 3 28 10 39 15 11 4 47 16 80
26 78 23 299 25 363 4 55 -19 77 -7 77 39 0 29 -4 35 -40 47 -64 23 -245 28
-345 10 -101 -19 -232 -82 -294 -140 -22 -21 -34 -37 -26 -34 10 3 15 -2 15
-17 0 -17 -6 -21 -30 -20 -16 0 -38 -5 -49 -12 -10 -7 -24 -10 -30 -8 -7 3
-19 -8 -27 -23 -8 -15 -26 -39 -40 -53 -36 -35 -85 -110 -103 -156 -27 -67
-56 -195 -56 -244 0 -59 27 -89 64 -72 20 9 24 19 28 89 7 89 54 228 110 319
32 54 74 102 82 93 2 -2 27 -67 56 -144 196 -519 252 -961 197 -1570 l-12
-130 -44 3 c-64 5 -124 -21 -161 -71 -16 -22 -30 -50 -30 -62 0 -12 -6 -29
-13 -39 -11 -15 -17 -16 -40 -5 -22 10 -34 9 -67 -4 -22 -8 -41 -12 -43 -9 -2
4 -4 247 -3 541 l1 533 112 -1 c101 -2 114 0 132 18 47 47 14 94 -107 154 -48
23 -107 54 -132 68 -50 29 -364 196 -505 269 -329 171 -425 223 -430 229 -2 5
-5 244 -5 532 l-1 524 114 -4 c106 -3 116 -2 136 18 26 26 27 61 3 90 -9 12
-264 143 -567 292 -302 149 -572 281 -599 295 -28 13 -64 24 -80 24 -29 0
-343 -143 -806 -368 -107 -52 -259 -125 -337 -162 -83 -40 -146 -76 -152 -88
-17 -32 -13 -67 9 -87 18 -16 32 -17 124 -12 62 4 107 3 111 -3 3 -5 5 -354 5
-775 0 -515 3 -772 10 -785 11 -20 35 -25 64 -14 14 6 16 84 16 789 0 431 3
785 8 787 4 2 423 1 932 -2 l924 -5 -3 -535 c-1 -294 0 -543 4 -552 4 -10 41
-36 83 -59 195 -106 703 -373 852 -448 91 -45 165 -87 165 -92 0 -10 -1220
-13 -1236 -3 -5 3 -9 45 -9 94 0 60 -4 91 -12 97 -7 4 -38 8 -68 8 l-55 0 4
166 c4 208 10 199 -134 199 l-104 0 -3 243 -3 244 -29 37 c-69 91 -203 146
-354 146 -134 0 -282 -50 -344 -117 -53 -57 -58 -86 -58 -329 l0 -224 -109 0
c-78 0 -112 -4 -120 -13 -6 -8 -12 -79 -13 -183 l-3 -169 -29 2 c-43 3 -66
-13 -66 -48 0 -16 6 -32 13 -35 7 -2 326 -6 708 -7 l694 -2 3 -668 2 -668
-147 3 -147 3 2 330 c2 323 2 331 -20 385 -28 66 -111 138 -191 164 -70 24
-211 32 -289 16 -127 -24 -243 -110 -267 -196 -7 -24 -11 -165 -11 -371 l0
-333 -293 0 -293 0 -13 123 c-7 67 -17 150 -22 184 -9 62 4 124 81 378 33 112
52 205 46 229 -8 31 -48 45 -149 53 -88 7 -88 7 -102 98 -11 78 -72 349 -107
470 -38 136 -74 214 -133 285 -68 83 -143 119 -306 145 -48 7 -62 25 -49 59
13 36 13 150 -1 201 -6 22 -35 92 -65 156 -30 63 -59 142 -65 175 -16 86 -5
194 31 309 79 248 84 275 84 465 0 154 -3 188 -26 285 -54 224 -170 542 -280
760 -130 259 -297 415 -445 415 -48 0 -55 3 -90 40 -42 46 -132 93 -211 109
-60 13 -202 21 -247 15z m230 -108 c77 -20 118 -40 159 -77 50 -44 57 -65 65
-193 6 -118 17 -137 48 -90 14 22 18 48 18 127 l0 98 35 -6 c87 -16 200 -113
284 -243 112 -173 273 -576 343 -857 24 -97 27 -130 27 -275 1 -172 -13 -254
-64 -394 -61 -164 -76 -310 -45 -431 9 -32 41 -111 72 -174 55 -112 57 -119
61 -214 2 -54 0 -102 -4 -107 -10 -9 -214 45 -329 87 -117 42 -152 64 -261
165 -57 53 -112 99 -123 103 -26 8 -32 48 -30 219 l1 146 58 72 c55 70 97 140
120 202 8 21 14 26 28 20 60 -26 129 -11 158 34 31 47 35 93 13 138 -20 41
-20 42 0 75 29 51 61 153 61 198 0 72 31 57 71 -34 17 -37 24 -76 27 -150 4
-89 1 -109 -22 -180 -15 -44 -54 -136 -88 -205 -33 -69 -71 -156 -85 -195 -30
-86 -40 -209 -24 -287 20 -96 104 -238 141 -238 33 0 33 20 0 82 -44 81 -60
147 -60 243 0 107 24 190 106 360 89 187 116 281 118 410 0 87 -3 109 -27 172
-32 82 -82 143 -172 211 -128 97 -154 143 -231 407 -35 119 -88 206 -157 256
-46 34 -50 34 -71 13 -23 -22 -21 -28 29 -84 52 -59 85 -121 110 -205 61 -209
83 -266 126 -325 15 -21 17 -34 10 -83 -5 -40 -4 -63 4 -74 17 -23 44 -9 51
27 8 40 19 45 49 23 21 -15 24 -26 25 -73 0 -58 -37 -193 -64 -235 -9 -14 -23
-25 -32 -25 -13 0 -15 12 -12 73 3 69 2 72 -21 75 -29 4 -37 -8 -46 -67 -4
-25 -14 -71 -22 -101 -8 -30 -18 -68 -23 -85 -62 -230 -229 -436 -450 -551
-50 -26 -64 -29 -155 -29 -97 0 -102 1 -171 38 -154 82 -293 220 -373 370 -34
63 -94 253 -106 332 -9 66 -21 87 -48 83 -21 -3 -22 -7 -19 -71 4 -67 3 -69
-19 -65 -30 4 -69 62 -69 102 0 26 8 37 48 64 87 60 206 185 266 280 15 24 63
114 108 200 44 86 104 190 131 230 157 228 395 319 557 212 41 -27 45 -28 62
-13 24 22 23 36 -7 71 -37 45 -100 71 -186 78 -64 6 -85 3 -154 -20 -102 -35
-189 -91 -266 -174 -79 -84 -127 -160 -224 -351 -118 -232 -212 -346 -411
-498 -245 -188 -371 -389 -393 -628 -13 -147 -46 -48 -37 115 5 111 32 213 81
311 67 131 110 252 165 456 96 356 159 524 255 673 140 219 338 366 585 433
117 32 128 34 265 35 65 1 130 -4 160 -12z m3250 -1511 c240 -118 438 -215
440 -215 12 0 216 -103 212 -107 -9 -8 -2207 -5 -2207 4 0 10 56 41 125 70 80
34 316 143 490 227 301 145 490 234 496 235 4 1 203 -96 444 -214z m-4306 -44
c27 -52 28 -60 16 -78 -24 -34 -29 -96 -11 -131 27 -52 64 -74 116 -69 25 2
54 7 65 11 17 5 24 -3 49 -60 16 -36 52 -95 78 -130 l49 -65 -6 -157 c-5 -158
-16 -212 -41 -212 -8 0 -57 -43 -109 -95 -74 -73 -111 -102 -169 -130 -40 -19
-79 -35 -87 -35 -8 0 -34 -7 -58 -16 -24 -8 -46 -13 -48 -10 -3 3 15 26 39 53
95 103 133 180 164 330 18 83 12 214 -10 232 -28 23 -39 -6 -42 -106 -2 -103
-15 -153 -64 -258 -56 -118 -189 -272 -248 -286 -122 -29 -177 -38 -185 -30
-9 9 50 107 79 132 24 20 81 131 89 174 11 61 7 140 -11 208 -20 74 -14 238
12 332 36 136 112 263 227 383 39 39 72 72 74 72 1 0 16 -26 32 -59z m150
-104 c6 -8 14 -28 17 -45 5 -25 2 -33 -20 -47 -26 -17 -28 -17 -51 5 -14 13
-25 34 -25 46 0 44 53 71 79 41z m1468 0 c1 -1 4 -14 8 -28 5 -20 0 -33 -18
-55 -24 -27 -25 -28 -51 -11 -30 20 -34 52 -10 86 13 18 22 21 43 16 14 -4 27
-7 28 -8z m-1097 -558 c66 -54 166 -106 239 -125 130 -33 272 4 398 105 29 22
57 41 63 41 6 0 10 -56 10 -157 0 -231 19 -330 77 -393 l35 -40 6 -208 c7
-300 4 -322 -69 -433 -92 -140 -258 -359 -272 -359 -13 0 -195 189 -359 371
l-86 95 -42 145 c-127 432 -145 540 -107 659 12 37 20 105 24 207 5 138 8 152
22 141 9 -7 36 -29 61 -49z m3521 -288 c67 -26 124 -77 133 -121 9 -45 8 -430
-1 -430 -5 0 -144 -1 -310 -3 -195 -1 -304 2 -306 8 -2 6 -2 108 1 229 l4 218
29 33 c31 35 78 61 149 81 67 20 231 11 301 -15z m-3696 -381 c14 -58 55 -199
90 -315 35 -115 109 -367 164 -560 91 -319 125 -444 252 -925 23 -85 52 -187
65 -227 13 -39 24 -80 24 -91 0 -12 -20 -33 -52 -55 -29 -20 -91 -73 -138
-117 -47 -45 -96 -87 -110 -94 -43 -23 -124 -27 -470 -27 l-335 0 -12 97 c-15
117 -55 277 -135 534 -77 252 -94 319 -113 469 -9 69 -18 128 -21 133 -3 4
-16 8 -29 8 -33 0 -38 -23 -26 -150 l9 -105 -68 -325 c-69 -323 -93 -450 -108
-565 -7 -56 -9 -60 -32 -57 -81 10 -179 3 -233 -16 -84 -30 -119 -58 -115 -91
3 -22 7 -26 31 -23 15 1 49 12 75 23 73 32 159 34 292 8 106 -20 149 -22 559
-25 244 -2 446 -5 448 -8 2 -2 -4 -41 -13 -87 -19 -92 -25 -366 -11 -476 l8
-63 -208 0 c-270 0 -697 17 -893 35 -397 37 -553 93 -594 211 -71 209 -33 559
195 1804 44 239 82 449 85 465 50 285 112 436 210 510 50 38 146 64 389 105
169 28 392 78 442 100 36 15 36 -4 0 -102 -102 -274 -103 -258 21 -318 50 -24
91 -48 89 -53 -1 -5 -36 -34 -77 -66 -41 -31 -76 -65 -78 -75 -4 -19 98 -202
388 -696 142 -240 295 -522 430 -787 38 -76 57 -103 71 -103 28 0 24 19 -28
143 -84 200 -262 543 -453 872 -51 88 -121 210 -155 270 -34 61 -85 148 -114
195 -28 47 -51 88 -51 92 0 4 36 34 80 68 88 67 103 86 89 112 -6 10 -55 41
-110 69 -82 41 -99 53 -94 67 16 39 95 290 101 319 5 26 17 38 59 62 29 16 78
59 111 97 l59 67 6 -114 c4 -74 16 -152 34 -219z m1093 210 c26 -28 69 -65 96
-83 27 -17 54 -41 60 -52 6 -11 28 -47 50 -80 78 -121 126 -204 126 -217 0 -7
-18 -24 -40 -37 -60 -38 -102 -79 -98 -99 2 -9 41 -43 88 -75 47 -32 86 -64
88 -72 2 -7 -17 -76 -42 -152 -25 -76 -46 -144 -46 -150 0 -22 -20 -24 -93
-12 -76 13 -116 8 -140 -15 -7 -8 -26 -67 -42 -133 -33 -139 -79 -320 -133
-528 -21 -82 -51 -199 -66 -260 -15 -60 -34 -132 -42 -160 -8 -27 -18 -70 -22
-94 l-7 -44 -67 -17 c-75 -20 -85 -14 -58 35 18 33 113 270 129 325 6 19 18
58 27 85 9 28 25 84 36 125 11 41 24 91 29 110 5 19 14 55 19 80 5 25 13 63
18 85 40 167 82 410 107 620 21 173 31 571 16 650 -15 81 -44 175 -53 175 -4
0 -8 9 -8 20 0 31 17 24 68 -30z m622 -261 c91 -22 194 -49 229 -60 163 -50
207 -135 331 -650 42 -173 46 -204 31 -214 -14 -8 -41 24 -41 49 0 37 -12 42
-156 71 -15 4 -21 12 -21 31 0 38 -21 70 -64 100 -79 55 -181 35 -235 -46 -15
-22 -33 -39 -39 -36 -7 2 -37 7 -67 11 -64 8 -94 -3 -109 -42 -9 -25 -12 -25
-67 -19 -31 4 -61 11 -65 15 -5 5 2 37 16 73 13 34 41 111 62 171 44 127 45
126 -59 190 -38 24 -71 47 -73 53 -2 5 26 29 62 53 50 34 65 50 65 69 0 14
-35 78 -80 146 -44 68 -80 128 -80 134 0 6 40 -4 97 -24 54 -19 172 -53 263
-75z m1412 -344 l-1 -140 -78 0 -78 0 -3 129 c-1 72 0 136 3 143 3 10 24 13
82 11 l76 -3 -1 -140z m233 0 l0 -140 -75 0 -75 0 -3 143 -3 143 78 -3 78 -3
0 -140z m237 6 c0 -73 -5 -138 -10 -143 -5 -5 -39 -8 -76 -6 l-67 3 0 138 c0
75 1 139 1 142 0 3 34 5 77 3 l76 -3 -1 -134z m233 -6 l0 -140 -75 0 -75 0 -1
135 c0 74 2 139 4 143 2 4 36 7 75 5 l72 -3 0 -140z m235 138 c0 -5 1 -69 3
-143 l2 -135 -78 0 -78 0 -2 143 -2 142 78 0 c42 0 77 -3 77 -7z m-3724 -415
c86 -108 305 -328 325 -328 24 0 211 233 259 322 13 25 32 51 43 58 19 11 19
9 13 -47 -4 -32 -11 -80 -16 -108 -5 -27 -14 -77 -20 -110 -24 -139 -73 -378
-101 -490 -29 -113 -46 -172 -134 -460 -20 -66 -40 -131 -44 -145 -3 -14 -14
-26 -24 -28 -14 -3 -17 4 -17 34 0 20 -4 53 -10 73 -5 20 -39 153 -74 296 -92
371 -128 505 -192 715 -31 102 -58 195 -61 208 -3 12 -9 25 -14 28 -12 7 -12
54 0 54 5 0 35 -33 67 -72z m1644 -139 c39 -41 30 -61 -24 -53 -88 13 -111 20
-114 35 -3 18 50 48 86 49 14 0 36 -13 52 -31z m3380 -584 l0 -565 -130 0
-130 0 0 383 c0 285 -3 386 -12 395 -9 9 -85 12 -278 12 -248 0 -268 -1 -284
-19 -15 -17 -17 -54 -16 -392 l1 -374 -113 0 -113 0 0 562 0 563 538 0 537 0
0 -565z m-3550 489 c58 -8 139 -20 180 -25 162 -20 185 -24 185 -34 -1 -35
-18 -106 -27 -111 -6 -4 -33 -2 -62 4 -70 15 -240 40 -361 53 -55 6 -104 14
-109 19 -4 4 -1 33 8 64 17 56 17 57 49 51 18 -2 79 -12 137 -21z m-455 -14
c50 -7 108 -15 130 -19 l40 -7 -3 -55 c-2 -43 1 -59 14 -70 10 -9 136 -31 331
-60 306 -44 315 -45 338 -27 15 12 25 33 30 64 l7 46 46 -5 c95 -12 242 -36
250 -41 5 -3 -6 -58 -25 -123 -55 -189 -80 -278 -123 -438 -22 -82 -79 -287
-126 -455 -47 -168 -105 -375 -129 -460 -24 -85 -57 -205 -74 -266 -17 -61
-31 -118 -31 -127 0 -9 -4 -18 -9 -22 -5 -3 -83 -1 -173 5 -264 16 -757 40
-835 40 -39 0 -75 5 -78 10 -3 6 0 12 7 14 114 30 270 107 298 146 12 16 25
52 29 80 6 36 15 55 35 71 40 31 58 74 55 130 -3 44 1 53 25 76 63 58 69 131
16 198 -17 21 -30 39 -30 40 0 1 7 20 16 41 30 71 -19 154 -90 154 -17 0 -60
-7 -95 -15 -86 -21 -260 -45 -276 -38 -10 3 -9 19 6 71 24 83 192 739 226 882
48 202 40 183 76 177 18 -3 73 -11 122 -17z m2335 -249 c131 -69 129 -62 130
-463 l2 -323 -302 0 -303 0 2 335 c2 376 2 371 77 421 71 48 119 59 239 56 92
-2 117 -7 155 -26z m1318 -440 l2 -351 -207 2 c-115 2 -207 6 -205 11 1 4 2
160 2 347 l0 340 193 2 c105 2 197 3 202 2 6 0 11 -127 13 -353z m-5783 -78
c3 -16 35 -131 70 -258 92 -333 115 -476 75 -467 -8 2 -80 6 -158 9 -99 4
-145 10 -148 18 -5 11 34 226 92 510 13 66 24 136 24 155 0 57 35 82 45 33z
m2067 -408 c-9 -53 -81 -96 -209 -125 -114 -26 -143 -38 -143 -60 0 -33 26
-43 89 -36 68 8 215 47 259 69 28 14 32 13 48 -4 12 -13 15 -28 10 -53 -7 -39
-39 -66 -96 -85 -50 -16 -169 -48 -206 -56 -44 -9 -71 -39 -54 -60 21 -25 104
-15 208 26 13 5 36 9 52 9 38 0 40 -27 4 -69 -20 -24 -47 -37 -127 -62 -56
-17 -112 -41 -125 -53 -20 -19 -21 -24 -8 -41 13 -18 18 -18 67 -6 30 8 59 17
64 21 6 5 21 10 35 12 29 4 40 -24 18 -45 -36 -36 -165 -99 -263 -128 -81 -25
-237 -39 -421 -39 -108 0 -248 -5 -311 -12 -70 -7 -117 -8 -122 -2 -14 15 23
359 41 381 6 7 26 13 46 13 66 0 167 23 202 45 19 13 85 69 145 125 61 56 129
113 153 127 60 35 162 60 343 83 85 11 175 27 200 34 24 8 58 14 74 13 24 -2
29 -6 27 -22z m-1182 -915 c0 -11 -4 -28 -9 -38 -5 -9 -12 -26 -16 -36 -8 -28
-22 -8 -28 41 -6 48 -3 53 30 53 16 0 23 -6 23 -20z"/>
<path d="M2450 6275 c0 -14 13 -51 28 -83 41 -81 86 -201 120 -317 33 -109 36
-124 83 -335 15 -67 31 -89 52 -71 10 8 14 25 10 54 -24 226 -110 530 -196
692 -36 66 -48 81 -70 83 -23 3 -27 0 -27 -23z"/>
<path d="M9470 7157 c-75 -25 -150 -71 -197 -119 -33 -34 -103 -159 -103 -184
0 -29 -29 -12 -60 36 -67 104 -168 170 -292 190 -61 9 -85 8 -140 -6 -26 -7
-33 -42 -12 -65 14 -15 31 -19 93 -19 87 0 135 -18 218 -80 51 -39 143 -148
143 -170 0 -8 -7 -9 -17 -5 -106 43 -158 57 -234 62 -162 11 -305 -34 -404
-128 -55 -52 -67 -83 -43 -107 20 -20 38 -14 86 29 76 67 170 106 290 118 67
7 110 7 127 1 15 -6 37 -10 51 -10 15 0 24 -6 24 -15 0 -9 -9 -15 -24 -15 -50
0 -187 -80 -261 -154 -105 -104 -165 -238 -119 -264 31 -17 55 -1 79 54 13 29
42 77 64 107 43 56 170 154 231 177 19 7 39 17 45 22 5 4 21 8 37 8 20 0 26 4
22 15 -4 9 0 15 10 15 9 0 16 7 16 15 0 8 -4 15 -10 15 -5 0 -10 5 -10 10 0 6
5 10 11 10 6 0 23 13 39 29 20 19 36 27 52 24 20 -3 28 6 62 79 66 139 162
222 286 249 39 8 54 17 63 36 10 22 8 28 -12 44 -28 23 -30 23 -111 -4z"/>
<path d="M6950 4151 c-47 -15 -112 -40 -145 -56 -45 -20 -82 -28 -145 -32 -89
-6 -110 -14 -110 -44 0 -35 28 -49 95 -49 64 0 120 16 300 85 134 52 246 45
424 -27 196 -79 312 -78 508 3 185 77 284 76 504 -7 187 -71 322 -72 459 -4
184 92 311 91 513 -1 94 -44 130 -46 142 -8 7 21 -18 59 -38 59 -6 0 -50 19
-99 41 -116 53 -176 69 -266 69 -79 0 -160 -19 -232 -55 -98 -48 -176 -67
-263 -63 -71 3 -100 11 -217 58 -119 47 -146 54 -223 58 -106 5 -180 -9 -302
-58 -133 -54 -175 -63 -262 -58 -63 4 -101 14 -193 51 -190 76 -306 86 -450
38z"/>
</g>
</svg>
