<svg xmlns="http://www.w3.org/2000/svg" viewBox="0 0 1200 1200">
<g fill="currentColor" transform="translate(0 1200) scale(.1 -.1)">
<path d="M3925 9263 c-85 -19 -158 -73 -198 -148 l-22 -40 -5 -1098 -5 -1099
-197 2 c-183 1 -200 -1 -240 -21 -59 -29 -95 -65 -125 -124 -25 -49 -26 -52
-19 -210 3 -88 10 -236 16 -330 6 -93 17 -296 25 -450 9 -154 20 -350 25 -435
6 -85 21 -339 35 -565 13 -225 29 -477 34 -560 6 -82 15 -238 21 -345 6 -107
16 -222 21 -255 22 -126 100 -219 213 -258 21 -7 494 -11 1481 -11 l1450 -1 6
-57 c9 -85 59 -153 145 -197 40 -21 45 -21 1064 -21 l1024 0 53 25 c63 31 106
81 133 153 20 53 20 76 18 1445 -3 1321 -4 1394 -21 1425 -25 47 -82 107 -125
134 -36 22 -45 23 -375 28 l-338 5 1 1032 0 1032 -37 39 c-21 21 -231 234
-468 473 l-430 434 -1570 1 c-863 1 -1579 0 -1590 -3z m3086 -458 c-3 -397 -1
-409 59 -485 17 -22 55 -51 84 -65 l54 -26 356 2 357 2 -1 -989 0 -989 -652
-5 -653 -5 -46 -27 c-47 -28 -82 -66 -115 -128 -14 -27 -19 -56 -19 -125 l0
-90 -600 -3 c-536 -3 -603 -1 -631 13 -25 13 -40 38 -84 138 -30 66 -67 136
-83 154 -62 71 -30 67 -665 73 l-573 5 1 1389 c0 1259 2 1392 17 1423 18 38
67 80 110 93 15 5 716 8 1557 7 l1530 -2 -3 -360z m167 233 c31 -35 199 -206
372 -380 173 -175 316 -321 318 -326 1 -4 -145 -6 -325 -4 -366 4 -369 5 -411
76 -19 32 -20 55 -22 357 -1 178 -2 327 -1 332 2 15 13 6 69 -55z m-3480
-2521 l2 -266 -188 -3 c-188 -3 -189 -3 -231 -31 -24 -16 -45 -26 -48 -23 -3
3 -7 42 -8 88 -2 46 -7 151 -10 234 -8 170 -2 193 57 236 31 22 45 23 218 28
102 3 190 5 195 4 6 0 11 -99 13 -267z m1242 -386 c25 -17 55 -71 125 -224 31
-66 44 -83 83 -108 l46 -29 615 0 c337 0 615 -1 618 -3 2 -2 4 -532 4 -1178
l0 -1174 -1443 0 -1443 0 -46 27 c-26 15 -60 47 -76 72 -33 50 -36 76 -68 616
-8 140 -22 361 -30 490 -26 415 -35 551 -45 725 -5 94 -17 284 -25 422 -13
217 -13 258 -1 285 19 47 65 86 110 95 20 5 378 7 794 5 704 -3 759 -4 782
-21z m3717 14 c37 -9 74 -40 100 -83 l23 -37 0 -1375 c0 -1554 6 -1425 -80
-1485 l-43 -30 -996 -1 c-1073 -1 -1021 -3 -1079 50 -56 51 -53 -38 -53 1457
1 1357 1 1380 21 1418 21 42 57 72 103 87 31 10 1963 10 2004 -1z"/>
<path d="M4720 8725 c-9 -11 -11 -35 -7 -79 7 -71 3 -76 -55 -76 -42 0 -143
-56 -182 -101 -61 -71 -81 -125 -81 -214 0 -67 5 -88 27 -131 48 -92 132 -153
242 -179 l49 -11 1 -238 c0 -131 -2 -240 -5 -242 -13 -8 -93 27 -135 59 -25
19 -56 56 -74 89 -32 60 -56 76 -89 59 -43 -23 -34 -75 28 -158 42 -58 122
-109 206 -130 l70 -19 -3 -65 c-4 -62 -3 -65 23 -77 23 -11 32 -10 51 3 21 14
24 23 24 79 l0 64 53 12 c28 6 67 19 86 27 47 21 117 88 149 142 24 42 27 56
27 146 0 114 -10 142 -79 213 -52 55 -135 98 -219 114 -16 3 -17 22 -19 233
-2 213 -1 230 15 233 48 9 145 -66 183 -140 20 -40 29 -48 53 -48 28 0 61 26
61 49 0 26 -44 96 -87 138 -56 54 -92 74 -163 88 l-55 11 -5 70 c-3 38 -9 75
-13 82 -11 17 -62 15 -77 -3z m-6 -465 l-1 -215 -34 3 c-44 4 -110 43 -141 84
-52 69 -58 148 -17 229 28 56 126 122 174 116 19 -2 20 -10 19 -217z m195
-382 c78 -43 121 -111 121 -191 0 -84 -54 -171 -125 -201 -67 -29 -83 -34 -89
-29 -3 4 -6 107 -6 230 l0 225 32 -7 c17 -4 48 -16 67 -27z"/>
<path d="M5524 8245 c-15 -23 -15 -27 0 -50 l17 -25 556 2 c510 3 557 4 567
20 7 12 7 26 0 45 l-9 28 -557 3 -557 2 -17 -25z"/>
<path d="M5526 7698 c-21 -29 -20 -41 2 -61 17 -16 98 -17 1008 -15 l989 3 9
27 c8 22 6 32 -9 48 -18 20 -26 20 -1001 20 l-983 0 -15 -22z"/>
<path d="M5524 7145 c-15 -23 -15 -27 0 -50 l16 -25 984 0 c940 0 984 1 999
18 20 22 21 41 3 65 -12 16 -72 17 -999 17 l-987 0 -16 -25z"/>
<path d="M4334 6905 c-14 -21 -15 -31 -6 -50 l12 -25 433 0 c458 0 457 0 457
46 0 54 4 54 -455 54 l-425 0 -16 -25z"/>
<path d="M5524 6569 c-17 -19 -17 -23 -3 -47 l15 -27 984 -3 c904 -2 985 -1
1002 15 21 19 23 41 4 66 -12 16 -72 17 -998 17 -983 0 -985 0 -1004 -21z"/>
<path d="M6779 5841 l-29 -29 0 -287 0 -286 25 -24 24 -25 864 0 864 0 24 26
24 26 3 273 c3 300 -1 325 -54 345 -15 6 -357 10 -870 10 l-846 0 -29 -29z
m1702 -308 c0 -125 -1 -232 -1 -238 0 -11 -1631 -15 -1640 -3 -3 3 -4 112 -2
242 l3 236 812 2 c447 2 816 0 821 -4 5 -3 8 -109 7 -235z"/>
<path d="M6801 5016 c-45 -25 -50 -50 -50 -221 -1 -227 -3 -225 254 -225 194
0 232 8 254 56 7 15 11 84 11 174 0 166 -6 191 -55 215 -44 20 -377 21 -414 1z
m367 -84 c9 -7 12 -40 10 -133 l-3 -124 -167 -3 -168 -2 0 129 0 130 148 4
c81 1 152 4 157 5 6 1 16 -2 23 -6z"/>
<path d="M7475 5019 c-59 -17 -65 -36 -65 -219 0 -237 -5 -233 273 -228 251 4
237 -9 237 220 0 102 -4 177 -11 190 -21 39 -67 48 -241 47 -90 0 -176 -5
-193 -10z m352 -92 c2 -3 5 -60 6 -128 l2 -124 -165 0 -165 0 -3 119 c-1 65 2
123 7 130 6 7 57 10 161 9 84 -1 155 -4 157 -6z"/>
<path d="M8115 5016 c-48 -21 -55 -50 -55 -224 1 -165 2 -172 50 -205 21 -15
52 -17 213 -17 l189 0 35 35 34 34 -3 165 -3 166 -28 27 -27 28 -188 3 c-140
1 -195 -1 -217 -12z m360 -87 c6 -9 9 -138 6 -232 l-1 -27 -162 2 -163 3 0
125 0 125 150 5 c83 3 153 7 157 8 4 1 10 -3 13 -9z"/>
<path d="M6780 4400 l-30 -32 0 -167 c0 -148 3 -169 20 -191 l19 -25 211 -3
210 -3 31 30 30 31 -3 170 c-4 230 15 214 -254 218 l-205 3 -29 -31z m395
-195 l0 -130 -165 0 -165 0 -3 119 c-1 66 0 126 2 133 4 11 40 13 168 11 l163
-3 0 -130z"/>
<path d="M7439 4401 l-29 -29 0 -161 c0 -171 6 -202 47 -220 32 -15 384 -15
416 0 34 15 50 50 49 106 0 26 -1 99 -1 161 -1 112 -2 114 -30 143 l-29 29
-197 0 -197 0 -29 -29z m391 -191 c3 -69 4 -128 2 -132 -2 -5 -77 -8 -168 -8
l-164 0 0 128 c0 71 2 131 6 134 3 3 76 5 162 4 l157 -1 5 -125z"/>
<path d="M8108 4414 c-15 -8 -32 -23 -38 -33 -6 -12 -10 -189 -10 -476 -1
-499 -1 -494 56 -515 36 -14 377 -13 408 1 55 25 56 39 56 514 0 475 -1 489
-56 514 -39 18 -382 14 -416 -5z m368 -87 c5 -6 8 -200 6 -429 l-3 -417 -155
-3 c-85 -2 -159 -1 -164 0 -10 4 -15 844 -5 854 3 3 75 6 159 6 111 1 156 -2
162 -11z"/>
<path d="M6806 3825 c-53 -28 -55 -37 -56 -217 0 -162 1 -168 24 -195 l24 -28
188 -3 c103 -2 198 -1 210 2 13 4 35 19 49 34 25 26 25 30 25 184 0 93 -4 167
-11 181 -21 46 -60 55 -250 56 -137 1 -180 -2 -203 -14z m372 -217 l3 -128
-171 0 -170 0 0 123 c0 68 3 127 7 131 4 3 79 5 167 4 l161 -3 3 -127z"/>
<path d="M7463 3825 c-17 -7 -36 -22 -42 -34 -7 -12 -11 -86 -11 -185 0 -160
1 -166 24 -193 l24 -28 206 0 c266 0 249 -13 256 198 10 253 5 257 -255 257
-122 -1 -179 -5 -202 -15z m370 -215 l0 -125 -150 -5 c-83 -3 -158 -4 -167 -2
-14 3 -16 21 -16 133 l0 129 167 -2 167 -3 -1 -125z"/>
</g>
</svg>
