<svg xmlns="http://www.w3.org/2000/svg" width="800" height="800" preserveAspectRatio="xMidYMid meet" viewBox="0 0 600 600">
  <g fill="#000000" stroke="none" transform="translate(0.000000,600.000000) scale(0.100000,-0.100000)">
    <path d="M2065 3904 c-69 -36 -92 -85 -97 -207 -3 -67 -1 -75 10 -60 7 10 11 26 9 35 -3 9 0 19 7 22 7 3 6 5 -3 5 -11 1 -11 4 0 18 10 11 10 14 2 9 -7 -4 -13 -2 -13 3 0 6 5 11 11 11 5 0 7 5 3 11 -3 6 0 15 7 20 11 7 11 11 2 17 -16 10 16 64 49 85 22 14 88 31 88 23 0 -2 -25 -18 -56 -36 -31 -17 -53 -34 -50 -37 3 -3 -1 -18 -9 -34 -8 -15 -15 -55 -15 -89 0 -35 -4 -60 -11 -60 -6 0 -7 -5 -2 -12 4 -7 8 -319 9 -693 1 -717 0 -711 46 -743 10 -7 15 -19 12 -25 -4 -7 -4 -9 0 -5 4 3 22 1 39 -6 38 -16 111 -13 132 4 8 7 15 10 15 6 0 -3 9 3 21 15 50 50 50 52 52 663 0 314 3 560 5 546 2 -14 9 -28 14 -31 6 -4 7 -12 2 -20 -10 -16 -12 -119 -2 -119 3 0 9 -8 11 -17 3 -10 5 117 6 281 1 285 0 302 -20 343 -31 64 -86 93 -175 93 -43 0 -80 -6 -99 -16z m165 -15 c0 -5 9 -6 19 -4 20 4 44 -17 47 -41 2 -10 -11 -6 -40 11 -24 14 -52 25 -64 25 -11 0 -23 4 -26 9 -3 5 10 9 29 8 19 -1 35 -4 35 -8z m5 -43 c68 -29 65 7 65 -826 0 -822 1 -803 -59 -834 -38 -20 -113 -20 -151 -1 -62 32 -60 0 -60 830 0 826 -2 797 58 829 35 19 103 20 147 2z m103 -217 c2 -97 0 -184 -4 -192 -6 -9 -10 58 -11 165 -2 98 -7 187 -12 196 -4 9 -6 23 -3 31 3 11 7 9 16 -5 6 -11 12 -94 14 -195z"/>
    <path d="M2267 3859 c7 -7 15 -10 18 -7 3 3 -2 9 -12 12 -14 6 -15 5 -6 -5z"/>
    <path d="M3750 3912 c-41 -19 -71 -48 -90 -86 -19 -40 -20 -60 -20 -332 l0 -289 -635 3 c-507 2 -635 0 -635 -10 0 -10 58 -13 267 -12 148 0 220 -1 161 -3 -60 -2 -108 -7 -108 -12 0 -4 -44 -8 -97 -8 -64 1 -86 3 -63 8 l35 6 -42 2 c-26 0 -43 -3 -43 -10 0 -8 -18 -10 -59 -6 -44 5 -62 3 -71 -8 -13 -16 -22 -95 -11 -95 4 0 6 -38 5 -85 -3 -58 0 -87 9 -92 6 -4 39 -8 71 -8 39 0 61 -4 63 -13 4 -9 -12 -12 -62 -11 -44 1 -70 -3 -75 -11 -6 -10 -9 -9 -13 1 -4 10 -6 9 -6 -3 -1 -9 2 -19 7 -21 4 -3 4 -137 1 -297 -5 -271 -7 -293 -24 -306 -14 -10 -15 -14 -4 -14 10 -1 9 -4 -5 -15 -10 -8 -23 -12 -27 -9 -5 3 -6 -3 -2 -12 5 -14 2 -16 -16 -11 -16 4 -20 2 -12 -6 7 -9 -2 -12 -32 -12 -23 0 -45 -3 -48 -8 -3 -4 -24 -1 -47 7 -23 8 -42 13 -42 10 0 -2 -9 0 -20 6 -12 7 -17 16 -13 28 3 9 3 14 -1 10 -8 -7 -47 27 -44 40 0 4 -2 15 -6 24 -5 10 -6 46 -3 80 2 35 2 57 0 51 -3 -10 -9 -9 -20 3 -15 14 -18 13 -39 -13 -13 -15 -23 -24 -24 -20 0 5 -10 1 -22 -7 -28 -20 -34 -20 -41 -2 -4 9 3 14 21 14 17 0 35 10 52 31 l27 31 0 578 c1 628 2 622 -55 670 -15 13 -20 21 -12 18 8 -3 23 -9 33 -12 9 -4 17 -15 17 -25 0 -24 16 -33 24 -12 5 11 -2 26 -19 42 -23 24 -33 26 -109 26 -94 0 -121 -12 -163 -75 -22 -31 -23 -43 -22 -189 1 -157 2 -168 14 -97 3 21 9 35 12 32 10 -9 10 -56 0 -56 -4 0 -5 -5 -1 -11 3 -6 6 -200 6 -432 1 -340 3 -427 14 -449 8 -15 15 -31 15 -35 0 -13 53 -37 74 -35 18 2 18 2 3 -8 -13 -8 -24 -8 -40 1 -34 17 -58 41 -52 50 3 5 1 9 -5 9 -11 0 -34 97 -26 111 9 14 9 134 0 148 -4 8 -2 17 6 23 12 8 11 9 -1 5 -12 -3 -16 -28 -18 -133 -3 -146 8 -180 69 -222 30 -21 43 -23 122 -20 79 3 91 6 108 27 10 12 16 28 12 34 -3 6 -1 7 5 3 7 -4 12 -36 12 -79 0 -133 64 -197 194 -197 89 0 144 29 175 93 20 41 21 59 21 335 l0 292 640 0 640 0 0 -297 c0 -291 1 -299 23 -338 34 -59 86 -85 175 -85 60 0 79 4 112 25 56 35 80 88 80 174 0 42 5 73 12 77 6 4 8 3 5 -3 -4 -6 2 -22 12 -34 17 -21 29 -24 108 -27 100 -3 137 12 173 70 18 30 20 51 20 222 0 104 -2 187 -4 185 -3 -2 -7 -62 -10 -133 -3 -71 -8 -132 -11 -134 -3 -3 -5 1 -6 9 -6 154 -5 199 2 188 6 -10 9 -8 9 9 0 12 -4 22 -8 22 -7 0 -8 517 -3 614 2 29 13 -10 17 -60 9 -108 14 -68 14 105 0 160 -2 176 -22 212 -33 59 -90 83 -181 76 -68 -4 -73 -7 -103 -42 -20 -24 -34 -34 -38 -26 -4 6 -2 11 3 11 7 0 11 28 11 73 0 133 -64 197 -195 196 -38 0 -77 -3 -85 -7z m133 -16 c8 -8 23 -13 33 -10 35 8 91 -59 79 -96 -3 -11 -2 -20 3 -20 5 0 7 -12 5 -27 -4 -23 -2 -25 7 -13 10 13 11 12 5 -5 -11 -33 -14 -85 -4 -91 5 -3 9 -10 9 -15 0 -6 -5 -7 -12 -3 -7 5 -8 3 -3 -6 6 -10 13 -7 29 12 37 44 74 62 138 64 74 2 71 -2 -12 -15 -47 -8 -69 -17 -81 -32 -10 -13 -18 -17 -20 -11 -9 28 -7 -1175 2 -1209 7 -29 17 -40 46 -51 33 -14 34 -15 13 -21 -17 -4 -29 2 -50 24 -26 29 -28 29 -44 13 -10 -9 -15 -23 -12 -30 3 -7 2 -15 -2 -18 -4 -2 -7 -25 -6 -50 0 -31 -4 -47 -14 -51 -11 -4 -13 1 -7 22 12 49 7 1500 -6 1524 -8 15 -8 19 0 15 6 -4 11 0 11 9 0 9 -4 13 -10 10 -5 -3 -10 -2 -10 4 0 6 -23 24 -52 40 -42 24 -60 29 -92 25 -44 -6 -106 -37 -119 -60 -5 -8 -12 -12 -17 -9 -4 3 -6 -4 -3 -15 4 -14 0 -20 -10 -20 -13 0 -14 5 -6 30 6 16 15 28 19 25 5 -3 11 -1 15 5 3 5 1 10 -6 10 -6 0 -1 9 12 19 13 10 32 17 41 16 10 -2 18 1 18 7 0 5 6 8 14 5 8 -3 27 -2 43 3 39 12 40 12 56 -4z m27 -51 c62 -32 60 0 60 -832 0 -740 -1 -759 -20 -791 -23 -38 -54 -52 -116 -52 -59 0 -102 23 -120 65 -21 52 -21 1509 1 1561 24 58 127 84 195 49z m-232 -335 c0 -146 -3 -260 -8 -260 -5 0 -9 113 -10 253 0 214 2 267 15 267 1 0 2 -117 3 -260z m-1817 163 c13 -15 12 -15 -7 -5 -12 6 -23 9 -26 7 -2 -2 -19 -6 -39 -8 -19 -2 -41 -7 -48 -11 -9 -6 -12 -4 -9 5 3 8 12 14 21 14 8 0 19 4 23 8 14 13 71 7 85 -10z m2409 -6 c0 -6 3 -7 6 -4 4 4 20 -10 36 -31 29 -36 30 -40 26 -129 -1 -50 0 -89 4 -87 4 3 5 -2 1 -11 -12 -34 -22 9 -18 81 4 51 1 80 -10 100 -7 15 -12 30 -10 34 6 10 -58 45 -80 42 -20 -2 -20 -1 0 6 26 12 45 11 45 -1z m-2554 -19 c-1 -13 -7 -22 -14 -20 -7 1 -11 -1 -11 -5 1 -5 1 -15 0 -23 -1 -13 -3 -13 -10 -1 -7 10 -3 24 10 43 25 34 27 34 25 6z m182 -14 l22 -15 0 -609 c0 -699 11 -630 -103 -630 -56 0 -68 3 -91 26 l-26 27 0 574 c0 392 3 581 11 594 23 44 141 65 187 33z m2347 2 c18 -8 38 -23 44 -34 8 -14 11 -203 11 -597 l0 -576 -26 -24 c-23 -21 -37 -25 -95 -25 -48 0 -72 5 -83 16 -14 14 -16 84 -16 619 l0 604 28 15 c35 19 93 20 137 2z m-2570 -87 c-10 -15 -25 -10 -19 6 4 8 10 12 15 9 5 -3 7 -10 4 -15z m-3 -71 c5 -41 2 -86 -5 -79 -14 14 -21 91 -8 91 6 0 12 -6 13 -12z m2004 -403 c1 -91 -3 -165 -8 -165 -4 0 -9 50 -9 110 -1 61 -2 115 -3 120 -2 19 -27 27 -67 23 -24 -3 -39 -1 -39 6 0 6 -8 11 -17 11 -15 0 -16 -2 -3 -10 8 -5 11 -10 5 -10 -5 0 -17 4 -24 9 -21 14 30 25 75 18 43 -7 64 0 64 22 0 14 2 14 10 1 8 -13 10 -13 10 2 0 9 -6 19 -12 21 -9 4 -8 6 2 6 14 1 16 -22 16 -164z m-596 105 c-36 -6 -39 -7 -15 -9 17 -2 25 -5 18 -7 -6 -3 -34 -1 -62 4 -29 5 -54 5 -59 0 -5 -5 -62 -7 -128 -5 l-119 3 125 2 c76 1 120 6 111 11 -8 5 23 8 80 8 72 -1 83 -2 49 -7z m353 3 c80 -11 29 -18 -139 -20 -152 -1 -174 0 -158 12 19 14 213 20 297 8z m207 -163 l0 -120 -640 -2 -640 -3 0 123 0 122 640 0 640 0 0 -120z m38 -397 c-1 -140 -5 -256 -10 -259 -11 -7 -13 250 -4 426 3 51 -16 64 -85 63 -33 -1 -59 2 -59 7 0 10 21 13 81 10 22 -1 41 5 49 15 10 12 15 13 21 3 4 -7 7 -126 7 -265z m-939 243 c6 -4 20 -5 29 -1 25 11 192 15 192 5 0 -4 8 -6 19 -3 10 3 21 0 25 -5 3 -6 -86 -10 -239 -10 -219 -1 -257 3 -240 19 7 8 200 3 214 -5z m367 -1 c18 -14 18 -14 -7 -15 -14 0 -34 7 -45 15 -18 14 -18 14 7 15 14 0 34 -7 45 -15z m398 -5 c4 -5 -57 -9 -138 -9 -80 -1 -146 1 -146 4 0 3 10 10 23 14 27 11 248 3 261 -9z m838 -378 c-7 -2 -10 -13 -6 -28 4 -15 2 -24 -6 -24 -7 0 -10 -6 -7 -14 3 -8 0 -19 -7 -25 -21 -17 -26 -1 -9 26 15 22 18 35 22 88 2 20 2 20 13 1 8 -15 8 -21 0 -24z m-71 -123 c-14 -11 -33 -18 -43 -16 -10 3 -18 1 -18 -3 0 -4 -10 -5 -22 -2 -21 5 -21 6 7 14 17 4 36 6 43 3 6 -2 12 0 12 5 0 7 16 14 40 19 3 0 -6 -9 -19 -20z m-2441 -19 c11 -7 6 -10 -20 -10 -26 0 -31 3 -20 10 8 5 17 10 20 10 3 0 12 -5 20 -10z m1849 -48 c-4 -30 38 -125 52 -117 4 3 12 -3 18 -12 8 -14 11 -15 11 -3 1 12 3 12 14 -2 10 -13 24 -16 65 -13 53 4 73 13 125 59 27 24 46 33 46 21 0 -12 -92 -95 -100 -90 -5 3 -27 1 -49 -5 -65 -17 -175 32 -176 80 0 8 -4 14 -10 13 -6 0 -11 26 -12 60 -2 47 0 58 8 44 6 -9 9 -25 8 -35z"/>
    <path d="M3911 3877 c2 -2 18 -11 34 -21 l30 -17 -24 20 c-13 12 -28 21 -34 21 -6 0 -8 -1 -6 -3z"/>
    <path d="M3720 3860 c-9 -6 -10 -10 -3 -10 6 0 15 5 18 10 8 12 4 12 -15 0z"/>
    <path d="M3578 3173 c7 -3 16 -2 19 1 4 3 -2 6 -13 5 -11 0 -14 -3 -6 -6z"/>
    <path d="M3208 3173 c7 -3 16 -2 19 1 4 3 -2 6 -13 5 -11 0 -14 -3 -6 -6z"/>
    <path d="M3258 3173 c7 -3 16 -2 19 1 4 3 -2 6 -13 5 -11 0 -14 -3 -6 -6z"/>
    <path d="M3939 2173 c-13 -16 -12 -17 4 -4 16 13 21 21 13 21 -2 0 -10 -8 -17 -17z"/>
    <path d="M2045 3854 l-30 -26 35 23 c45 29 45 29 34 29 -5 0 -22 -12 -39 -26z"/>
    <path d="M2011 3804 c0 -11 3 -14 6 -6 3 7 2 16 -1 19 -3 4 -6 -2 -5 -13z"/>
    <path d="M1443 3390 c-13 -5 -32 -24 -43 -42 -19 -31 -20 -51 -20 -345 l0 -312 31 -35 c74 -85 252 -41 209 52 -13 30 -13 572 1 572 5 0 9 18 9 39 0 56 -34 81 -109 80 -31 0 -66 -4 -78 -9z m54 -16 c-3 -3 -12 -4 -19 -1 -8 3 -5 6 6 6 11 1 17 -2 13 -5z m-37 -8 c0 -2 -7 -9 -15 -16 -13 -11 -14 -10 -9 4 5 14 24 23 24 12z m140 -11 c0 -8 -2 -15 -4 -15 -2 0 -6 7 -10 15 -3 8 -1 15 4 15 6 0 10 -7 10 -15z m-16 -21 c3 -9 6 -159 6 -334 0 -305 -1 -320 -19 -330 -36 -19 -90 -12 -116 15 l-25 24 0 298 c0 353 -3 343 89 343 44 0 60 -4 65 -16z m-164 -15 c0 -11 -4 -18 -10 -14 -5 3 -7 12 -3 20 7 21 13 19 13 -6z m197 -21 c-3 -7 -5 -2 -5 12 0 14 2 19 5 13 2 -7 2 -19 0 -25z m-210 -460 c-2 -24 -4 -7 -4 37 0 44 2 63 4 43 2 -21 2 -57 0 -80z m7 -133 c5 -22 4 -26 -4 -15 -5 8 -10 24 -10 34 0 26 6 18 14 -19z m192 -41 c-10 -14 -20 -23 -24 -19 -4 3 -2 9 4 13 6 4 14 16 17 26 4 10 10 16 14 13 3 -4 -2 -18 -11 -33z m-150 -9 c10 -8 15 -14 9 -14 -5 0 -19 6 -29 14 -11 8 -15 15 -10 15 6 0 19 -7 30 -15z"/>
    <path d="M4400 3382 c-22 -18 -41 -110 -20 -97 7 4 10 -92 8 -282 -1 -158 -5 -268 -9 -243 l-7 45 0 -55 c-1 -90 5 -106 45 -125 67 -32 165 -5 192 53 7 15 11 135 11 335 0 342 0 341 -60 372 -41 21 -132 20 -160 -3z m85 -2 c-3 -5 -12 -10 -18 -10 -7 0 -6 4 3 10 19 12 23 12 15 0z m72 -16 c-3 -3 -12 -4 -19 -1 -8 3 -5 6 6 6 11 1 17 -2 13 -5z m-76 -14 c36 0 54 -5 69 -20 19 -19 20 -33 20 -320 l0 -301 -25 -24 c-17 -18 -35 -25 -64 -25 -74 0 -72 -9 -69 360 2 181 0 326 -4 323 -5 -2 -8 1 -8 7 0 7 7 9 16 6 9 -3 38 -6 65 -6z m119 -31 c0 -6 -4 -7 -10 -4 -5 3 -10 11 -10 16 0 6 5 7 10 4 6 -3 10 -11 10 -16z m-4 -625 c-4 -9 -9 -15 -11 -12 -3 3 -3 13 1 22 4 9 9 15 11 12 3 -3 3 -13 -1 -22z m-196 -19 c0 -5 -5 -3 -10 5 -5 8 -10 20 -10 25 0 6 5 3 10 -5 5 -8 10 -19 10 -25z m170 -13 c0 -4 -13 -13 -30 -19 -38 -14 -39 -8 -2 11 32 18 32 18 32 8z m-95 -22 c3 -6 -1 -7 -9 -4 -18 7 -21 14 -7 14 6 0 13 -4 16 -10z"/>
    <path d="M4372 3250 c0 -14 2 -19 5 -12 2 6 2 18 0 25 -3 6 -5 1 -5 -13z"/>
    <path d="M2408 3173 c7 -3 16 -2 19 1 4 3 -2 6 -13 5 -11 0 -14 -3 -6 -6z"/>
    <path d="M1972 2935 c0 -16 2 -22 5 -12 2 9 2 23 0 30 -3 6 -5 -1 -5 -18z"/>
  </g>
</svg>
