<svg xmlns="http://www.w3.org/2000/svg" width="800" height="800" preserveAspectRatio="xMidYMid meet" viewBox="0 0 600 600">
  <g fill="#000000" stroke="none" transform="translate(0.000000,600.000000) scale(0.100000,-0.100000)">
    <path d="M3360 4589 c-47 -5 -206 -29 -355 -54 -347 -57 -521 -79 -835 -105 -140 -12 -265 -24 -277 -26 -13 -2 -32 -22 -47 -47 -95 -163 -69 -653 37 -697 12 -5 108 -16 212 -25 416 -35 900 -103 993 -140 74 -30 106 -105 95 -226 -5 -55 -7 -58 -29 -53 -40 10 -60 -23 -73 -122 -7 -49 -16 -111 -21 -138 -10 -59 2 -92 37 -101 l24 -6 -8 -102 c-4 -56 -8 -167 -8 -247 1 -137 3 -149 29 -210 16 -36 31 -92 35 -125 8 -71 24 -100 66 -116 16 -7 31 -13 33 -14 1 -1 -7 -37 -18 -80 -38 -147 -20 -246 58 -324 60 -59 168 -96 160 -55 -2 11 -21 21 -51 29 -56 14 -102 54 -128 110 -24 52 -25 165 -2 251 l17 64 43 0 c90 0 143 46 143 124 0 22 14 60 35 100 50 89 62 161 85 502 43 624 65 692 249 738 96 24 140 47 203 105 104 95 151 229 151 426 0 302 -115 471 -373 545 -60 18 -108 23 -235 25 -88 2 -198 -1 -245 -6z m331 -30 c112 -11 227 -44 287 -83 134 -86 202 -240 202 -457 -1 -167 -45 -296 -134 -384 -57 -57 -114 -87 -211 -111 -191 -48 -223 -148 -265 -844 -14 -224 -38 -353 -77 -415 -26 -41 -31 -45 -82 -51 -64 -8 -173 1 -202 16 -11 6 -30 32 -42 58 -21 45 -22 60 -20 282 0 129 3 244 6 255 3 15 11 19 29 17 43 -5 58 26 80 169 11 72 17 142 14 155 -8 30 -42 50 -61 34 -10 -8 -15 -8 -21 1 -4 7 -3 9 4 5 14 -9 26 68 20 142 -5 77 -34 131 -89 164 -34 21 -81 34 -214 57 -175 31 -463 71 -515 71 -29 0 -29 0 -16 33 54 128 68 432 28 607 -11 52 -24 104 -27 115 -5 18 -1 20 37 23 81 5 284 33 558 77 289 47 443 66 576 73 18 1 78 -3 135 -9z m-1335 -190 c39 -115 56 -374 34 -519 -13 -83 -41 -189 -51 -196 -5 -3 -85 2 -178 11 -92 8 -176 15 -184 15 -14 0 -13 6 4 44 32 73 52 235 45 361 -7 120 -28 227 -52 263 -9 13 -14 25 -12 26 5 4 340 34 362 32 12 -1 23 -14 32 -37z m-424 -11 c2 -6 -6 -21 -18 -33 -13 -13 -28 -42 -34 -66 -29 -105 -28 -355 0 -460 6 -23 23 -53 37 -66 24 -25 42 -70 22 -58 -5 4 -7 10 -4 15 3 5 -7 8 -22 7 -22 -2 -30 5 -45 35 -64 133 -60 479 7 609 16 29 50 40 57 17z m39 -105 c30 -123 11 -512 -25 -500 -6 2 -20 28 -30 58 -36 101 -25 434 17 487 17 21 23 13 38 -45z m1269 -1093 c6 -10 -23 -237 -34 -267 -5 -12 -17 -14 -56 -11 -28 3 -53 8 -56 11 -6 5 22 244 32 276 3 10 17 12 56 8 28 -4 54 -11 58 -17z m65 -985 c22 -4 66 -2 99 3 l58 9 -5 -40 c-3 -22 -12 -46 -20 -54 -24 -25 -94 -35 -154 -23 -58 12 -69 25 -79 85 l-6 38 34 -6 c18 -4 51 -9 73 -12z"/>
    <path d="M3570 4115 c0 -13 28 -15 225 -13 142 2 225 7 225 13 0 6 -83 11 -225 13 -197 2 -225 0 -225 -13z"/>
    <path d="M3570 3995 c0 -13 28 -15 225 -13 142 2 225 7 225 13 0 6 -83 11 -225 13 -197 2 -225 0 -225 -13z"/>
    <path d="M3572 3873 c3 -17 21 -18 228 -18 193 0 225 2 225 15 0 13 -33 15 -228 18 -214 2 -228 1 -225 -15z"/>
    <path d="M2341 4194 c0 -11 3 -14 6 -6 3 7 2 16 -1 19 -3 4 -6 -2 -5 -13z"/>
    <path d="M3651 2704 c0 -11 3 -14 6 -6 3 7 2 16 -1 19 -3 4 -6 -2 -5 -13z"/>
  </g>
</svg>
