<?xml version="1.0" standalone="no"?>
<!DOCTYPE svg PUBLIC "-//W3C//DTD SVG 20010904//EN"
 "http://www.w3.org/TR/2001/REC-SVG-20010904/DTD/svg10.dtd">
<svg version="1.0" xmlns="http://www.w3.org/2000/svg"
 width="1200.000000pt" height="1200.000000pt" viewBox="0 0 1200.000000 1200.000000"
 preserveAspectRatio="xMidYMid meet">
<g transform="translate(0.000000,1200.000000) scale(0.100000,-0.100000)"
fill="#000000" stroke="none">
<path d="M5959 10183 c-21 -5 -34 -32 -59 -128 -56 -213 -163 -398 -288 -497
-93 -74 -246 -139 -418 -177 -91 -20 -124 -41 -124 -77 0 -28 44 -64 79 -64
57 -1 259 -63 326 -101 155 -86 224 -148 293 -263 49 -81 110 -226 138 -330
13 -51 31 -97 41 -103 39 -30 103 1 103 50 0 12 11 56 24 97 77 246 172 397
305 484 138 90 226 125 424 166 66 13 92 40 81 85 -8 31 -7 31 -115 55 -136
30 -199 51 -289 98 -168 88 -244 166 -326 337 -47 98 -104 263 -104 302 0 26
-41 74 -62 72 -7 -1 -20 -3 -29 -6z m51 -343 c35 -97 80 -188 119 -240 76
-102 208 -203 321 -245 82 -31 111 -46 105 -56 -4 -5 -13 -9 -21 -9 -25 0
-175 -72 -234 -111 -62 -42 -130 -110 -183 -184 -51 -73 -111 -212 -112 -261
0 -37 -2 -40 -17 -30 -10 6 -18 18 -18 26 0 9 -4 20 -8 25 -5 6 -17 36 -26 68
-10 32 -32 79 -50 105 -17 26 -38 60 -46 76 -8 15 -52 63 -98 107 -82 77 -176
133 -287 170 -52 17 -63 27 -39 35 25 8 49 17 106 43 26 12 50 21 53 21 2 0
29 15 58 34 82 52 162 130 210 204 45 68 107 192 107 212 0 18 33 62 40 53 4
-4 13 -24 20 -43z"/>
<path d="M4568 9565 c-5 -5 -153 -61 -193 -72 -11 -3 -96 -41 -188 -84 -497
-230 -919 -558 -1281 -996 -369 -446 -649 -1007 -780 -1565 -104 -442 -137
-1087 -75 -1493 88 -579 255 -1052 541 -1524 380 -627 896 -1101 1588 -1458
263 -135 614 -265 860 -318 41 -9 102 -23 135 -30 33 -8 92 -19 130 -25 39 -6
97 -15 130 -20 33 -5 143 -16 245 -24 599 -49 1180 33 1740 244 153 57 183 71
384 172 249 124 419 233 666 427 148 116 444 404 561 546 150 182 311 413 389
560 24 44 51 91 60 105 16 24 98 190 145 295 62 138 163 435 201 595 46 195
53 225 68 320 86 548 71 1097 -44 1575 -10 44 -26 112 -35 150 -45 189 -165
507 -274 725 -314 630 -796 1164 -1391 1542 -172 109 -475 252 -706 334 -69
24 -86 27 -108 17 -30 -14 -41 -48 -27 -84 8 -22 28 -32 123 -64 684 -232
1389 -801 1788 -1444 25 -40 63 -100 84 -134 63 -100 172 -321 231 -467 134
-335 187 -533 255 -950 37 -228 38 -759 2 -1020 -52 -373 -121 -637 -250 -960
-154 -388 -427 -821 -707 -1125 -526 -570 -1130 -935 -1875 -1133 -293 -79
-586 -114 -955 -115 -368 -1 -608 29 -970 119 -247 62 -494 153 -730 269 -212
105 -389 201 -393 214 -4 13 330 233 438 288 130 67 194 83 322 83 60 0 128
-4 151 -10 223 -51 365 -86 552 -135 248 -65 278 -73 415 -111 282 -77 325
-85 503 -91 191 -6 271 3 412 49 160 52 374 178 672 394 45 32 116 84 158 114
116 83 278 202 316 231 19 14 99 73 179 131 198 144 505 372 618 460 52 40
108 83 125 94 151 100 231 244 197 350 -44 137 -163 215 -327 215 -145 0 -202
-29 -848 -438 -60 -38 -139 -88 -175 -110 -138 -85 -357 -228 -399 -260 -63
-48 -71 -45 -71 30 0 153 -134 294 -311 327 -30 6 -296 10 -630 10 -676 0
-676 0 -944 90 -404 136 -496 159 -678 167 -260 12 -484 -55 -726 -216 -47
-31 -183 -122 -301 -202 -221 -149 -327 -217 -440 -284 -36 -21 -110 -67 -166
-102 -55 -34 -105 -63 -110 -63 -19 0 -199 300 -297 495 -101 203 -138 292
-205 490 -143 426 -197 767 -196 1245 1 276 18 495 53 670 5 25 15 74 22 110
11 64 29 134 74 300 25 93 103 310 161 447 100 237 282 546 451 770 233 308
567 627 853 814 30 20 84 56 120 79 54 36 355 200 366 200 2 0 32 13 66 28 66
30 123 53 248 98 41 15 81 32 88 37 21 16 15 74 -10 91 -22 16 -59 21 -70 11z
m4140 -4960 c108 -22 171 -121 128 -202 -27 -53 -72 -89 -665 -531 -157 -117
-306 -229 -331 -247 -106 -81 -401 -295 -630 -457 -367 -260 -541 -341 -780
-363 -107 -10 -290 10 -427 46 -65 17 -192 51 -283 75 -422 112 -833 213 -909
224 -129 19 -276 8 -388 -29 -103 -34 -126 -44 -233 -109 -86 -51 -357 -239
-365 -253 -9 -14 -43 -11 -62 6 -10 8 -66 52 -125 97 -243 189 -390 327 -606
570 -134 150 -131 140 -49 183 23 12 65 35 92 52 28 17 120 74 205 126 166
101 280 175 400 258 421 292 526 343 755 370 182 20 331 -6 660 -116 430 -144
379 -137 1135 -144 616 -6 626 -6 665 -28 71 -38 116 -98 135 -179 23 -101
-36 -215 -137 -265 l-48 -24 -649 -1 -650 -2 -18 -22 c-23 -29 -23 -62 1 -84
17 -16 69 -17 666 -16 624 1 649 1 708 21 66 22 141 69 157 98 5 10 33 34 62
52 29 18 107 68 173 111 171 110 270 173 430 273 77 48 176 111 220 140 465
300 643 395 715 380 8 -2 30 -6 48 -10z"/>
<path d="M5900 8042 c-36 -21 -141 -83 -235 -137 -93 -54 -214 -125 -268 -157
-53 -32 -99 -58 -102 -58 -3 0 -148 -86 -185 -110 -8 -5 -31 -19 -51 -30 -39
-21 -327 -188 -619 -360 -96 -57 -200 -117 -230 -135 -92 -53 -247 -144 -400
-235 -80 -48 -175 -104 -212 -124 -37 -21 -71 -43 -75 -49 -4 -7 -8 -49 -10
-94 -3 -121 0 -123 178 -116 81 4 139 2 139 -3 0 -5 0 -344 1 -754 l0 -745
-100 -3 c-94 -3 -101 -4 -121 -29 -25 -33 -25 -55 0 -78 20 -18 103 -19 2318
-20 1263 0 2310 3 2326 7 35 9 46 23 46 60 0 45 -24 59 -100 57 -80 -2 -92 3
-83 39 3 15 7 351 7 747 l1 720 146 0 c109 0 150 3 162 14 14 11 17 32 17 100
0 55 -5 93 -12 103 -7 8 -38 29 -68 45 -99 54 -194 109 -235 135 -22 14 -83
50 -135 80 -52 31 -160 94 -240 141 -382 224 -905 530 -1025 597 -55 32 -136
79 -180 105 -84 50 -194 114 -360 210 -55 32 -117 68 -138 82 -62 39 -84 38
-157 -5z m288 -228 c108 -64 213 -126 232 -137 107 -60 129 -73 176 -103 28
-18 64 -39 80 -46 16 -6 40 -20 54 -29 14 -9 124 -74 245 -144 121 -71 324
-189 450 -263 626 -365 713 -416 795 -458 77 -40 100 -56 100 -71 0 -4 -228
-8 -506 -7 l-505 1 -47 35 c-104 77 -513 326 -699 425 -38 19 -113 59 -168 88
-55 29 -165 83 -244 120 -120 56 -150 66 -182 62 -64 -8 -746 -358 -921 -473
-21 -13 -40 -24 -43 -24 -3 0 -18 -9 -33 -19 -15 -10 -72 -47 -127 -82 -55
-35 -121 -79 -147 -98 l-47 -35 -502 0 c-275 -1 -503 2 -504 5 -5 8 23 30 70
56 22 11 58 31 80 44 22 12 69 39 105 59 36 20 106 61 155 90 50 29 122 71
160 93 73 41 216 125 440 257 143 84 304 178 495 290 69 40 188 109 265 154
77 46 205 120 285 166 80 46 172 100 205 121 33 20 66 38 73 38 8 1 102 -51
210 -115z m13 -754 c474 -236 916 -505 1206 -734 2 -1 3 -315 4 -697 l1 -694
-387 -5 c-213 -3 -389 -3 -391 -1 -2 2 -4 212 -4 465 0 508 -4 544 -60 658
-39 78 -69 118 -140 186 -68 65 -207 136 -310 158 -268 57 -573 -93 -691 -340
-66 -139 -70 -172 -69 -675 l1 -446 -411 0 -411 0 0 690 1 690 27 23 c16 12
33 26 39 31 42 33 317 219 394 266 329 201 925 520 977 524 13 0 113 -44 224
-99z m1289 -545 c8 -7 32 -18 53 -26 40 -14 49 -29 17 -29 -11 0 -20 -4 -20
-9 0 -13 226 -23 349 -15 l111 7 0 -756 0 -756 -222 -3 c-123 -2 -227 0 -232
4 -5 4 -9 313 -10 721 l-1 714 -83 79 c-46 44 -80 82 -77 86 10 9 99 -4 115
-17z m-2936 6 c8 -12 -30 -58 -54 -66 -11 -4 -20 -14 -20 -24 0 -10 -12 -24
-26 -32 -14 -7 -31 -25 -36 -39 -6 -15 -9 -297 -7 -725 l2 -700 -229 -3 -229
-2 0 752 0 753 220 0 c231 1 265 6 265 45 0 32 98 68 114 41z m1580 -256 c176
-53 322 -204 355 -365 7 -35 12 -222 14 -512 l2 -458 -503 -2 c-277 -2 -506 0
-509 4 -2 5 -4 215 -3 468 1 436 2 463 21 527 48 154 162 266 338 334 60 22
217 25 285 4z"/>
</g>
</svg>
