<svg xmlns="http://www.w3.org/2000/svg" width="800" height="800" preserveAspectRatio="xMidYMid meet" viewBox="0 0 600 600">
  <g fill="#000000" stroke="none" transform="translate(0.000000,600.000000) scale(0.100000,-0.100000)">
    <path d="M2306 4038 c-136 -18 -257 -106 -320 -231 -116 -232 -28 -495 204 -610 62 -30 70 -32 180 -32 97 0 124 4 173 23 80 33 197 122 338 259 l120 117 92 -90 c263 -258 376 -321 560 -312 75 4 104 10 157 35 93 43 162 109 205 196 67 135 69 268 7 402 -115 245 -417 323 -652 168 -76 -50 -211 -166 -297 -255 l-72 -75 -93 94 c-114 116 -256 232 -323 266 -89 45 -180 59 -279 45z m170 -52 c29 -7 76 -26 104 -42 59 -32 232 -178 330 -278 l64 -66 -69 -71 c-94 -95 -269 -243 -326 -274 -69 -37 -163 -58 -234 -52 -102 10 -171 43 -246 117 -78 77 -108 145 -116 260 -19 270 232 476 493 406z m1332 -32 c144 -74 219 -208 210 -377 -15 -287 -305 -457 -571 -334 -65 30 -180 123 -317 255 l-105 102 103 100 c253 245 357 304 525 297 67 -3 88 -9 155 -43z m230 -249 c-3 -3 -9 2 -12 12 -6 14 -5 15 5 6 7 -7 10 -15 7 -18z m-1039 -87 c24 -7 22 -38 -2 -38 -20 0 -20 1 -2 13 17 13 17 14 -4 20 -11 3 -21 11 -21 19 0 9 3 9 8 2 4 -6 13 -13 21 -16z m-119 -152 c0 -2 -12 -11 -27 -20 l-28 -17 24 20 c23 21 31 25 31 17z m-789 -173 c13 -16 12 -17 -3 -4 -10 7 -18 15 -18 17 0 8 8 3 21 -13z m1789 -38 c0 -2 -10 -9 -22 -15 -22 -11 -22 -10 -4 4 21 17 26 19 26 11z"/>
    <path d="M2804 3698 c-4 -7 -4 -10 1 -6 4 4 15 2 24 -5 14 -11 14 -10 2 6 -16 20 -18 21 -27 5z"/>
    <path d="M2886 3593 c-6 -14 -5 -15 5 -6 7 7 10 15 7 18 -3 3 -9 -2 -12 -12z"/>
    <path d="M2686 3972 c-2 -4 4 -8 14 -8 10 0 16 4 14 8 -3 4 -9 8 -14 8 -5 0 -11 -4 -14 -8z"/>
    <path d="M3303 3965 c0 -8 4 -12 9 -9 5 3 6 10 3 15 -9 13 -12 11 -12 -6z"/>
    <path d="M2170 2955 c-25 -7 -65 -21 -90 -31 -31 -12 -75 -18 -140 -19 -79 -1 -95 -4 -98 -17 -8 -41 189 -31 288 14 32 15 74 22 147 25 95 5 107 4 187 -25 145 -53 242 -51 398 7 79 29 206 29 286 0 104 -38 126 -42 212 -43 72 0 100 5 180 33 88 31 101 33 195 29 75 -4 112 -10 148 -27 62 -29 158 -44 225 -36 42 5 52 10 52 25 0 18 -6 19 -64 13 -69 -6 -141 7 -216 40 -32 14 -74 22 -145 25 -93 4 -108 2 -190 -26 -50 -17 -113 -34 -142 -38 -63 -8 -164 9 -229 38 -75 33 -229 37 -309 9 -172 -62 -250 -64 -394 -11 -69 25 -96 30 -169 29 -48 0 -107 -6 -132 -14z"/>
    <path d="M2195 2754 c-11 -3 -51 -17 -90 -32 -56 -21 -89 -27 -165 -28 -78 -1 -96 -4 -98 -17 -7 -36 151 -34 256 4 99 35 135 41 227 36 62 -3 105 -11 138 -25 116 -51 229 -51 382 0 82 27 99 30 185 25 66 -3 109 -11 140 -25 110 -50 263 -51 377 -1 34 15 76 23 143 26 86 5 103 2 185 -25 144 -48 285 -55 285 -14 0 15 -14 17 -98 18 -75 0 -107 5 -142 21 -121 54 -271 57 -395 8 -59 -23 -86 -28 -165 -28 -68 -1 -108 4 -140 17 -100 39 -153 48 -245 44 -62 -4 -105 -12 -138 -26 -114 -51 -233 -53 -354 -6 -53 21 -89 27 -168 30 -55 1 -109 1 -120 -2z"/>
    <path d="M2408 2653 c7 -3 16 -2 19 1 4 3 -2 6 -13 5 -11 0 -14 -3 -6 -6z"/>
    <path d="M1771 2444 c-28 -25 -48 -51 -44 -57 3 -6 1 -7 -5 -3 -12 7 -332 -269 -332 -286 0 -5 7 -11 15 -14 14 -6 74 45 340 284 l90 82 1164 0 1164 0 61 -52 c34 -29 128 -113 209 -186 82 -73 153 -132 159 -130 34 12 15 31 -324 331 l-87 77 -1180 0 -1179 0 -51 -46z"/>
    <path d="M1525 2311 c-3 -5 -2 -12 3 -15 5 -3 9 1 9 9 0 17 -3 19 -12 6z"/>
    <path d="M1383 2145 c0 -8 4 -12 9 -9 5 3 6 10 3 15 -9 13 -12 11 -12 -6z"/>
  </g>
</svg>
