<svg xmlns="http://www.w3.org/2000/svg" viewBox="0 0 1200 1200">
<g fill="currentColor" transform="translate(0 1200) scale(.1 -.1)">
<path d="M5811 9860 c-245 -21 -453 -66 -676 -150 -655 -244 -1174 -751 -1429
-1396 -139 -353 -192 -705 -168 -1130 29 -526 159 -965 457 -1549 56 -110 127
-240 157 -290 30 -49 67 -112 84 -139 150 -252 429 -638 723 -1005 212 -263
204 -252 316 -385 55 -64 120 -141 144 -169 97 -115 354 -400 455 -505 76 -79
103 -96 142 -86 55 14 615 643 977 1098 495 621 771 1034 1012 1511 221 439
337 774 404 1160 59 346 56 771 -10 1088 -120 579 -452 1103 -924 1456 -166
124 -250 175 -427 261 -232 112 -491 188 -744 219 -122 15 -376 21 -493 11z
m474 -135 c621 -73 1199 -413 1591 -936 212 -284 372 -673 431 -1049 26 -165
25 -635 -1 -800 -50 -319 -151 -676 -257 -907 -16 -35 -29 -66 -29 -68 0 -16
-175 -363 -245 -485 -309 -541 -785 -1184 -1354 -1831 -180 -203 -417 -459
-426 -459 -6 0 -60 55 -120 122 -61 67 -154 170 -207 229 -295 328 -736 867
-947 1159 -294 406 -455 662 -618 985 -175 346 -274 594 -347 876 -137 522
-139 1050 -6 1499 217 735 771 1313 1495 1559 320 108 693 146 1040 106z"/>
<path d="M5775 9149 c-363 -49 -690 -184 -960 -398 -423 -335 -694 -836 -745
-1375 -29 -307 5 -595 106 -906 81 -251 303 -614 502 -821 286 -298 603 -478
987 -559 214 -44 524 -36 748 21 467 118 872 428 1158 884 155 248 253 505
315 825 25 130 30 482 10 637 -58 443 -254 841 -566 1153 -276 276 -617 454
-1005 525 -107 20 -446 28 -550 14z m432 -119 c295 -40 532 -128 773 -287 142
-94 370 -317 472 -463 85 -120 197 -343 243 -482 148 -448 130 -937 -52 -1397
-44 -112 -129 -283 -144 -289 -3 -2 -33 -19 -65 -39 -112 -69 -145 -82 -209
-83 -48 0 -71 6 -115 30 -160 86 -182 95 -263 98 -96 5 -151 -9 -240 -60 -155
-89 -198 -90 -366 -5 l-125 62 -101 0 -101 0 -127 -64 c-121 -60 -130 -63
-185 -59 -59 5 -99 21 -217 88 -82 47 -108 50 -131 15 -22 -34 -7 -71 34 -80
16 -3 63 -26 105 -51 96 -57 200 -81 279 -65 29 6 104 37 167 69 104 52 119
57 178 56 58 0 76 -6 176 -57 62 -31 134 -62 162 -68 86 -18 193 8 297 71 67
42 150 64 206 55 27 -4 96 -33 161 -67 l115 -60 85 4 c56 2 98 9 120 21 53 27
58 6 10 -49 -110 -128 -183 -204 -195 -204 -7 0 -54 24 -104 54 -65 39 -109
57 -156 66 -113 22 -171 6 -358 -97 -42 -23 -60 -27 -122 -26 -60 1 -82 6
-121 28 -114 66 -151 83 -202 95 -71 17 -160 7 -230 -25 -90 -42 -109 -69 -74
-107 22 -25 46 -23 101 10 40 23 58 27 122 27 79 0 98 -7 245 -87 53 -29 70
-33 152 -36 89 -4 93 -3 175 37 45 22 100 50 122 62 26 15 61 23 110 26 69 4
74 3 166 -44 52 -26 95 -53 95 -59 0 -27 -233 -182 -381 -253 -123 -60 -250
-104 -384 -132 l-94 -21 -30 39 c-44 56 -132 138 -206 193 -81 61 -296 170
-415 209 -109 36 -292 70 -429 79 l-101 7 3 115 c9 354 52 605 153 900 49 140
188 425 263 538 31 46 56 88 56 93 0 4 9 13 20 19 17 9 24 5 51 -32 54 -74 61
-95 57 -166 -3 -75 11 -96 28 -42 7 19 15 35 19 35 4 0 17 -26 30 -57 l23 -57
-24 -66 c-13 -36 -24 -72 -24 -80 0 -24 26 -17 38 10 6 14 17 25 23 25 8 0 10
-37 6 -132 -3 -102 -10 -149 -27 -201 -21 -60 -22 -70 -8 -83 8 -8 22 -12 32
-8 19 7 70 103 92 173 23 72 29 234 11 318 -30 138 -123 300 -207 358 -40 27
-53 55 -26 55 21 0 216 -59 246 -75 18 -9 35 -33 50 -70 26 -64 55 -77 44 -20
-9 48 7 45 83 -15 l62 -50 3 -72 c2 -60 6 -73 21 -76 13 -3 17 4 17 32 0 52
14 52 48 -2 53 -82 112 -253 112 -324 0 -45 26 -65 55 -44 26 18 26 188 0 266
-96 296 -354 490 -652 490 -68 0 -93 3 -93 13 0 36 332 127 388 106 17 -6 29
-6 36 1 15 15 100 12 159 -5 44 -13 57 -23 85 -65 17 -28 37 -50 42 -50 15 0
12 28 -6 55 -21 32 -8 32 56 1 75 -36 142 -89 219 -173 47 -51 75 -74 87 -71
83 16 -98 264 -251 345 -228 120 -528 101 -739 -47 -32 -22 -64 -40 -71 -38
-19 4 58 104 153 201 l77 77 57 0 c32 0 58 4 58 10 0 6 -17 10 -37 10 l-36 0
23 25 c36 39 127 78 164 71 17 -3 47 -8 66 -11 l35 -5 -32 15 c-48 22 -48 33
-1 46 77 21 171 27 268 16 147 -16 155 -15 158 10 4 26 -19 42 -108 74 -56 20
-83 24 -190 24 -112 -1 -133 -4 -200 -29 -166 -62 -298 -175 -393 -336 -15
-25 -28 -40 -28 -35 -1 6 -3 62 -4 125 -2 142 -24 218 -96 324 -82 124 -202
205 -362 246 -85 22 -88 23 -107 5 -20 -18 -20 -19 -3 -35 10 -9 47 -29 83
-44 88 -36 215 -129 268 -196 49 -62 106 -176 98 -196 -3 -7 2 -26 10 -42 24
-50 39 -185 26 -243 -7 -28 -12 -64 -12 -81 0 -33 -23 -35 -28 -2 -17 117 -87
250 -179 340 -134 132 -298 196 -498 195 -92 0 -124 -5 -195 -28 -77 -26 -85
-31 -88 -56 l-3 -27 143 6 c152 7 262 -4 331 -33 l39 -17 -24 -18 c-23 -18
-23 -18 24 -12 74 10 129 -19 244 -131 66 -64 115 -129 149 -200 28 -57 27
-78 -3 -57 -61 42 -143 85 -200 105 -56 18 -88 22 -197 21 -119 0 -137 -3
-212 -30 -102 -38 -181 -85 -244 -147 -63 -61 -123 -151 -115 -172 13 -34 36
-27 96 29 33 30 79 68 103 84 56 39 180 102 201 102 21 0 21 -18 0 -41 -10
-11 -14 -25 -9 -36 5 -15 15 -9 59 40 l52 59 80 5 c92 6 112 -5 70 -38 -26
-20 -35 -49 -16 -49 5 0 31 14 57 30 26 17 57 30 69 30 25 0 183 -55 196 -68
5 -5 -5 -28 -26 -56 -20 -25 -52 -67 -71 -92 -135 -176 -293 -533 -365 -824
-51 -205 -89 -560 -75 -702 4 -38 3 -69 -1 -69 -5 -1 -25 -3 -44 -5 -19 -2
-47 -6 -62 -8 -25 -5 -37 5 -120 102 -115 134 -230 309 -312 477 -92 188 -140
335 -177 545 -27 153 -33 490 -10 630 77 489 317 909 684 1199 261 206 540
327 872 376 111 16 347 19 452 5z m-1087 -3429 c230 -16 446 -73 629 -165 131
-65 341 -223 341 -256 0 -14 -92 -12 -244 5 -241 29 -404 77 -598 177 -91 46
-305 180 -318 198 -3 3 -13 9 -22 13 -11 4 -15 12 -12 22 7 18 39 18 224 6z"/>
<path d="M4885 3650 c-22 -4 -89 -16 -150 -25 -736 -116 -1124 -366 -991 -639
133 -270 802 -475 1761 -537 234 -15 749 -15 990 0 531 33 958 108 1287 225
265 94 405 191 465 323 62 134 -12 274 -204 386 -165 97 -453 187 -748 236
-292 47 -273 46 -296 25 -27 -24 -22 -65 11 -80 14 -7 69 -17 124 -23 397 -44
823 -190 967 -331 57 -56 59 -60 59 -109 0 -65 -17 -98 -77 -151 -185 -163
-641 -297 -1243 -364 -297 -34 -443 -41 -840 -41 -494 1 -785 22 -1160 84
-545 91 -941 252 -1006 408 -41 96 40 199 230 295 150 76 533 176 813 213 57
8 111 19 119 26 17 14 18 61 2 77 -13 13 -52 14 -113 2z"/>
<path d="M5200 3428 c-324 -66 -497 -156 -529 -275 -48 -179 246 -319 799
-380 226 -25 847 -25 1055 0 429 51 680 135 770 257 29 40 34 114 10 160 -17
32 -79 85 -145 123 -64 37 -204 81 -353 111 -148 31 -190 34 -212 16 -38 -32
-1 -90 57 -90 36 0 243 -45 325 -70 124 -38 243 -112 243 -152 0 -44 -25 -72
-98 -108 -269 -135 -920 -198 -1542 -149 -363 28 -622 87 -752 170 -77 50 -78
94 -3 151 79 60 258 118 460 148 93 14 125 31 125 64 0 55 -38 60 -210 24z"/>
</g>
</svg>
