<svg xmlns="http://www.w3.org/2000/svg" width="800" height="800" preserveAspectRatio="xMidYMid meet" viewBox="0 0 600 600">
  <g fill="#000000" stroke="none" transform="translate(0.000000,600.000000) scale(0.100000,-0.100000)">
    <path d="M2889 4289 c-13 -13 -19 -29 -17 -44 5 -22 1 -23 -69 -30 -158 -15 -348 -84 -484 -176 -148 -100 -291 -272 -357 -431 -33 -79 -36 -95 -26 -123 14 -34 51 -37 140 -9 73 23 96 26 181 22 66 -3 121 -13 166 -28 l68 -23 29 22 c17 12 30 17 30 11 0 -25 53 -31 134 -15 45 10 116 19 158 22 l76 6 1 -492 0 -491 -39 0 c-37 0 -41 4 -153 143 -266 328 -310 382 -321 389 -22 15 -124 9 -140 -8 -35 -35 -21 -64 119 -236 120 -148 134 -170 125 -190 -5 -13 -23 -68 -39 -124 l-31 -100 -35 4 c-48 6 -85 -19 -85 -57 0 -37 15 -49 67 -53 l41 -3 -58 -95 c-32 -52 -56 -98 -54 -102 3 -4 34 -8 69 -8 l63 0 63 105 63 105 608 0 607 0 52 -87 c74 -125 72 -123 146 -123 37 0 63 4 63 11 0 5 -27 53 -59 105 l-60 94 54 0 c46 0 57 4 70 24 13 19 13 28 4 50 -7 14 -20 28 -31 31 -11 4 -18 16 -18 30 0 13 -15 40 -34 59 l-33 36 -497 0 -496 0 0 491 0 492 80 -7 c44 -3 115 -14 156 -22 77 -16 124 -10 124 16 0 6 13 1 30 -11 l29 -22 92 28 c81 25 101 27 187 22 63 -3 120 -13 164 -28 63 -21 68 -22 92 -5 38 24 34 63 -19 173 -102 216 -264 378 -481 480 -99 47 -244 88 -346 99 -63 6 -68 8 -68 30 0 29 -33 64 -60 64 -11 0 -29 -9 -41 -21z m71 -50 c0 -10 8 -23 18 -28 15 -9 14 -10 -6 -11 -13 0 -20 4 -17 10 4 6 -7 10 -24 10 -35 0 -41 19 -15 45 19 19 44 4 44 -26z m-100 -51 c0 -4 -7 -8 -16 -8 -51 0 -138 -97 -202 -225 -41 -83 -88 -234 -102 -330 -22 -149 -22 -150 -139 -114 -100 30 -237 30 -331 0 -122 -39 -129 -28 -66 105 102 215 260 372 480 475 87 40 254 89 307 89 15 0 30 4 33 8 3 5 12 9 21 9 8 0 15 -4 15 -9z m280 -19 c299 -67 515 -214 666 -455 51 -82 98 -190 90 -210 -7 -19 -30 -17 -106 7 -49 16 -90 22 -165 22 -75 0 -116 -6 -165 -22 -111 -36 -115 -33 -135 104 -29 190 -119 405 -210 499 -50 52 -85 79 -85 66 0 -5 -7 -7 -15 -4 -23 9 -18 22 8 18 12 -2 65 -13 117 -25z m-136 -4 c118 -56 253 -318 287 -557 19 -127 11 -132 -150 -102 -103 19 -368 15 -469 -8 -90 -21 -108 -10 -105 64 3 88 49 253 102 363 60 126 123 204 193 239 56 29 83 29 142 1z m-618 -1153 c11 -7 107 -123 326 -394 l111 -138 549 0 550 0 29 -29 c64 -64 92 -61 -579 -61 l-609 0 -65 78 c-203 243 -418 513 -418 525 0 7 3 17 7 20 9 9 85 9 99 -1z m281 -559 c30 -35 53 -63 51 -63 -52 -6 -238 -3 -238 3 0 5 14 55 31 112 l32 103 35 -47 c19 -25 59 -74 89 -108z m1361 -120 c-3 -17 -51 -18 -838 -18 -787 0 -835 1 -838 18 -3 16 42 17 838 17 796 0 841 -1 838 -17z m-1546 -143 c-53 -83 -59 -89 -91 -90 -32 0 -33 1 -19 23 8 12 34 52 57 90 39 61 46 67 76 67 l34 0 -57 -90z m1463 8 c28 -45 52 -86 53 -90 2 -4 -11 -8 -30 -8 -28 0 -36 6 -57 43 -13 23 -37 61 -52 85 -16 24 -29 45 -29 48 0 2 15 4 33 4 29 0 36 -7 82 -82z"/>
    <path d="M3480 4130 c-9 -6 -10 -10 -3 -10 6 0 15 5 18 10 8 12 4 12 -15 0z"/>
    <path d="M3565 4071 c-3 -5 -2 -12 3 -15 5 -3 9 1 9 9 0 17 -3 19 -12 6z"/>
    <path d="M2406 2648 c3 -5 10 -6 15 -3 13 9 11 12 -6 12 -8 0 -12 -4 -9 -9z"/>
    <path d="M3851 2096 c-9 -11 -9 -16 1 -22 7 -4 10 -4 6 1 -4 4 -3 14 3 22 6 7 9 13 6 13 -2 0 -10 -6 -16 -14z"/>
  </g>
</svg>
