<svg xmlns="http://www.w3.org/2000/svg" width="800" height="800" preserveAspectRatio="xMidYMid meet" viewBox="0 0 600 600">
  <g fill="#000000" stroke="none" transform="translate(0.000000,600.000000) scale(0.100000,-0.100000)">
    <path d="M3813 4630 c-37 -15 -65 -69 -59 -114 2 -21 11 -45 19 -53 13 -13 6 -30 -61 -139 l-75 -124 -884 0 -883 0 -12 -24 c-15 -33 -1 -55 186 -295 84 -108 270 -347 413 -531 333 -430 480 -618 509 -653 l24 -29 0 -514 0 -514 -227 -2 c-228 -3 -228 -3 -231 -25 l-3 -23 485 0 486 0 0 25 0 25 -229 0 -229 0 2 515 2 514 114 148 c63 81 153 197 199 258 47 60 126 162 176 225 314 396 645 834 645 854 0 44 -11 46 -251 46 -125 0 -234 3 -243 6 -14 5 -14 9 3 33 10 14 17 32 15 39 -1 7 0 8 3 2 2 -5 9 -8 14 -4 15 9 10 -1 -11 -26 -21 -24 -26 -40 -12 -40 7 0 60 79 109 163 22 37 23 64 2 51 -5 -3 -6 -10 -3 -16 5 -7 2 -8 -6 -3 -9 6 -12 4 -8 -7 4 -8 -6 -28 -23 -46 -17 -18 -27 -37 -23 -44 4 -6 3 -8 -4 -4 -5 3 -13 0 -15 -6 -3 -8 -6 -9 -6 -2 -1 6 9 24 21 39 39 49 58 97 52 129 l-5 30 24 -22 c14 -13 24 -31 23 -40 -1 -22 36 -28 75 -11 45 18 69 55 69 106 0 38 -5 50 -34 79 -27 27 -42 34 -72 33 -22 0 -49 -4 -61 -9z m8 -45 c-22 -19 -31 -36 -32 -58 0 -30 -1 -31 -11 -9 -9 17 -8 26 5 40 8 9 16 20 16 25 1 4 3 7 6 7 3 -1 13 6 22 15 8 9 18 14 20 11 3 -3 -9 -17 -26 -31z m110 16 c21 -17 34 -61 18 -61 -12 0 -19 30 -6 31 7 0 6 3 -3 6 -21 9 -56 43 -43 43 6 0 21 -8 34 -19z m-13 -38 c28 -37 -1 -93 -48 -93 -36 0 -60 24 -60 60 0 54 74 77 108 33z m29 -87 c-7 -17 -66 -50 -74 -42 -3 3 3 9 13 13 10 4 27 18 38 30 19 25 32 24 23 -1z m-259 -294 c-2 -9 -11 -16 -21 -16 -9 1 -17 -3 -17 -8 0 -5 -12 -25 -26 -44 -15 -19 -23 -34 -20 -34 4 0 -4 -12 -18 -27 -14 -15 -23 -30 -21 -34 3 -4 -2 -10 -10 -13 -13 -4 -12 0 2 26 35 61 41 70 51 80 6 6 8 18 5 27 -4 14 -3 14 6 1 12 -16 14 -10 5 13 -3 9 -13 13 -25 10 -10 -3 -19 -1 -19 4 0 6 11 9 25 8 13 -2 29 2 34 9 16 19 53 18 49 -2z m32 -4 c0 6 4 12 10 12 5 0 7 -7 3 -15 -7 -19 -25 -15 -31 6 -3 11 -2 11 7 -1 7 -10 11 -11 11 -2z m-1773 -11 c4 -6 -4 -8 -20 -5 -15 3 -24 2 -22 -3 3 -4 1 -10 -5 -14 -6 -4 -2 -15 10 -27 11 -12 18 -23 16 -26 -8 -8 -26 9 -42 40 -10 20 -11 28 -3 22 9 -5 11 -2 6 9 -5 12 1 15 24 15 16 -1 32 -6 36 -11z m100 7 c-3 -3 -12 -4 -19 -1 -8 3 -5 6 6 6 11 1 17 -2 13 -5z m293 -4 c0 -5 -4 -10 -10 -10 -5 0 -10 5 -10 10 0 6 5 10 10 10 6 0 10 -4 10 -10z m208 3 c-15 -2 -42 -2 -60 0 -18 2 -6 4 27 4 33 0 48 -2 33 -4z m392 -3 c0 -5 -9 -10 -21 -10 -11 0 -17 5 -14 10 3 6 13 10 21 10 8 0 14 -4 14 -10z m310 0 c0 -5 -12 -10 -27 -9 l-28 1 25 8 c14 4 26 8 28 9 1 1 2 -3 2 -9z m260 0 c11 -7 -1 -9 -40 -9 -42 1 -49 3 -30 9 35 11 53 11 70 0z m635 2 c18 -13 15 -31 -5 -27 -14 3 -47 -33 -140 -151 -66 -85 -126 -164 -132 -174 -11 -18 -28 -19 -210 -22 -109 -2 -198 0 -198 3 0 6 45 80 183 302 l29 47 223 0 c128 0 226 4 230 9 3 5 -7 12 -22 14 l-28 4 30 1 c17 1 35 -2 40 -6z m-1878 -8 c-3 -3 -12 -4 -19 -1 -8 3 -5 6 6 6 11 1 17 -2 13 -5z m1333 -20 c0 -3 -48 -83 -106 -177 l-107 -172 -602 0 -602 0 -128 165 c-70 91 -132 171 -138 178 -7 9 161 12 837 12 465 0 846 -3 846 -6z m526 -42 c-17 -16 -18 -16 -5 5 7 12 15 20 18 17 3 -2 -3 -12 -13 -22z m-17 -38 c-14 -17 -30 -9 -23 11 3 7 12 11 20 8 11 -4 12 -9 3 -19z m-2164 -4 c26 -29 14 -33 -14 -4 -13 13 -19 24 -14 24 6 0 18 -9 28 -20z m2141 -22 c4 -6 3 -8 -4 -4 -6 3 -13 -2 -16 -11 -9 -28 -52 -74 -61 -65 -5 4 -5 -1 -2 -10 3 -9 -1 -22 -10 -30 -9 -7 -29 -30 -44 -51 -15 -21 -30 -33 -34 -27 -9 14 4 32 17 24 8 -5 9 -1 5 10 -4 9 -3 15 2 12 4 -3 14 7 22 22 7 15 32 44 54 64 22 20 36 40 32 44 -7 8 10 34 24 34 4 0 11 -5 15 -12z m-2096 -39 c0 -6 -4 -7 -10 -4 -5 3 -10 11 -10 16 0 6 5 7 10 4 6 -3 10 -11 10 -16z m1560 -18 c0 -6 -4 -13 -10 -16 -5 -3 -10 1 -10 9 0 9 5 16 10 16 6 0 10 -4 10 -9z m-1504 -46 c1 -8 -2 -15 -8 -15 -6 0 -8 7 -4 15 3 8 1 15 -4 15 -6 0 -10 5 -10 12 0 17 23 -7 26 -27z m1467 8 c-3 -10 -13 -26 -20 -35 -8 -9 -12 -21 -8 -27 4 -7 0 -8 -11 -4 -14 5 -16 3 -11 -11 4 -10 1 -19 -8 -22 -8 -4 -13 -10 -10 -14 3 -5 0 -12 -6 -15 -20 -13 36 -40 91 -43 30 -2 57 -5 59 -8 4 -4 -165 1 -176 5 -10 4 0 43 12 47 8 4 12 10 9 15 -3 5 2 12 10 15 9 3 13 10 10 16 -3 5 5 22 18 36 14 15 28 35 31 45 4 9 9 17 11 17 3 0 3 -8 -1 -17z m-1418 -56 c4 4 5 3 2 -3 -4 -7 0 -17 8 -24 8 -7 15 -18 15 -24 -1 -9 -18 8 -60 60 -5 7 -6 15 -2 18 3 4 11 -3 17 -14 6 -11 15 -17 20 -13z m1803 -79 c-7 -13 -12 -26 -13 -29 0 -13 -105 -123 -105 -111 0 7 7 15 15 18 8 4 15 10 15 16 0 5 -5 6 -12 2 -7 -4 -8 -3 -4 5 4 6 12 9 17 6 5 -4 6 2 2 11 -6 15 -10 12 -32 -16 -55 -72 -494 -638 -544 -701 -28 -36 -90 -116 -136 -176 l-85 -111 -36 47 c-20 25 -120 154 -223 286 -321 414 -378 488 -454 582 -61 77 -72 97 -67 118 3 14 10 25 15 25 6 0 5 -9 -1 -20 -11 -20 -9 -20 557 -20 363 0 563 4 553 10 -8 5 -26 10 -40 11 -15 1 -8 5 20 10 49 10 70 6 70 -12 0 -8 -6 -7 -17 2 -17 13 -17 12 -3 -5 13 -16 12 -20 -3 -31 -9 -6 -14 -15 -10 -18 3 -4 1 -7 -6 -7 -7 0 -10 -4 -7 -8 3 -5 -4 -19 -15 -30 -22 -25 -38 -30 -19 -7 7 8 10 15 6 15 -4 0 1 11 10 25 9 14 14 28 11 31 -3 3 -18 -13 -33 -35 -23 -36 -25 -43 -13 -58 13 -16 12 -17 -3 -5 -14 11 -18 10 -28 -8 -10 -18 -17 -21 -50 -15 -182 31 -337 -215 -229 -366 18 -25 18 -26 -5 -60 -13 -19 -44 -69 -71 -113 -43 -71 -46 -80 -32 -94 22 -21 32 -11 106 108 49 79 67 100 80 94 39 -16 113 -16 155 0 96 37 178 172 161 264 -12 64 -58 138 -78 125 -5 -3 2 14 17 38 15 24 39 65 54 91 l27 48 195 2 c150 2 194 6 193 16 -3 10 31 18 60 13 4 0 6 2 5 7 -3 10 25 52 35 52 4 0 2 -10 -5 -22z m-1699 -36 c33 -3 39 -11 18 -23 -16 -9 -16 -11 0 -37 l17 -27 -27 25 c-15 13 -25 30 -23 37 3 7 1 14 -4 14 -6 1 -14 2 -20 3 -5 0 -10 4 -10 9 0 42 0 43 13 22 7 -11 23 -21 36 -23z m189 3 c-8 -8 -98 -9 -105 -1 -4 3 20 6 52 6 32 0 56 -2 53 -5z m282 -6 c-30 -4 -104 -4 -165 0 l-110 8 165 0 c122 1 151 -2 110 -8z m597 -3 c3 -3 -108 -4 -247 -1 -138 2 -255 7 -258 11 -8 8 497 -1 505 -10z m458 4 c-16 -4 -46 -8 -65 -8 l-35 0 30 8 c17 4 46 8 65 8 l35 0 -30 -8z m-1452 -131 c4 1 7 -2 6 -5 0 -4 5 -10 12 -15 7 -4 14 -18 15 -31 2 -13 0 -17 -2 -11 -3 7 -4 14 -2 17 2 2 -9 14 -24 26 -16 12 -28 29 -27 38 0 15 1 15 8 -1 4 -10 10 -18 14 -18z m1501 5 c3 -8 2 -12 -4 -9 -6 3 -13 0 -16 -9 -3 -8 -12 -17 -20 -20 -9 -3 -6 5 8 24 25 35 24 34 32 14z m-477 -75 c-6 -10 -14 -15 -17 -11 -3 4 -12 7 -20 8 -8 1 -26 4 -39 9 -18 5 -22 4 -16 -5 6 -9 4 -11 -4 -5 -22 13 3 27 30 17 13 -5 33 -6 44 -1 11 4 16 8 12 8 -5 1 -5 6 -1 12 4 8 9 7 14 -2 5 -7 3 -20 -3 -30z m-947 -36 c0 -8 5 -11 10 -8 6 4 9 3 8 -2 -2 -4 5 -19 15 -33 9 -13 17 -20 17 -15 0 5 7 -1 16 -13 8 -12 13 -28 11 -35 -3 -7 -6 -4 -6 6 -1 10 -5 16 -10 12 -6 -3 -15 5 -22 17 -6 13 -21 34 -34 48 -12 14 -25 34 -29 44 -5 16 -4 17 9 6 8 -7 15 -19 15 -27z m795 19 c-3 -3 -11 0 -18 7 -9 10 -8 11 6 5 10 -3 15 -9 12 -12z m559 6 c-16 -28 -27 -37 -36 -31 -6 3 -1 14 13 24 29 22 33 23 23 7z m-606 -17 c-7 -11 -15 -18 -19 -15 -5 2 -13 -6 -20 -18 -7 -13 -18 -27 -26 -33 -7 -5 -15 -21 -18 -34 -5 -27 -12 -37 -21 -29 -7 8 34 88 45 88 4 0 14 11 21 25 7 13 17 22 22 19 4 -3 8 0 8 5 0 6 5 11 10 11 6 0 5 -8 -2 -19z m204 -29 c68 -67 40 -205 -53 -266 -97 -63 -209 -23 -225 81 -18 121 76 228 194 220 44 -3 59 -9 84 -35z m54 -14 c8 -15 12 -28 8 -28 -4 0 -2 -6 4 -13 7 -8 7 -18 2 -27 -8 -12 -10 -11 -10 5 -1 24 -34 97 -42 90 -2 -3 -5 2 -5 10 0 20 24 0 43 -37z m294 -18 c0 -5 -4 -10 -10 -10 -5 0 -10 5 -10 10 0 6 5 10 10 10 6 0 10 -4 10 -10z m-29 -38 c-5 -9 -22 -28 -37 -42 -29 -26 -16 -3 19 32 10 10 15 24 11 30 -4 7 -3 8 4 4 8 -5 9 -13 3 -24z m-1153 -64 c-8 -4 -14 -2 -16 7 -2 8 -8 15 -13 15 -6 0 -7 5 -4 11 5 7 14 4 26 -7 15 -13 17 -19 7 -26z m912 13 c0 -6 -4 -12 -10 -16 -5 -3 -7 -12 -4 -19 3 -8 1 -17 -4 -20 -5 -3 -8 5 -7 17 1 12 3 28 4 35 1 14 21 17 21 3z m-889 -34 c-1 -12 -15 -9 -19 4 -3 6 1 10 8 8 6 -3 11 -8 11 -12z m504 3 c3 -5 1 -10 -4 -10 -6 0 -11 5 -11 10 0 6 2 10 4 10 3 0 8 -4 11 -10z m547 -8 c-7 -2 -9 -8 -6 -13 3 -6 -5 -20 -18 -33 -38 -37 -93 -109 -90 -119 1 -5 -2 -6 -7 -3 -5 3 -14 -7 -21 -23 -8 -21 -17 -28 -28 -24 -10 4 -13 2 -8 -5 9 -14 -12 -55 -24 -47 -5 3 -7 12 -4 20 4 8 11 12 17 8 6 -4 8 0 4 10 -6 16 15 41 26 30 4 -3 7 1 7 11 0 9 15 32 33 50 49 52 77 88 94 123 9 18 21 29 27 26 6 -4 6 -8 -2 -11z m-1012 -49 l22 -38 -30 30 c-17 16 -28 33 -26 37 8 13 11 10 34 -29z m480 11 c0 -8 -4 -12 -10 -9 -5 3 -10 10 -10 16 0 5 5 9 10 9 6 0 10 -7 10 -16z m317 -30 c-15 -15 -24 -30 -22 -35 3 -4 -8 -15 -24 -24 -22 -11 -32 -12 -37 -3 -4 6 -3 8 3 5 11 -7 73 56 73 74 0 6 5 7 10 4 6 -3 10 -1 10 6 0 7 3 9 7 6 3 -4 -6 -19 -20 -33z m-752 -24 c3 -5 -1 -10 -10 -10 -9 0 -13 5 -10 10 3 6 8 10 10 10 2 0 7 -4 10 -10z m505 -45 c25 -14 36 -25 25 -23 -11 2 -23 7 -27 12 -8 12 -80 -63 -72 -75 3 -5 0 -9 -5 -9 -15 0 -14 6 12 48 23 36 25 72 6 72 -6 0 -7 5 -3 11 4 7 9 8 13 1 3 -6 26 -22 51 -37z m-490 15 c0 -5 -5 -10 -11 -10 -5 0 -7 5 -4 10 3 6 8 10 11 10 2 0 4 -4 4 -10z m18 -15 c-3 -3 10 -22 28 -42 19 -20 34 -43 34 -51 0 -7 5 -10 12 -6 7 5 8 3 3 -6 -7 -11 -12 -8 -24 10 -9 14 -28 39 -43 56 -24 27 -27 44 -10 44 3 0 3 -2 0 -5z m592 -21 c-24 -8 -48 -10 -52 -6 -4 4 7 9 24 10 18 2 34 5 37 7 2 3 11 5 20 4 9 -1 -4 -7 -29 -15z m-215 -83 c3 -5 2 -12 -3 -15 -5 -3 -9 1 -9 9 0 17 3 19 12 6z m345 -43 c0 -6 -13 -24 -30 -40 -16 -15 -30 -32 -30 -37 0 -5 -7 -12 -16 -15 -8 -3 -12 -10 -9 -16 3 -6 -1 -13 -9 -16 -9 -3 -16 -10 -16 -15 0 -12 -33 -49 -44 -49 -5 0 -1 9 9 20 10 11 14 20 10 20 -5 0 0 8 11 19 32 31 53 59 47 64 -2 3 5 8 17 12 13 4 19 12 16 21 -3 8 1 17 9 20 8 4 15 13 15 21 0 8 5 11 10 8 6 -3 10 -11 10 -17z m-605 -9 c-4 -5 -2 -9 3 -9 11 0 92 -99 92 -113 0 -6 -9 -2 -20 8 -11 10 -17 21 -15 25 3 4 -6 16 -20 26 -13 10 -22 21 -19 26 3 4 -6 13 -20 19 -14 7 -22 17 -19 25 3 8 9 11 14 8 5 -3 7 -10 4 -15z m233 -1 c-7 -13 -11 -27 -10 -31 1 -5 -2 -6 -8 -2 -5 3 -10 1 -10 -4 0 -6 -5 -11 -12 -11 -6 0 -2 10 10 23 12 13 22 29 22 35 0 7 5 12 10 12 7 0 6 -8 -2 -22z m-84 -182 c44 -66 47 -84 7 -37 -17 19 -28 38 -25 42 2 4 -3 9 -11 13 -13 5 -22 36 -11 36 2 0 20 -24 40 -54z m263 -50 c-20 -24 -33 -47 -29 -51 4 -5 1 -5 -6 -1 -9 6 -8 13 5 31 10 12 25 32 33 44 8 11 18 21 23 21 5 0 -7 -20 -26 -44z m-183 -61 c6 -17 4 -17 -18 4 -14 13 -23 28 -20 33 7 10 27 -10 38 -37z m136 -5 c0 -5 -4 -10 -10 -10 -5 0 -10 5 -10 10 0 6 5 10 10 10 6 0 10 -4 10 -10z m-48 -64 c-29 -47 -42 -50 -42 -10 0 13 -5 23 -12 22 -6 -2 -13 6 -15 17 l-3 20 9 -20 c5 -11 10 -16 10 -12 1 4 8 4 17 -1 19 -11 57 15 47 31 -3 6 -1 7 5 3 7 -4 2 -21 -16 -50z m-25 -309 c-1 -45 -3 -5 -3 88 0 94 2 130 3 82 2 -48 2 -125 0 -170z m0 -209 c-2 -13 -4 -3 -4 22 0 25 2 35 4 23 2 -13 2 -33 0 -45z m0 -180 c-2 -24 -4 -5 -4 42 0 47 2 66 4 43 2 -24 2 -62 0 -85z m0 -200 c-3 -7 -5 -2 -5 12 0 14 2 19 5 13 2 -7 2 -19 0 -25z m4 -101 c2 -44 6 -58 20 -62 25 -8 13 -31 -16 -31 -13 0 -22 3 -19 7 2 4 -1 9 -8 11 -8 3 -7 8 3 17 10 10 13 30 11 70 -2 31 -2 54 1 51 3 -3 7 -31 8 -63z m-91 -77 c20 -6 15 -8 -25 -9 -36 0 -46 2 -35 9 17 11 25 11 60 0z m280 -4 c8 -2 -11 -4 -42 -5 -32 0 -58 2 -58 7 0 7 64 6 100 -2z m246 5 c-4 -5 -3 -11 1 -14 5 -2 2 -2 -5 0 -8 1 -55 4 -105 5 l-92 2 95 6 c52 3 99 7 103 8 5 1 6 -2 3 -7z m-716 -7 c-34 -7 -108 -8 -103 -1 2 4 30 6 61 6 31 -1 50 -3 42 -5z m88 -1 c-10 -2 -26 -2 -35 0 -10 3 -2 5 17 5 19 0 27 -2 18 -5z m157 -3 c3 -6 -1 -7 -9 -4 -18 7 -21 14 -7 14 6 0 13 -4 16 -10z"/>
    <path d="M2025 4071 c-3 -5 -2 -12 3 -15 5 -3 9 1 9 9 0 17 -3 19 -12 6z"/>
    <path d="M3814 3749 c-8 -14 13 -18 30 -6 16 12 16 13 -4 13 -12 0 -23 -4 -26 -7z"/>
    <path d="M2610 3311 c0 -6 4 -13 10 -16 6 -3 7 1 4 9 -7 18 -14 21 -14 7z"/>
    <path d="M2775 3111 c-3 -5 -2 -12 3 -15 5 -3 9 1 9 9 0 17 -3 19 -12 6z"/>
    <path d="M3046 2867 c3 -10 9 -15 12 -12 3 3 0 11 -7 18 -10 9 -11 8 -5 -6z"/>
    <path d="M2193 3755 c0 -8 4 -12 9 -9 5 3 6 10 3 15 -9 13 -12 11 -12 -6z"/>
    <path d="M3199 3490 c-25 -24 -30 -36 -25 -58 14 -57 73 -79 117 -44 44 36 22 109 -39 127 -17 5 -30 -1 -53 -25z m86 -13 c14 -11 15 -16 5 -22 -9 -5 -11 -4 -6 3 8 13 -36 27 -59 18 -8 -3 -15 -1 -15 4 0 15 53 12 75 -3z m-21 -23 c3 -9 4 -20 0 -25 -3 -5 0 -9 5 -9 6 0 11 -8 11 -17 -1 -17 -1 -17 -11 0 -5 9 -16 17 -24 17 -21 0 -28 19 -15 35 16 19 26 19 34 -1z m-57 -9 c0 -8 -4 -15 -9 -15 -4 0 -8 7 -8 15 0 8 4 15 8 15 5 0 9 -7 9 -15z m93 -15 c0 -5 -2 -10 -4 -10 -3 0 -8 5 -11 10 -3 6 -1 10 4 10 6 0 11 -4 11 -10z m-80 -25 c11 -13 10 -14 -4 -9 -9 3 -16 10 -16 15 0 13 6 11 20 -6z"/>
    <path d="M3606 4307 c3 -10 9 -15 12 -12 3 3 0 11 -7 18 -10 9 -11 8 -5 -6z"/>
    <path d="M2726 2888 c3 -5 10 -6 15 -3 13 9 11 12 -6 12 -8 0 -12 -4 -9 -9z"/>
    <path d="M3186 2753 c-6 -14 -5 -15 5 -6 7 7 10 15 7 18 -3 3 -9 -2 -12 -12z"/>
  </g>
</svg>
