<svg xmlns="http://www.w3.org/2000/svg" width="800" height="800" preserveAspectRatio="xMidYMid meet" viewBox="0 0 600 600">
  <g fill="#000000" stroke="none" transform="translate(0.000000,600.000000) scale(0.100000,-0.100000)">
    <path d="M2608 4293 c6 -2 18 -2 25 0 6 3 1 5 -13 5 -14 0 -19 -2 -12 -5z"/>
    <path d="M2231 4236 c-8 -9 -10 -140 -9 -472 l3 -459 777 -3 777 -2 3 22 c2 13 1 226 -2 473 l-5 450 -766 3 c-639 2 -768 0 -778 -12z m1519 -461 l0 -435 -745 0 -745 0 0 435 0 435 745 0 745 0 0 -435z"/>
    <path d="M2772 3203 c3 -16 23 -18 223 -21 211 -2 256 3 241 27 -5 8 -79 11 -237 11 -214 0 -230 -1 -227 -17z"/>
    <path d="M2004 2939 c-3 -6 -2 -15 3 -20 5 -5 9 -1 9 11 0 23 -2 24 -12 9z"/>
    <path d="M2070 2902 c-52 -26 -70 -70 -70 -174 l0 -88 -41 0 c-31 0 -47 -6 -70 -29 l-29 -29 0 -317 c0 -296 1 -316 18 -313 13 3 17 14 18 58 l1 55 1103 0 1103 0 1 -55 c1 -44 5 -55 19 -58 16 -3 17 17 17 313 l0 317 -29 29 c-23 23 -39 29 -70 29 l-41 0 0 88 c0 104 -18 148 -70 175 -32 16 -70 17 -457 15 l-421 -3 -26 -24 c-24 -22 -26 -23 -42 -6 -9 9 -28 21 -41 26 -13 5 -207 9 -431 9 -367 0 -410 -2 -442 -18z m887 -44 l23 -21 0 -309 0 -308 -470 0 -470 0 0 305 0 306 25 24 24 25 422 0 c420 0 423 0 446 -22z m978 -3 l25 -24 0 -310 c0 -286 1 -310 18 -314 15 -4 15 -5 0 -6 -9 0 -20 4 -23 9 -4 6 -172 10 -471 10 l-464 0 0 307 c0 301 0 307 22 330 l21 23 424 0 424 0 24 -25z m-930 -13 c-3 -3 -11 0 -18 7 -9 10 -8 11 6 5 10 -3 15 -9 12 -12z m1025 -232 c15 0 37 -8 49 -17 19 -17 21 -29 23 -196 l3 -177 -52 0 -53 0 0 189 c0 104 -2 195 -3 203 -2 7 -2 10 0 6 3 -5 17 -8 33 -8z m-2025 -190 l0 -200 -55 0 -55 0 3 179 c3 198 3 199 70 212 20 3 37 7 37 8 0 0 0 -89 0 -199z m1002 -216 c-3 -3 -12 -4 -19 -1 -8 3 -5 6 6 6 11 1 17 -2 13 -5z m1100 -64 l2 -40 -1108 0 -1107 0 1 40 0 40 1105 0 1105 0 2 -40z"/>
  </g>
</svg>
