<?xml version="1.0" standalone="no"?>
<!DOCTYPE svg PUBLIC "-//W3C//DTD SVG 20010904//EN"
 "http://www.w3.org/TR/2001/REC-SVG-20010904/DTD/svg10.dtd">
<svg version="1.0" xmlns="http://www.w3.org/2000/svg"
 width="600.000000pt" height="600.000000pt" viewBox="0 0 600.000000 600.000000"
 preserveAspectRatio="xMidYMid meet">
<g transform="translate(0.000000,600.000000) scale(0.100000,-0.100000)"
fill="#000000" stroke="none">
<path d="M2975 5094 c-217 -25 -361 -90 -482 -218 -123 -129 -186 -287 -186
-471 -1 -305 187 -563 483 -665 91 -31 251 -38 352 -16 241 54 436 232 515
471 23 70 26 96 26 210 0 114 -3 140 -26 210 -81 247 -273 414 -540 469 -42 9
-84 15 -94 15 -10 -1 -31 -4 -48 -5z m170 -109 c199 -52 361 -209 425 -410 25
-80 30 -227 11 -310 -24 -100 -87 -210 -164 -288 -237 -236 -598 -236 -837 2
-120 119 -180 261 -180 426 0 270 183 508 445 580 69 18 228 18 300 0z"/>
<path d="M2319 3580 c-450 -82 -652 -345 -684 -895 -16 -268 43 -829 105
-1011 59 -170 188 -277 405 -335 114 -30 348 -38 431 -14 89 25 119 51 242
205 111 138 173 210 182 210 4 0 64 -71 133 -157 148 -187 176 -215 242 -245
46 -21 64 -23 220 -23 146 0 182 3 255 23 176 48 315 147 373 265 78 161 129
531 131 957 1 273 -10 361 -65 524 -86 258 -247 404 -525 478 -77 20 -112 23
-254 22 -185 0 -248 -13 -408 -80 -48 -20 -96 -37 -107 -37 -11 0 -56 17 -101
37 -133 60 -219 78 -384 82 -80 1 -166 -1 -191 -6z m389 -109 c46 -12 131 -42
188 -68 l105 -46 89 42 c178 82 374 116 540 92 252 -37 428 -146 518 -319 90
-172 115 -307 115 -607 0 -394 -49 -767 -120 -911 -30 -61 -109 -141 -169
-172 -85 -43 -214 -73 -344 -79 -198 -9 -252 14 -364 156 -32 42 -43 63 -34
66 7 2 60 16 118 30 326 80 418 128 483 252 55 105 123 361 115 431 -2 22 -9
28 -34 30 -17 2 -35 -3 -41 -10 -6 -7 -18 -56 -27 -108 -20 -113 -66 -255
-103 -317 -35 -60 -93 -96 -223 -137 -96 -31 -339 -96 -360 -96 -5 0 -29 26
-54 59 l-45 59 130 117 c249 225 362 362 423 515 28 70 31 84 31 205 0 127 -1
132 -33 197 -63 129 -169 192 -322 193 -82 0 -178 -29 -222 -68 -12 -11 -33
-29 -45 -40 -22 -19 -22 -19 -48 7 -43 43 -97 73 -164 90 -78 20 -121 20 -196
0 -116 -30 -187 -88 -237 -193 -40 -82 -50 -211 -24 -311 46 -180 148 -318
424 -571 83 -77 152 -143 152 -147 0 -4 -22 -31 -48 -60 l-47 -53 -155 39
c-169 44 -322 94 -348 113 -96 72 -139 167 -186 409 -21 105 -21 105 -52 108
-19 2 -36 -3 -44 -13 -27 -32 54 -355 115 -461 29 -49 90 -106 142 -132 55
-28 212 -78 338 -108 61 -14 114 -29 118 -33 16 -16 -118 -162 -178 -194 -36
-20 -55 -22 -185 -22 -164 1 -240 16 -355 70 -95 45 -157 102 -195 178 -35 72
-72 243 -96 442 -21 175 -30 614 -15 727 53 400 230 599 591 664 104 18 274
12 378 -15z m125 -539 c26 -12 69 -44 97 -72 27 -27 57 -50 67 -50 10 0 41 22
67 49 66 67 131 95 221 96 113 0 189 -43 240 -137 38 -69 47 -193 20 -284 -45
-159 -143 -281 -463 -578 l-84 -77 -91 83 c-308 280 -419 421 -462 585 -61
233 70 423 281 410 33 -3 81 -14 107 -25z"/>
</g>
</svg>
