<svg xmlns="http://www.w3.org/2000/svg" viewBox="0 0 1200 1200">
<g fill="currentColor" transform="translate(0 1200) scale(.1 -.1)">
<path d="M5855 10180 c-150 -22 -280 -56 -380 -99 -98 -43 -210 -100 -257
-132 -32 -21 -60 -39 -62 -39 -16 0 -166 -142 -166 -157 0 -8 -4 -12 -9 -9
-13 8 -116 -122 -183 -233 -32 -52 -58 -99 -58 -103 0 -4 -11 -32 -25 -61 -84
-184 -127 -451 -105 -655 15 -143 33 -231 71 -338 139 -395 439 -704 827 -855
335 -129 728 -114 1059 41 399 187 685 553 780 1000 27 128 25 421 -4 550 -30
130 -53 198 -106 312 -100 214 -269 414 -454 539 -78 53 -215 128 -241 132
-10 2 -26 8 -37 14 -53 29 -166 63 -285 85 -76 13 -292 18 -365 8z m222 -41
c11 -11 62 -9 146 5 22 4 37 2 37 -4 0 -5 -8 -10 -17 -10 -14 0 -15 -2 -4 -12
11 -10 14 -10 18 0 3 6 18 12 35 12 23 0 29 -4 24 -15 -4 -11 1 -15 18 -15 33
0 56 -10 56 -24 0 -11 73 -36 105 -36 19 0 106 -40 123 -57 7 -7 21 -13 30
-14 13 0 11 -3 -5 -11 -13 -6 -23 -15 -23 -20 0 -11 37 -10 45 2 9 15 25 12
25 -5 0 -8 9 -15 19 -15 20 0 71 -40 71 -56 1 -5 10 -20 20 -33 14 -17 27 -22
45 -19 17 4 25 1 25 -8 0 -8 -4 -14 -10 -14 -5 0 -10 -5 -10 -11 0 -7 10 -9
25 -5 28 7 70 -25 54 -41 -6 -6 -4 -15 6 -23 18 -15 20 -35 3 -24 -7 5 -19 9
-28 10 -8 1 -26 6 -40 10 -22 7 -24 6 -11 -9 7 -9 9 -17 3 -17 -14 0 -33 26
-30 41 2 8 -4 13 -12 12 -8 -1 -23 9 -33 22 -15 22 -16 25 -2 25 8 0 15 9 15
20 0 23 -23 26 -66 10 -29 -11 -47 -4 -25 9 9 6 2 10 -21 15 -18 4 -48 22 -68
41 -19 20 -44 35 -58 35 -15 0 -21 4 -16 12 5 7 3 8 -5 3 -7 -4 -23 -3 -34 2
-49 22 -74 32 -112 44 -22 6 -48 15 -57 20 -10 5 -30 9 -46 9 -15 0 -32 4 -37
9 -15 14 -126 24 -275 25 -156 1 -234 -7 -255 -24 -8 -7 -26 -10 -40 -8 -14 3
-28 1 -31 -3 -3 -5 -15 -9 -28 -9 -12 0 -26 -4 -31 -8 -6 -5 -32 -17 -60 -27
-27 -9 -64 -26 -82 -36 -19 -11 -35 -14 -38 -8 -4 5 -11 7 -16 3 -5 -3 -7 -10
-4 -15 4 -5 -6 -9 -20 -9 -14 0 -24 -4 -21 -9 11 -17 -22 -33 -54 -26 -18 4
-30 3 -30 -4 0 -5 10 -11 23 -13 20 -4 18 -6 -13 -20 -19 -9 -45 -25 -57 -37
-26 -25 -37 -27 -29 -6 3 8 1 15 -5 15 -7 0 -9 -10 -5 -25 7 -27 -10 -35 -31
-14 -8 8 -13 8 -17 0 -4 -6 0 -11 8 -11 9 0 16 -2 16 -4 0 -11 -107 -116 -118
-116 -7 0 -12 -11 -12 -24 0 -27 -16 -44 -23 -24 -2 7 -2 3 0 -9 4 -27 -3 -29
-24 -7 -15 14 -18 12 -35 -28 -11 -23 -34 -55 -51 -70 -31 -26 -32 -27 -12
-42 20 -14 20 -15 1 -22 -12 -5 -21 -3 -24 4 -9 28 -23 10 -16 -20 6 -29 5
-31 -10 -19 -10 9 -16 10 -16 2 0 -6 -7 -11 -15 -11 -21 0 -20 4 20 66 19 30
35 61 35 69 0 8 6 15 13 15 24 0 58 57 51 86 -5 18 -3 25 7 24 36 -5 58 2 64
19 4 12 12 18 21 14 9 -3 14 2 14 15 0 12 5 24 10 27 6 3 10 13 10 22 0 13 -3
13 -15 3 -9 -7 -18 -10 -21 -7 -9 9 5 27 22 27 8 0 14 7 14 15 0 8 11 17 25
21 14 3 25 9 25 13 0 3 15 13 32 20 35 16 67 48 68 69 0 6 5 12 10 12 6 0 10
7 10 16 0 12 6 15 22 11 12 -3 30 -1 40 4 16 9 17 13 7 26 -11 13 -8 14 26 7
33 -6 37 -5 32 10 -9 23 29 59 55 52 13 -3 33 4 53 20 17 13 44 24 58 24 15 0
27 4 27 9 0 12 65 37 120 46 25 4 50 12 57 17 20 16 120 22 153 8 20 -8 34 -9
43 -2 27 22 145 30 164 11z m188 -170 c228 -56 400 -152 566 -318 170 -170
272 -352 329 -591 20 -80 23 -121 23 -260 0 -176 -10 -241 -58 -384 -75 -224
-200 -405 -384 -557 -54 -44 -220 -149 -237 -149 -2 0 -23 -9 -47 -20 -176
-83 -444 -119 -627 -85 -158 29 -176 34 -225 53 -264 105 -475 269 -608 471
-143 216 -207 426 -207 678 0 233 71 465 207 671 54 82 212 242 296 300 172
118 367 195 547 216 93 11 339 -3 425 -25z m683 -310 c18 9 22 9 22 -2 0 -7
-5 -18 -11 -24 -18 -18 5 -23 36 -7 34 18 38 14 26 -20 -11 -27 -3 -34 17 -14
9 9 12 7 12 -10 0 -12 5 -22 10 -22 6 0 10 -9 10 -20 0 -28 -30 -25 -59 5 -25
27 -52 35 -31 10 7 -9 10 -18 7 -22 -4 -3 -12 7 -19 23 -7 16 -15 31 -18 34
-3 3 -15 19 -27 37 -24 34 -33 70 -10 39 11 -15 17 -17 35 -7z m-1968 -9 c0
-5 -9 -14 -19 -19 -16 -9 -18 -8 -14 9 5 20 33 29 33 10z m2130 -134 c0 -8 -4
-18 -10 -21 -17 -11 -11 -35 17 -70 21 -26 30 -31 40 -23 9 7 13 7 13 0 0 -19
-12 -42 -22 -42 -13 0 -38 26 -38 40 0 8 -9 10 -27 5 -21 -5 -25 -4 -17 5 8 8
9 19 1 39 -8 22 -6 33 8 54 19 30 35 35 35 13z m20 -41 c0 -8 -4 -15 -10 -15
-5 0 -10 7 -10 15 0 8 5 15 10 15 6 0 10 -7 10 -15z m-2310 -160 c0 -8 -7 -15
-15 -15 -9 0 -12 6 -9 15 4 8 10 15 15 15 5 0 9 -7 9 -15z m-31 -36 c12 -23
20 -43 18 -46 -8 -8 -47 49 -47 68 0 28 6 24 29 -22z m2411 6 c11 -13 10 -21
0 -43 -9 -19 -14 -23 -18 -12 -3 7 0 16 7 18 16 5 14 32 -4 32 -8 0 -15 5 -15
10 0 15 16 12 30 -5z m33 -66 c3 -13 1 -19 -6 -16 -15 5 -22 37 -9 37 5 0 12
-9 15 -21z m-2460 -11 c7 -25 -1 -68 -13 -68 -9 0 -21 70 -14 82 9 15 22 9 27
-14z m-41 -120 c-9 -9 -12 -7 -12 12 0 19 3 21 12 12 9 -9 9 -15 0 -24z m-20
-130 c-15 -15 -26 -4 -18 18 5 13 9 15 18 6 9 -9 9 -15 0 -24z"/>
<path d="M5763 10103 c9 -2 25 -2 35 0 9 3 1 5 -18 5 -19 0 -27 -2 -17 -5z"/>
<path d="M5215 9829 c-10 -15 3 -25 16 -12 7 7 7 13 1 17 -6 3 -14 1 -17 -5z"/>
<path d="M5066 9693 c-23 -31 -8 -52 18 -24 12 13 15 25 9 34 -6 12 -11 11
-27 -10z"/>
<path d="M4800 7174 c-580 -67 -968 -268 -1207 -624 -255 -381 -351 -870 -324
-1646 7 -170 14 -320 16 -334 3 -14 9 -90 15 -170 35 -489 134 -998 232 -1195
115 -228 327 -393 638 -495 208 -69 414 -100 655 -100 294 0 438 46 584 184
35 34 178 204 319 379 l254 318 25 -23 c21 -19 262 -316 368 -452 267 -344
387 -407 782 -406 387 1 738 93 990 260 135 89 263 246 326 401 100 240 196
843 222 1389 35 739 1 1148 -125 1515 -37 107 -124 287 -177 367 -205 310
-528 507 -973 596 -151 30 -227 37 -420 36 -192 0 -237 -4 -370 -35 -25 -6
-65 -15 -90 -21 -144 -33 -425 -139 -522 -196 -26 -15 -30 -15 -95 20 -182 97
-424 176 -668 218 -62 11 -394 21 -455 14z m423 -199 c210 -31 394 -90 626
-201 74 -35 137 -64 142 -64 4 0 73 32 153 70 79 39 148 70 153 70 5 0 38 11
72 25 83 34 271 82 392 100 127 19 375 19 515 0 319 -44 604 -165 789 -334
116 -107 194 -214 265 -364 114 -240 173 -502 192 -858 17 -307 -9 -958 -52
-1274 -67 -494 -112 -698 -185 -845 -123 -245 -345 -389 -730 -471 -173 -37
-445 -49 -602 -25 -158 24 -232 73 -379 253 -47 58 -98 119 -112 135 -48 53
-55 49 163 97 388 84 695 189 835 284 180 123 298 365 384 784 63 306 65 326
41 359 -29 43 -131 36 -154 -10 -6 -12 -22 -86 -36 -166 -34 -197 -35 -202
-45 -225 -5 -11 -16 -51 -25 -90 -10 -38 -24 -88 -32 -110 -8 -22 -24 -65 -35
-95 -30 -84 -38 -99 -92 -183 -99 -153 -238 -213 -874 -372 -117 -30 -229 -60
-248 -67 -34 -12 -37 -11 -56 12 -11 14 -27 34 -36 45 -9 11 -30 38 -46 58
-15 21 -44 54 -63 74 -30 29 -33 37 -22 47 8 7 115 105 239 217 403 365 576
550 725 777 103 158 165 309 201 491 19 97 16 330 -6 416 -63 253 -246 464
-445 516 -16 4 -57 15 -90 24 -75 22 -255 23 -340 2 -124 -30 -267 -102 -335
-167 -42 -40 -50 -60 -25 -60 8 0 15 5 15 11 0 6 7 8 16 5 11 -4 15 -2 11 7
-3 9 3 13 17 13 14 -1 22 6 24 22 4 23 35 31 47 11 5 -7 15 -5 31 6 14 9 28
14 32 11 4 -2 25 4 47 14 22 11 48 19 58 20 9 0 17 7 17 15 0 10 10 15 31 15
24 0 30 3 25 16 -5 14 0 15 36 11 24 -3 58 -9 76 -12 21 -5 32 -3 32 4 0 26
134 3 153 -26 4 -7 18 -13 30 -13 l22 1 -22 18 c-13 11 -23 23 -23 27 0 4 5 3
12 -4 7 -7 27 -12 45 -12 37 0 42 -14 14 -46 -14 -18 -29 -22 -76 -23 -32 0
-79 4 -103 10 -32 7 -48 6 -58 -2 -17 -14 -133 -7 -143 9 -7 12 -51 5 -51 -9
0 -5 9 -9 21 -9 11 0 17 -4 14 -10 -3 -5 -18 -7 -33 -4 -35 7 -83 -11 -77 -29
5 -13 -63 -57 -89 -57 -13 0 -46 -35 -46 -50 0 -6 -3 -10 -7 -10 -5 0 -25 -16
-45 -35 -20 -19 -41 -35 -46 -35 -6 0 -8 -9 -5 -20 6 -21 -11 -28 -22 -10 -4
6 -14 10 -23 8 -40 -6 -160 71 -146 94 3 4 -2 8 -11 8 -9 0 -14 4 -11 8 3 5
-4 19 -15 31 -14 15 -27 19 -44 15 -14 -3 -25 -2 -25 3 0 5 -16 15 -35 23 -19
8 -35 20 -35 27 0 7 -9 13 -20 13 -11 0 -37 7 -58 15 -26 11 -83 17 -199 20
-89 2 -173 7 -186 10 -14 4 -28 2 -31 -4 -5 -7 3 -11 21 -11 l28 -1 -25 -14
c-14 -8 -34 -14 -44 -15 -11 0 -28 -7 -38 -16 -15 -14 -20 -15 -34 -4 -13 12
-21 11 -50 -5 -19 -10 -34 -24 -34 -32 0 -18 13 -16 38 7 22 21 42 26 42 11 0
-9 -64 -61 -75 -61 -3 0 -23 -11 -43 -25 -41 -28 -62 -33 -38 -10 8 8 19 15
25 15 16 0 13 15 -4 30 -18 15 -19 28 -2 43 34 31 106 67 135 67 11 0 31 15
46 34 29 38 73 53 106 36 18 -9 24 -8 34 6 10 12 20 15 40 10 16 -4 34 -2 41
4 21 18 64 19 95 4 23 -12 32 -12 63 1 37 15 77 20 77 9 0 -4 -8 -13 -17 -21
-16 -13 -14 -14 20 -8 29 5 37 3 37 -10 0 -9 9 -15 25 -15 14 0 28 -7 32 -16
4 -12 14 -14 39 -10 19 4 35 2 39 -4 3 -6 11 -7 17 -4 7 5 9 2 6 -8 -4 -10 0
-14 15 -14 16 1 24 -8 32 -36 9 -33 12 -35 21 -20 9 13 14 14 25 6 19 -16 79
-28 79 -16 0 5 -20 29 -43 53 -112 113 -303 181 -504 181 -167 -1 -319 -50
-454 -147 -170 -123 -269 -322 -285 -578 -19 -302 95 -600 354 -924 124 -156
431 -457 785 -770 26 -22 47 -47 47 -55 0 -8 -18 -32 -41 -53 -22 -22 -60 -68
-84 -101 -45 -62 -68 -80 -88 -67 -6 3 -27 10 -46 13 -20 4 -97 23 -171 43
-74 19 -146 37 -160 40 -78 17 -231 62 -400 118 -207 69 -277 113 -357 221
-34 47 -99 184 -128 273 -17 51 -68 251 -84 330 -7 33 -17 78 -21 100 -5 22
-12 66 -15 97 -9 79 -33 108 -91 108 -25 0 -56 -7 -69 -16 -30 -20 -32 -59
-10 -179 93 -512 199 -782 368 -930 128 -113 503 -247 967 -345 58 -13 114
-29 124 -36 19 -13 19 -14 -1 -21 -12 -4 -74 -69 -139 -143 -151 -173 -165
-186 -249 -225 -87 -40 -179 -55 -335 -55 -304 0 -634 75 -829 189 -134 79
-246 192 -306 311 -33 66 -81 214 -95 295 -7 39 -19 99 -27 135 -8 36 -19 90
-23 120 -5 30 -13 87 -19 125 -16 99 -47 401 -71 690 -16 206 -13 800 5 952
73 586 279 967 635 1171 159 91 376 163 590 195 129 20 404 21 533 2z m821
-145 c7 -7 2 -10 -12 -10 -12 0 -22 4 -22 9 0 5 -8 12 -17 14 -10 2 -5 3 12 0
16 -2 34 -8 39 -13z m262 -849 c-3 -5 -14 -11 -25 -14 -14 -3 -18 -1 -14 9 3
8 14 14 25 14 10 0 17 -4 14 -9z m550 -42 c8 -14 -14 -29 -41 -28 -11 0 -14 3
-7 6 6 2 12 11 12 19 0 17 26 19 36 3z m70 -18 c36 -9 35 -21 -4 -44 -26 -15
-34 -16 -51 -5 -26 16 -28 32 -2 18 18 -9 19 -7 15 27 -4 25 -2 33 4 25 5 -7
22 -16 38 -21z m-1369 -26 c118 -30 200 -81 305 -187 129 -130 127 -130 256 0
106 108 191 159 307 187 182 44 386 -3 510 -117 75 -68 120 -140 155 -249 26
-82 30 -107 30 -209 0 -113 -15 -214 -46 -308 -47 -142 -174 -352 -304 -502
-21 -25 -56 -65 -77 -90 -60 -71 -213 -216 -621 -590 -45 -41 -82 -80 -82 -86
0 -6 17 -11 39 -11 28 0 47 7 71 28 18 16 38 29 44 29 6 -1 1 -9 -11 -19 -24
-20 -30 -41 -13 -41 6 0 10 -7 10 -15 0 -8 -7 -15 -15 -15 -8 0 -15 5 -15 10
0 6 -4 10 -10 10 -5 0 -10 -7 -10 -15 0 -8 -5 -15 -11 -15 -5 0 -3 -10 5 -22
9 -12 16 -41 16 -64 0 -25 5 -44 13 -47 9 -3 7 -9 -5 -24 -10 -11 -18 -25 -18
-31 0 -16 -11 -15 -36 3 -12 8 -23 12 -26 10 -2 -3 -36 27 -74 67 -38 39 -61
69 -51 65 26 -10 20 11 -12 41 -15 15 -36 41 -46 59 -11 18 -26 34 -34 36 -9
2 1 4 22 4 31 1 37 -2 37 -20 0 -14 3 -17 8 -10 4 6 19 10 34 10 23 -2 27 -6
22 -22 -4 -16 -3 -17 5 -5 11 16 13 15 29 -15 10 -19 11 -19 18 -2 14 37 -27
80 -326 347 -180 160 -355 337 -490 496 -95 111 -213 319 -255 449 -71 219
-72 371 -5 555 42 115 137 226 236 276 121 61 295 82 421 49z m1426 -40 c-9
-7 -13 -17 -9 -23 9 -15 4 -15 -27 1 -19 10 -23 17 -16 30 5 9 16 14 23 11 8
-3 17 0 21 6 6 9 10 9 16 -1 4 -8 1 -17 -8 -24z m-2062 -66 c-12 -14 -21 -35
-20 -53 0 -17 3 -25 6 -18 2 7 14 17 25 23 17 9 14 1 -15 -53 -40 -73 -65 -84
-85 -38 -13 29 -12 32 12 57 14 14 26 29 26 34 0 4 6 14 13 21 6 7 18 25 26
41 9 17 18 24 24 18 6 -6 1 -18 -12 -32z m2164 -17 c-3 -11 1 -32 9 -47 l15
-29 10 25 c7 18 10 20 10 6 1 -10 -5 -25 -13 -32 -12 -12 -18 -10 -40 15 -29
33 -34 60 -11 60 8 0 15 5 15 10 0 6 3 10 6 10 3 0 3 -8 -1 -18z m2 -107 c6
-14 9 -25 6 -25 -9 0 -33 29 -33 39 0 19 15 11 27 -14z m-1117 5 c0 -5 -7 -10
-15 -10 -8 0 -15 5 -15 10 0 6 7 10 15 10 8 0 15 -4 15 -10z m1163 -37 c7 -34
-6 -46 -17 -17 -6 15 2 60 8 52 2 -2 6 -18 9 -35z m-2333 -57 c-12 -12 -13
-36 -1 -36 5 0 12 10 16 23 l7 22 8 -25 c10 -31 12 -83 4 -104 -7 -19 -26 -22
-23 -3 4 28 -2 48 -12 42 -6 -4 -7 -19 -4 -36 12 -54 -12 -29 -25 26 -10 43
-11 58 -2 67 7 7 12 23 12 36 0 21 2 23 15 12 11 -9 13 -16 5 -24z m49 25 c7
-5 12 -14 10 -20 -3 -7 -11 -3 -21 9 -18 21 -13 26 11 11z m2348 -51 c7 0 13
-7 13 -15 0 -19 -5 -19 -30 2 -11 10 -20 27 -19 38 0 19 1 19 11 -2 6 -13 17
-23 25 -23z m9 -95 c5 -17 -23 -46 -38 -40 -24 9 -10 57 15 53 11 -2 22 -7 23
-13z m-2438 -47 c5 -7 13 -75 17 -152 6 -128 9 -140 31 -163 28 -28 33 -83 9
-103 -24 -20 -44 3 -27 30 6 11 12 30 11 42 l0 23 -9 -22 c-15 -36 -19 -27
-19 38 1 68 -4 78 -26 59 -13 -10 -15 -9 -15 8 0 12 5 24 11 28 6 3 8 18 5 33
-4 14 -9 63 -12 109 -6 80 0 99 24 70z m2458 -125 c-11 -11 -17 4 -9 23 7 18
8 18 11 1 2 -10 1 -21 -2 -24z m-14 -60 c2 -34 -1 -52 -14 -67 -17 -21 -17
-20 -18 24 0 90 25 125 32 43z m-6 -199 c-3 -9 -10 -13 -16 -9 -5 3 -13 -7
-17 -22 -7 -27 -7 -27 -14 12 -8 46 -3 66 16 59 7 -3 17 1 21 8 11 16 19 -25
10 -48z m-2426 -20 c0 -8 -4 -14 -10 -14 -5 0 -10 2 -10 4 0 2 -3 12 -6 20 -5
12 -2 15 10 10 9 -3 16 -12 16 -20z m2370 -67 c0 -7 -8 -28 -19 -47 -10 -19
-24 -52 -30 -72 -11 -33 -14 -36 -27 -24 -20 20 -13 37 54 121 5 6 7 16 4 23
-2 6 1 12 7 12 6 0 11 -6 11 -13z m-79 -180 c-13 -13 -26 -3 -16 12 3 6 11 8
17 5 6 -4 6 -10 -1 -17z m-2121 -18 c0 -18 -2 -19 -15 -9 -15 12 -12 30 6 30
5 0 9 -10 9 -21z m2065 -49 c-6 -9 -9 -9 -16 1 -10 17 0 34 13 21 6 -6 7 -16
3 -22z m4 -42 c-9 -16 -14 -19 -17 -9 -2 7 2 17 9 22 20 13 21 11 8 -13z
m-1954 -86 c-8 -8 -25 17 -25 38 0 9 6 6 16 -8 9 -13 13 -26 9 -30z m3553 -68
c12 -8 12 -18 4 -45 -33 -105 -35 -120 -24 -131 6 -6 9 -31 6 -62 -4 -36 -3
-47 5 -36 16 23 18 -68 3 -115 -8 -24 -11 -57 -7 -82 5 -34 2 -49 -13 -71 -11
-15 -23 -53 -26 -84 -4 -32 -13 -61 -20 -65 -8 -5 -17 -18 -20 -30 -6 -17 -3
-23 8 -23 18 0 19 -4 10 -49 -5 -24 -11 -30 -24 -26 -19 6 -29 -25 -31 -89
l-1 -31 -10 30 c-5 17 -9 37 -9 45 3 42 0 65 -9 74 -6 6 -10 26 -10 45 0 27 3
32 12 23 30 -30 38 3 13 52 -20 37 -20 95 0 102 8 4 15 14 15 24 0 10 6 20 13
23 8 3 6 9 -7 19 -20 15 -19 29 3 113 6 22 11 63 11 90 0 28 6 59 14 70 22 32
37 97 25 111 -11 13 9 94 23 94 5 0 9 28 9 63 l1 62 11 -45 c6 -25 17 -50 25
-56z m-3534 22 c-6 -16 -24 -23 -24 -8 0 10 22 33 27 28 2 -2 1 -11 -3 -20z
m1806 17 c-1 -14 -30 -47 -36 -41 -8 8 14 48 26 48 6 0 10 -3 10 -7z m-2691
-75 c-12 -40 -13 -41 -17 -14 -4 32 20 102 26 74 2 -9 -3 -36 -9 -60z m2712
49 c-1 -12 -15 -9 -19 4 -3 6 1 10 8 8 6 -3 11 -8 11 -12z m-3515 -58 c2 -30
26 -92 39 -101 6 -4 9 -36 7 -70 -2 -47 0 -59 8 -48 8 11 9 0 4 -43 -6 -52 -4
-60 16 -79 19 -17 21 -27 16 -61 -4 -23 -11 -46 -17 -53 -16 -19 0 -46 24 -38
19 6 19 3 13 -37 -10 -54 -7 -142 3 -149 4 -3 10 -24 13 -47 4 -31 2 -43 -8
-47 -11 -4 -12 -11 -6 -23 10 -21 4 -103 -8 -103 -16 0 -21 19 -10 37 9 14 7
34 -7 87 l-19 68 -16 -33 -17 -33 -6 26 c-4 14 -2 35 4 46 6 12 11 33 11 47 0
22 -3 25 -20 20 -15 -5 -20 -2 -20 10 0 11 5 15 15 11 8 -3 15 -1 15 4 0 6 -4
10 -10 10 -20 0 -42 61 -35 100 4 24 2 47 -6 62 -7 13 -14 50 -15 83 -1 33 -6
87 -10 119 -5 42 -4 57 4 52 15 -9 27 33 13 47 -6 6 -11 18 -11 27 1 12 4 11
16 -5 14 -19 15 -18 12 15 -1 19 -8 40 -15 45 -9 7 -11 23 -7 48 7 41 28 45
30 6z m4384 -38 c0 -11 -4 -22 -9 -25 -16 -10 -18 -90 -3 -113 10 -16 12 -34
6 -65 -4 -24 -7 -49 -5 -55 1 -7 -3 -13 -9 -13 -5 0 -10 23 -10 53 l-1 52 -15
-29 c-10 -18 -14 -40 -10 -60 4 -22 3 -27 -4 -16 -7 12 -12 12 -21 3 -8 -8 -9
-16 -2 -25 12 -15 14 -138 2 -138 -4 0 -10 10 -12 23 l-4 22 -8 -22 c-8 -26
-10 -27 -36 -13 -20 11 -27 40 -9 40 6 0 10 -5 10 -11 0 -5 5 -7 10 -4 8 5 7
11 0 21 -7 8 -10 31 -6 56 3 24 3 35 0 26 -5 -18 -24 -25 -24 -10 0 15 25 62
33 62 4 0 7 -8 7 -17 1 -31 30 16 30 47 0 15 3 30 7 34 5 4 9 39 10 78 2 84 9
106 25 90 18 -18 28 -15 28 8 0 11 5 20 10 20 6 0 10 -9 10 -19z m-3560 -47
c0 -8 6 -14 14 -14 8 0 23 -23 35 -52 11 -29 20 -45 20 -35 1 9 6 17 11 17 13
0 13 -23 0 -36 -6 -6 -6 -21 -1 -40 4 -16 6 -45 3 -63 -3 -23 0 -38 9 -45 29
-23 39 -63 23 -94 -17 -36 -44 -51 -37 -21 4 13 0 19 -11 19 -8 0 -22 13 -31
30 -20 38 -19 43 5 28 11 -7 20 -18 20 -25 0 -7 5 -13 10 -13 15 0 12 16 -10
55 -12 22 -18 45 -14 59 3 15 -1 27 -12 37 -16 13 -17 12 -12 -8 4 -13 2 -23
-2 -23 -14 0 -25 23 -27 55 -1 17 -7 62 -12 100 -6 39 -9 76 -6 83 6 16 25 6
25 -14z m2553 20 c8 -8 -3 -34 -14 -34 -5 0 -9 9 -9 20 0 19 11 26 23 14z
m-43 -68 c0 -8 -7 -16 -15 -20 -15 -5 -21 14 -8 27 11 12 23 8 23 -7z m890
-352 c0 -16 -23 -44 -35 -44 -12 0 -12 5 -3 25 10 21 38 36 38 19z m16 -55 c8
-13 -44 -61 -58 -53 -5 3 -2 14 6 23 9 10 16 23 16 29 0 15 27 16 36 1z
m-3092 -228 c-5 -6 -44 30 -44 41 0 5 11 -2 24 -14 13 -13 22 -25 20 -27z
m-994 -98 c-1 -24 -2 -26 -11 -10 -5 9 -7 22 -4 27 10 17 15 11 15 -17z m4910
-8 c0 -14 -4 -25 -10 -25 -5 0 -10 11 -10 25 0 14 5 25 10 25 6 0 10 -11 10
-25z m-2521 -38 c22 -24 21 -61 -1 -39 -14 14 -38 4 -38 -15 0 -9 6 -13 15 -9
8 3 15 1 15 -3 0 -5 -7 -11 -15 -15 -8 -3 -15 -1 -15 4 0 17 -21 11 -41 -12
-12 -15 -18 -18 -19 -9 0 8 8 20 18 27 16 13 16 15 -1 28 -15 12 -15 15 -2 26
12 10 15 10 15 -4 0 -9 5 -16 10 -16 16 0 26 33 12 38 -7 2 -12 12 -12 23 0
24 22 15 59 -24z m170 -54 c0 -25 -1 -25 -8 -8 -5 11 -7 23 -4 28 8 14 13 7
12 -20z m2351 7 c0 -11 -4 -20 -10 -20 -5 0 -10 9 -10 20 0 11 5 20 10 20 6 0
10 -9 10 -20z m-29 -71 c-9 -23 -10 -22 -10 11 -1 23 2 31 9 24 7 -7 7 -19 1
-35z m-2036 -59 c3 -6 17 -7 30 -4 32 8 50 -3 35 -21 -8 -10 -7 -16 7 -24 16
-9 13 -12 -22 -28 -22 -9 -47 -18 -55 -18 -9 0 -15 -9 -14 -23 0 -15 -5 -22
-18 -22 -25 0 -68 44 -68 70 0 22 19 27 38 8 17 -17 37 39 21 58 -9 11 -6 14
14 14 14 0 29 -5 32 -10z m-768 -23 c9 -6 23 -5 44 3 66 28 55 -33 -20 -104
l-30 -29 -38 36 c-21 21 -43 37 -50 37 -7 0 -13 5 -13 10 0 6 9 10 21 10 17 0
20 4 15 24 -3 12 -3 25 -1 28 8 7 58 -3 72 -15z"/>
<path d="M5590 5950 c0 -5 9 -10 21 -10 11 0 17 5 14 10 -3 6 -13 10 -21 10
-8 0 -14 -4 -14 -10z"/>
<path d="M6132 5879 c2 -7 10 -15 17 -17 8 -3 12 1 9 9 -2 7 -10 15 -17 17 -8
3 -12 -1 -9 -9z"/>
<path d="M8550 3976 c0 -8 5 -18 10 -21 6 -3 10 3 10 14 0 12 -4 21 -10 21 -5
0 -10 -6 -10 -14z"/>
<path d="M8512 3727 c-17 -20 -12 -40 6 -28 8 5 12 16 10 26 -3 17 -4 17 -16
2z"/>
</g>
</svg>
