<svg xmlns="http://www.w3.org/2000/svg" viewBox="0 0 600 600">
<g transform="translate(0,600) scale(.1,-.1)" fill="currentColor" stroke="none">
<path d="M2135 4802 c-152 -53 -279 -191 -314 -343 -7 -28 -11 -375 -11 -947
l0 -904 28 6 c15 3 53 8 85 12 l57 6 0 159 0 159 740 0 740 0 0 -170 0 -170
58 7 c31 3 68 9 82 13 l25 6 5 900 5 899 23 47 c104 211 399 224 502 22 20
-39 26 -69 30 -149 l5 -100 85 0 85 0 3 61 c4 78 -20 193 -55 264 -38 77 -127
163 -210 203 -64 30 -74 32 -184 32 -113 0 -116 -1 -191 -38 -87 -42 -170
-119 -210 -194 -54 -98 -58 -137 -58 -510 l0 -343 -740 -2 -740 -3 0 341 c0
402 1 406 90 496 45 45 69 60 115 74 115 33 218 4 294 -82 51 -58 71 -122 71
-226 l0 -78 86 0 87 0 -5 113 c-6 132 -27 196 -93 287 -51 68 -123 120 -209
150 -76 26 -209 27 -281 2z m1325 -1464 l0 -218 -740 0 -740 0 0 218 0 217
740 0 740 0 0 -217z"/>
<path d="M1992 2538 c-123 -10 -228 -39 -332 -94 -255 -133 -317 -154 -477
-154 l-93 0 0 -92 0 -91 104 6 c157 9 268 39 404 109 200 104 211 109 294 130
67 17 103 19 207 16 152 -6 237 -31 376 -112 154 -91 230 -118 383 -136 166
-20 347 16 502 101 246 136 310 154 505 147 155 -6 222 -27 382 -119 162 -94
326 -139 504 -139 l69 0 0 90 0 90 -98 0 c-158 0 -254 30 -455 143 -113 64
-195 90 -336 107 -175 20 -403 -26 -547 -112 -111 -66 -183 -99 -263 -119 -90
-23 -227 -25 -326 -4 -64 14 -103 31 -335 152 -74 38 -226 79 -315 84 -33 2
-102 1 -153 -3z"/>
<path d="M1925 1910 c-97 -17 -213 -62 -324 -125 -157 -88 -246 -116 -394
-122 l-118 -6 3 -86 3 -86 92 1 c178 3 294 37 473 139 174 99 325 135 491 116
117 -13 192 -40 339 -122 142 -79 240 -113 367 -129 193 -25 352 14 568 136
130 74 207 101 328 114 170 20 304 -12 485 -115 177 -100 281 -131 474 -142
l108 -6 0 90 0 90 -117 6 c-170 8 -245 32 -438 142 -151 85 -302 121 -474 113
-138 -7 -243 -36 -373 -104 -269 -141 -333 -160 -503 -151 -128 6 -226 37
-365 117 -176 101 -272 130 -450 135 -69 2 -147 0 -175 -5z"/>
</g>
</svg>
