<svg xmlns="http://www.w3.org/2000/svg" viewBox="0 0 600 600">
<g transform="translate(0,600) scale(.1,-.1)" fill="currentColor" stroke="none">
<path d="M2265 4506 c-70 -32 -109 -68 -146 -133 -29 -50 -33 -67 -37 -155
l-5 -98 92 0 91 0 0 58 c0 99 47 160 132 169 64 7 112 -17 138 -71 20 -41 20
-57 20 -800 0 -603 3 -757 13 -753 24 11 132 54 150 60 15 6 17 23 17 172 l0
165 278 0 277 0 -3 -166 c-4 -162 -3 -166 18 -171 11 -3 53 -21 91 -39 39 -19
73 -34 75 -34 2 0 4 347 4 770 0 860 -4 812 70 850 67 34 145 20 188 -35 18
-23 22 -41 22 -101 l0 -74 96 0 97 0 -5 93 c-6 106 -28 164 -86 222 -69 69
-115 89 -219 93 -121 6 -179 -14 -248 -83 -93 -92 -110 -160 -102 -413 3 -131
2 -175 -8 -178 -6 -3 -131 -6 -278 -7 l-266 -2 -3 235 c-3 222 -4 237 -26 277
-35 67 -79 110 -144 143 -55 27 -71 30 -152 30 -74 0 -100 -4 -141 -24z m1020
-1022 l0 -179 -277 -3 -278 -2 0 178 c0 98 2 181 4 183 2 2 127 3 278 3 l273
-1 0 -179z"/>
<path d="M1480 2615 c-18 -19 -23 -35 -22 -67 2 -64 30 -83 130 -91 96 -7 152
-28 282 -102 55 -31 132 -69 172 -83 68 -25 84 -27 233 -27 148 1 165 3 235
28 40 15 118 52 171 83 129 73 185 94 279 101 103 8 203 -15 295 -67 228 -130
309 -154 500 -147 148 5 229 28 345 96 155 92 237 121 339 121 71 0 101 27
101 89 0 71 -26 91 -117 91 -97 0 -208 -31 -311 -86 -238 -128 -276 -140 -424
-132 -106 6 -189 34 -280 91 -144 93 -244 122 -413 121 -114 0 -140 -3 -210
-27 -44 -14 -125 -52 -180 -84 -141 -80 -184 -95 -297 -101 -128 -6 -209 14
-325 81 -175 100 -284 137 -409 137 -62 0 -73 -3 -94 -25z"/>
<path d="M1505 2178 c-11 -6 -26 -18 -32 -26 -14 -17 -17 -79 -7 -107 10 -26
59 -45 117 -45 80 0 168 -32 292 -105 197 -117 360 -146 570 -100 74 16 150
51 280 127 96 57 172 78 279 78 107 0 189 -26 310 -100 168 -101 299 -137 456
-124 136 10 221 42 405 148 96 56 159 76 237 76 68 0 116 20 123 53 9 42 9 52
2 79 -13 48 -53 61 -160 49 -134 -15 -203 -41 -343 -128 -102 -62 -172 -85
-284 -91 -118 -6 -196 13 -295 69 -229 130 -305 153 -485 146 -151 -5 -217
-26 -372 -115 -144 -83 -222 -106 -346 -100 -119 6 -165 22 -307 103 -129 74
-208 103 -319 116 -99 11 -96 11 -121 -3z"/>
</g>
</svg>
