<svg xmlns="http://www.w3.org/2000/svg" width="800" height="800" preserveAspectRatio="xMidYMid meet" viewBox="0 0 600 600">
  <g fill="#000000" stroke="none" transform="translate(0.000000,600.000000) scale(0.100000,-0.100000)">
    <path d="M2745 4019 c-365 -49 -627 -142 -815 -287 -92 -71 -131 -127 -159 -230 -29 -108 -31 -272 -3 -334 32 -71 63 -93 130 -92 103 2 404 117 437 167 30 47 29 87 -4 152 -47 92 -40 154 24 207 51 43 289 109 465 129 326 37 797 -55 863 -169 26 -44 25 -98 -2 -144 -75 -126 -37 -193 153 -267 145 -56 252 -83 297 -76 124 21 164 236 87 472 -18 55 -33 79 -78 125 -172 172 -472 293 -855 342 -127 17 -434 20 -540 5z m535 -34 c322 -40 576 -129 761 -267 117 -86 146 -134 174 -283 21 -108 18 -198 -4 -190 -9 3 -121 50 -248 103 l-233 97 0 51 c0 92 -50 138 -200 189 -196 65 -370 90 -585 82 -221 -9 -408 -47 -559 -115 -75 -33 -116 -91 -116 -163 0 -42 -3 -48 -27 -57 -16 -6 -82 -33 -148 -61 -338 -141 -309 -132 -318 -108 -20 52 16 247 61 331 75 139 373 293 697 361 219 46 519 58 745 30z m-970 -607 c39 -85 23 -117 -84 -168 -112 -54 -261 -101 -323 -103 -42 -1 -57 3 -77 22 -23 21 -37 53 -34 76 1 8 465 211 491 214 4 1 17 -18 27 -41z m1635 -53 c116 -48 224 -93 242 -100 30 -13 32 -16 22 -43 -29 -85 -92 -95 -254 -42 -187 61 -267 105 -279 156 -8 29 32 127 48 121 6 -3 106 -44 221 -92z"/>
    <path d="M2611 3571 c-16 -10 -30 -81 -30 -159 -1 -82 -69 -201 -262 -458 -201 -270 -224 -323 -224 -529 0 -106 3 -136 18 -162 37 -68 -7 -65 884 -64 504 1 811 5 823 11 10 5 30 24 45 42 l27 32 -5 141 c-7 222 -34 286 -236 563 -239 327 -260 367 -261 492 0 80 -17 100 -84 100 -34 0 -58 -5 -65 -14 -7 -8 -15 -55 -18 -105 l-6 -91 -231 0 -232 0 0 23 c-1 118 -5 157 -20 171 -17 17 -99 22 -123 7z m112 -88 c4 -38 7 -85 7 -106 l0 -37 258 2 257 3 3 80 c3 125 4 127 60 123 l47 -3 10 -105 10 -105 66 -100 c37 -55 123 -179 193 -275 192 -267 225 -350 226 -562 0 -104 -1 -109 -28 -139 l-28 -31 -784 -3 c-469 -2 -800 0 -821 6 -54 14 -72 48 -77 147 -6 101 12 218 43 289 28 62 53 100 200 298 116 157 175 246 217 330 20 39 26 69 30 140 2 50 7 96 12 103 4 6 27 12 50 12 l43 0 6 -67z"/>
    <path d="M2878 3181 c-79 -26 -136 -61 -189 -118 -182 -195 -125 -490 119 -610 75 -37 78 -38 191 -38 109 0 120 2 182 31 160 76 250 223 236 388 -21 249 -294 425 -539 347z m292 -51 c124 -58 205 -167 217 -292 7 -85 -9 -153 -57 -226 -149 -231 -512 -230 -661 1 -69 106 -76 228 -19 343 92 187 323 264 520 174z"/>
    <path d="M3199 3043 c-13 -16 -12 -17 4 -4 16 13 21 21 13 21 -2 0 -10 -8 -17 -17z"/>
    <path d="M2912 3007 c-124 -45 -182 -192 -119 -300 50 -85 154 -130 254 -109 74 15 125 50 160 109 65 111 13 245 -114 298 -42 18 -135 18 -181 2z m183 -36 c149 -67 148 -254 -2 -327 -45 -22 -63 -26 -108 -21 -164 17 -242 171 -150 293 53 69 173 95 260 55z"/>
    <path d="M3123 2885 c0 -8 4 -12 8 -9 4 2 10 -2 12 -8 4 -8 6 -9 6 -2 1 6 -5 17 -12 23 -10 8 -14 7 -14 -4z"/>
    <path d="M2806 2983 c-6 -14 -5 -15 5 -6 7 7 10 15 7 18 -3 3 -9 -2 -12 -12z"/>
    <path d="M3324 3108 c-4 -7 -4 -10 1 -6 4 4 15 2 24 -5 14 -11 14 -10 2 6 -16 20 -18 21 -27 5z"/>
    <path d="M4225 3071 c-3 -5 -2 -12 3 -15 5 -3 9 1 9 9 0 17 -3 19 -12 6z"/>
    <path d="M4185 3061 c-6 -11 13 -26 22 -17 4 3 1 6 -6 6 -7 0 -9 5 -6 10 3 6 4 10 1 10 -3 0 -7 -4 -11 -9z"/>
    <path d="M3810 2861 c0 -7 -5 -9 -12 -5 -7 5 -8 3 -3 -5 5 -9 10 -10 18 -2 6 6 8 14 4 18 -4 3 -7 1 -7 -6z"/>
  </g>
</svg>
