<svg xmlns="http://www.w3.org/2000/svg" width="800" height="800" preserveAspectRatio="xMidYMid meet" viewBox="0 0 600 600">
  <g fill="#000000" stroke="none" transform="translate(0.000000,600.000000) scale(0.100000,-0.100000)">
    <path d="M2728 4029 c-134 -67 -315 -156 -403 -199 -541 -262 -713 -349 -718 -364 -3 -8 1 -22 9 -31 14 -13 169 -15 1379 -15 750 0 1370 3 1379 6 9 3 16 17 16 31 0 21 -18 33 -162 102 -90 43 -352 172 -583 286 -573 283 -621 305 -649 305 -13 0 -134 -55 -268 -121z m334 62 c34 -16 243 -118 463 -226 220 -108 499 -246 620 -305 l220 -108 -1362 -1 c-1019 -1 -1364 2 -1369 11 -4 6 -3 8 3 5 6 -4 125 49 264 117 549 267 1035 506 1059 520 34 19 30 20 102 -13z"/>
    <path d="M2888 4003 c7 -3 16 -2 19 1 4 3 -2 6 -13 5 -11 0 -14 -3 -6 -6z"/>
    <path d="M2705 3729 c-148 -66 -285 -126 -302 -134 -30 -13 -50 -54 -20 -42 6 3 148 64 314 136 l302 132 303 -132 c167 -72 309 -134 317 -137 8 -3 12 1 10 13 -3 12 -47 37 -139 77 -387 171 -475 208 -494 207 -12 0 -142 -54 -291 -120z"/>
    <path d="M1840 3350 c0 -6 7 -13 15 -16 8 -4 15 -17 15 -30 0 -15 6 -24 15 -24 13 0 15 -61 15 -485 0 -424 -2 -485 -15 -485 -10 0 -15 -11 -15 -35 0 -33 -2 -35 -35 -35 l-35 0 0 -64 0 -65 -52 -3 -53 -3 -3 -57 -3 -58 1291 -2 c710 -2 1300 0 1311 4 17 7 20 15 17 60 l-3 53 -52 3 -53 3 0 65 0 64 -35 0 c-33 0 -35 2 -35 35 0 24 -5 35 -15 35 -13 0 -15 61 -15 485 0 424 2 485 15 485 9 0 15 9 15 24 0 13 7 26 15 30 8 3 15 10 15 16 0 6 -46 10 -125 10 -79 0 -125 -4 -125 -10 0 -6 7 -13 15 -16 8 -4 15 -15 15 -25 0 -11 8 -23 18 -27 16 -7 17 -39 17 -489 0 -451 -1 -482 -17 -487 -12 -3 -18 -14 -18 -35 l0 -31 -202 2 c-195 3 -203 4 -204 23 -2 40 -4 45 -19 45 -13 0 -15 61 -15 485 0 424 2 485 15 485 8 0 16 6 17 13 0 6 2 19 2 27 1 8 7 14 14 12 7 -1 12 5 12 13 0 13 -20 15 -120 15 -100 0 -120 -2 -120 -15 0 -8 7 -15 15 -15 9 0 15 -6 14 -12 -3 -27 2 -38 16 -38 13 0 15 -60 15 -484 l0 -484 -21 -5 c-18 -5 -21 -11 -16 -36 l7 -31 -80 0 -79 0 -3 353 -3 353 -28 43 c-83 126 -258 115 -328 -21 -18 -34 -19 -63 -19 -383 l0 -345 -80 0 -80 0 0 35 c0 24 -5 35 -15 35 -13 0 -15 60 -15 484 0 421 2 485 15 490 8 3 15 15 15 26 0 11 7 20 15 20 8 0 15 7 15 15 0 13 -20 15 -120 15 -100 0 -120 -2 -120 -15 0 -8 5 -15 10 -15 6 0 10 -9 10 -21 0 -12 8 -23 20 -26 20 -5 20 -14 20 -488 0 -474 0 -483 -20 -488 -15 -4 -20 -14 -20 -36 l0 -31 -200 0 -200 0 0 31 c0 22 -5 32 -20 36 -19 5 -19 15 -17 489 2 464 3 483 21 488 13 3 17 11 13 25 -3 13 1 21 14 24 11 3 19 10 19 16 0 7 -41 11 -125 11 -79 0 -125 -4 -125 -10z m190 -25 c0 -12 -14 -15 -70 -15 -90 0 -92 18 -2 23 37 2 68 4 70 5 1 1 2 -5 2 -13z m600 -5 c0 -5 -32 -10 -70 -12 -57 -2 -70 0 -70 12 0 12 13 14 70 12 38 -2 70 -7 70 -12z m880 0 c0 -12 -13 -14 -70 -12 -96 5 -96 27 0 27 56 0 70 -3 70 -15z m600 0 c0 -5 -32 -10 -70 -12 -57 -2 -70 0 -70 12 0 12 13 14 70 12 38 -2 70 -7 70 -12z m-2110 -524 l0 -484 -45 -4 c-28 -2 -41 0 -35 6 6 6 10 198 10 488 l0 478 35 0 35 0 0 -484z m590 -1 l0 -485 -35 0 -35 0 0 485 0 485 35 0 35 0 0 -485z m885 0 l0 -485 -32 0 -33 0 -2 485 -3 485 35 0 35 0 0 -485z m595 0 l0 -485 -35 0 -35 0 0 485 0 485 35 0 35 0 0 -485z m-979 220 c68 -44 69 -52 69 -434 l0 -341 -160 0 -160 0 0 341 c0 375 2 388 62 430 62 44 125 46 189 4z m-1061 -750 c0 -24 -2 -25 -70 -25 -63 0 -70 2 -70 20 0 17 8 20 68 23 37 2 68 4 70 5 1 1 2 -9 2 -23z m598 -4 c3 -20 -1 -21 -67 -21 -67 0 -71 1 -71 23 0 21 4 22 67 21 61 -2 68 -4 71 -23z m882 2 c0 -22 -4 -23 -70 -23 -61 0 -70 2 -70 18 0 26 1 27 74 27 62 0 66 -1 66 -22z m590 13 c0 -3 0 -13 0 -21 0 -12 -14 -15 -65 -15 -61 0 -65 1 -65 23 0 21 4 22 65 21 36 -1 65 -5 65 -8z m70 -111 l0 -55 -1170 0 -1170 0 0 50 0 50 1168 3 c642 1 1168 3 1170 5 1 1 2 -23 2 -53z m110 -119 l0 -35 -1280 0 -1280 0 0 35 0 34 1280 0 1280 0 0 -34z"/>
    <path d="M2915 2981 c-3 -5 -2 -12 3 -15 5 -3 9 1 9 9 0 17 -3 19 -12 6z"/>
    <path d="M2204 3022 c-41 -33 -44 -52 -44 -291 l0 -231 106 0 105 0 -3 241 -3 241 -33 29 c-38 34 -94 39 -128 11z m111 -37 c25 -24 25 -24 25 -240 l0 -215 -75 0 -75 0 0 217 c0 209 1 218 22 240 29 31 72 30 103 -2z"/>
    <path d="M3680 3027 c-48 -37 -50 -49 -50 -294 l0 -233 105 0 105 0 0 235 0 234 -31 36 c-26 30 -37 35 -73 35 -22 0 -48 -6 -56 -13z m109 -43 c20 -25 21 -39 21 -240 l0 -214 -75 0 -75 0 0 214 c0 201 1 215 21 240 15 19 30 26 54 26 24 0 39 -7 54 -26z"/>
    <path d="M2091 2864 c0 -11 3 -14 6 -6 3 7 2 16 -1 19 -3 4 -6 -2 -5 -13z"/>
  </g>
</svg>
