<svg xmlns="http://www.w3.org/2000/svg" width="800" height="800" preserveAspectRatio="xMidYMid meet" viewBox="0 0 600 600">
  <g fill="#000000" stroke="none" transform="translate(0.000000,600.000000) scale(0.100000,-0.100000)">
    <path d="M3310 4349 c-267 -71 -521 -308 -625 -582 -54 -143 -59 -178 -60 -417 -2 -256 -12 -318 -71 -458 -55 -128 -90 -176 -222 -308 -113 -113 -394 -410 -475 -502 -59 -67 -52 -108 34 -189 113 -107 148 -99 279 64 52 65 103 127 112 138 149 179 308 380 308 390 0 6 9 20 20 30 12 10 18 25 15 32 -2 8 -1 11 5 8 5 -3 26 9 47 28 139 123 327 201 588 242 55 9 127 24 160 35 304 93 554 355 647 676 32 112 32 308 0 409 -67 211 -217 355 -427 410 -84 21 -241 19 -335 -6z m325 -34 c87 -22 172 -67 236 -124 31 -28 60 -47 64 -43 5 4 5 1 1 -5 -4 -7 4 -27 18 -46 35 -46 70 -128 91 -216 14 -56 16 -96 12 -170 -20 -324 -233 -629 -539 -770 -86 -40 -160 -60 -313 -86 -258 -43 -448 -134 -595 -284 -40 -42 -71 -71 -67 -64 4 6 -17 33 -53 64 l-59 54 22 25 c78 86 148 222 184 356 25 92 27 115 28 329 2 202 5 240 24 310 54 197 183 396 331 510 98 75 240 142 355 168 48 11 205 6 260 -8z m-665 -179 c0 -2 -8 -10 -17 -17 -16 -13 -17 -12 -4 4 13 16 21 21 21 13z m-550 -1501 c-7 -8 -17 -15 -23 -15 -6 0 -2 7 9 15 25 19 30 19 14 0z m-4 -34 c-4 -5 23 -36 59 -68 l64 -58 -67 -83 -67 -83 -43 50 c-24 28 -48 49 -53 46 -5 -4 -6 0 -4 8 3 7 -3 21 -13 30 -16 15 -21 15 -31 4 -9 -11 2 -30 53 -92 l64 -79 -62 -76 c-33 -42 -66 -77 -73 -77 -7 0 -10 4 -7 9 3 5 -24 44 -60 87 l-66 78 21 19 c44 39 123 138 107 131 -23 -8 -23 -4 2 18 20 18 21 18 14 -1 -3 -10 31 18 75 64 75 74 102 98 87 73z m4 -316 c-7 -8 -17 -12 -22 -9 -6 4 -5 10 3 15 22 14 33 10 19 -6z m-309 -25 c-11 -6 0 -26 52 -87 l66 -80 -30 -36 c-17 -21 -27 -42 -23 -48 4 -7 3 -9 -4 -5 -6 3 -19 -5 -30 -19 -11 -14 -22 -25 -24 -25 -5 0 -129 147 -142 168 -11 18 96 137 126 139 16 2 19 0 9 -7z m239 -54 c0 -2 -8 -10 -17 -17 -16 -13 -17 -12 -4 4 13 16 21 21 21 13z m-336 -187 c64 -76 74 -94 66 -110 -16 -29 -57 -52 -82 -45 -37 9 -138 109 -138 136 0 19 62 110 75 110 2 0 37 -41 79 -91z m126 -74 c0 -2 -6 -8 -13 -14 -10 -8 -14 -7 -14 2 0 8 6 14 14 14 7 0 13 -1 13 -2z"/>
    <path d="M3335 4211 c-220 -64 -408 -231 -507 -450 -42 -91 -78 -240 -78 -321 0 -82 31 -208 66 -267 122 -209 359 -275 623 -173 325 126 570 509 523 818 -30 190 -146 333 -319 393 -73 25 -223 25 -308 0z m286 -37 c162 -48 274 -186 301 -371 40 -277 -178 -626 -474 -756 -138 -61 -265 -69 -398 -25 -88 29 -186 124 -219 213 -48 129 -51 249 -10 389 79 266 273 473 508 543 93 27 214 30 292 7z"/>
    <path d="M3302 4024 c-54 -64 -70 -90 -62 -99 7 -9 6 -16 -4 -24 -11 -9 -17 -6 -31 16 -16 25 -17 26 -2 14 10 -8 20 -12 22 -9 9 9 -104 100 -115 93 -18 -11 -7 -30 42 -72 l47 -41 -44 -50 c-23 -28 -52 -63 -64 -78 l-22 -27 -32 29 c-70 64 -77 68 -90 55 -10 -10 -1 -23 42 -61 l54 -49 -19 -24 c-11 -14 -38 -47 -61 -75 -23 -27 -40 -52 -36 -56 15 -15 9 -44 -8 -43 -14 1 -15 4 -7 14 8 10 6 13 -8 14 -18 0 -18 1 0 8 19 7 18 8 -4 24 -36 25 -59 -5 -25 -33 13 -11 12 -15 -5 -37 -11 -14 -20 -32 -20 -39 0 -23 27 -16 49 12 l21 26 60 -52 60 -52 -42 -50 c-76 -89 -82 -98 -69 -111 12 -12 41 13 114 101 l27 34 52 -46 c49 -43 77 -59 63 -36 -3 6 -1 10 4 10 24 0 6 -29 -93 -145 -30 -35 -33 -55 -8 -54 20 0 126 124 118 138 -4 5 -1 13 6 17 7 4 10 4 6 0 -5 -6 61 -67 121 -112 1 -1 -9 -19 -24 -38 -24 -32 -25 -37 -10 -42 11 -5 26 2 42 19 25 24 27 25 50 10 21 -14 26 -14 34 -2 5 9 2 20 -11 33 -19 19 -18 20 43 90 33 39 62 73 64 75 1 2 27 -17 58 -43 50 -44 81 -52 73 -22 -5 22 -99 97 -111 89 -22 -14 -39 -12 -33 4 3 8 6 17 6 19 0 2 4 4 10 4 5 0 7 -7 3 -16 -11 -29 28 4 90 77 32 38 62 69 65 69 4 0 24 -16 45 -35 21 -19 45 -35 53 -35 27 0 14 28 -31 66 l-45 39 75 84 c41 46 75 89 75 95 0 7 -21 28 -47 48 -27 20 -59 48 -72 62 l-23 25 41 48 c22 27 41 55 41 61 0 13 -40 17 -40 5 -1 -5 -18 -27 -38 -50 l-37 -43 -61 53 -61 54 48 59 c53 63 55 69 37 80 -7 5 -32 -15 -64 -51 -59 -67 -44 -69 -145 17 -31 27 -59 48 -61 48 -2 0 -36 -39 -76 -86z m78 52 c0 -2 -8 -10 -17 -17 -16 -13 -17 -12 -4 4 13 16 21 21 21 13z m123 -116 c4 0 5 5 1 11 -5 8 -1 8 14 0 12 -6 24 -16 28 -22 5 -8 1 -8 -14 0 -17 9 -26 3 -68 -47 -27 -31 -58 -67 -69 -79 l-20 -22 -59 53 -60 53 64 76 63 76 56 -50 c30 -27 59 -49 64 -49z m155 -137 c4 -2 -32 -44 -98 -115 l-35 -38 -60 54 -59 53 62 69 c34 38 62 72 62 77 0 5 28 -15 63 -45 34 -29 64 -54 65 -55z m-402 28 c13 -10 40 -33 59 -50 l36 -31 -63 -74 c-35 -41 -65 -75 -68 -75 -3 0 -31 23 -62 52 l-58 52 26 30 c15 17 42 49 61 73 20 23 38 42 40 42 3 0 16 -8 29 -19z m444 -40 c13 -12 13 -13 0 -8 -8 2 -24 -3 -35 -12 -19 -15 -19 -15 -3 4 13 15 14 25 6 40 -9 17 -9 18 3 5 8 -8 21 -21 29 -29z m-315 -21 c8 6 12 5 12 -3 0 -7 -11 -21 -25 -31 -24 -18 -24 -18 -13 1 6 13 7 24 1 31 -7 9 -7 9 2 2 7 -6 16 -6 23 0z m366 -46 c30 -26 56 -48 58 -50 4 -4 -121 -152 -129 -153 -3 0 -31 23 -62 52 l-58 52 62 73 c35 39 65 72 68 72 4 0 31 -21 61 -46z m-665 -21 c-1 -8 -5 -13 -9 -13 -4 0 -7 3 -6 6 0 4 -5 10 -13 15 -9 6 -6 8 8 7 12 -1 21 -8 20 -15z m320 -2 c13 -10 40 -33 60 -50 l36 -32 -39 -45 c-21 -25 -50 -60 -64 -77 l-27 -31 -57 52 c-31 29 -61 50 -66 46 -5 -3 -17 -7 -28 -9 -14 -3 -18 1 -13 17 4 15 7 17 13 6 7 -10 9 -10 9 2 0 12 2 12 9 2 6 -10 22 3 59 46 50 58 64 81 40 66 -7 -4 -8 -3 -4 5 4 6 11 9 16 6 5 -3 11 -1 15 5 9 14 13 13 41 -9z m-263 -84 c26 -22 47 -43 47 -47 0 -3 -28 -38 -61 -78 l-62 -71 -58 46 c-33 25 -59 50 -59 54 0 18 122 149 133 142 7 -4 33 -25 60 -46z m404 6 c0 -19 -25 -23 -30 -4 -2 11 2 17 13 17 9 0 17 -6 17 -13z m52 -83 l54 -49 -26 -33 c-15 -18 -44 -53 -65 -77 l-38 -43 -61 53 -60 54 65 72 c35 40 67 73 71 73 3 -1 30 -23 60 -50z m171 46 c0 -2 -8 -10 -17 -17 -16 -13 -17 -12 -4 4 13 16 21 21 21 13z m-477 -99 l56 -49 -32 -36 c-18 -20 -48 -53 -67 -75 l-35 -38 -57 48 c-31 26 -57 51 -57 54 -1 3 8 17 20 30 11 13 39 46 61 72 23 26 44 46 48 45 4 -2 32 -25 63 -51z m399 18 c3 3 5 -2 5 -10 0 -8 -4 -12 -8 -9 -4 2 -13 -4 -19 -13 -7 -12 -10 -13 -7 -3 2 8 0 23 -5 33 -8 16 -7 17 10 8 11 -6 21 -8 24 -6z m-305 -47 c-2 -7 2 -21 11 -30 13 -16 13 -16 -12 -5 -28 13 -47 44 -21 33 8 -3 15 -1 15 4 0 6 3 10 6 10 3 0 4 -6 1 -12z m-307 -65 c0 -8 -4 -12 -9 -9 -5 4 -11 0 -14 -6 -3 -7 -5 -4 -4 8 1 23 27 29 27 7z m353 -28 c29 -25 58 -43 65 -40 17 6 2 -20 -35 -61 -15 -17 -43 -48 -61 -68 l-33 -37 -48 40 c-31 26 -55 39 -65 35 -34 -13 -14 22 73 124 24 29 46 52 48 52 3 0 28 -20 56 -45z m-103 21 c0 -2 -8 -10 -17 -17 -16 -13 -17 -12 -4 4 13 16 21 21 21 13z m-90 -112 c0 -8 -19 -13 -24 -6 -3 5 1 9 9 9 8 0 15 -2 15 -3z m140 -144 c0 -5 -6 -12 -12 -16 -7 -4 -10 -4 -6 1 4 4 3 14 -4 22 -8 11 -7 12 6 7 9 -3 16 -10 16 -14z"/>
    <path d="M3530 3576 c0 -2 8 -10 18 -17 15 -13 16 -12 3 4 -13 16 -21 21 -21 13z"/>
    <path d="M3329 3293 c-13 -16 -12 -17 4 -4 9 7 17 15 17 17 0 8 -8 3 -21 -13z"/>
    <path d="M2720 3033 c-17 -81 -63 -203 -105 -281 -47 -85 -35 -100 37 -45 84 64 136 94 233 134 49 21 91 42 93 48 2 5 -20 22 -48 36 -60 30 -135 96 -156 137 -23 45 -41 35 -54 -29z m45 -1 c-3 -3 -12 -7 -21 -8 -11 -2 -12 1 -5 10 6 7 7 17 3 22 -4 4 1 2 11 -5 9 -8 15 -16 12 -19z m14 -41 c17 -31 107 -91 131 -89 13 2 25 -2 27 -9 3 -7 -8 -11 -30 -10 -56 2 -251 -105 -244 -134 2 -13 -29 -36 -38 -28 -10 10 6 39 22 39 8 0 11 5 7 12 -4 6 -3 8 4 5 16 -11 92 165 92 215 0 24 17 23 29 -1z"/>
    <path d="M2360 2516 c0 -2 8 -10 18 -17 15 -13 16 -12 3 4 -13 16 -21 21 -21 13z"/>
    <path d="M2423 2495 c0 -8 4 -12 9 -9 5 3 6 10 3 15 -9 13 -12 11 -12 -6z"/>
    <path d="M2220 2341 c0 -6 4 -13 10 -16 6 -3 7 1 4 9 -7 18 -14 21 -14 7z"/>
    <path d="M3870 2616 c-166 -48 -268 -222 -226 -384 19 -75 51 -128 107 -175 160 -138 412 -82 506 112 23 47 27 69 27 136 0 67 -4 89 -27 136 -32 66 -99 132 -163 160 -56 25 -165 33 -224 15z m-10 -30 c0 -2 -7 -7 -16 -10 -8 -3 -12 -2 -9 4 6 10 25 14 25 6z m220 -21 c19 -9 45 -26 57 -37 12 -11 26 -17 32 -14 7 4 8 1 5 -8 -4 -11 0 -14 15 -11 14 3 21 -1 21 -12 0 -13 -3 -13 -15 -3 -12 10 -15 10 -15 -1 0 -11 -2 -11 -10 1 -8 12 -15 9 -45 -20 -81 -79 -96 -212 -36 -331 17 -34 31 -63 31 -64 0 -1 -19 -11 -42 -21 -30 -14 -65 -19 -123 -19 -72 0 -86 3 -135 32 -48 27 -120 102 -120 124 0 4 24 21 54 38 117 66 178 216 132 326 -14 32 -13 34 7 39 44 9 153 -1 187 -19z m-235 -22 c10 -24 22 -152 14 -148 -3 3 -14 -14 -24 -36 -27 -60 -131 -146 -152 -125 -4 3 -7 34 -7 69 1 83 32 153 95 212 53 50 63 53 74 28z m380 -129 c41 -84 21 -212 -48 -298 l-23 -28 -28 57 c-34 67 -43 138 -26 201 14 49 71 119 92 112 7 -2 22 -22 33 -44z m-540 -222 c-8 -8 -25 17 -25 38 0 9 6 6 16 -8 9 -13 13 -26 9 -30z m490 -112 c-3 -5 -12 -10 -18 -10 -7 0 -6 4 3 10 19 12 23 12 15 0z"/>
    <path d="M4085 2501 c-3 -5 -2 -12 3 -15 5 -3 9 1 9 9 0 17 -3 19 -12 6z"/>
    <path d="M1869 1877 c6 -8 7 -18 3 -22 -4 -5 -1 -5 6 -1 10 6 10 11 1 22 -6 8 -14 14 -16 14 -3 0 0 -6 6 -13z"/>
  </g>
</svg>
