<svg xmlns="http://www.w3.org/2000/svg" width="800" height="800" preserveAspectRatio="xMidYMid meet" viewBox="0 0 600 600">
  <g fill="#000000" stroke="none" transform="translate(0.000000,600.000000) scale(0.100000,-0.100000)">
    <path d="M2844 4754 c-99 -122 -192 -323 -240 -519 -13 -55 -24 -105 -24 -111 0 -5 19 -19 42 -29 23 -10 74 -49 113 -87 70 -68 76 -84 20 -50 -35 22 -151 62 -177 62 -19 0 -22 -8 -38 -110 -15 -89 -21 -330 -10 -357 6 -15 18 -23 33 -23 33 0 155 -63 195 -100 17 -17 32 -33 32 -35 0 -2 -17 5 -38 15 -41 20 -198 47 -209 36 -10 -10 15 -145 44 -233 51 -157 114 -254 267 -410 l109 -113 -12 -242 c-13 -262 -15 -741 -5 -867 l7 -79 -39 -3 -39 -4 -1 50 c-1 64 -42 197 -94 303 -69 143 -219 350 -242 336 -7 -5 -8 -2 -3 5 4 8 -5 25 -23 44 l-31 32 84 0 c76 0 87 2 127 30 28 20 53 49 71 85 27 52 28 61 24 150 -3 67 -12 114 -29 162 -27 72 -97 188 -113 187 -5 0 -25 -32 -44 -71 -41 -87 -109 -161 -143 -156 -40 5 -33 40 28 129 90 132 98 164 67 251 -30 85 -173 246 -207 235 -6 -2 -14 -38 -19 -80 -9 -91 -40 -181 -74 -215 -22 -22 -26 -23 -40 -9 -18 17 -12 39 41 162 56 132 15 222 -132 286 -74 32 -75 31 -67 -66 11 -133 -24 -241 -61 -190 -11 14 -12 32 -7 65 13 71 9 165 -6 194 -22 41 -66 63 -184 90 -107 26 -156 45 -189 73 -10 9 -23 13 -30 10 -32 -12 -98 -264 -113 -427 -6 -68 -5 -78 17 -110 29 -44 106 -83 216 -110 111 -28 134 -39 130 -64 -7 -50 -195 -38 -309 19 -26 14 -51 25 -55 25 -11 0 4 -140 21 -196 19 -66 52 -113 94 -138 48 -28 166 -33 285 -11 52 9 104 14 115 10 48 -15 6 -61 -82 -92 -57 -19 -210 -25 -284 -9 -52 10 -53 4 -17 -70 38 -78 98 -129 169 -144 71 -15 128 -5 244 41 107 42 137 32 85 -30 -52 -62 -168 -111 -261 -111 -36 0 -43 -3 -43 -20 0 -40 164 -153 279 -191 92 -32 219 -32 278 -1 85 44 133 141 119 240 l-6 47 53 -59 c166 -186 263 -359 316 -556 37 -141 40 -127 -32 -135 -153 -16 -369 -63 -391 -85 -21 -21 8 -20 106 3 95 23 162 35 293 53 89 11 377 5 495 -11 63 -8 160 -26 215 -40 117 -29 115 -29 115 -11 0 22 -240 76 -407 92 -40 4 -73 10 -73 15 0 21 50 142 84 202 41 75 131 189 200 256 l45 44 39 -35 c92 -83 235 -162 386 -214 120 -41 137 -26 59 54 -64 64 -135 112 -168 112 -14 0 -24 4 -21 9 4 5 -16 17 -44 26 -57 19 -65 27 -17 18 23 -4 29 -3 22 6 -10 10 -115 33 -220 48 -38 5 -39 5 -20 -11 20 -17 20 -17 -3 -6 -25 12 -21 30 7 30 10 0 28 12 42 27 13 15 16 21 7 14 -10 -7 -18 -10 -18 -7 0 6 65 130 210 396 59 109 182 290 277 407 78 97 267 283 286 283 9 0 8 -3 0 -8 -7 -4 -38 -55 -69 -112 -107 -199 -268 -431 -470 -682 -58 -71 -102 -133 -99 -139 4 -5 1 -8 -6 -7 -6 2 -28 -19 -47 -46 -20 -27 -31 -47 -25 -45 6 2 69 58 140 125 155 146 185 172 288 250 90 69 204 138 285 176 68 31 190 72 196 65 7 -7 -111 -109 -219 -190 -103 -78 -484 -331 -595 -397 -70 -41 -89 -57 -79 -66 2 -2 70 28 151 67 81 39 145 73 143 75 -3 3 -21 -2 -41 -10 -27 -11 -37 -12 -42 -3 -4 7 -4 9 0 5 11 -9 77 29 245 140 278 184 505 372 486 401 -17 28 -157 -10 -300 -82 -117 -58 -239 -145 -372 -265 -65 -58 -112 -99 -106 -91 7 9 9 20 5 25 -4 5 -3 6 1 2 26 -20 327 391 460 629 113 201 122 258 30 190 -76 -57 -234 -223 -320 -337 -72 -97 -223 -335 -223 -354 0 -4 -9 -19 -20 -33 -28 -35 -26 -28 19 68 102 220 180 545 184 764 2 74 -1 90 -14 93 -48 9 -193 -395 -278 -772 -22 -98 -43 -181 -47 -185 -3 -3 -4 3 0 15 13 42 28 214 33 372 6 216 -18 412 -52 412 -28 0 -66 -186 -86 -420 -11 -127 -6 -454 7 -533 4 -24 3 -28 -5 -17 -6 8 -11 25 -11 37 0 71 -121 404 -172 476 -19 26 -23 28 -33 14 -43 -59 27 -419 96 -493 12 -12 18 -27 15 -32 -3 -5 1 -15 8 -21 22 -18 14 22 -18 92 -39 86 -76 240 -82 337 l-5 85 26 -55 c31 -64 69 -160 96 -245 29 -88 89 -335 89 -366 l0 -28 -72 41 c-100 56 -168 116 -238 209 -33 44 -57 79 -54 79 3 0 38 -21 77 -47 71 -48 166 -136 214 -199 14 -19 32 -34 39 -34 69 0 -257 298 -341 312 -53 8 18 -118 129 -227 48 -48 97 -84 152 -112 l80 -42 -77 -79 c-122 -124 -247 -336 -252 -426 l-2 -32 -55 8 c-30 4 -62 5 -72 2 -14 -4 -17 9 -23 103 -8 113 0 843 11 998 l7 90 56 40 c102 72 262 242 303 320 84 164 121 322 121 530 0 113 -14 239 -27 253 -3 2 -29 -4 -58 -13 -51 -16 -80 -31 -144 -70 -41 -26 79 97 137 141 l47 34 -23 77 c-74 248 -168 431 -309 602 -55 67 -189 191 -207 191 -3 0 -24 -21 -45 -46z m49 -56 c17 -157 38 -338 42 -373 l6 -40 -58 56 c-62 60 -129 109 -150 109 -24 0 -13 -15 35 -47 26 -18 75 -61 109 -95 l62 -63 10 -180 c6 -99 13 -247 16 -329 l6 -150 -23 25 c-50 53 -119 101 -199 138 -93 43 -149 59 -149 42 0 -6 6 -11 14 -11 33 0 216 -104 284 -161 l73 -61 -1 -410 c-1 -287 2 -413 10 -423 8 -10 8 -15 -2 -21 -7 -4 -10 -4 -6 1 4 4 -39 56 -96 115 -109 114 -163 186 -214 286 l-31 62 44 -14 c66 -19 130 -49 182 -84 55 -38 72 -29 23 11 -49 42 -162 97 -215 105 -25 3 -45 7 -45 9 0 1 -11 47 -25 101 -14 54 -25 105 -25 112 0 18 69 8 170 -24 41 -13 78 -24 83 -24 18 0 4 33 -29 70 -47 52 -115 96 -180 117 -51 16 -54 18 -59 57 -6 39 7 260 21 345 6 38 8 40 33 35 14 -3 62 -22 106 -41 119 -52 119 -52 111 -17 -14 57 -100 150 -171 186 -22 11 -41 21 -42 22 -4 4 37 157 62 232 38 114 89 219 148 307 28 42 54 77 58 77 3 0 9 -24 12 -52z m77 0 c66 -60 130 -136 188 -222 l39 -59 -59 -71 c-33 -39 -82 -105 -110 -146 -54 -80 -64 -94 -56 -70 11 31 -31 457 -54 545 -15 59 -17 75 -11 75 2 0 31 -24 63 -52z m293 -407 c26 -54 47 -102 47 -107 0 -4 -41 -46 -91 -93 -50 -47 -122 -124 -159 -172 l-67 -87 -7 129 -7 129 113 149 c62 83 116 150 119 151 3 0 27 -44 52 -99z m103 -259 c27 -92 27 -94 8 -105 -35 -19 -135 -121 -165 -168 -17 -25 -53 -63 -81 -84 -53 -41 -85 -81 -74 -93 4 -3 10 -2 14 4 11 17 118 101 175 137 28 18 81 45 117 60 l65 26 7 -42 c3 -23 7 -63 7 -89 l1 -47 -84 -39 c-111 -53 -196 -111 -283 -197 l-73 -71 0 151 c0 82 -3 186 -6 230 l-7 80 63 80 c88 111 271 290 281 274 4 -7 20 -55 35 -107z m79 -479 c-3 -27 -7 -78 -11 -115 l-5 -66 -54 -22 c-88 -36 -196 -104 -265 -168 -73 -67 -77 -97 -4 -33 25 22 72 58 103 78 63 42 203 114 209 108 2 -2 -8 -44 -23 -93 -27 -88 -28 -90 -66 -101 -62 -19 -213 -126 -276 -196 l-58 -64 3 203 3 203 72 70 c89 85 179 150 283 202 43 23 82 41 86 41 4 0 5 -21 3 -47z m-1799 -32 c32 -16 103 -38 157 -51 155 -35 180 -69 157 -218 -13 -86 -5 -126 29 -137 28 -9 57 9 78 48 14 25 18 55 17 134 l0 101 45 -23 c25 -13 62 -40 81 -60 32 -33 35 -41 34 -93 0 -40 -8 -72 -26 -107 -54 -106 -59 -163 -18 -185 65 -35 136 79 155 244 l7 59 49 -49 c89 -87 137 -184 125 -250 -4 -19 -34 -74 -66 -122 -68 -101 -82 -143 -55 -172 45 -49 121 -2 193 118 18 29 32 57 32 62 0 6 4 10 9 10 10 0 91 -158 91 -177 0 -7 -27 -26 -60 -44 -68 -36 -143 -107 -171 -162 -11 -22 -19 -41 -16 -43 2 -2 23 20 47 50 57 71 170 156 208 156 5 0 10 -37 11 -83 2 -73 -1 -89 -26 -137 -36 -69 -90 -100 -173 -100 -86 0 -115 8 -133 39 -9 15 -62 92 -118 170 l-101 143 12 46 c12 49 69 162 99 197 10 11 25 34 35 50 17 27 15 26 -23 -10 -55 -52 -108 -133 -130 -197 l-17 -51 -73 108 c-41 59 -155 216 -255 348 -99 133 -184 246 -188 251 -4 6 -10 8 -13 4 -6 -6 94 -158 158 -240 31 -41 31 -43 -8 -28 -40 15 -135 28 -141 19 -3 -5 8 -11 23 -14 15 -3 64 -17 108 -31 l80 -25 128 -182 c70 -100 170 -243 222 -317 51 -74 119 -171 149 -215 51 -72 57 -87 62 -146 14 -141 -51 -227 -182 -244 -100 -13 -261 41 -364 123 -25 20 -47 37 -49 39 -9 7 9 14 65 24 32 6 83 22 111 36 59 27 117 79 107 95 -4 7 -2 8 4 4 7 -4 14 4 18 20 6 21 2 31 -16 46 -29 24 -37 23 -128 -12 -195 -74 -283 -61 -359 55 -18 27 -33 53 -33 56 0 4 17 3 38 -2 160 -37 399 41 378 124 -11 44 -52 52 -162 32 -119 -21 -236 -17 -277 10 -16 10 -37 35 -47 55 -21 42 -50 146 -50 183 l0 25 38 -18 c94 -45 256 -59 305 -27 53 34 23 96 -56 118 -204 55 -249 75 -273 120 -17 34 -15 87 12 229 12 63 63 250 69 250 1 0 28 -13 61 -29z m2232 -248 c-4 -38 -13 -108 -19 -158 -25 -199 -100 -441 -240 -771 -87 -206 -108 -244 -133 -244 -6 0 -1 8 11 18 23 17 53 124 143 502 37 154 106 382 156 516 36 98 82 204 87 204 2 0 0 -30 -5 -67z m-311 -383 c6 -222 0 -300 -45 -590 l-27 -175 -6 110 c-20 353 -3 677 48 910 l7 30 8 -40 c5 -22 11 -132 15 -245z m-252 161 c-56 -95 -139 -179 -312 -314 -10 -7 -13 3 -13 47 0 55 2 59 53 113 28 30 79 77 112 103 57 45 186 123 193 116 1 -2 -13 -31 -33 -65z m-850 -790 c-3 -6 -11 -11 -16 -11 -5 0 -4 6 3 14 14 16 24 13 13 -3z m1050 -171 c-3 -5 -11 -10 -16 -10 -6 0 -7 5 -4 10 3 6 11 10 16 10 6 0 7 -4 4 -10z m130 -117 c78 -27 134 -54 195 -94 73 -49 144 -109 129 -109 -15 0 -176 68 -242 102 -79 41 -220 138 -202 138 6 0 60 -17 120 -37z"/>
    <path d="M2776 3512 c-3 -5 1 -9 9 -9 8 0 12 4 9 9 -3 4 -7 8 -9 8 -2 0 -6 -4 -9 -8z"/>
    <path d="M3159 3093 c-13 -16 -12 -17 4 -4 16 13 21 21 13 21 -2 0 -10 -8 -17 -17z"/>
    <path d="M1906 2873 c-6 -14 -5 -15 5 -6 7 7 10 15 7 18 -3 3 -9 -2 -12 -12z"/>
    <path d="M2276 2245 c-66 -27 -137 -90 -167 -147 -22 -42 -23 -48 -10 -48 5 0 12 8 15 18 12 35 111 123 174 153 34 17 60 34 57 40 -7 11 1 13 -69 -16z"/>
    <path d="M1995 2061 c-3 -5 -2 -12 3 -15 5 -3 9 1 9 9 0 17 -3 19 -12 6z"/>
    <path d="M2135 2030 c-3 -5 -1 -10 4 -10 6 0 11 5 11 10 0 6 -2 10 -4 10 -3 0 -8 -4 -11 -10z"/>
    <path d="M3531 2784 c0 -11 3 -14 6 -6 3 7 2 16 -1 19 -3 4 -6 -2 -5 -13z"/>
    <path d="M1983 3485 c0 -8 4 -12 9 -9 5 3 6 10 3 15 -9 13 -12 11 -12 -6z"/>
    <path d="M2611 3024 c0 -11 3 -14 6 -6 3 7 2 16 -1 19 -3 4 -6 -2 -5 -13z"/>
    <path d="M2806 2787 c3 -10 9 -15 12 -12 3 3 0 11 -7 18 -10 9 -11 8 -5 -6z"/>
    <path d="M4035 2620 c-3 -6 1 -7 9 -4 18 7 21 14 7 14 -6 0 -13 -4 -16 -10z"/>
    <path d="M4188 2350 c-69 -12 -167 -47 -213 -75 -51 -32 -45 -31 62 4 48 17 117 35 153 40 71 12 208 13 255 2 27 -6 17 -11 -82 -44 -143 -47 -388 -116 -573 -161 -80 -20 -162 -41 -184 -47 -73 -20 -21 -28 109 -16 203 19 370 -2 505 -62 l45 -20 -155 0 c-85 0 -201 5 -258 12 -63 8 -101 9 -99 3 2 -5 10 -11 18 -12 7 -2 32 -8 54 -14 46 -13 410 -26 449 -16 62 16 14 58 -119 103 -74 26 -92 28 -237 28 -86 0 -154 3 -151 8 2 4 12 7 22 7 25 0 268 63 451 117 164 48 280 95 280 113 0 6 -12 15 -27 21 -36 14 -244 21 -305 9z"/>
    <path d="M2891 2334 c0 -11 3 -14 6 -6 3 7 2 16 -1 19 -3 4 -6 -2 -5 -13z"/>
    <path d="M3310 1786 c0 -2 8 -10 18 -17 15 -13 16 -12 3 4 -13 16 -21 21 -21 13z"/>
  </g>
</svg>
