<svg xmlns="http://www.w3.org/2000/svg" viewBox="0 0 1200 1200">
<g fill="currentColor" transform="translate(0 1200) scale(.1 -.1)">
<path d="M5903 9638 c-458 -416 -877 -695 -1345 -894 -209 -90 -354 -141 -563
-200 -139 -39 -415 -89 -580 -105 -72 -7 -126 -18 -135 -26 -13 -12 -15 -112
-16 -746 -1 -1034 11 -1872 29 -1967 8 -41 20 -106 26 -143 30 -179 131 -512
214 -707 179 -423 407 -759 746 -1100 306 -309 660 -577 1131 -855 91 -53 190
-112 220 -130 137 -82 353 -186 374 -181 33 8 347 178 536 289 301 178 633
405 828 566 106 87 322 284 377 342 60 64 71 77 176 199 320 373 576 887 698
1400 90 378 91 390 91 1799 0 1009 -2 1220 -14 1236 -9 13 -28 19 -62 21 -206
11 -471 60 -729 135 -396 115 -838 325 -1205 573 -75 50 -311 224 -320 236 -3
3 -39 33 -80 66 -41 34 -124 105 -183 158 -60 53 -117 96 -127 96 -10 0 -49
-28 -87 -62z m152 -146 c127 -121 399 -334 590 -462 240 -160 540 -320 815
-433 152 -63 409 -147 540 -177 218 -49 349 -72 558 -96 l43 -5 -4 -1212 c-3
-1049 -6 -1228 -20 -1332 -77 -569 -278 -1082 -598 -1530 -373 -521 -917 -958
-1783 -1432 -179 -98 -220 -114 -241 -94 -6 4 -41 25 -80 46 -1044 563 -1646
1072 -2027 1715 -62 104 -177 329 -208 405 -100 249 -179 508 -211 695 -6 30
-17 96 -26 145 -14 79 -17 247 -22 1335 -3 685 -4 1248 -1 1252 3 4 64 14 135
22 738 84 1446 389 2130 920 94 72 318 265 323 278 9 19 41 4 87 -40z"/>
<path d="M5914 8967 c-143 -120 -432 -323 -629 -442 -273 -165 -688 -349 -970
-430 -132 -38 -329 -81 -440 -95 -59 -8 -94 -17 -102 -28 -10 -12 -13 -237
-13 -1047 0 -872 2 -1049 15 -1150 57 -437 224 -883 468 -1250 158 -236 408
-503 682 -726 153 -124 380 -282 593 -411 177 -108 453 -258 474 -258 33 0
412 213 623 352 718 468 1142 941 1390 1547 112 273 179 543 205 826 16 171
14 2097 -2 2117 -8 9 -46 20 -98 27 -87 13 -248 44 -310 61 -214 58 -378 113
-498 166 -29 13 -55 24 -58 24 -19 0 -350 166 -494 248 -206 116 -515 329
-685 470 -63 53 -86 53 -151 -1z m164 -160 c142 -118 381 -279 598 -406 291
-170 744 -368 959 -420 22 -5 65 -16 95 -24 78 -21 255 -55 322 -62 31 -4 58
-12 60 -18 1 -7 0 -471 -3 -1032 l-6 -1020 -25 -135 c-74 -387 -190 -699 -373
-1000 -257 -425 -666 -809 -1234 -1162 -150 -94 -471 -278 -483 -278 -6 0 -22
8 -36 18 -15 11 -53 33 -84 50 -470 255 -917 580 -1214 884 -397 405 -662 934
-761 1518 -16 95 -18 204 -20 1136 l-4 1031 63 7 c416 43 1044 288 1523 593
183 117 458 316 499 362 11 12 25 21 33 21 7 0 48 -29 91 -63z"/>
<path d="M7278 7058 c-8 -7 -59 -60 -113 -118 -54 -58 -146 -154 -204 -215
-58 -60 -178 -186 -266 -280 -156 -165 -249 -263 -446 -470 -300 -315 -465
-489 -530 -562 -41 -46 -79 -83 -86 -83 -6 0 -18 8 -25 19 -7 10 -101 110
-208 222 -107 112 -251 262 -319 334 -178 187 -179 188 -208 180 -30 -7 -62
-42 -63 -68 0 -10 72 -92 162 -185 220 -226 328 -339 504 -524 82 -87 154
-158 160 -158 6 0 37 28 70 63 32 34 106 112 164 173 58 61 170 180 250 265
80 85 186 197 235 249 50 52 167 176 260 275 94 99 222 234 286 300 63 66 156
163 206 215 49 52 131 138 181 190 76 79 92 100 92 127 0 51 -63 82 -102 51z"/>
</g>
</svg>
