<svg xmlns="http://www.w3.org/2000/svg" width="800" height="800" preserveAspectRatio="xMidYMid meet" viewBox="0 0 600 600">
  <g fill="#000000" stroke="none" transform="translate(0.000000,600.000000) scale(0.100000,-0.100000)">
    <path d="M1551 4144 c-21 -26 -21 -31 -18 -884 2 -828 3 -859 21 -879 19 -21 21 -21 653 -21 l633 0 0 -109 0 -110 -335 1 c-184 1 -338 -1 -341 -5 -4 -3 -4 -13 -1 -22 6 -13 98 -15 837 -15 739 0 831 2 837 15 3 9 3 18 0 21 -3 3 -156 6 -341 6 l-336 1 1 109 0 108 634 0 634 0 21 22 c20 22 20 30 20 883 0 853 0 861 -20 883 l-21 22 -1429 0 -1429 0 -20 -26z m2874 -879 l0 -860 -1419 -3 c-1129 -2 -1421 0 -1428 10 -9 15 -11 1679 -2 1703 6 13 160 15 1428 13 l1421 -3 0 -860z m-1558 -891 c-3 -3 -12 -4 -19 -1 -8 3 -5 6 6 6 11 1 17 -2 13 -5z m293 2 c0 -3 -4 -8 -10 -11 -5 -3 -10 -1 -10 4 0 6 5 11 10 11 6 0 10 -2 10 -4z m-31 -123 l0 -108 -125 -1 -124 -2 0 109 0 109 124 0 124 0 1 -107z m-265 -118 c3 -9 0 -15 -9 -15 -9 0 -12 6 -9 15 4 8 7 15 9 15 2 0 5 -7 9 -15z m290 0 c3 -9 0 -15 -9 -15 -9 0 -12 6 -9 15 4 8 7 15 9 15 2 0 5 -7 9 -15z"/>
  </g>
</svg>
