<svg xmlns="http://www.w3.org/2000/svg" viewBox="0 0 1200 1200">
<g fill="currentColor" transform="translate(0 1200) scale(.1 -.1)">
<path d="M8240 8379 c-246 -25 -454 -156 -545 -341 -31 -64 -39 -92 -43 -155
-4 -74 -14 -103 -33 -103 -5 0 -9 10 -9 21 0 59 -125 253 -222 344 -132 125
-263 161 -405 112 -82 -28 -190 -86 -217 -116 -36 -40 -18 -48 131 -53 135 -5
140 -6 233 -48 145 -64 272 -152 395 -275 70 -70 130 -117 138 -108 4 3 11 -6
16 -21 13 -32 14 -32 56 0 21 15 36 21 40 15 6 -10 25 2 174 107 119 84 272
149 406 173 109 19 283 7 375 -26 83 -30 190 -86 210 -110 15 -19 9 -19 -60
-1 -101 26 -238 38 -344 31 -110 -7 -287 -38 -345 -60 -20 -7 -57 -19 -83 -26
-26 -7 -57 -21 -70 -30 l-22 -17 37 -7 c20 -4 45 -4 54 0 103 41 333 75 507
75 189 0 298 -19 431 -74 42 -18 65 -9 65 24 0 34 -148 153 -266 214 -177 92
-454 107 -644 34 -138 -53 -254 -122 -337 -202 -24 -22 -46 -37 -49 -33 -14
14 126 245 215 356 68 85 192 186 277 226 58 27 71 55 35 75 -11 5 -21 9 -23
9 -2 -1 -37 -5 -78 -10z m-101 -111 c-81 -63 -116 -96 -176 -171 -99 -123
-222 -360 -223 -428 0 -16 -19 -29 -41 -29 -5 0 -9 43 -9 96 0 153 38 263 129
372 82 98 252 195 355 201 12 1 -1 -14 -35 -41z m-901 -87 c38 -19 84 -57 135
-110 79 -83 189 -239 180 -254 -3 -5 -33 18 -67 50 -156 152 -307 239 -469
268 -54 10 -100 22 -103 27 -3 4 -4 8 -2 8 2 0 28 9 58 20 36 13 81 19 133 20
66 0 86 -4 135 -29z"/>
<path d="M3594 8365 c-9 -22 12 -42 65 -66 61 -27 178 -117 243 -187 81 -89
261 -373 245 -388 -2 -3 -29 16 -58 41 -196 168 -453 258 -677 239 -192 -16
-385 -104 -524 -238 -51 -49 -53 -53 -39 -75 10 -16 33 -13 149 23 46 14 111
30 145 36 81 13 329 13 420 0 114 -17 380 -90 402 -111 19 -19 18 -19 -75 -19
-387 0 -743 -216 -912 -552 -56 -111 -99 -252 -101 -328 -2 -49 0 -55 19 -58
16 -2 28 7 45 35 90 148 261 314 462 446 89 59 289 161 427 217 69 28 134 57
145 64 11 8 35 17 53 20 48 11 42 -14 -17 -66 -122 -107 -317 -414 -413 -651
-41 -101 -86 -242 -81 -254 7 -17 38 -17 51 0 5 6 24 55 42 107 29 86 65 176
108 270 40 87 159 280 235 383 78 105 162 197 180 197 7 0 -47 -87 -62 -100
-60 -52 -236 -358 -303 -525 -25 -62 -88 -246 -88 -257 0 -4 13 -8 29 -8 27 0
30 4 70 123 46 133 141 334 220 465 42 69 184 276 201 292 3 3 10 14 16 25 23
42 38 27 68 -65 30 -95 49 -117 79 -95 18 13 17 16 -9 72 -37 78 -66 123 -81
123 -7 0 -13 7 -13 15 0 18 -16 20 -27 3 -4 -7 -18 -19 -30 -26 -20 -11 -23
-10 -23 7 0 10 -9 21 -19 24 -14 3 -18 1 -14 -9 7 -19 -7 -18 -21 1 -10 14
-17 14 -66 1 -232 -61 -447 -153 -661 -281 -135 -81 -189 -125 -322 -260 -131
-132 -137 -131 -69 15 78 167 185 295 322 390 114 78 220 124 358 156 92 22
131 25 276 25 163 0 168 0 151 19 -9 10 -29 24 -45 30 -17 7 -30 21 -32 33 -2
14 -11 23 -25 25 -13 2 -23 8 -23 13 0 5 -8 9 -18 9 -10 0 -22 4 -27 8 -26 23
-179 72 -320 101 -169 36 -379 36 -525 1 -96 -23 -95 -23 -80 -5 40 49 195
115 315 136 85 14 266 6 350 -16 95 -26 259 -109 365 -185 54 -39 102 -70 109
-70 6 0 11 -4 11 -9 0 -5 14 -14 30 -21 17 -7 30 -16 30 -21 0 -5 6 -9 13 -9
18 0 46 55 41 82 -2 13 -2 17 2 11 7 -16 34 -17 34 -2 0 6 6 9 14 6 10 -4 13
1 10 16 -2 12 -2 16 2 10 10 -23 34 -14 72 28 65 72 244 210 327 251 137 69
176 80 322 85 103 4 133 9 137 20 19 49 -230 173 -349 173 -179 0 -353 -148
-480 -408 -22 -45 -44 -81 -50 -79 -5 2 -13 41 -17 86 -14 174 -132 330 -321
427 -117 60 -378 99 -393 59z m351 -109 c68 -33 107 -61 158 -112 116 -115
156 -207 162 -374 3 -58 2 -113 -1 -122 -7 -25 -34 -23 -34 2 0 11 -4 28 -9
38 -5 9 -23 53 -40 97 -66 167 -214 368 -344 466 l-82 62 50 -7 c27 -3 90 -26
140 -50z m1039 -67 c31 -12 56 -25 56 -29 0 -4 -28 -13 -62 -19 -166 -31 -287
-86 -416 -190 -39 -31 -87 -77 -107 -103 -20 -27 -41 -48 -47 -48 -14 0 -1 48
17 67 8 8 15 18 15 23 0 5 6 15 13 22 6 7 24 31 39 53 52 76 157 177 221 211
55 30 71 34 139 34 54 0 92 -6 132 -21z"/>
<path d="M4740 7825 c-81 -17 -125 -33 -220 -79 -91 -44 -139 -81 -122 -98 8
-8 19 -7 44 5 176 81 252 105 378 118 156 15 242 1 363 -63 99 -52 273 -244
252 -278 -4 -6 -24 2 -48 18 -105 71 -218 121 -361 158 -100 26 -291 44 -348
34 -28 -6 -71 -10 -97 -10 -53 0 -86 -15 -58 -26 9 -3 29 -6 44 -6 61 0 271
-19 323 -29 263 -53 422 -123 575 -253 27 -23 51 -36 60 -32 22 8 18 62 -9
129 -82 198 -225 335 -421 402 -68 23 -267 29 -355 10z"/>
<path d="M6880 7821 c-84 -27 -129 -50 -201 -103 -100 -73 -170 -164 -229
-298 -37 -84 -41 -118 -18 -133 13 -9 25 -4 60 26 160 139 400 238 645 267
249 29 295 29 301 -2 2 -12 -7 -18 -40 -23 -218 -37 -409 -203 -473 -412 -32
-104 -31 -336 2 -369 27 -27 45 -12 63 51 19 70 64 160 113 229 84 117 270
278 434 376 39 23 82 53 94 66 l22 24 -24 9 c-13 5 -25 5 -27 0 -2 -4 -29 -21
-60 -36 -227 -109 -432 -295 -537 -486 -20 -37 -39 -67 -42 -67 -3 0 -3 33 0
73 18 230 204 433 453 492 38 9 83 21 100 26 17 5 41 9 55 9 23 1 23 1 5 15
-19 14 -18 15 5 24 l24 10 -26 0 c-14 1 -52 10 -85 22 -51 18 -84 21 -254 22
-181 2 -202 0 -295 -24 -145 -39 -256 -84 -340 -140 -40 -27 -76 -49 -80 -49
-31 0 95 174 169 232 85 67 185 108 301 123 124 16 339 -33 518 -120 43 -21
80 -36 82 -33 2 2 -11 20 -30 40 -44 46 -189 121 -291 149 -111 30 -316 36
-394 10z"/>
<path d="M7924 7621 c-11 -2 -28 -10 -39 -17 -11 -8 -35 -14 -55 -14 -32 -1
-33 -2 -15 -13 13 -8 73 -12 175 -13 203 -2 326 -26 475 -94 153 -69 305 -196
393 -327 50 -74 132 -239 132 -265 0 -12 -41 23 -122 105 -131 132 -241 215
-396 302 -113 63 -298 144 -415 182 -45 14 -91 30 -102 34 -11 4 -44 13 -74
20 -48 12 -54 12 -66 -4 -15 -21 -35 -22 -35 -2 0 18 -12 19 -28 3 -8 -8 -15
-8 -26 1 -13 11 -18 10 -31 -2 -8 -9 -15 -20 -15 -24 0 -5 -8 -18 -19 -29 -27
-30 -109 -206 -142 -307 -33 -101 -37 -158 -12 -182 16 -16 18 -16 35 5 10 12
18 37 18 55 0 42 31 143 73 236 31 67 45 113 62 192 11 56 24 43 156 -154 94
-140 124 -189 180 -299 57 -110 169 -377 169 -403 0 -17 37 -47 57 -47 21 0
15 28 -26 140 -88 239 -161 381 -311 605 -88 132 -87 130 -62 116 11 -6 31
-26 43 -43 12 -18 43 -58 69 -88 89 -106 216 -310 278 -450 30 -66 97 -239
112 -285 16 -50 27 -65 52 -65 32 0 30 24 -11 136 -109 295 -317 643 -475 793
-69 66 -41 64 134 -11 250 -107 336 -149 479 -239 171 -106 358 -278 446 -409
100 -147 126 -69 53 160 -46 144 -158 322 -264 421 -123 113 -301 211 -454
250 -79 20 -346 40 -396 30z"/>
<path d="M4438 7574 c-4 -4 -21 -7 -38 -6 -31 1 -51 -15 -28 -22 7 -2 40 -9
73 -16 99 -19 186 -49 271 -95 90 -49 150 -108 207 -202 36 -59 77 -189 77
-242 0 -53 -15 -51 -43 7 -59 124 -222 293 -397 412 -83 56 -229 132 -240 125
-21 -13 -8 -31 53 -70 247 -158 401 -294 496 -435 60 -90 101 -181 101 -225 0
-32 31 -49 56 -31 16 12 18 33 22 162 4 141 3 153 -22 228 -64 190 -216 324
-436 387 -90 25 -142 33 -152 23z"/>
<path d="M4433 7231 c1 -64 -1 -83 -16 -98 -15 -17 -16 -29 -9 -82 9 -65 28
-96 50 -82 21 13 42 110 44 206 2 102 -10 135 -47 135 -25 0 -25 -1 -22 -79z"/>
<path d="M4275 6766 c-27 -13 -90 -43 -140 -66 -49 -23 -157 -74 -240 -112
-82 -38 -181 -85 -220 -103 -38 -18 -137 -65 -220 -104 -82 -39 -238 -114
-345 -168 l-195 -98 -3 -96 c-3 -123 -4 -123 136 -123 l105 -1 1 -498 c1 -454
0 -498 -16 -502 -9 -3 -19 -18 -23 -32 -3 -15 -5 -162 -4 -328 l2 -300 -39 0
c-38 0 -39 1 -46 45 -3 25 -16 79 -27 120 -11 41 -31 120 -43 176 -21 100 -21
102 -3 195 22 115 16 219 -21 345 -37 130 -71 195 -165 315 -46 58 -143 149
-159 149 -23 0 -34 -53 -38 -195 -5 -165 9 -247 63 -377 45 -107 47 -104 -56
-50 -95 49 -240 91 -273 79 -26 -10 -19 -61 20 -155 92 -222 271 -376 505
-433 30 -7 58 -16 64 -21 5 -4 16 -8 25 -8 17 0 29 -20 50 -83 20 -65 -1 -68
-57 -9 -31 33 -72 62 -118 84 -60 28 -83 33 -162 36 -79 3 -104 0 -175 -23
-126 -42 -132 -52 -65 -117 154 -148 308 -199 472 -154 28 7 57 15 65 17 12 3
15 -9 14 -66 l-1 -70 -127 -5 c-154 -6 -160 -10 -153 -107 2 -34 0 -66 -5 -71
-5 -5 -27 -8 -47 -5 -49 7 -83 -11 -79 -40 l3 -22 3448 -3 c3185 -2 3448 -1
3454 14 12 32 -11 49 -68 49 l-54 0 -3 76 c-4 105 -8 108 -152 111 l-115 3 -3
64 -3 64 38 -9 c21 -5 85 -9 143 -9 102 0 107 1 175 37 92 49 207 153 203 182
-3 23 -41 44 -125 71 -39 12 -79 16 -155 13 -89 -3 -111 -7 -160 -31 -32 -16
-83 -54 -115 -85 -50 -49 -58 -54 -61 -36 -2 11 5 45 15 74 20 58 18 57 128
81 144 30 298 127 397 250 75 93 160 284 144 325 -6 16 -53 19 -88 5 -13 -5
-48 -14 -78 -21 -50 -12 -95 -32 -187 -86 -17 -10 -34 -16 -37 -14 -2 3 11 37
30 75 66 135 97 332 74 480 -12 83 -24 115 -40 115 -6 0 -43 -32 -84 -70 -115
-110 -196 -243 -242 -400 -25 -85 -25 -315 -1 -404 14 -50 14 -62 3 -85 -7
-14 -19 -51 -25 -81 -6 -30 -20 -84 -31 -120 -10 -36 -24 -93 -31 -127 -12
-55 -16 -63 -36 -63 l-23 0 0 320 c0 305 -1 320 -20 338 -19 18 -20 33 -20
506 0 269 2 491 6 495 3 3 53 6 111 6 130 0 133 3 133 122 0 72 -3 85 -22 103
-12 11 -26 20 -30 20 -5 0 -120 55 -256 121 -136 67 -281 137 -322 156 -152
71 -180 84 -390 184 -118 56 -257 121 -308 146 -52 24 -101 41 -111 38 -19 -6
-188 -98 -396 -215 -71 -40 -150 -84 -175 -98 -25 -14 -92 -52 -150 -85 -58
-33 -154 -88 -215 -122 -212 -118 -260 -147 -267 -158 -4 -7 -8 -51 -8 -98 0
-110 4 -114 119 -114 l86 0 3 -494 c2 -460 1 -496 -15 -514 -16 -17 -19 -52
-23 -336 l-5 -316 -56 -3 c-77 -4 -87 -17 -91 -117 l-3 -80 -65 -5 c-38 -3
-77 -12 -93 -22 -24 -16 -26 -25 -29 -90 l-3 -73 -92 -3 c-55 -1 -93 2 -93 7
0 6 19 23 43 39 127 88 249 279 273 429 8 50 -9 59 -69 36 -140 -56 -248 -163
-287 -284 -30 -94 -46 -91 -64 11 -12 69 -12 262 0 315 7 30 14 40 29 40 13 0
21 -7 22 -20 13 -133 14 -136 36 -133 20 3 22 9 21 63 -1 39 -8 75 -22 104
-12 25 -22 57 -22 72 0 27 -22 59 -41 59 -30 0 -91 -218 -93 -333 0 -45 -5
-76 -11 -75 -5 2 -26 23 -46 48 -19 25 -52 58 -73 73 -43 33 -153 80 -166 72
-6 -4 -10 -23 -10 -44 0 -111 131 -332 253 -427 l62 -49 -89 -3 c-57 -2 -92 1
-96 8 -4 6 -8 36 -9 67 -1 51 -20 100 -33 88 -3 -3 -18 0 -34 6 -16 7 -47 15
-69 18 l-40 6 -3 85 c-3 100 -11 110 -88 110 -29 0 -55 4 -58 8 -3 5 -6 151
-7 326 -1 292 -2 317 -19 329 -17 12 -18 41 -18 505 0 270 3 493 7 494 3 0 43
2 88 3 49 1 88 7 98 15 11 9 15 34 15 104 0 103 10 89 -110 156 -36 21 -94 54
-130 75 -36 21 -83 47 -105 60 -22 12 -87 49 -145 82 -58 33 -132 75 -165 93
-33 18 -112 62 -175 98 -63 36 -140 78 -170 95 -30 17 -85 47 -122 68 -90 51
-96 51 -153 25z m205 -132 c85 -47 160 -89 165 -94 6 -4 44 -25 85 -47 41 -22
165 -90 275 -151 110 -60 240 -132 289 -159 48 -27 87 -52 85 -56 -4 -8 -2289
-11 -2297 -2 -3 3 33 22 79 44 46 21 172 81 279 133 255 124 269 130 515 244
185 85 369 171 370 173 1 1 71 -38 155 -85z m3289 31 c61 -30 113 -55 115 -55
2 0 65 -29 141 -65 75 -36 138 -65 141 -65 2 0 102 -47 222 -104 259 -123 352
-167 451 -213 40 -18 71 -36 68 -39 -3 -3 -522 -5 -1154 -5 -631 1 -1152 1
-1156 1 -18 0 7 21 51 43 42 21 111 59 292 159 30 17 69 38 85 46 17 8 63 35
102 59 40 23 75 43 77 43 2 0 44 23 93 51 48 29 122 70 163 92 41 23 100 56
130 74 30 18 58 33 61 33 4 0 57 -25 118 -55z m-2279 -655 c0 -41 -3 -50 -17
-50 -10 0 -61 -1 -113 -2 -52 -1 -611 -1 -1242 0 l-1148 2 0 50 0 50 1260 0
1260 0 0 -50z m3528 -2 l3 -48 -1250 -1 c-688 -1 -1257 -2 -1263 -3 -14 -1
-24 65 -14 90 5 12 193 14 1263 12 l1258 -3 3 -47z m-5563 -613 l0 -500 -105
-1 c-58 -1 -112 1 -120 2 -13 3 -15 66 -13 496 0 271 1 495 2 498 1 3 54 6
119 5 l117 0 0 -500z m1523 1 l-3 -501 -40 0 -40 0 -2 170 c-1 94 -2 176 -3
183 0 9 -29 12 -109 12 l-108 0 -6 78 c-12 176 -129 312 -308 358 -230 59
-479 -134 -479 -371 l0 -64 -136 -3 -137 -3 2 -287 2 -288 -25 0 c-14 0 -37
-5 -51 -12 -37 -17 -46 1 -43 92 3 74 3 75 31 78 21 3 27 9 27 28 0 15 -6 24
-15 24 -8 0 -15 6 -15 13 -2 143 1 981 4 986 2 3 331 6 730 7 l726 0 -2 -500z
m297 1 l0 -499 -115 -1 -115 -2 -3 490 c-1 270 0 495 2 501 3 7 45 10 118 10
l113 -1 0 -498z m1660 -2 l0 -500 -115 1 -115 0 -3 490 c-1 269 0 494 2 500 3
7 44 10 118 10 l113 -1 0 -500z m1528 0 l2 -499 -25 -6 c-16 -4 -26 -14 -28
-27 -3 -19 2 -22 40 -25 l43 -3 -4 -300 c-2 -165 -4 -301 -6 -303 -8 -9 -35
13 -35 28 0 11 -4 22 -10 25 -6 4 -10 -5 -10 -19 0 -29 -25 -40 -81 -34 l-34
3 2 190 2 190 45 3 c41 3 47 1 56 -22 14 -37 26 -32 34 12 11 68 10 71 -36 74
l-43 3 1 255 c1 140 3 269 5 285 l4 30 -136 3 -136 3 -5 77 c-8 144 -89 262
-226 329 -71 36 -82 38 -166 38 -81 0 -98 -4 -156 -31 -142 -68 -227 -186
-239 -334 l-6 -75 -107 -3 c-103 -3 -108 -4 -114 -26 -3 -12 -4 -94 -2 -182
l3 -159 -47 -3 -48 -3 0 499 c0 274 2 501 5 503 2 3 331 5 730 5 l726 -1 2
-500z m287 500 c13 -4 15 -66 13 -496 0 -270 -4 -493 -7 -497 -10 -9 -217 -9
-222 0 -6 10 -5 978 1 988 5 8 192 12 215 5z m-4509 -420 c0 -88 -1 -163 -1
-166 0 -11 -294 -9 -301 2 -8 13 16 111 38 152 42 82 180 182 242 175 l23 -3
-1 -160z m166 138 c106 -50 184 -154 199 -265 l6 -46 -153 2 -154 1 -1 160
c-1 88 0 163 3 168 8 14 43 7 100 -20z m3275 -137 c-1 -87 -4 -162 -7 -165
-11 -11 -289 -10 -296 1 -19 30 32 151 93 222 46 53 145 108 187 104 l24 -3
-1 -159z m188 129 c52 -26 110 -85 138 -142 27 -52 51 -138 44 -150 -9 -13
-289 -15 -297 -3 -4 7 -9 268 -5 324 0 13 69 -3 120 -29z m-5089 -298 c77
-125 115 -246 126 -390 6 -83 5 -89 -13 -87 -40 5 -46 1 -40 -24 20 -79 -63
12 -127 139 -59 116 -88 232 -94 377 -8 171 -4 177 58 108 27 -30 68 -85 90
-123z m6541 111 c15 -199 -71 -485 -183 -609 l-40 -44 6 35 c4 19 13 54 21 78
19 59 18 82 -4 82 -21 0 -42 -38 -42 -76 0 -31 -17 -64 -32 -64 -14 0 -5 127
17 233 18 87 81 230 130 294 57 75 100 121 112 122 6 1 13 -20 15 -51z m-5080
-451 c-1 -147 -4 -272 -7 -277 -3 -5 -72 -8 -152 -7 l-146 2 1 275 c0 151 1
276 1 278 1 1 69 1 153 0 l152 -3 -2 -268z m369 -1 c-1 -148 -4 -273 -6 -277
-3 -4 -71 -6 -152 -5 l-148 1 -1 270 c0 149 2 273 4 278 2 4 71 6 154 5 l150
-3 -1 -269z m3071 3 c1 -147 -2 -271 -6 -278 -9 -14 -282 -15 -291 -1 -4 6 -8
448 -5 545 0 3 68 4 151 3 l151 -3 0 -266z m370 1 c-1 -146 -2 -271 -2 -277 0
-17 -285 -19 -295 -2 -5 7 -10 491 -6 542 1 4 69 6 153 5 l152 -3 -2 -265z
m-743 226 c8 -9 11 -87 9 -262 l-3 -249 -80 0 -80 0 0 255 0 255 55 6 c30 3
62 6 71 7 9 1 22 -4 28 -12z m-3434 -254 c0 -292 13 -265 -120 -260 l-80 3 -2
245 c-2 135 -1 251 2 258 3 9 30 12 102 10 l97 -3 1 -253z m953 -5 l2 -258
-77 3 -78 3 -3 245 c-1 134 0 251 3 258 3 9 24 12 77 10 l73 -3 3 -258z m3485
10 c1 -137 -1 -253 -4 -258 -3 -6 -48 -8 -100 -7 l-94 3 0 253 c0 140 2 256 5
258 2 3 46 3 98 2 l93 -3 2 -248z m-5831 -9 c111 -42 170 -81 249 -165 57 -61
189 -258 189 -283 0 -20 -20 -18 -68 5 -27 13 -63 27 -78 31 -49 12 -164 85
-227 143 -80 74 -184 235 -186 289 -1 19 31 14 121 -20z m7108 18 c0 -8 -19
-51 -42 -95 -46 -90 -132 -191 -216 -253 -51 -38 -169 -98 -192 -98 -6 0 -30
-9 -52 -20 -51 -25 -70 -13 -47 28 9 15 36 61 59 102 62 107 183 229 273 274
79 40 172 75 200 76 9 0 17 -6 17 -14z m-6159 -128 c0 -7 0 -143 0 -303 l0
-290 -127 0 -127 0 -1 295 -1 295 90 6 c161 10 165 10 166 -3z m1564 -68 l0
-75 -52 -3 -53 -3 0 74 c0 40 3 77 7 81 4 4 28 6 53 4 l45 -3 0 -75z m329 68
c0 -2 -1 -136 -4 -298 l-5 -295 -128 0 -129 0 1 300 c0 165 1 301 1 301 0 3
262 -5 264 -8z m1593 3 c10 -1 12 -68 9 -298 l-3 -298 -129 0 -129 0 -2 297
-2 297 27 3 c26 3 203 2 229 -1z m181 -69 l3 -73 -31 -10 c-35 -13 -41 -44
-10 -52 20 -5 20 -12 18 -199 l-3 -193 -45 0 -45 0 0 295 c0 185 4 298 10 303
6 4 30 6 55 5 l45 -3 3 -73z m1700 69 c10 -1 12 -64 10 -298 l-3 -298 -125 0
-125 0 -1 295 c-1 162 0 297 1 300 3 4 197 5 243 1z m-5245 -205 l33 -13 -1
-189 0 -189 -45 0 -45 0 -3 180 c-4 237 -3 238 61 211z m378 -15 c3 -3 3 -89
0 -191 l-6 -185 -54 0 -54 0 1 187 c0 103 3 192 6 197 6 9 97 3 107 -8z m304
-181 l0 -195 -45 0 -45 0 -3 184 c-1 104 2 188 7 195 5 6 27 11 48 11 l38 0 0
-195z m175 185 c3 -2 5 -88 4 -192 l-1 -188 -59 0 c-41 0 -59 4 -58 13 1 6 2
93 3 191 1 178 1 180 24 184 20 4 75 -1 87 -8z m365 -186 l0 -194 -50 0 -50 0
-3 192 -2 192 42 4 c24 2 48 3 53 2 6 -1 10 -74 10 -196z m2463 -5 l-3 -189
-45 0 -45 0 -3 192 -2 192 42 3 c24 2 46 0 51 -3 4 -3 6 -91 5 -195z m165 197
c4 -1 6 -88 5 -193 l-3 -193 -50 0 -50 0 -3 184 c-1 113 1 188 8 196 8 10 47
12 93 6z m165 -195 l2 -197 -47 3 -48 3 -5 185 c-3 102 -2 190 2 196 4 5 27
10 50 9 l43 -1 3 -198z m167 3 l0 -194 -50 0 -50 0 0 190 0 190 40 6 c22 3 45
5 50 4 6 -1 10 -74 10 -196z m350 1 l0 -195 -50 0 -50 0 0 190 0 190 35 6 c69
13 65 24 65 -191z m164 184 c3 -3 4 -89 4 -192 l0 -187 -52 -3 -51 -3 0 194
c0 106 3 196 6 199 5 6 85 -2 93 -8z m-4494 -189 l0 -190 -55 0 -54 0 -1 188
c0 104 2 191 5 193 2 3 27 4 55 2 l50 -3 0 -190z m340 0 l0 -190 -50 0 -50 0
-1 185 c0 102 1 189 4 193 2 4 25 7 50 5 l47 -3 0 -190z m517 0 l2 -190 -66
-3 -66 -3 -7 67 c-4 36 -5 112 -1 168 3 55 6 114 6 129 l0 28 65 -3 66 -3 1
-190z m348 171 c5 -13 14 -26 21 -28 9 -3 12 -46 11 -162 -1 -87 -3 -160 -5
-163 -3 -2 -37 -7 -76 -10 l-71 -6 0 197 0 196 55 0 c49 0 57 -3 65 -24z
m2962 -156 c0 -99 1 -186 2 -192 1 -9 -19 -14 -61 -16 -35 -2 -63 1 -63 5 -1
35 -2 370 -1 376 1 4 28 7 61 7 l60 0 2 -180z m-5176 -66 c67 -22 159 -83 146
-96 -8 -8 -25 -4 -57 11 -52 24 -100 25 -100 1 0 -16 82 -48 128 -49 40 -1 33
-26 -12 -39 -102 -31 -233 6 -360 100 -46 35 -51 42 -39 54 21 22 136 44 195
39 29 -3 73 -12 99 -21z m6704 6 c64 -18 68 -25 35 -60 -49 -51 -162 -108
-243 -122 -60 -10 -81 -10 -127 2 -60 16 -76 33 -35 38 14 2 40 8 57 13 28 9
31 13 23 30 -9 16 -18 18 -50 13 -66 -11 -47 12 55 64 76 40 192 48 285 22z
m-3650 -189 c25 -26 53 -58 64 -71 21 -26 70 -142 81 -189 6 -26 4 -31 -13
-31 -23 0 -135 107 -180 173 -35 50 -92 176 -92 202 0 24 85 -27 140 -84z
m494 20 c-39 -87 -96 -169 -179 -254 -88 -91 -102 -86 -65 22 39 115 119 222
214 285 52 35 61 19 30 -53z m-828 -44 c1 -1 4 -31 5 -67 l3 -65 -1237 -3
-1237 -2 0 63 c0 35 4 67 9 73 9 8 2449 9 2457 1z m3515 1 c0 -7 1 -40 2 -73
l1 -60 -1242 -3 -1243 -2 3 67 3 68 1200 5 c660 3 1217 6 1238 8 24 2 37 -2
38 -10z m-3321 -258 c0 -33 -4 -60 -10 -60 -644 -2 -2914 1 -2919 4 -10 6 -8
87 2 104 7 9 311 12 1468 12 l1459 0 0 -60z m3574 54 c12 -5 16 -20 16 -60 l0
-54 -1452 -2 c-799 -2 -1459 -1 -1465 1 -14 3 -19 102 -6 114 8 9 2885 9 2907
1z"/>
<path d="M5635 5300 c-54 -13 -83 -29 -125 -66 -63 -57 -84 -105 -84 -194 0
-64 4 -83 29 -129 35 -63 90 -113 144 -129 49 -15 236 -14 278 1 45 17 139 93
185 150 32 42 38 56 38 98 0 85 -45 146 -78 106 -8 -9 -7 -25 4 -57 14 -40 14
-47 -2 -83 -21 -45 -104 -123 -154 -145 -40 -17 -212 -18 -257 -1 -46 17 -101
79 -119 132 -15 46 -15 53 2 109 14 46 27 68 62 99 54 47 83 53 222 47 106 -5
140 1 140 26 0 25 -54 40 -155 41 -55 1 -113 -1 -130 -5z"/>
<path d="M6100 5300 c-19 -4 -46 -12 -60 -18 -61 -25 -174 -129 -194 -177 -8
-18 -24 -36 -35 -40 -28 -9 -26 -31 4 -51 14 -9 25 -22 25 -30 0 -26 24 -64
40 -64 30 0 45 27 31 56 -6 14 -11 46 -11 71 0 44 4 51 52 96 82 77 116 90
238 95 124 5 177 -7 226 -50 42 -37 61 -72 69 -124 12 -78 -46 -176 -125 -211
-39 -18 -231 -20 -274 -3 -17 6 -30 4 -45 -6 -30 -22 -26 -38 14 -57 28 -13
64 -17 158 -17 112 0 128 2 175 26 65 32 138 112 153 167 17 64 6 168 -21 208
-40 59 -64 80 -115 107 -44 22 -64 26 -160 27 -60 2 -126 -1 -145 -5z"/>
</g>
</svg>
