<svg xmlns="http://www.w3.org/2000/svg" width="18" height="18" viewBox="0 0 24 24" fill="none" stroke="currentColor" stroke-width="1.35" stroke-linecap="round" stroke-linejoin="round">
  <path d="M20.5 11.8a8.5 8.5 0 0 1-12.4 7.5L3.5 20.5l1.2-4.4a8.5 8.5 0 1 1 15.8-4.3Z"/>
  <path d="M9.2 8.7c.2-.5.4-.6.7-.6h.5c.2 0 .4.1.5.4l.6 1.5c.1.2 0 .5-.1.6l-.4.5c.6 1.1 1.5 2 2.6 2.6l.5-.4c.2-.2.4-.2.6-.1l1.5.6c.2.1.4.3.4.5v.5c0 .3-.2.6-.6.7-.4.2-1 .2-1.3 0-3.3-1.4-5.7-3.8-7.1-7.1-.2-.3-.2-.9.2-1.3Z"/>
</svg>
