<svg xmlns="http://www.w3.org/2000/svg" width="800" height="800" preserveAspectRatio="xMidYMid meet" viewBox="0 0 600 600">
  <g fill="#000000" stroke="none" transform="translate(0.000000,600.000000) scale(0.100000,-0.100000)">
    <path d="M2795 4133 c-396 -47 -727 -176 -1019 -397 -99 -74 -216 -184 -216 -202 0 -25 19 -15 73 37 342 335 860 539 1365 539 510 0 971 -177 1350 -519 56 -50 86 -71 93 -64 7 7 -10 30 -53 71 -303 290 -718 482 -1153 532 -84 9 -372 12 -440 3z"/>
    <path d="M2800 3726 c-131 -18 -180 -29 -300 -67 -130 -42 -302 -125 -410 -200 -102 -69 -240 -193 -240 -215 0 -18 26 -18 33 0 9 23 194 171 281 225 601 368 1382 299 1898 -170 55 -50 83 -68 90 -61 7 7 -9 28 -51 68 -238 223 -539 369 -856 414 -130 18 -330 21 -445 6z"/>
    <path d="M1959 3413 c-13 -16 -12 -17 4 -4 9 7 17 15 17 17 0 8 -8 3 -21 -13z"/>
    <path d="M1849 3333 c-13 -16 -12 -17 4 -4 16 13 21 21 13 21 -2 0 -10 -8 -17 -17z"/>
    <path d="M2885 3324 c-174 -25 -275 -55 -412 -120 -142 -69 -347 -233 -328 -264 5 -8 20 1 49 27 201 191 435 297 709 323 313 30 641 -80 873 -293 59 -55 75 -65 80 -52 14 36 -200 201 -350 271 -156 72 -295 104 -471 109 -66 2 -133 1 -150 -1z"/>
    <path d="M4015 3301 c-3 -5 -2 -12 3 -15 5 -3 9 1 9 9 0 17 -3 19 -12 6z"/>
    <path d="M3277 3219 c7 -7 15 -10 18 -7 3 3 -2 9 -12 12 -14 6 -15 5 -6 -5z"/>
    <path d="M2835 2885 c-134 -36 -241 -92 -340 -178 -51 -45 -70 -77 -44 -77 6 0 37 24 68 53 209 191 527 242 778 123 87 -41 143 -79 201 -136 29 -28 48 -40 59 -36 37 14 -136 155 -252 205 -134 59 -347 80 -470 46z"/>
    <path d="M2485 2791 c-3 -5 -2 -12 3 -15 5 -3 9 1 9 9 0 17 -3 19 -12 6z"/>
    <path d="M3505 2770 c3 -5 8 -10 11 -10 2 0 4 5 4 10 0 6 -5 10 -11 10 -5 0 -7 -4 -4 -10z"/>
    <path d="M3576 2712 c-3 -5 1 -9 9 -9 8 0 12 4 9 9 -3 4 -7 8 -9 8 -2 0 -6 -4 -9 -8z"/>
    <path d="M2965 2410 c-44 -10 -69 -25 -103 -64 -120 -137 37 -351 205 -281 48 20 71 41 94 87 41 80 11 189 -64 232 -49 28 -90 36 -132 26z m116 -53 c48 -32 71 -81 66 -140 -10 -121 -166 -177 -249 -90 -51 54 -60 110 -28 174 40 77 140 104 211 56z"/>
  </g>
</svg>
