<?xml version="1.0" encoding="UTF-8"?>
<svg version="1.1" xmlns="http://www.w3.org/2000/svg" width="1200" height="1200" viewBox="0 0 1200 1200" preserveAspectRatio="xMidYMid meet">
<g transform="translate(0.000000,1200.000000) scale(0.100000,-0.100000)"
fill="#B1801D" stroke="none">
<path d="M5993 9576 c-57 -41 -173 -193 -173 -227 0 -12 -17 -51 -37 -87 -32
-58 -37 -78 -41 -147 -7 -142 31 -301 87 -360 19 -19 31 -46 36 -75 8 -55 29
-90 54 -90 15 0 19 -11 24 -78 3 -43 11 -92 17 -108 15 -38 29 -164 18 -164
-9 0 -26 -37 -53 -112 -9 -27 -23 -48 -30 -48 -7 0 -23 -16 -35 -36 -18 -29
-22 -45 -17 -84 8 -68 22 -90 55 -90 39 0 69 24 83 68 7 20 22 51 35 68 13 16
33 52 45 80 12 27 29 57 37 67 12 14 17 53 22 170 7 160 4 190 -28 235 -11 15
-25 45 -31 68 -6 22 -22 51 -36 64 -13 12 -33 50 -45 84 -11 34 -29 67 -39 73
-11 7 -22 29 -26 55 -4 24 -13 67 -21 96 -10 39 -11 65 -3 100 5 26 14 81 20
121 9 67 14 80 50 118 21 23 39 47 39 53 0 5 12 16 28 24 41 23 91 74 98 102
7 29 -29 76 -51 68 -7 -3 -16 -1 -20 5 -9 16 -26 12 -62 -13z"/>
<path d="M5093 9358 c-12 -7 -40 -38 -63 -68 -22 -30 -44 -56 -49 -59 -36 -24
-91 -212 -90 -308 1 -86 33 -219 58 -241 10 -9 26 -37 35 -62 10 -25 28 -56
41 -70 31 -33 48 -174 37 -320 -6 -95 -9 -105 -30 -116 -41 -20 -71 -56 -86
-102 -20 -58 -21 -55 10 -91 45 -54 116 -35 155 41 11 21 23 38 28 38 4 0 18
30 30 68 12 37 31 86 43 110 15 31 18 52 13 80 -3 20 -7 73 -9 117 -2 90 -40
207 -82 252 -13 14 -26 44 -30 70 -4 31 -17 58 -39 82 -31 35 -32 39 -38 152
l-7 115 30 29 c16 15 37 50 46 77 14 42 22 51 55 65 59 23 91 102 54 133 -21
18 -87 22 -112 8z"/>
<path d="M6812 9350 c-19 -12 -41 -38 -52 -63 -11 -23 -30 -53 -43 -65 -17
-16 -29 -43 -36 -83 -7 -33 -22 -76 -33 -96 -20 -33 -21 -40 -9 -95 6 -32 9
-62 7 -67 -3 -5 0 -24 8 -42 8 -19 17 -58 21 -87 5 -38 16 -63 40 -92 23 -28
36 -56 41 -88 5 -37 15 -54 42 -78 l36 -31 -11 -144 c-7 -80 -19 -160 -27
-180 -9 -22 -35 -51 -64 -72 -39 -27 -51 -43 -56 -71 -30 -161 110 -166 182
-7 14 31 36 73 50 93 18 27 28 68 42 159 17 118 17 126 0 225 -13 70 -26 114
-44 140 -14 22 -28 59 -32 84 -4 26 -17 54 -31 68 -32 32 -46 122 -41 256 3
89 7 106 31 143 16 25 41 49 61 57 40 17 56 42 56 89 0 42 -17 57 -67 63 -27
4 -47 -1 -71 -16z"/>
<path d="M3967 7311 c-6 -2 -24 -14 -38 -26 -15 -12 -40 -27 -58 -35 -18 -7
-33 -22 -35 -34 -3 -11 -10 -49 -16 -83 -7 -34 -11 -104 -8 -155 5 -104 20
-146 74 -205 38 -41 39 -44 22 -61 -7 -7 -17 -27 -23 -44 -12 -38 -32 -41
-105 -13 -33 12 -77 17 -165 17 -74 0 -141 6 -174 15 -44 13 -61 13 -95 3 -23
-7 -47 -14 -54 -16 -9 -3 -12 -20 -10 -56 3 -48 5 -53 33 -63 17 -5 36 -16 43
-22 18 -17 47 -16 82 2 19 10 74 17 162 21 73 3 155 9 182 14 27 4 57 5 67 3
27 -7 41 -69 28 -116 -17 -64 15 -346 46 -407 8 -14 21 -55 30 -90 9 -36 23
-76 32 -88 8 -13 23 -49 34 -80 11 -30 25 -63 33 -71 8 -9 19 -36 26 -60 6
-24 24 -60 40 -80 15 -20 31 -50 34 -67 4 -17 23 -51 44 -76 20 -26 53 -69 72
-98 19 -28 52 -71 73 -96 20 -25 37 -49 37 -54 0 -5 13 -16 30 -25 17 -9 33
-27 36 -41 4 -17 18 -31 40 -40 18 -7 42 -27 53 -42 11 -16 35 -35 53 -42 18
-7 38 -18 43 -24 29 -33 96 -75 145 -91 67 -23 70 -26 86 -70 9 -28 9 -37 -1
-43 -18 -9 -61 -74 -70 -103 -4 -13 -19 -44 -34 -69 -15 -25 -33 -70 -40 -100
-7 -30 -23 -73 -36 -95 -12 -22 -25 -58 -29 -80 -9 -52 -26 -95 -38 -95 -14 0
-34 -56 -48 -133 -8 -42 -20 -76 -32 -86 -12 -12 -21 -38 -25 -72 -4 -41 -13
-62 -34 -85 -25 -25 -30 -41 -35 -100 -4 -46 -15 -84 -31 -114 -27 -50 -53
-136 -53 -178 0 -15 -8 -35 -19 -44 -12 -10 -21 -36 -25 -72 -6 -42 -15 -66
-36 -90 -23 -25 -32 -50 -40 -105 -7 -39 -25 -97 -41 -129 -16 -31 -29 -64
-29 -73 0 -42 -41 -162 -76 -224 -22 -38 -46 -95 -53 -124 -8 -30 -29 -88 -48
-127 -50 -105 -47 -109 62 -109 l90 0 6 65 c4 36 13 81 22 100 8 19 23 64 32
100 9 35 29 92 45 125 15 33 31 81 34 107 4 28 15 53 25 60 24 17 41 51 41 82
0 43 40 198 66 254 29 63 31 100 7 108 -37 11 -48 22 -48 45 0 18 6 24 23 25
13 1 32 10 43 20 16 17 17 24 8 59 -9 33 -9 41 7 52 9 7 27 10 39 7 13 -3 27
2 36 13 33 38 78 133 94 194 8 35 25 81 36 102 12 21 25 70 31 110 6 48 18 84
34 109 14 20 32 67 40 104 7 37 25 97 38 133 14 37 32 89 41 116 9 28 28 81
41 120 13 39 24 92 24 121 0 68 17 87 62 72 77 -25 93 -34 170 -89 61 -44 90
-59 115 -59 19 0 50 -11 71 -24 34 -23 74 -33 337 -86 22 -5 90 -6 151 -3 69
4 118 2 129 -4 14 -8 22 -7 33 4 12 11 43 14 151 12 75 -1 156 0 181 3 145 18
356 80 480 143 44 22 173 95 184 104 6 5 27 11 46 13 l35 3 0 -65 c1 -45 8
-79 22 -110 11 -25 23 -74 26 -109 4 -43 12 -73 26 -92 12 -16 26 -52 31 -79
10 -55 23 -83 51 -113 11 -13 20 -42 24 -86 3 -36 13 -79 22 -96 9 -16 26 -57
38 -90 13 -33 32 -83 42 -110 11 -28 23 -71 27 -94 7 -49 30 -86 88 -147 34
-36 40 -48 40 -89 1 -40 4 -46 19 -42 14 4 21 -3 29 -31 5 -21 10 -44 10 -52
0 -9 5 -21 12 -28 7 -7 13 -56 14 -133 2 -112 15 -179 34 -179 13 0 30 -59 30
-101 0 -26 7 -46 20 -59 18 -18 60 -124 60 -152 0 -7 7 -26 16 -43 28 -54 77
-209 83 -265 l6 -55 80 0 80 0 -3 30 c-6 68 -26 129 -53 160 -22 25 -31 48
-39 101 -5 38 -10 72 -10 76 0 3 -10 19 -23 35 -14 17 -30 59 -40 105 -9 43
-23 93 -31 110 -8 18 -21 59 -29 90 -8 31 -24 69 -35 85 -11 15 -26 55 -33 88
-8 36 -22 68 -36 81 -30 28 -43 65 -43 127 0 36 -7 63 -22 87 -11 19 -29 67
-39 107 -10 40 -27 81 -37 91 -13 13 -24 46 -31 93 -19 115 -22 129 -31 129
-15 0 -31 38 -40 96 -5 30 -18 66 -29 80 -11 14 -25 51 -31 82 -6 31 -20 69
-31 85 -11 15 -27 58 -35 95 -9 37 -24 87 -34 112 -33 82 -49 125 -60 161 -12
40 -83 115 -99 105 -12 -8 -15 13 -5 39 4 9 30 27 58 40 28 13 87 53 130 89
43 36 83 66 89 66 8 0 56 37 107 84 8 7 28 30 44 51 15 20 41 41 57 47 20 7
33 22 44 53 10 24 27 52 40 63 31 27 105 126 105 141 0 16 18 47 68 113 28 37
47 78 58 120 9 35 24 72 34 83 17 20 27 46 50 134 7 24 20 56 31 70 12 17 23
57 29 110 6 47 20 101 32 125 20 37 22 54 19 189 -2 136 -1 151 19 185 21 34
21 37 4 49 -10 7 -23 13 -30 13 -7 0 -17 7 -22 15 -14 26 -41 6 -52 -39 -5
-22 -14 -54 -19 -71 -5 -16 -12 -74 -15 -127 -4 -54 -13 -113 -20 -130 -8 -18
-19 -62 -25 -98 -22 -127 -28 -150 -44 -167 -8 -10 -23 -45 -32 -78 -10 -33
-26 -70 -36 -83 -10 -13 -27 -52 -39 -87 -12 -35 -28 -69 -35 -75 -8 -7 -17
-28 -21 -47 -4 -18 -22 -52 -40 -74 -19 -23 -34 -46 -34 -51 0 -6 -12 -36 -26
-68 -20 -45 -32 -60 -59 -70 -24 -9 -37 -24 -48 -52 -9 -22 -28 -45 -46 -56
-17 -9 -31 -20 -31 -24 0 -20 -56 -85 -86 -101 -18 -9 -41 -29 -50 -43 -10
-14 -31 -32 -48 -41 -17 -8 -40 -24 -52 -34 -11 -10 -37 -27 -58 -37 -23 -11
-46 -34 -60 -58 -19 -34 -26 -39 -57 -39 -22 0 -53 -12 -84 -32 -28 -17 -73
-41 -101 -51 -28 -11 -77 -34 -110 -51 -32 -17 -104 -42 -159 -56 -55 -14
-118 -33 -140 -42 -41 -16 -56 -18 -328 -49 -130 -14 -166 -15 -205 -5 -50 13
-100 21 -284 46 -78 10 -129 22 -152 36 -23 14 -61 22 -112 26 -59 5 -82 11
-103 29 -15 12 -55 34 -90 48 -36 14 -72 32 -80 40 -9 8 -50 30 -92 50 -42 20
-100 57 -130 83 -30 25 -72 58 -95 72 -42 27 -82 61 -131 112 -15 16 -46 47
-68 69 -22 22 -44 44 -48 49 -5 5 -22 24 -38 41 -16 17 -32 43 -35 57 -6 24
-64 98 -119 154 -14 14 -29 39 -34 55 -4 16 -18 34 -31 41 -29 15 -40 31 -40
66 0 41 -27 98 -49 104 -20 5 -51 81 -51 125 0 13 -12 37 -26 53 -24 27 -26
35 -21 91 5 49 2 70 -13 98 -23 46 -54 227 -47 273 4 19 -2 66 -14 110 -10 42
-19 88 -19 102 0 14 -7 39 -15 55 -17 33 -12 62 13 70 9 3 40 -2 67 -12 47
-16 172 -17 1822 -19 975 -1 1789 -3 1810 -4 54 -1 216 9 295 19 69 8 91 2 81
-24 -3 -8 1 -14 8 -14 10 0 15 15 16 45 2 52 8 65 32 65 10 0 27 10 39 23 20
21 22 34 22 135 0 98 -3 120 -26 176 -20 48 -35 69 -59 81 -17 10 -38 29 -46
42 l-14 25 -2018 1 c-1109 1 -2023 0 -2030 -2z m3999 -127 l41 -5 17 -72 c40
-169 40 -164 22 -211 -16 -41 -19 -44 -64 -49 -30 -3 -56 0 -74 9 -18 9 -59
13 -125 13 -54 -1 -116 0 -138 1 -54 4 -3433 -11 -3515 -15 -36 -2 -78 -8 -93
-14 -38 -15 -72 -5 -94 27 -15 22 -18 44 -15 129 2 104 11 145 39 175 14 16
142 17 1905 17 1040 0 1892 2 1894 4 5 5 139 -1 200 -9z"/>
<path d="M8496 6689 c-10 -7 -80 -12 -168 -12 -141 -1 -151 -2 -174 -23 -13
-13 -24 -29 -24 -37 0 -44 213 -90 311 -67 32 8 54 9 62 2 16 -12 80 -22 105
-15 11 3 27 19 35 35 13 27 13 36 1 72 -8 22 -20 44 -27 48 -18 11 -99 9 -121
-3z"/>
<path d="M5964 4430 c-37 -14 -45 -81 -40 -328 2 -123 1 -236 -4 -251 -5 -18
-3 -39 7 -62 8 -21 12 -48 8 -70 -9 -54 20 -145 48 -153 40 -11 47 -7 47 25 0
17 5 40 11 51 12 22 16 709 5 745 -9 28 -57 52 -82 43z"/>
<path d="M6215 3559 c-152 -16 -155 -17 -155 -43 0 -13 8 -30 18 -39 25 -23
103 -40 164 -35 29 2 130 -2 223 -10 283 -24 726 -22 861 4 31 6 37 31 14 54
-18 18 -29 20 -86 14 -37 -4 -95 -2 -132 4 -69 12 -286 28 -567 42 -88 5 -180
11 -205 13 -25 3 -85 1 -135 -4z"/>
<path d="M5415 3550 c-55 -4 -158 -13 -230 -19 -71 -7 -210 -15 -308 -19
l-178 -7 -32 -37 c-18 -21 -44 -40 -59 -44 -29 -6 -47 -39 -30 -56 10 -10 58
14 73 36 4 5 71 8 150 7 192 -2 1014 36 1062 49 46 13 50 45 9 75 -24 18 -44
20 -192 21 -91 1 -210 -2 -265 -6z"/>
<path d="M5956 3418 c-28 -43 -39 -114 -27 -162 6 -25 11 -60 11 -79 0 -50 18
-68 60 -58 32 6 35 10 33 42 -1 18 3 52 8 74 7 29 5 59 -5 108 -21 97 -49 123
-80 75z"/>
<path d="M7311 3325 c-35 -8 -82 -21 -105 -30 -22 -8 -88 -19 -146 -24 -130
-11 -380 -54 -439 -75 -24 -9 -76 -19 -115 -22 -96 -8 -170 -21 -236 -44 -30
-10 -77 -22 -104 -25 -33 -5 -56 -14 -71 -31 -27 -29 -23 -70 8 -78 45 -12
119 -6 159 14 23 11 56 20 72 20 43 0 191 27 246 44 25 8 81 19 125 25 153 21
203 29 221 39 28 14 158 41 239 48 42 5 93 18 131 35 34 15 85 31 113 35 62 8
86 26 71 55 -7 12 -21 19 -38 18 -15 0 -36 2 -47 5 -11 2 -49 -1 -84 -9z"/>
<path d="M4550 3305 c-12 -15 -12 -19 5 -31 10 -8 24 -14 30 -14 7 0 30 -13
52 -29 24 -17 57 -31 84 -34 127 -15 194 -29 242 -51 28 -13 81 -27 117 -30
111 -11 193 -28 225 -48 22 -13 50 -18 103 -18 54 0 90 -6 135 -24 85 -33 109
-36 210 -24 78 9 90 8 115 -8 15 -10 39 -17 55 -16 23 2 27 -2 27 -22 0 -14
-5 -37 -11 -53 -6 -15 -15 -127 -19 -248 -6 -140 -13 -231 -21 -249 -11 -23
-10 -29 2 -37 17 -11 166 -12 173 -1 3 4 1 26 -4 48 -5 21 -14 150 -20 286 -6
136 -13 255 -16 263 -4 8 -15 15 -26 15 -35 0 -80 35 -134 103 -7 8 -40 17
-84 21 -39 3 -97 15 -129 25 -31 11 -81 23 -111 26 -92 11 -201 35 -231 50
-15 8 -47 15 -71 15 -55 0 -169 19 -183 30 -15 12 -155 31 -216 29 -30 -1 -83
6 -119 14 -118 27 -165 30 -180 12z"/>
</g>
</svg>
