<?xml version="1.0" encoding="UTF-8"?>
<svg version="1.1" xmlns="http://www.w3.org/2000/svg" width="1200" height="1200" viewBox="0 0 1200 1200" preserveAspectRatio="xMidYMid meet">
<g transform="translate(0.000000,1200.000000) scale(0.100000,-0.100000)"
fill="#B1801D" stroke="none">
<path d="M5959 8423 c-7 -20 -7 -56 1 -123 15 -128 13 -130 -154 -130 -70 0
-148 -6 -186 -14 -36 -9 -112 -25 -170 -37 -58 -11 -132 -29 -165 -39 -33 -10
-94 -28 -135 -40 -70 -20 -153 -51 -192 -71 -10 -5 -23 -9 -29 -9 -17 0 -293
-133 -402 -193 -100 -56 -247 -149 -332 -211 -66 -48 -262 -223 -275 -245 -8
-14 -24 -32 -34 -40 -23 -17 -41 -36 -76 -82 -14 -18 -43 -54 -65 -80 -22 -26
-53 -67 -70 -90 -16 -23 -42 -53 -56 -68 -36 -37 -44 -67 -25 -96 24 -36 50
-39 109 -12 28 14 74 28 102 32 27 4 65 13 85 20 107 39 504 52 680 22 52 -9
123 -21 156 -27 34 -5 106 -24 159 -40 54 -17 102 -30 107 -30 6 0 23 -9 38
-20 24 -17 34 -19 79 -10 28 5 63 16 78 24 16 7 48 17 73 21 25 4 63 14 85 22
86 30 303 63 536 80 53 4 69 2 83 -12 11 -12 14 -23 9 -34 -13 -27 -15 -2648
-2 -2673 17 -31 -12 -48 -81 -48 -57 0 -121 -21 -224 -75 -27 -14 -56 -25 -64
-25 -8 0 -39 -14 -70 -32 -129 -74 -222 -52 -222 53 0 17 -10 48 -22 67 -28
45 -51 161 -36 180 8 8 36 12 92 10 137 -4 173 27 183 152 5 65 3 73 -26 119
-20 31 -42 52 -59 56 -15 4 -113 7 -218 6 -172 -2 -192 0 -207 16 -17 20 -47
121 -47 161 0 13 -9 44 -20 70 -11 26 -29 81 -39 122 -21 84 -55 191 -81 260
-10 25 -25 70 -34 100 -21 69 -59 124 -114 164 l-44 31 -546 2 c-360 2 -558
-1 -579 -8 -42 -13 -101 -82 -109 -126 -8 -44 12 -143 42 -209 13 -28 24 -57
24 -65 0 -8 9 -31 20 -52 11 -20 20 -45 20 -55 0 -11 11 -40 25 -66 27 -51 32
-98 13 -114 -7 -5 -32 -13 -56 -17 -50 -8 -118 -56 -144 -102 -10 -17 -23 -55
-28 -85 -6 -29 -14 -73 -20 -98 -5 -25 -9 -74 -10 -110 0 -64 1 -67 39 -104
l38 -37 91 2 c51 2 95 0 99 -4 4 -4 -1 -29 -10 -55 -9 -26 -17 -64 -17 -84 0
-49 -27 -66 -73 -46 -46 19 -217 15 -291 -7 -59 -17 -271 -108 -290 -124 -6
-5 -51 -16 -100 -26 -103 -19 -167 -14 -264 21 -79 29 -87 29 -112 4 -26 -26
-25 -32 5 -68 18 -21 38 -32 68 -37 23 -4 61 -13 85 -21 50 -16 138 -18 236
-4 50 8 102 26 192 70 68 33 128 60 134 60 6 0 28 9 50 20 97 50 300 46 382
-6 21 -13 41 -24 46 -24 5 0 17 -9 27 -20 10 -11 23 -20 29 -20 7 0 30 -9 51
-21 56 -29 136 -48 240 -60 123 -13 271 15 400 77 188 90 180 87 315 92 115 4
132 2 202 -22 42 -14 118 -46 169 -72 99 -50 154 -63 303 -71 70 -4 106 0 175
18 47 12 95 28 106 35 11 7 47 23 80 35 33 12 67 28 77 36 32 28 109 43 227
43 l116 0 122 -50 c68 -27 133 -56 145 -64 13 -8 63 -26 112 -41 78 -24 99
-27 170 -22 143 11 234 38 401 117 75 35 192 61 279 62 65 0 101 -5 167 -27
46 -16 89 -32 94 -36 6 -4 33 -16 60 -28 28 -11 88 -36 135 -55 81 -34 89 -36
202 -36 83 0 130 5 155 15 19 8 45 15 57 15 12 0 37 9 56 20 160 91 252 128
335 133 84 6 220 -27 303 -73 32 -18 107 -51 172 -77 59 -24 78 -26 215 -27
120 -1 160 3 200 17 28 10 68 24 90 31 39 13 40 14 40 62 l0 49 -36 3 c-26 2
-49 -5 -85 -28 -109 -67 -338 -61 -433 12 -13 10 -31 18 -40 18 -10 0 -21 4
-27 9 -10 11 -140 66 -188 82 -17 5 -79 11 -139 13 -96 4 -115 2 -149 -15 -57
-29 -82 -23 -86 21 -2 19 -13 45 -24 56 -13 15 -20 38 -21 70 l-2 49 116 -4
c144 -4 166 5 204 84 25 50 26 58 16 102 -6 27 -15 90 -20 141 -8 90 -10 95
-47 134 -49 50 -65 59 -134 72 -49 10 -55 14 -58 38 -2 14 10 52 26 85 16 32
38 87 50 123 11 36 27 85 36 110 8 25 22 65 31 90 10 25 20 73 22 106 6 61 5
62 -37 108 -28 30 -56 50 -82 56 -26 8 -220 10 -576 8 -532 -3 -537 -3 -572
-25 -68 -42 -96 -88 -135 -223 -8 -25 -19 -58 -24 -75 -22 -59 -88 -271 -105
-335 -10 -36 -24 -79 -31 -96 -8 -18 -17 -49 -20 -70 -13 -77 -25 -104 -48
-105 -12 -1 -78 -1 -147 1 -181 3 -277 -7 -302 -34 -37 -40 -52 -80 -53 -142
0 -71 13 -100 60 -133 31 -21 43 -23 110 -19 103 7 111 -1 84 -72 -11 -30 -38
-102 -58 -159 -45 -125 -59 -138 -121 -116 -23 8 -49 15 -57 15 -8 0 -38 11
-66 24 -240 110 -283 125 -357 126 -54 1 -65 11 -51 51 12 35 17 2495 5 2626
-6 65 -5 72 14 82 22 12 135 5 382 -24 147 -16 402 -76 424 -98 9 -9 37 -19
62 -23 39 -6 56 -2 122 30 42 19 93 39 112 42 19 4 44 11 54 17 11 5 49 13 85
18 36 4 104 15 151 25 156 31 462 17 680 -29 107 -23 177 -45 203 -62 23 -15
28 -15 55 -1 40 21 58 71 37 103 -9 12 -20 23 -25 23 -5 0 -12 9 -15 20 -4 11
-37 58 -74 103 -37 46 -72 91 -77 100 -26 47 -290 294 -384 360 -14 9 -41 28
-60 42 -19 13 -53 38 -75 54 -22 17 -51 36 -65 43 -14 7 -43 26 -65 44 -22 17
-56 37 -75 44 -19 7 -42 19 -50 25 -8 7 -28 19 -45 27 -16 8 -43 22 -60 31
-58 32 -201 95 -240 107 -22 7 -44 16 -50 20 -14 11 -168 70 -182 70 -6 0 -24
7 -40 15 -24 12 -151 46 -278 75 -22 4 -76 11 -120 15 -44 4 -100 11 -125 16
-25 6 -72 9 -105 8 -74 -2 -130 8 -146 27 -8 10 -10 40 -5 99 4 46 4 100 0
120 -6 34 -7 35 -55 35 -45 0 -51 -3 -60 -27z m132 -349 c24 -20 48 -42 54
-49 5 -7 55 -54 109 -105 230 -211 344 -367 506 -690 85 -169 155 -328 147
-336 -5 -5 -59 10 -157 44 -208 74 -350 92 -716 91 -425 -1 -654 -32 -802
-109 -86 -45 -105 0 -49 114 19 39 49 105 67 146 45 105 145 286 191 344 22
27 39 53 39 58 0 37 333 400 440 479 76 57 115 60 171 13z m-317 10 c9 -3 16
-12 16 -19 0 -13 -64 -75 -78 -75 -6 0 -91 -84 -227 -224 -27 -29 -63 -74 -80
-102 -16 -27 -37 -60 -45 -74 -8 -14 -29 -45 -46 -70 -17 -25 -53 -90 -79
-145 -26 -55 -62 -131 -80 -170 -54 -113 -74 -166 -86 -232 -11 -62 -12 -63
-44 -63 -18 0 -62 13 -97 30 -34 16 -69 30 -77 30 -7 0 -59 11 -115 24 -161
38 -350 51 -556 37 -176 -11 -248 -24 -307 -54 -41 -21 -82 -22 -90 -1 -9 24
23 81 54 98 28 14 69 55 88 87 6 9 60 61 120 114 61 54 112 102 113 106 2 5 8
9 14 9 5 0 37 25 71 55 59 52 174 131 282 193 28 16 84 48 125 72 112 65 281
148 315 155 17 4 46 13 65 20 163 64 265 99 324 111 37 7 73 18 80 23 6 5 46
14 89 20 43 6 87 15 97 21 41 22 125 35 154 24z m599 -14 c31 -11 67 -20 79
-20 13 0 48 -7 78 -16 30 -9 118 -33 195 -54 176 -48 267 -80 369 -129 45 -21
91 -42 103 -45 11 -4 27 -13 33 -21 7 -8 21 -15 30 -15 10 0 32 -11 48 -25 17
-14 36 -25 43 -25 8 -1 39 -16 69 -35 82 -50 159 -96 210 -123 25 -13 59 -37
75 -53 17 -16 35 -29 39 -29 4 0 41 -29 81 -65 40 -36 76 -65 81 -65 4 0 38
-29 74 -64 36 -35 116 -113 178 -174 87 -85 112 -116 112 -136 0 -39 -23 -42
-88 -13 -193 87 -547 98 -890 28 -105 -22 -158 -38 -205 -63 -34 -19 -72 -32
-84 -30 -22 3 -50 54 -45 83 1 8 -6 35 -17 60 -12 24 -21 53 -21 63 0 18 -8
37 -63 156 -27 60 -144 272 -183 335 -38 59 -96 134 -141 180 -18 19 -33 38
-33 44 0 5 -26 31 -57 56 -32 26 -68 59 -80 75 -12 15 -36 33 -53 40 -16 7
-30 16 -30 20 0 5 -16 18 -36 31 -34 21 -35 23 -18 36 26 19 81 16 147 -7z
m-1741 -2582 c15 -10 33 -37 43 -65 10 -26 27 -75 40 -108 25 -68 62 -175 75
-220 31 -103 93 -278 123 -348 16 -36 18 -50 9 -59 -8 -8 -136 -11 -479 -9
-289 1 -502 -2 -558 -9 -49 -6 -98 -12 -109 -13 -20 -2 -30 21 -81 188 -13 44
-36 112 -50 150 -15 39 -31 90 -36 114 -14 69 -56 194 -79 239 -12 23 -24 59
-27 80 -5 34 -1 42 23 61 l28 22 526 -3 c476 -3 528 -5 552 -20z m3880 10 c40
-33 38 -85 -10 -198 -32 -74 -61 -153 -68 -185 -3 -16 -17 -52 -30 -79 -13
-28 -24 -56 -24 -63 0 -6 -18 -67 -39 -135 -22 -68 -42 -136 -46 -152 -6 -28
-7 -28 -53 -21 -26 4 -288 9 -582 11 -532 3 -535 3 -544 24 -7 16 -4 28 14 52
22 29 66 141 95 238 7 25 18 59 24 75 6 17 36 109 66 206 30 96 61 184 69 194
30 41 58 43 597 44 398 1 519 -2 531 -11z m49 -717 c33 -25 56 -105 65 -222 6
-82 6 -87 -17 -108 -20 -19 -31 -21 -64 -16 -74 13 -158 6 -187 -15 -66 -48
-83 -6 -34 82 47 84 52 94 65 156 25 119 36 153 53 172 18 19 19 19 56 -5 20
-13 49 -33 63 -44z m-4953 42 c5 -10 12 -42 15 -72 4 -30 11 -59 17 -65 5 -5
10 -18 10 -28 0 -24 57 -133 86 -165 38 -41 28 -58 -31 -56 -28 1 -100 2 -161
2 -133 0 -150 9 -140 75 4 23 9 82 12 131 4 50 12 100 20 112 18 28 111 83
141 83 12 0 26 -8 31 -17z m1774 -232 c21 -2 48 -48 48 -83 0 -76 55 -71 -807
-69 l-768 2 -26 25 c-28 27 -48 102 -30 113 5 3 263 8 573 9 309 2 564 5 565
6 2 1 423 -2 445 -3z m2310 -5 c313 -3 572 -7 577 -10 19 -12 -6 -61 -50 -97
l-44 -38 -766 -2 c-558 -1 -772 2 -788 10 -28 15 -29 79 -2 112 19 24 22 24
248 29 125 3 235 4 243 3 8 -1 270 -4 582 -7z m602 -237 c21 -31 79 -216 73
-234 -9 -21 -130 -79 -218 -104 -47 -13 -104 -21 -153 -21 -83 0 -114 9 -306
95 -52 23 -133 55 -179 70 -77 26 -91 27 -195 22 -96 -5 -124 -10 -206 -42
-52 -21 -115 -45 -140 -54 -25 -9 -74 -31 -109 -49 -127 -63 -141 -35 -61 123
28 55 50 113 50 129 0 16 7 38 17 48 15 17 49 18 667 18 403 0 657 4 666 10
27 18 78 12 94 -11z m-3819 1 c376 0 666 -4 674 -9 9 -6 18 -36 22 -79 5 -47
18 -90 39 -132 20 -40 30 -73 28 -93 -3 -29 -6 -32 -35 -31 -17 1 -55 18 -85
37 -29 19 -64 38 -78 42 -14 4 -47 19 -74 32 -119 60 -301 77 -446 41 -47 -11
-101 -29 -120 -38 -19 -10 -64 -29 -100 -43 -254 -100 -378 -99 -600 1 -105
48 -105 48 -104 82 1 19 7 53 13 75 6 22 13 52 16 67 9 46 24 53 111 51 43 -1
376 -2 739 -3z"/>
<path d="M3234 3659 c-59 -10 -312 -93 -327 -108 -6 -6 6 -14 34 -21 60 -17
221 -5 287 20 71 27 165 26 234 -1 44 -18 76 -22 180 -23 164 -1 196 22 72 53
-22 5 -70 22 -109 36 -128 49 -255 64 -371 44z"/>
<path d="M4535 3649 c-38 -11 -99 -31 -135 -44 -36 -13 -86 -29 -113 -36 -26
-6 -50 -15 -53 -20 -2 -4 15 -13 38 -20 64 -17 252 -4 301 22 53 27 187 27
249 -1 31 -14 77 -21 154 -25 116 -7 167 2 172 27 2 12 -9 18 -50 23 -29 4
-64 13 -78 20 -14 8 -68 25 -120 40 -131 37 -269 42 -365 14z"/>
<path d="M5940 3662 c-35 -4 -87 -16 -190 -48 -30 -9 -84 -24 -120 -34 -35 -9
-66 -22 -68 -28 -12 -38 231 -40 327 -3 72 29 176 28 239 -1 39 -18 67 -21
167 -22 127 -1 167 6 147 26 -11 11 -50 24 -237 79 -72 21 -203 37 -265 31z"/>
<path d="M7245 3659 c-27 -5 -97 -25 -155 -43 -58 -19 -126 -39 -152 -46 -98
-26 -43 -45 122 -44 97 0 121 4 157 22 59 31 190 31 265 1 41 -16 78 -21 163
-22 121 -2 154 5 136 27 -7 8 -27 17 -45 20 -19 4 -47 13 -62 21 -53 26 -227
66 -303 70 -42 2 -98 0 -126 -6z"/>
<path d="M8540 3646 c-84 -17 -172 -41 -196 -55 -11 -5 -35 -13 -55 -16 -21
-3 -42 -12 -49 -20 -10 -12 -7 -17 16 -26 40 -16 242 -4 291 16 69 29 154 31
230 5 56 -20 89 -24 185 -24 83 -1 121 3 130 12 15 15 0 28 -42 38 -14 3 -74
22 -135 42 -93 31 -126 37 -210 39 -55 1 -129 -4 -165 -11z"/>
<path d="M9524 3559 c-3 -6 -2 -15 4 -21 15 -15 56 -5 60 15 3 13 -3 17 -27
17 -16 0 -33 -5 -37 -11z"/>
</g>
</svg>
