<?xml version="1.0" encoding="UTF-8"?>
<svg version="1.1" xmlns="http://www.w3.org/2000/svg" width="1200" height="1200" viewBox="0 0 1200 1200" preserveAspectRatio="xMidYMid meet">
<g transform="translate(0.000000,1200.000000) scale(0.100000,-0.100000)"
fill="#B1801D" stroke="none">
<path d="M2406 8320 c-60 -19 -64 -76 -8 -130 20 -20 80 -83 132 -140 52 -56
103 -111 113 -121 13 -15 32 -19 91 -19 88 0 97 -8 87 -70 -5 -25 -7 -67 -6
-95 1 -27 3 -936 4 -2020 l2 -1970 -28 -6 c-15 -3 -66 -2 -113 2 -46 4 -92 3
-101 -1 -24 -13 -28 -42 -13 -80 l14 -32 142 6 c79 4 512 5 963 4 451 -1 888
-3 970 -3 258 0 755 8 867 14 59 3 124 3 145 -1 21 -4 639 -6 1373 -6 734 1
1538 0 1785 -1 334 -1 456 2 473 11 18 10 28 9 44 -1 11 -7 45 -15 76 -18 49
-6 56 -4 73 18 42 54 15 95 -54 85 -75 -11 -76 0 -17 181 29 87 60 181 70 208
10 28 32 95 49 150 17 55 42 120 56 144 30 52 30 56 5 81 -17 17 -29 20 -68
15 -26 -3 -112 -7 -192 -9 -80 -3 -154 -7 -166 -11 -13 -4 -27 -1 -38 10 -15
15 -15 19 1 47 23 38 39 46 146 74 49 13 104 33 122 44 50 31 99 90 129 156
16 32 37 78 48 101 32 69 6 102 -67 89 -45 -9 -54 18 -26 73 39 76 51 187 39
381 -14 242 -14 242 -169 100 -179 -164 -234 -234 -274 -347 -37 -102 -63
-160 -75 -168 -23 -14 -31 48 -18 144 10 75 13 385 13 1391 0 852 3 1298 10
1303 6 4 31 5 56 2 60 -8 120 16 156 63 34 45 110 133 162 187 21 22 47 56 59
75 18 30 19 39 9 60 -7 13 -23 27 -37 30 -14 4 -306 6 -650 4 -1091 -4 -2048
-5 -4000 -1 -1152 2 -1294 2 -1820 -1 -234 -1 -445 0 -470 3 -25 2 -58 0 -74
-5z m772 -82 c18 -24 112 -211 112 -224 0 -23 -32 -31 -115 -28 -44 2 -165 3
-270 4 l-190 2 -66 66 c-36 37 -88 85 -114 107 -83 69 -78 71 233 69 149 -2
276 -5 282 -9 5 -3 10 -21 10 -38 0 -39 76 -160 103 -165 23 -4 23 41 1 83
-27 48 -54 104 -54 109 0 10 32 36 44 36 8 0 18 -6 24 -12z m517 -2 l249 -1
13 -43 c6 -24 30 -70 53 -104 67 -100 91 -93 -308 -93 l-347 0 -13 54 c-8 30
-29 74 -48 99 -20 27 -34 56 -34 73 l0 28 93 -5 c50 -4 204 -7 342 -8z m369
-1 c8 -8 17 -25 21 -38 8 -30 34 -95 53 -133 12 -25 12 -35 2 -53 l-12 -23
-29 31 c-16 18 -29 40 -29 50 0 10 -9 29 -19 43 -27 34 -54 105 -47 123 7 19
40 19 60 0z m413 0 c217 -2 297 -6 308 -15 8 -7 15 -28 15 -46 0 -32 47 -120
85 -157 14 -15 14 -17 -5 -27 -15 -8 -37 -8 -83 0 -39 8 -155 11 -312 9 -137
-2 -256 0 -262 4 -7 5 -20 32 -29 62 -8 30 -20 57 -25 60 -7 5 -49 82 -49 91
0 13 36 34 49 28 9 -4 148 -8 308 -9z m527 6 c4 -5 186 -9 423 -9 475 0 457 3
414 -76 -24 -44 -24 -44 -7 -90 10 -25 16 -51 14 -57 -2 -7 -134 -11 -403 -12
l-400 -1 -2 37 c-1 45 -51 145 -75 153 -19 6 -33 38 -23 54 8 12 52 13 59 1z
m1814 -19 c2 -12 -10 -46 -26 -75 -17 -28 -34 -69 -37 -90 -13 -70 -11 -69
-259 -62 -121 3 -279 2 -349 -2 -172 -11 -200 2 -137 62 39 37 39 73 1 109
-25 24 -29 25 -35 10 -3 -9 -4 -32 0 -50 9 -51 -2 -81 -31 -87 -38 -7 -55 16
-55 73 0 43 5 55 36 88 l36 40 356 -5 c207 -2 380 0 412 5 73 13 84 11 88 -16z
m130 -8 c2 -16 -3 -42 -12 -59 -8 -16 -24 -51 -35 -78 -11 -26 -32 -59 -47
-73 -22 -23 -28 -25 -40 -12 -12 12 -12 21 5 69 47 135 84 195 116 185 6 -1
12 -16 13 -32z m863 14 c10 -18 4 -35 -36 -114 -26 -51 -54 -99 -63 -106 -12
-10 -92 -13 -356 -13 -188 0 -357 -4 -376 -8 -25 -6 -40 -5 -52 5 -15 12 -13
18 23 71 30 45 39 68 39 101 0 25 6 48 14 55 17 14 674 23 682 9 10 -16 -8
-68 -33 -98 -30 -36 -30 -95 0 -95 18 0 25 14 95 178 18 42 45 49 63 15z m785
7 c17 -11 27 -12 52 -3 24 9 34 9 47 -2 20 -16 12 -87 -16 -140 -11 -19 -19
-40 -19 -46 0 -18 -44 -53 -70 -56 -37 -4 -37 30 0 101 31 60 38 116 13 116
-17 0 -78 -96 -99 -156 -10 -27 -23 -49 -28 -50 -6 0 -126 0 -266 1 -140 0
-289 -4 -329 -9 -46 -6 -82 -6 -92 0 -16 8 -16 13 7 59 13 27 28 50 33 50 11
0 40 69 43 105 l3 30 320 -2 c176 0 327 3 335 8 22 13 43 11 66 -6z m732 -18
c2 -11 -32 -53 -100 -120 l-103 -102 -160 -2 c-88 -1 -180 -5 -205 -9 -72 -10
-79 10 -29 77 39 52 40 56 34 108 -4 32 -3 56 3 60 6 3 133 6 283 6 253 0 274
-1 277 -18z m-4396 -3 c5 -3 8 -17 8 -32 0 -15 9 -46 21 -67 11 -22 26 -57 33
-78 13 -35 12 -38 -6 -48 -26 -14 -53 10 -69 60 -6 20 -18 43 -26 53 -13 15
-43 99 -43 121 0 9 65 1 82 -9z m1053 -305 c1573 0 2868 3 2877 6 9 4 24 3 33
-2 15 -9 17 -175 19 -2082 2 -1139 -1 -2074 -5 -2077 -12 -7 -268 -11 -280 -4
-6 4 -9 688 -9 1937 0 1062 -2 1937 -5 1944 -4 12 -431 14 -2692 11 -1986 -1
-2690 -5 -2700 -13 -11 -10 -13 -320 -13 -1942 1 -1061 -1 -1931 -3 -1934 -7
-7 -272 -7 -283 0 -15 9 -15 4138 -1 4156 9 11 32 12 107 7 52 -3 1382 -6
2955 -7z m2537 -361 c4 -2 9 -857 10 -1901 l3 -1897 -255 0 c-275 0 -280 1
-280 51 0 15 -5 40 -11 56 -6 15 -17 53 -24 83 -24 109 -78 306 -100 370 -48
142 -53 159 -48 178 3 12 22 27 49 37 66 25 91 61 99 142 4 38 13 93 20 123
24 95 55 239 91 425 50 256 50 254 68 320 24 90 21 172 -8 216 -31 45 -92 74
-139 65 -48 -9 -114 -81 -122 -133 -3 -21 -13 -72 -22 -113 -8 -41 -19 -97
-24 -125 -4 -27 -18 -81 -29 -120 -11 -38 -27 -110 -35 -159 -9 -49 -18 -93
-22 -99 -11 -18 -32 -131 -33 -174 0 -78 13 -75 -389 -72 -401 3 -403 3 -440
-69 -30 -59 -34 -101 -16 -157 20 -60 37 -75 87 -75 37 0 38 -1 38 -38 0 -22
-9 -64 -19 -96 -11 -31 -25 -87 -30 -124 -6 -37 -22 -119 -36 -182 -15 -63
-35 -162 -45 -219 -11 -57 -21 -105 -23 -107 -3 -3 -509 -7 -579 -5 -10 1 -25
18 -36 44 -32 70 -81 97 -177 97 -37 0 -57 5 -66 17 -11 13 -14 113 -16 547
-1 292 -4 554 -8 583 -5 44 -4 53 13 62 12 6 187 10 488 9 579 -1 557 -6 566
132 8 103 1 121 -52 147 l-45 22 -1020 0 c-977 1 -1022 0 -1061 -18 -39 -18
-42 -22 -49 -70 -8 -58 2 -149 18 -169 6 -7 24 -21 41 -30 27 -14 89 -16 516
-16 l485 -1 1 -180 c8 -913 6 -1018 -10 -1031 -9 -6 -47 -15 -84 -19 -92 -10
-135 -35 -166 -98 l-12 -22 -299 0 -300 0 -17 100 c-9 55 -22 129 -28 165 -6
36 -17 106 -24 155 -8 50 -21 116 -31 149 -9 32 -18 88 -19 125 l-1 66 42 3
c36 3 48 9 70 39 25 33 28 44 26 111 -1 67 -4 77 -30 104 -15 16 -37 34 -47
40 -13 7 -152 10 -395 10 -207 -1 -384 1 -393 4 -13 4 -18 16 -18 38 0 19 -19
125 -41 237 -23 112 -47 240 -54 284 -26 162 -64 326 -82 357 -28 47 -78 78
-127 78 -51 -1 -76 -14 -116 -65 -37 -46 -37 -34 11 -290 16 -88 39 -209 50
-270 34 -189 89 -477 105 -545 17 -75 48 -113 108 -133 50 -16 56 -37 28 -92
-20 -39 -80 -223 -122 -375 -11 -41 -32 -109 -45 -151 -14 -42 -25 -85 -25
-96 0 -10 -6 -27 -12 -36 -12 -15 -41 -17 -252 -17 -131 -1 -240 1 -242 3 -3
3 -6 3186 -4 3780 0 4 9 11 19 15 18 6 5184 6 5203 0z m-4659 -1838 c20 -16
26 -32 32 -82 3 -35 13 -88 20 -118 22 -85 46 -204 66 -325 10 -60 23 -135 28
-165 6 -30 16 -82 22 -115 18 -98 39 -165 52 -166 7 -1 186 0 398 1 414 2 421
1 440 -48 15 -39 3 -68 -37 -96 -30 -20 -41 -23 -70 -14 -33 9 -548 15 -709 8
-121 -5 -140 7 -156 95 -17 91 -48 244 -62 305 -26 106 -46 211 -52 270 -3 30
-12 82 -20 115 -7 33 -24 118 -36 189 l-23 129 23 18 c30 24 52 24 84 -1z
m4203 -5 c16 -24 16 -32 -4 -133 -12 -59 -31 -147 -42 -197 -35 -153 -80 -376
-96 -465 -8 -47 -21 -114 -29 -150 -7 -36 -16 -81 -20 -101 -4 -29 -12 -38
-48 -55 -38 -19 -54 -20 -177 -13 -150 8 -462 4 -586 -6 l-80 -8 -27 32 c-30
36 -32 49 -16 85 23 49 48 51 425 46 273 -4 354 -2 371 8 29 16 49 65 58 139
4 32 14 76 21 99 7 22 18 69 23 105 5 35 26 141 46 234 21 94 45 215 55 269
14 78 22 104 40 118 32 26 66 23 86 -7z m1389 -293 c-7 -155 -28 -303 -50
-355 -17 -40 -131 -186 -152 -194 -8 -3 -19 -1 -25 5 -8 8 4 44 41 128 28 64
51 124 51 134 0 23 -26 44 -45 36 -33 -12 -97 -217 -89 -286 7 -60 -12 -95
-51 -95 -27 0 -30 3 -47 70 -9 39 -18 93 -18 122 0 62 43 180 98 270 61 99
264 319 283 307 7 -4 8 -54 4 -142z m-2534 -108 c24 -22 25 -76 1 -97 -19 -17
-211 -19 -1482 -18 -523 1 -525 1 -542 22 -30 36 -19 99 20 110 6 2 456 3 998
2 914 -2 988 -3 1005 -19z m2571 -359 c-4 -38 -62 -142 -99 -177 -42 -40 -158
-91 -188 -84 -37 9 -31 40 18 88 162 163 217 209 244 206 25 -3 28 -7 25 -33z
m-427 -143 c4 -21 15 -50 25 -67 31 -51 33 -95 8 -139 -13 -22 -35 -48 -51
-60 -44 -32 -52 -14 -54 132 -2 70 -3 137 -4 150 -1 12 2 34 5 48 l7 27 29
-28 c16 -15 31 -43 35 -63z m-4300 -296 c15 -10 19 -28 21 -82 1 -38 11 -107
23 -153 23 -92 27 -146 10 -156 -7 -5 -5 -12 5 -23 14 -17 77 -262 80 -312 l1
-25 -500 -5 c-275 -3 -506 -3 -512 -1 -20 5 -15 37 16 109 16 37 37 99 46 138
9 39 20 76 24 82 5 9 34 9 111 2 157 -15 211 3 161 53 -20 20 -32 22 -134 22
-109 0 -112 1 -115 23 -2 12 6 37 17 55 24 39 47 107 56 167 4 25 13 60 21 77
l13 33 303 3 c167 1 310 3 319 5 8 1 24 -4 34 -12z m2634 4 c143 0 265 2 273
5 8 3 25 2 39 -3 21 -8 26 -20 36 -85 7 -41 28 -114 47 -162 20 -48 33 -91 31
-96 -3 -4 -183 -7 -401 -6 -369 2 -396 3 -405 20 -8 13 -3 45 15 118 14 55 26
118 26 141 0 51 24 82 57 73 13 -3 140 -5 282 -5z m1901 -74 c213 -1 207 2
167 -93 -28 -64 -53 -136 -69 -198 -5 -22 -16 -53 -23 -70 -7 -16 -30 -88 -51
-160 -20 -71 -41 -138 -46 -147 -8 -16 -25 -18 -133 -18 -80 0 -126 4 -131 11
-8 14 -7 666 2 680 3 6 24 7 52 3 26 -4 130 -8 232 -8z m-1460 -346 c4 -8 20
-64 35 -125 15 -60 33 -122 41 -137 15 -29 19 -78 7 -78 -5 0 -228 -1 -496 -1
-331 -1 -492 2 -499 9 -7 7 -3 43 15 119 14 59 29 129 32 156 3 26 12 47 18
47 7 1 179 1 382 1 298 -1 376 2 400 14 36 16 55 15 65 -5z m-1860 -255 c25
-8 67 -17 93 -20 52 -7 90 -35 81 -59 -7 -18 -156 -29 -328 -24 -100 2 -121 6
-130 20 -17 27 12 48 75 55 30 3 70 14 89 24 43 22 63 23 120 4z"/>
</g>
</svg>
