<?xml version="1.0" encoding="UTF-8"?>
<svg version="1.1" xmlns="http://www.w3.org/2000/svg" width="1200" height="1200" viewBox="0 0 1200 1200" preserveAspectRatio="xMidYMid meet">
<g transform="translate(0.000000,1200.000000) scale(0.100000,-0.100000)"
fill="#B1801D" stroke="none">
<path d="M3819 9043 c-334 -3 -419 -6 -428 -17 -6 -7 -38 -109 -72 -227 -33
-118 -101 -356 -151 -529 -50 -173 -95 -332 -100 -353 -14 -49 2 -87 34 -87
13 0 174 -2 358 -3 l335 -2 0 -500 0 -500 -195 -2 c-107 -1 -202 -3 -210 -3
-38 -1 -45 -17 -50 -122 l-5 -103 -280 -5 c-317 -6 -322 -7 -380 -89 l-30 -43
-3 -225 c-5 -286 -16 -267 158 -261 69 3 131 3 138 1 10 -4 12 -309 12 -1501
0 -1399 1 -1498 17 -1510 12 -8 70 -12 205 -12 168 0 190 2 206 18 18 18 18
81 16 1510 l-1 1492 698 2 c385 1 709 2 722 2 l22 1 -4 -145 c-2 -80 -7 -257
-10 -393 l-6 -249 -85 -2 c-75 -2 -93 -6 -140 -32 -45 -25 -60 -40 -83 -86
-28 -55 -29 -59 -32 -262 -1 -113 2 -225 7 -248 13 -60 55 -117 113 -153 l48
-30 496 0 496 0 0 -85 c1 -47 4 -95 8 -106 13 -36 57 -47 180 -43 l112 4 0
-235 0 -234 -90 -23 c-104 -26 -126 -33 -370 -107 -281 -86 -473 -153 -521
-181 -25 -14 -57 -45 -72 -67 -26 -39 -27 -49 -30 -180 -3 -99 0 -143 8 -153
15 -18 74 -20 88 -2 6 6 12 69 14 139 3 121 4 129 28 152 23 22 239 101 425
156 53 15 113 36 180 60 11 4 40 13 65 20 77 22 164 50 183 61 22 12 47 -4 47
-31 0 -13 -31 -34 -112 -74 -139 -68 -492 -256 -548 -291 -46 -29 -70 -74 -70
-130 0 -54 15 -75 53 -75 47 0 60 13 66 65 6 47 7 48 76 84 81 43 276 149 484
262 138 76 176 90 197 70 10 -10 190 -112 326 -184 46 -24 133 -72 195 -106
62 -33 116 -61 121 -61 19 0 41 -37 40 -67 -1 -42 17 -63 56 -63 44 0 56 16
56 71 0 59 -15 101 -42 118 -95 59 -601 327 -662 351 -29 10 -35 40 -12 59 10
9 21 9 42 0 54 -22 69 -27 114 -39 25 -7 68 -20 95 -30 28 -10 138 -46 245
-80 375 -120 391 -126 409 -167 6 -13 11 -74 11 -134 0 -129 7 -149 54 -149
59 0 67 20 60 156 -12 244 -12 244 -509 402 -121 39 -281 87 -355 107 -74 20
-155 43 -180 50 l-45 12 0 234 0 234 133 0 c130 0 133 1 153 25 17 21 19 38
17 115 l-3 90 495 0 c492 0 495 0 536 22 53 28 107 91 122 142 8 24 12 119 12
253 0 209 -1 215 -25 265 -46 91 -134 137 -255 131 l-65 -3 -6 370 c-3 204 -8
375 -11 381 -21 33 2 34 725 36 473 2 717 0 717 -7 0 -5 0 -681 0 -1502 0
-1467 0 -1492 19 -1503 12 -6 98 -10 210 -10 189 0 191 0 206 24 14 21 15 183
13 1510 -2 985 0 1486 7 1487 6 0 71 1 145 2 133 2 135 2 145 27 7 16 9 101 5
245 l-5 220 -30 42 c-43 61 -108 87 -198 80 -59 -4 -68 -2 -65 12 2 9 15 17
29 19 48 6 53 42 20 130 -33 84 -203 543 -256 687 -51 139 -132 367 -140 393
-3 12 -17 29 -30 38 -22 15 -31 13 -142 -32 -65 -26 -123 -51 -130 -56 -29
-22 -35 3 -28 112 11 163 44 150 -388 150 -308 0 -355 -2 -376 -16 l-23 -16 3
-707 2 -706 -224 0 -224 0 -5 145 c-7 177 -24 228 -106 318 -65 73 -149 118
-244 133 -41 6 -354 9 -840 7 l-775 -3 -56 -22 c-30 -13 -84 -47 -120 -76 -52
-44 -72 -69 -103 -133 -39 -78 -40 -80 -45 -224 l-6 -145 -242 -3 c-191 -2
-243 0 -244 10 0 7 0 54 1 104 1 71 -2 93 -14 103 -12 10 -63 13 -203 11 -104
-1 -198 -3 -211 -3 l-23 -2 -2 508 -2 508 345 -1 c190 -1 353 2 363 5 9 4 20
17 23 29 3 12 -21 111 -54 227 -33 112 -81 281 -107 374 -26 94 -55 197 -65
230 -9 33 -28 98 -40 145 -51 191 -54 198 -106 203 -16 2 -216 1 -445 0z m403
-115 c8 -7 18 -29 22 -48 3 -19 22 -89 41 -155 19 -66 71 -248 116 -405 44
-157 87 -305 95 -329 8 -24 13 -45 11 -48 -6 -6 -1308 -5 -1314 1 -3 3 8 47
25 98 17 51 54 176 82 278 28 102 60 212 70 245 10 33 32 114 50 180 17 66 36
135 41 152 l10 33 362 3 c199 1 365 3 368 5 3 1 12 -4 21 -10z m3708 -1663 c0
-363 0 -664 0 -668 0 -4 -52 -6 -116 -5 l-116 3 2 140 c0 77 1 374 2 660 0
286 3 524 5 528 3 4 54 6 114 5 l110 -3 -1 -660z m338 -2 l-3 -668 -113 0
-113 0 0 663 c1 364 1 664 1 667 0 3 52 5 115 5 l115 0 -2 -667z m380 396 c32
-102 224 -619 309 -837 25 -62 43 -119 40 -126 -3 -8 -21 -17 -39 -21 -18 -4
-51 -16 -72 -26 -58 -28 -84 -25 -91 9 -6 26 -57 175 -75 217 -5 11 -41 108
-80 215 -90 244 -164 438 -197 513 -13 32 -23 64 -20 70 3 7 27 20 53 29 27 9
67 23 89 32 50 18 55 13 83 -75z m-233 -256 c15 -43 34 -96 42 -118 8 -22 23
-65 33 -95 10 -30 32 -93 50 -140 17 -47 42 -114 55 -150 53 -147 97 -256 111
-277 12 -19 12 -24 1 -28 -7 -3 -84 -4 -170 -3 l-158 3 -5 443 c-2 259 0 442
5 442 5 0 21 -35 36 -77z m-1568 -345 c85 -31 165 -134 177 -228 5 -39 33
-1311 39 -1791 l2 -165 -28 -37 c-51 -68 -20 -66 -1062 -63 -661 2 -937 6
-955 14 -34 15 -53 32 -74 64 -21 32 -22 103 -6 823 29 1289 24 1165 49 1219
32 73 62 107 127 146 l58 35 771 5 c423 3 788 4 810 2 22 -3 63 -13 92 -24z
m-2592 -403 l0 -60 -407 -3 -408 -2 0 59 c0 33 4 61 10 63 5 2 189 3 407 3
l398 0 0 -60z m581 -173 c7 -5 9 -67 5 -202 l-6 -195 -1040 0 -1040 0 -2 160
c-1 161 6 200 39 222 7 4 465 10 1018 13 553 3 1007 6 1010 7 3 2 10 -1 16 -5z
m3355 -2 l1000 0 24 -25 c25 -24 25 -27 25 -200 l0 -175 -1030 -1 c-566 -1
-1036 -2 -1042 -3 -14 -1 -14 3 -19 255 -2 140 2 164 28 155 8 -3 464 -6 1014
-6z m-4911 -1950 c0 -795 0 -1451 0 -1458 0 -10 -26 -12 -110 -10 l-111 3 -2
1452 c-1 799 2 1454 6 1455 5 2 55 3 113 3 l105 0 -1 -1445z m5655 -11 l0
-1454 -112 -3 -113 -3 0 1455 c0 984 3 1455 10 1458 6 2 57 3 113 2 l102 0 0
-1455z m-4117 458 c-1 -83 3 -111 19 -148 28 -62 74 -113 131 -140 l47 -24
959 -3 c1098 -3 1030 -8 1121 81 67 66 88 128 83 250 l-3 82 70 3 c81 3 110
-9 143 -58 23 -34 23 -38 20 -248 l-3 -214 -37 -34 -38 -34 -1341 2 -1341 3
-29 33 -29 32 0 221 c0 137 4 228 11 240 21 40 69 59 146 59 l73 0 -2 -103z
m1424 -602 c10 -4 12 -20 8 -63 l-5 -57 -244 -3 c-189 -2 -246 1 -253 10 -9
16 -11 102 -1 111 7 8 475 10 495 2z m-222 -764 c5 -11 10 -31 10 -45 0 -22
-5 -26 -29 -26 -48 0 -74 55 -36 77 29 17 43 16 55 -6z m-91 -72 c11 -19 11
-21 -4 -15 -9 3 -19 6 -21 6 -2 0 -4 7 -4 15 0 21 13 19 29 -6z"/>
</g>
</svg>
