<?xml version="1.0" encoding="UTF-8"?>
<svg version="1.1" xmlns="http://www.w3.org/2000/svg" width="1200" height="1200" viewBox="0 0 1200 1200" preserveAspectRatio="xMidYMid meet">
<g transform="translate(0.000000,1200.000000) scale(0.100000,-0.100000)"
fill="#B1801D" stroke="none">
<path d="M5875 9130 c-506 -42 -1000 -269 -1376 -632 -533 -514 -782 -1315
-639 -2055 82 -426 308 -860 582 -1118 43 -41 77 -77 76 -81 -2 -4 -329 -7
-728 -8 l-725 -1 -55 -26 c-72 -34 -141 -109 -169 -184 -22 -57 -22 -65 -19
-544 l3 -486 30 -59 c57 -112 143 -166 285 -175 l95 -6 -4 -88 c-5 -137 -36
-127 385 -127 316 0 354 2 369 17 14 14 16 33 14 107 l-4 91 2010 0 2010 0 0
-93 c0 -81 3 -95 19 -108 29 -21 703 -21 732 0 17 13 19 26 17 110 l-2 96 67
0 c131 0 235 54 299 156 52 82 55 115 51 619 l-3 460 -32 61 c-36 69 -80 111
-156 152 l-52 27 -685 2 c-377 1 -689 2 -694 2 -5 1 33 43 84 94 323 322 544
784 604 1265 31 242 18 535 -34 777 -53 245 -180 551 -313 753 -277 422 -690
744 -1152 897 -297 98 -575 131 -890 105z m461 -110 c649 -78 1267 -508 1583
-1100 185 -349 270 -715 257 -1110 -8 -269 -50 -474 -145 -713 -116 -293 -281
-539 -505 -754 l-106 -103 -1374 0 -1373 0 -81 76 c-462 430 -707 1056 -662
1694 40 579 288 1098 705 1472 364 328 767 497 1310 552 57 6 296 -3 391 -14z
m2595 -3890 c46 -13 121 -78 145 -127 17 -35 19 -74 22 -486 3 -388 1 -454
-12 -495 -21 -63 -98 -140 -152 -153 -60 -14 -5823 -12 -5865 2 -44 15 -104
73 -129 124 -19 39 -20 63 -20 501 l0 460 26 52 c28 57 82 105 134 120 48 14
5801 15 5851 2z m-5021 -1424 c0 -22 -4 -47 -8 -54 -6 -9 -75 -13 -285 -14
-153 0 -279 1 -281 3 -2 2 -6 29 -7 59 l-3 55 279 5 c154 3 286 1 293 -4 6 -5
12 -27 12 -50z m4782 44 c2 -5 1 -32 0 -59 l-4 -50 -271 -3 c-150 -2 -280 1
-289 5 -14 6 -18 20 -18 56 0 26 3 51 7 54 11 11 571 8 575 -3z"/>
<path d="M5210 8468 c-246 -132 -431 -288 -587 -498 -62 -82 -173 -261 -173
-277 0 -3 -18 -46 -40 -95 -39 -85 -40 -91 -25 -114 10 -16 25 -24 44 -24 34
0 42 9 66 74 36 99 135 277 206 373 158 212 340 360 614 498 49 25 61 35 63
58 8 72 -41 73 -168 5z"/>
<path d="M5340 8114 c-247 -137 -447 -347 -561 -589 -34 -72 -40 -91 -31 -110
15 -32 47 -40 77 -21 14 9 25 21 25 27 0 18 55 131 95 194 111 174 264 314
455 413 80 42 99 72 65 106 -25 24 -53 20 -125 -20z"/>
<path d="M5881 7595 c-35 -8 -107 -35 -159 -61 -81 -39 -110 -60 -182 -133
-99 -98 -156 -199 -190 -335 -126 -499 333 -966 835 -852 176 40 312 127 416
267 101 137 145 281 136 454 -9 190 -81 349 -214 476 -174 166 -411 234 -642
184z m322 -110 c146 -44 292 -163 360 -292 54 -104 71 -172 71 -293 0 -89 -4
-117 -28 -185 -55 -160 -160 -280 -307 -353 -106 -52 -183 -67 -302 -59 -162
11 -270 60 -388 177 -198 196 -233 475 -92 729 75 135 233 250 394 286 75 17
219 12 292 -10z"/>
<path d="M5977 7219 c-69 -11 -129 -44 -177 -95 -55 -59 -80 -119 -87 -204 -5
-59 -2 -80 18 -132 104 -266 473 -281 599 -23 21 41 25 65 25 135 0 73 -4 93
-28 142 -63 128 -206 201 -350 177z m146 -113 c105 -46 163 -176 123 -278 -24
-60 -80 -114 -144 -138 -46 -17 -59 -19 -100 -9 -63 16 -91 31 -129 71 -33 34
-63 103 -63 145 0 13 9 49 20 81 21 59 58 101 115 127 39 18 137 19 178 1z"/>
<path d="M7253 6404 c-7 -3 -35 -52 -63 -109 -105 -214 -284 -403 -479 -506
-75 -40 -92 -66 -66 -105 21 -33 50 -29 127 18 225 136 405 330 518 556 46 93
49 115 18 136 -23 16 -34 18 -55 10z"/>
<path d="M7603 6308 c-5 -7 -22 -47 -37 -88 -60 -158 -171 -330 -306 -473 -99
-104 -166 -160 -289 -242 -84 -55 -99 -85 -62 -119 30 -27 55 -16 192 86 213
158 351 313 474 533 36 64 65 119 65 122 0 2 14 36 31 75 29 65 29 71 14 94
-17 26 -66 33 -82 12z"/>
<path d="M8156 4819 l-26 -20 0 -303 c0 -290 1 -303 20 -324 23 -25 54 -28 87
-9 26 14 446 262 481 284 25 15 30 59 10 84 -7 9 -67 47 -133 86 -66 39 -142
84 -170 100 -27 16 -85 51 -128 76 -43 26 -86 47 -96 47 -10 0 -30 -9 -45 -21z
m149 -144 c53 -33 245 -148 274 -164 28 -14 22 -30 -16 -46 -44 -19 -210 -116
-267 -157 -74 -53 -73 -56 -74 187 -1 245 -5 237 83 180z"/>
<path d="M3339 4759 c-10 -10 -19 -22 -19 -26 0 -5 -1 -112 -2 -239 -2 -188 1
-236 13 -253 l14 -21 1844 0 c1755 -1 1844 0 1857 17 10 14 13 73 14 261 0
229 -1 243 -20 262 -20 20 -32 20 -1851 19 -1795 0 -1831 -1 -1850 -20z m3616
-264 l0 -176 -1764 0 c-970 1 -1767 3 -1770 7 -9 9 -10 338 -1 344 5 3 802 4
1772 3 l1763 -3 0 -175z"/>
<path d="M7475 4603 c-33 -8 -74 -54 -81 -91 -21 -109 119 -176 190 -91 33 39
41 72 26 108 -23 57 -80 88 -135 74z m53 -110 c3 -19 -1 -23 -22 -23 -29 0
-39 11 -30 35 10 24 48 15 52 -12z"/>
</g>
</svg>
