<?xml version="1.0" encoding="UTF-8"?>
<svg version="1.1" xmlns="http://www.w3.org/2000/svg" width="1200" height="1200" viewBox="0 0 1200 1200" preserveAspectRatio="xMidYMid meet">
<g transform="translate(0.000000,1200.000000) scale(0.100000,-0.100000)"
fill="#B1801D" stroke="none">
<path d="M7908 8122 l-46 -47 4 -1790 c2 -984 4 -1801 4 -1814 0 -30 -26 -61
-52 -61 -10 0 -37 -9 -59 -20 -31 -16 -61 -21 -132 -23 -145 -2 -197 27 -272
156 l-27 48 -2 317 -1 317 -40 69 c-30 51 -54 79 -95 107 -89 62 -125 71 -308
76 -183 6 -173 1 -192 89 -11 50 -79 162 -133 220 -22 24 -28 39 -25 65 l3 34
100 0 c114 1 146 14 200 82 37 47 47 123 27 198 -25 94 -129 155 -265 155 -80
0 -201 -23 -227 -42 -9 -7 -36 -28 -60 -45 -52 -40 -68 -41 -76 -5 -4 15 -20
59 -36 97 -16 39 -40 97 -54 130 -14 33 -31 71 -38 85 -8 14 -19 43 -26 65
-15 47 -91 192 -132 252 -44 64 -86 100 -168 141 -149 76 -233 82 -1094 82
-715 0 -981 -9 -1080 -34 -154 -41 -286 -144 -346 -271 -17 -38 -54 -115 -81
-171 -27 -55 -49 -107 -49 -114 0 -7 -7 -21 -16 -31 -9 -10 -20 -37 -25 -61
-6 -23 -16 -50 -23 -58 -8 -8 -17 -35 -21 -60 -14 -98 -20 -100 -104 -32 -71
57 -122 72 -239 71 -165 -1 -196 -9 -250 -62 -51 -51 -72 -95 -79 -172 -4 -49
-3 -52 51 -115 30 -36 66 -68 78 -72 13 -3 71 -6 130 -7 58 -1 113 -4 122 -7
32 -12 9 -74 -40 -104 -19 -13 -39 -38 -52 -68 -11 -26 -30 -56 -41 -66 -12
-11 -21 -24 -21 -30 0 -6 -11 -32 -25 -58 -14 -26 -29 -69 -34 -95 -6 -26 -13
-226 -17 -443 -4 -217 -8 -411 -9 -430 -1 -45 20 -127 38 -149 8 -9 22 -31 31
-48 9 -18 32 -41 52 -51 l35 -18 2 -175 c2 -206 7 -221 85 -262 28 -16 52 -32
52 -38 0 -5 92 -9 225 -9 214 0 225 1 235 20 6 11 24 27 40 35 54 28 70 78 70
219 0 121 1 126 24 141 19 13 32 14 70 5 30 -7 444 -10 1226 -9 649 0 1184 -2
1189 -5 5 -3 8 -57 6 -118 -3 -133 11 -178 70 -224 21 -16 45 -37 54 -46 14
-16 38 -18 228 -18 209 0 212 0 235 23 13 13 31 28 39 33 8 5 27 30 42 57 27
46 28 50 26 203 l-2 157 50 46 c28 25 63 69 79 96 l29 50 0 210 c0 116 -2 312
-4 437 -3 125 -2 230 2 234 9 9 62 8 185 -4 151 -15 230 -59 277 -153 25 -48
25 -51 25 -336 0 -280 1 -290 25 -361 23 -68 60 -131 95 -159 72 -60 175 -93
286 -93 55 0 75 5 134 36 99 52 100 51 98 -146 0 -86 2 -162 6 -168 16 -26 -6
-42 -60 -42 -43 0 -56 -4 -68 -22 -21 -29 -20 -31 10 -67 29 -35 72 -41 99
-15 13 13 29 15 98 9 86 -8 1289 -7 1464 1 83 4 108 1 127 -11 14 -9 37 -15
53 -13 26 3 28 6 31 53 l3 51 -41 9 -41 10 0 2067 -1 2067 -36 45 -35 44 -761
1 -761 1 -47 -48z m1540 -89 c8 -11 11 -30 7 -48 -6 -33 -7 -3856 -1 -3968 2
-37 0 -69 -4 -72 -4 -3 -340 -5 -745 -6 -787 -1 -766 -3 -748 46 4 11 8 929
10 2039 1 1279 5 2021 11 2025 6 3 336 5 733 4 681 -2 725 -3 737 -20z m-3881
-1093 c110 -17 216 -69 280 -138 29 -31 52 -61 53 -66 0 -5 20 -50 44 -100 24
-50 56 -122 71 -161 16 -38 39 -90 52 -114 12 -24 23 -51 23 -59 0 -8 9 -31
19 -51 46 -85 111 -221 111 -230 0 -15 -49 -29 -215 -59 l-160 -30 -1255 3
-1255 2 -145 32 c-80 17 -146 31 -146 31 -1 0 -5 7 -8 16 -4 11 10 41 38 83
24 36 47 77 51 91 4 14 15 39 24 55 10 17 21 44 25 60 4 15 16 40 27 53 10 14
19 31 19 38 0 7 20 56 45 108 25 53 45 101 45 108 0 7 12 31 25 53 14 22 25
46 25 54 0 16 61 94 100 128 14 12 48 31 75 43 28 12 66 29 85 38 27 12 92 17
290 23 370 10 1570 2 1657 -11z m1115 -746 c65 -25 90 -54 95 -111 5 -42 1
-53 -22 -81 -30 -36 -77 -52 -152 -52 -29 0 -76 -9 -105 -20 l-52 -20 -36 25
c-57 40 -99 84 -106 111 -22 88 99 152 308 163 15 0 47 -6 70 -15z m-3831 -8
c20 -7 53 -26 74 -41 36 -28 37 -30 32 -80 -6 -46 -11 -55 -68 -107 -34 -32
-65 -58 -70 -58 -4 0 -22 12 -39 27 -27 23 -45 27 -132 35 -62 5 -111 14 -129
25 -79 47 -52 167 46 201 43 15 243 14 286 -2z m3467 -291 c31 -30 62 -59 67
-66 6 -6 26 -27 46 -47 37 -38 92 -119 124 -182 10 -19 33 -66 53 -105 l35
-70 -1 -460 c0 -253 -4 -470 -9 -482 -16 -41 -102 -122 -136 -127 -241 -37
-316 -45 -430 -45 -89 0 -130 4 -151 14 -25 13 -193 15 -1314 15 -1140 -1
-1288 -3 -1315 -16 -46 -24 -371 -17 -411 10 -19 12 -38 16 -58 12 -16 -3 -39
-1 -51 6 -26 13 -97 82 -97 94 0 4 -10 18 -22 31 -21 23 -21 24 -19 465 l2
443 26 75 c14 41 32 82 38 90 7 8 16 26 20 39 8 26 74 115 159 216 115 134
131 143 204 106 78 -40 347 -95 422 -87 30 4 573 7 1205 7 l1150 0 120 24
c149 30 213 49 245 75 14 11 29 20 33 20 5 0 34 -25 65 -55z m-3466 -1645 c23
-18 44 -20 229 -22 l204 -3 3 -105 c3 -117 -7 -153 -46 -169 -15 -6 -108 -12
-207 -15 -265 -6 -278 3 -273 201 3 125 2 123 59 132 4 1 18 -8 31 -19z m3637
11 c10 -7 12 -34 6 -137 -3 -71 -9 -136 -11 -145 -9 -31 -57 -42 -209 -48
-162 -7 -236 4 -266 39 -21 24 -34 208 -18 244 16 34 25 36 126 26 134 -15
231 -11 288 10 59 22 66 23 84 11z"/>
<path d="M8800 7070 c-11 -11 -20 -25 -20 -32 0 -6 -17 -32 -38 -57 -20 -25
-53 -68 -72 -94 -19 -27 -51 -69 -71 -95 -20 -26 -49 -68 -64 -92 -32 -50 -94
-127 -141 -174 -38 -37 -44 -54 -33 -83 10 -26 55 -31 92 -11 13 7 55 11 104
9 47 -1 98 3 116 10 33 12 68 8 96 -10 20 -13 -2 -62 -41 -91 -17 -12 -41 -47
-55 -79 -52 -119 -145 -301 -154 -301 -16 0 -41 -61 -35 -86 13 -51 84 -54
112 -5 8 14 23 40 34 56 11 17 27 44 36 60 35 63 111 173 165 240 31 39 72 95
92 125 20 30 50 69 67 85 32 32 37 54 19 86 -9 18 -17 19 -87 13 -42 -4 -89
-13 -103 -22 -53 -30 -104 11 -77 62 6 11 17 50 23 86 20 106 73 259 105 303
16 23 30 53 30 69 0 47 -63 65 -100 28z m-91 -350 c15 -35 11 -59 -26 -136
-27 -58 -39 -67 -111 -78 -62 -9 -63 10 -3 89 28 37 59 81 67 98 34 67 52 73
73 27z m161 -281 c0 -20 -21 -49 -35 -49 -19 0 -27 16 -20 40 7 21 55 29 55 9z"/>
<path d="M2947 5423 c-49 -38 -76 -98 -84 -188 -5 -68 -3 -83 22 -146 31 -76
57 -101 166 -155 46 -23 68 -27 208 -34 142 -7 241 -2 282 15 18 7 56 71 69
114 12 42 -22 137 -70 192 -29 34 -64 58 -132 92 -133 64 -176 82 -238 97 -30
6 -74 18 -98 26 -61 20 -84 18 -125 -13z m151 -92 c119 -47 158 -61 172 -61 8
0 26 -9 40 -20 14 -11 34 -20 46 -20 26 0 90 -45 127 -89 20 -25 27 -43 27
-77 0 -72 -18 -78 -202 -69 -84 4 -169 11 -190 17 -55 16 -131 78 -145 118
-27 79 -10 184 34 209 25 15 38 13 91 -8z"/>
<path d="M6110 5419 c-47 -17 -107 -37 -135 -46 -27 -9 -61 -23 -75 -33 -14
-10 -36 -21 -50 -25 -49 -16 -170 -117 -170 -143 0 -7 -9 -34 -21 -59 -18 -40
-19 -51 -9 -92 15 -60 45 -107 73 -115 12 -3 111 -6 219 -6 189 0 201 1 261
25 85 34 138 89 172 180 23 61 26 80 21 143 -15 188 -100 239 -286 171z m144
-70 c56 -26 67 -148 22 -237 -23 -46 -34 -56 -84 -78 -81 -36 -119 -42 -274
-46 -119 -3 -140 -1 -158 14 -11 10 -20 29 -20 42 0 31 34 108 57 129 27 24
228 121 303 146 36 12 72 26 80 31 20 13 44 12 74 -1z"/>
<path d="M5144 4981 c-38 -17 -82 -20 -500 -26 -411 -7 -466 -6 -523 9 -71 19
-117 14 -126 -15 -12 -37 4 -57 63 -79 55 -21 67 -21 582 -18 l525 3 45 25
c53 30 61 56 26 93 -30 32 -38 33 -92 8z"/>
</g>
</svg>
