<?xml version="1.0" encoding="UTF-8"?>
<svg version="1.1" xmlns="http://www.w3.org/2000/svg" width="1200" height="1200" viewBox="0 0 1200 1200" preserveAspectRatio="xMidYMid meet">
<g transform="translate(0.000000,1200.000000) scale(0.100000,-0.100000)"
fill="#B1801D" stroke="none">
<path d="M3850 7964 c-90 -48 -164 -112 -192 -166 -59 -115 -61 -126 -60 -272
1 -77 6 -173 12 -214 8 -48 8 -78 2 -84 -14 -14 -97 25 -117 55 -36 56 -223
84 -349 52 -115 -29 -261 -156 -288 -250 -6 -22 -16 -45 -20 -52 -14 -18 -19
-240 -10 -428 6 -130 5 -178 -4 -202 -15 -38 -16 -39 -50 -16 -20 13 -49 16
-135 16 -140 -1 -205 -16 -223 -52 -8 -14 -23 -35 -35 -45 -20 -19 -21 -27
-21 -331 l0 -312 49 -46 c61 -57 84 -62 267 -54 154 7 173 1 159 -44 -4 -11
-8 -141 -10 -288 -3 -203 0 -270 9 -281 7 -8 20 -33 28 -55 67 -171 221 -275
407 -275 121 0 218 40 270 111 17 23 29 29 49 27 22 -2 28 -9 30 -33 2 -16 -2
-47 -8 -69 -7 -23 -12 -102 -12 -181 0 -132 1 -145 26 -199 36 -79 93 -166
108 -166 7 0 19 -9 26 -21 7 -12 50 -38 95 -59 151 -69 277 -69 412 1 109 57
161 116 212 242 l25 61 -1 626 c-1 409 -5 636 -12 657 -22 69 -151 64 1490 64
816 0 1485 -2 1488 -5 3 -2 6 -308 7 -678 l1 -673 24 -65 c28 -77 50 -111 105
-164 45 -42 140 -92 196 -102 19 -4 38 -12 42 -18 8 -13 119 -9 132 4 6 6 28
10 50 10 23 0 51 6 62 13 12 6 41 23 65 36 49 26 108 84 158 153 61 86 83 242
66 469 -8 101 -3 116 34 104 10 -3 30 -23 44 -44 37 -55 79 -77 184 -96 82
-14 100 -14 155 -1 96 22 147 48 215 110 60 55 111 139 127 207 12 55 17 435
7 519 -9 66 -8 87 2 96 9 8 46 9 137 3 137 -9 154 -7 220 26 35 18 53 37 83
86 23 41 35 69 30 79 -4 8 -10 132 -13 275 -3 145 -9 267 -15 277 -5 9 -24 32
-42 51 -40 44 -78 51 -229 43 -60 -3 -120 -6 -133 -7 -13 0 -27 5 -31 12 -5 6
-6 136 -3 288 7 373 -7 431 -137 546 -104 93 -223 126 -378 105 -98 -13 -132
-30 -206 -102 -32 -32 -53 -45 -59 -39 -7 7 -6 42 1 103 16 140 8 340 -16 414
-35 111 -137 218 -253 265 -62 25 -84 29 -171 29 -69 0 -111 -5 -136 -16 -60
-25 -135 -66 -164 -88 -41 -32 -105 -123 -130 -185 l-23 -56 0 -677 c0 -489
-3 -679 -11 -682 -6 -2 -87 -1 -180 3 -216 9 -2563 6 -2671 -4 -127 -11 -119
-37 -113 370 3 187 2 491 -1 675 -5 308 -7 339 -26 387 -41 102 -113 173 -236
233 -82 39 -85 40 -193 40 l-109 -1 -85 -45z m285 -68 c105 -28 183 -89 239
-187 l27 -47 0 -1654 1 -1653 -30 -65 c-31 -68 -89 -131 -153 -167 -99 -57
-244 -51 -343 12 -62 40 -134 117 -143 154 -3 14 -12 38 -20 53 -11 23 -13
289 -14 1635 0 885 0 1624 1 1643 0 67 92 193 174 239 87 50 170 62 261 37z
m3912 -7 c90 -33 154 -88 193 -164 l33 -66 -1 -1632 c-1 -898 -5 -1655 -8
-1683 -9 -75 -87 -176 -173 -223 -61 -33 -69 -35 -165 -35 -76 -1 -112 3 -146
17 -54 22 -167 134 -176 174 -3 16 -12 49 -20 74 -12 39 -14 281 -12 1680 l3
1634 28 36 c15 20 27 40 27 45 0 16 92 100 130 120 96 49 195 56 287 23z
m-4633 -665 c30 -14 70 -42 88 -62 18 -19 47 -50 65 -67 l31 -32 1 -1064 c0
-969 -1 -1066 -16 -1089 -48 -73 -111 -134 -168 -161 -51 -25 -72 -29 -140
-29 -91 0 -139 18 -210 76 -70 57 -110 120 -124 195 -11 66 -20 1053 -11 1354
0 22 2 166 4 320 4 316 10 378 40 419 116 158 287 213 440 140z m5410 6 c84
-32 146 -86 184 -161 l32 -64 0 -1023 c0 -938 -1 -1026 -17 -1060 -60 -132
-155 -194 -306 -200 -66 -3 -100 0 -133 13 -50 19 -168 127 -183 169 -7 17
-12 392 -13 1079 l-2 1053 27 47 c35 60 79 102 141 133 92 48 168 52 270 14z
m-6004 -920 c12 -22 18 -639 7 -657 -4 -6 -61 -8 -149 -5 -149 4 -176 11 -198
52 -6 12 -11 118 -12 277 -2 226 0 262 15 291 19 35 16 35 207 37 36 1 74 6
85 13 28 16 33 15 45 -8z m6485 -5 c127 -6 151 -12 175 -42 19 -24 20 -39 20
-289 l0 -263 -27 -26 c-33 -30 -49 -33 -210 -39 -90 -3 -123 -1 -126 8 -3 7 0
71 5 142 6 71 8 218 5 328 l-6 198 37 -6 c20 -4 78 -9 127 -11z m-3281 -92
c796 -1 1451 -4 1454 -7 2 -3 4 -18 4 -33 -1 -16 -3 -107 -4 -205 -2 -97 -6
-179 -9 -182 -7 -8 -2960 -9 -2967 -2 -3 3 -5 98 -5 210 0 226 4 245 52 230
14 -5 678 -9 1475 -11z"/>
</g>
</svg>
