<svg xmlns="http://www.w3.org/2000/svg" xmlns:xlink="http://www.w3.org/1999/xlink" width="500" zoomAndPan="magnify" viewBox="0 0 375 374.999991" height="500" preserveAspectRatio="xMidYMid meet" version="1.0"><defs><clipPath id="ecc01e75b7"><path d="M 32 117.207031 L 344 117.207031 L 344 246 L 32 246 Z M 32 117.207031 " clip-rule="nonzero"/></clipPath><clipPath id="e212439dc1"><path d="M 104 149 L 182 149 L 182 257.457031 L 104 257.457031 Z M 104 149 " clip-rule="nonzero"/></clipPath><clipPath id="6fa53f7778"><path d="M 31.296875 204 L 64 204 L 64 249 L 31.296875 249 Z M 31.296875 204 " clip-rule="nonzero"/></clipPath></defs><rect x="-37.5" width="450" fill="#ffffff" y="-37.499999" height="449.999989" fill-opacity="1"/><rect x="-37.5" width="450" fill="#ffffff" y="-37.499999" height="449.999989" fill-opacity="1"/><g clip-path="url(#ecc01e75b7)"><path fill="#000000" d="M 105.074219 167.515625 C 104.011719 169.023438 102.949219 172.527344 102.660156 173.132812 C 101.359375 175.886719 100.03125 178.597656 98.609375 181.257812 C 97.207031 183.9375 95.710938 186.570312 94.070312 189.164062 C 91.636719 193.023438 88.570312 198.535156 84.878906 203.0625 C 82.273438 206.304688 79.308594 209.042969 76.074219 210.414062 C 73.421875 211.535156 70.863281 210.902344 68.378906 209.777344 C 66.207031 208.800781 64.132812 207.4375 62.128906 207.003906 C 60.632812 206.675781 59.1875 206.988281 57.8125 208.664062 C 55.6875 211.21875 53.78125 213.945312 51.996094 216.757812 C 47.777344 223.367188 44.15625 230.460938 39.960938 236.984375 C 39.40625 237.835938 35.859375 241.640625 34.652344 243.886719 C 34.53125 244.09375 34.457031 244.351562 34.386719 244.523438 C 34.601562 244.5 34.894531 244.425781 35.230469 244.308594 C 35.59375 244.183594 35.976562 244.371094 36.125 244.734375 C 36.242188 245.09375 36.050781 245.488281 35.6875 245.617188 C 34.484375 246.054688 33.734375 245.941406 33.398438 245.703125 C 33.011719 245.433594 32.816406 244.964844 32.960938 244.304688 C 33.371094 242.316406 38.003906 237.171875 38.632812 236.15625 C 42.757812 229.574219 46.253906 222.433594 50.40625 215.765625 C 52.214844 212.863281 54.121094 210.046875 56.242188 207.40625 C 58.246094 204.941406 60.367188 204.53125 62.566406 204.980469 C 64.710938 205.417969 66.957031 206.800781 69.246094 207.8125 C 71.175781 208.65625 73.15625 209.25 75.183594 208.363281 C 78.101562 207.085938 80.683594 204.542969 83.046875 201.585938 C 86.59375 197.089844 89.535156 191.628906 91.875 187.804688 C 93.445312 185.253906 94.890625 182.664062 96.242188 180.03125 C 97.617188 177.386719 98.898438 174.699219 100.152344 171.96875 C 100.441406 171.355469 101.480469 168 102.539062 166.226562 C 103.167969 165.164062 103.964844 164.597656 104.542969 164.492188 C 104.878906 164.433594 105.316406 164.464844 105.796875 164.664062 C 106.304688 164.867188 106.957031 165.328125 107.679688 165.972656 C 109.921875 167.9375 113.105469 171.84375 113.976562 172.492188 C 117.0625 174.808594 120.464844 177.0625 123.988281 179.171875 C 127.484375 181.28125 131.105469 183.238281 134.578125 184.949219 C 136.027344 185.667969 137.496094 186.3125 138.992188 186.585938 C 140.320312 186.828125 141.671875 186.753906 143.070312 186.105469 C 146.230469 184.621094 149.367188 182.125 152.09375 179.238281 C 154.867188 176.320312 157.183594 173 158.632812 169.863281 C 160.441406 165.980469 161.621094 161.507812 163.769531 157.6875 C 164.785156 155.902344 165.988281 154.253906 167.507812 152.839844 C 170.234375 150.335938 173.347656 149.953125 176.507812 150.023438 C 179.113281 150.082031 181.769531 150.535156 184.082031 149.589844 C 185 149.222656 185.867188 148.601562 186.640625 147.617188 C 188.257812 145.59375 189.777344 143.496094 191.25 141.359375 C 194.722656 136.300781 197.957031 131.042969 201.527344 126.0625 C 202.707031 124.382812 204.226562 122.097656 206.039062 120.375 C 207.484375 119.003906 209.125 117.988281 210.933594 117.6875 C 213.25 117.296875 215.375 118 217.257812 119.375 C 220.730469 121.886719 223.40625 126.835938 225.21875 129.605469 C 231.828125 139.671875 237.785156 150.386719 244.492188 160.507812 C 247.339844 164.816406 250.308594 169.023438 253.539062 173.015625 C 255.566406 175.527344 258.148438 177.351562 260.945312 177.980469 C 263.625 178.589844 266.496094 178.050781 269.148438 175.976562 C 271.101562 174.4375 274 170.378906 276.964844 168.855469 C 278.921875 167.839844 280.921875 167.726562 282.828125 169.179688 C 284.277344 170.292969 285.554688 171.621094 286.738281 173.050781 C 289.246094 176.082031 291.320312 179.59375 294.191406 182.242188 C 295.011719 182.992188 295.808594 183.410156 296.652344 183.699219 C 298.269531 184.253906 299.957031 184.429688 301.789062 185.144531 C 303.335938 185.746094 304.660156 186.652344 305.820312 187.742188 C 307.4375 189.257812 308.761719 191.128906 310.015625 192.949219 C 316.023438 201.652344 321.164062 212.210938 327.703125 221.304688 C 331.996094 227.292969 336.941406 232.640625 343.191406 236.328125 C 343.839844 236.707031 344.058594 237.523438 343.671875 238.164062 C 343.308594 238.800781 342.464844 239.015625 341.839844 238.640625 C 335.230469 234.796875 329.992188 229.21875 325.410156 222.941406 C 318.824219 213.871094 313.636719 203.324219 307.582031 194.640625 C 306.421875 192.996094 305.242188 191.296875 303.769531 189.9375 C 302.875 189.109375 301.886719 188.410156 300.707031 187.960938 C 298.535156 187.128906 296.578125 187.042969 294.722656 186.203125 C 293.828125 185.8125 292.960938 185.28125 292.117188 184.492188 C 289.148438 181.765625 286.953125 178.164062 284.324219 175.042969 C 283.285156 173.800781 282.175781 172.644531 280.898438 171.675781 C 279.765625 170.804688 278.582031 171.445312 277.398438 172.320312 C 275.011719 174.121094 272.769531 177.214844 271.128906 178.496094 C 267.605469 181.265625 263.792969 181.941406 260.222656 181.148438 C 256.773438 180.378906 253.515625 178.183594 250.984375 175.082031 C 247.679688 171.015625 244.613281 166.738281 241.695312 162.347656 C 234.964844 152.25 228.980469 141.546875 222.320312 131.496094 C 220.898438 129.316406 218.921875 125.621094 216.386719 123.167969 C 214.964844 121.800781 213.371094 120.800781 211.515625 121.113281 C 210.378906 121.304688 209.367188 122.023438 208.449219 122.898438 C 206.808594 124.464844 205.457031 126.5625 204.375 128.089844 C 200.828125 133.054688 197.617188 138.300781 194.144531 143.339844 C 192.625 145.539062 191.054688 147.703125 189.390625 149.789062 C 188.183594 151.316406 186.832031 152.253906 185.410156 152.828125 C 183.117188 153.75 180.609375 153.691406 178.078125 153.570312 C 175.230469 153.4375 172.308594 153.148438 169.875 155.382812 C 168.160156 156.945312 166.953125 158.871094 165.964844 160.933594 C 164.324219 164.292969 163.238281 168.003906 161.695312 171.285156 C 160.101562 174.707031 157.546875 178.339844 154.507812 181.515625 C 151.464844 184.691406 147.945312 187.40625 144.421875 189.027344 C 142.78125 189.785156 141.1875 190.011719 139.597656 189.882812 C 137.402344 189.707031 135.253906 188.824219 133.15625 187.769531 C 129.632812 185.992188 125.964844 183.960938 122.394531 181.777344 C 118.800781 179.582031 115.328125 177.238281 112.191406 174.832031 C 111.203125 174.082031 107.21875 169.082031 105.074219 167.515625 Z M 34.21875 244.535156 C 34.191406 244.5 34.167969 244.484375 34.167969 244.527344 C 34.167969 244.546875 34.191406 244.539062 34.21875 244.535156 Z M 34.21875 244.535156 " fill-opacity="1" fill-rule="evenodd"/></g><path fill="#000000" d="M 70.792969 209.332031 C 69.730469 208.933594 70.210938 210.695312 70.164062 211.414062 C 70.042969 213.339844 69.800781 215.265625 69.5625 217.179688 C 69.441406 218.109375 68.859375 219.867188 69.367188 220.832031 C 69.730469 221.5 70.816406 220.90625 71.226562 220.710938 C 72.648438 219.992188 75.421875 217.453125 75.398438 220.761719 C 75.398438 221.148438 75.351562 221.542969 75.277344 221.925781 C 75.109375 222.761719 74.746094 223.675781 74.3125 224.417969 C 70.644531 231.027344 62.566406 233.695312 58.847656 240.398438 C 57.304688 243.195312 56.363281 246.320312 55.738281 249.433594 C 55.738281 249.453125 55.253906 253.460938 55.519531 253.285156 C 56.535156 252.574219 57.039062 249.597656 57.5 248.5625 C 58.921875 245.421875 60.828125 242.175781 63.335938 239.769531 C 65.507812 237.695312 68.042969 238.292969 70.308594 236.769531 C 73.226562 234.808594 75.761719 231.46875 78.078125 228.851562 C 79.667969 227.019531 81.09375 225.042969 81.839844 222.699219 C 82.515625 220.554688 82.515625 218.003906 83.554688 215.992188 C 84.277344 214.585938 85.871094 213.699219 86.761719 212.382812 C 88.136719 210.367188 88.066406 207.761719 89.488281 205.820312 C 92.117188 202.199219 95.085938 199.148438 97.28125 195.164062 C 98.199219 193.519531 99.019531 191.851562 99.765625 190.125 C 102.128906 184.691406 103.457031 179.050781 105.265625 173.441406 C 105.507812 172.644531 105.699219 171.839844 105.871094 171.019531 C 105.964844 170.503906 106.039062 169.980469 106.183594 169.46875 C 107.363281 164.867188 103.792969 170.582031 103.191406 171.457031 C 102.878906 171.929688 102.539062 172.40625 102.226562 172.886719 C 101.070312 174.59375 99.933594 176.3125 98.847656 178.066406 C 96.773438 181.414062 94.675781 184.753906 92.671875 188.140625 C 89.417969 193.644531 86.59375 199.429688 83.503906 205.042969 " fill-opacity="1" fill-rule="nonzero"/><path fill="#000000" d="M 74.335938 220.03125 C 74.21875 220.070312 74.046875 220.167969 73.953125 220.21875 C 73.734375 220.3125 73.515625 220.429688 73.277344 220.558594 C 72.695312 220.90625 72.09375 221.300781 71.613281 221.523438 C 71.25 221.699219 70.429688 222.078125 69.800781 222.023438 C 69.296875 221.980469 68.859375 221.753906 68.597656 221.246094 C 68.378906 220.824219 68.28125 220.300781 68.304688 219.734375 C 68.332031 218.804688 68.644531 217.734375 68.742188 217.070312 L 69.441406 211.363281 C 69.488281 210.859375 69.320312 209.871094 69.488281 209.363281 C 69.707031 208.730469 70.117188 208.320312 71.03125 208.683594 C 71.394531 208.820312 71.585938 209.21875 71.441406 209.578125 C 71.320312 209.902344 70.984375 210.078125 70.671875 210.015625 C 70.671875 210.402344 70.910156 211.164062 70.910156 211.460938 L 70.382812 217.285156 C 70.308594 217.828125 70.089844 218.667969 70.042969 219.453125 C 70.019531 219.722656 70.019531 219.980469 70.066406 220.207031 C 70.285156 220.125 70.671875 219.96875 70.816406 219.898438 C 71.492188 219.546875 72.457031 218.792969 73.300781 218.421875 C 74.074219 218.085938 74.773438 218.066406 75.304688 218.335938 C 75.859375 218.613281 76.386719 219.289062 76.386719 220.773438 L 76.265625 222.125 C 76.171875 222.597656 76.027344 223.089844 75.859375 223.574219 C 75.664062 224.046875 75.472656 224.507812 75.230469 224.921875 C 74.480469 226.34375 73.515625 227.597656 72.457031 228.753906 C 68.523438 232.996094 62.855469 235.753906 60.03125 241.046875 C 60.007812 241.09375 59.960938 241.140625 59.933594 241.1875 C 60.632812 240.261719 61.40625 239.386719 62.203125 238.597656 C 63 237.84375 63.796875 237.363281 64.640625 237.015625 C 66.207031 236.375 67.871094 236.40625 69.367188 235.375 C 70.453125 234.640625 71.464844 233.699219 72.433594 232.679688 C 73.976562 231.058594 75.398438 229.253906 76.75 227.703125 C 77.496094 226.855469 78.199219 225.976562 78.800781 225.03125 C 79.355469 224.144531 79.839844 223.199219 80.152344 222.171875 C 80.632812 220.707031 80.753906 219.054688 81.140625 217.519531 C 81.359375 216.703125 81.625 215.921875 81.984375 215.191406 C 82.203125 214.792969 82.445312 214.421875 82.734375 214.074219 C 83.503906 213.136719 84.640625 212.40625 85.316406 211.402344 C 86.351562 209.886719 86.472656 207.996094 87.195312 206.371094 C 87.4375 205.824219 87.726562 205.296875 88.066406 204.800781 C 89.921875 202.261719 91.949219 200.003906 93.757812 197.503906 C 94.480469 196.503906 95.15625 195.460938 95.785156 194.339844 C 96.242188 193.546875 96.652344 192.746094 97.0625 191.933594 C 97.472656 191.121094 97.859375 190.292969 98.222656 189.460938 C 99.136719 187.34375 99.910156 185.195312 100.609375 183.027344 C 101.597656 180.003906 102.445312 176.949219 103.410156 173.898438 L 100.128906 178.863281 L 93.925781 188.882812 C 92.9375 190.511719 91.996094 192.167969 91.082031 193.839844 C 88.933594 197.773438 86.859375 201.769531 84.6875 205.6875 C 84.324219 206.335938 83.53125 206.574219 82.878906 206.21875 C 82.226562 205.867188 81.960938 205.050781 82.324219 204.402344 C 84.445312 200.460938 86.449219 196.4375 88.570312 192.484375 C 89.488281 190.773438 90.429688 189.074219 91.417969 187.402344 L 97.546875 177.269531 L 100.925781 172.019531 L 101.886719 170.578125 C 102.226562 170.113281 103.335938 168.339844 104.179688 167.335938 C 104.664062 166.796875 105.097656 166.445312 105.410156 166.296875 C 106.015625 166.015625 106.519531 166.085938 106.929688 166.253906 C 107.339844 166.433594 107.75 166.773438 107.945312 167.484375 C 108.039062 167.835938 108.066406 168.589844 107.726562 169.867188 L 107.4375 171.339844 L 106.808594 173.933594 C 105.554688 177.875 104.542969 181.839844 103.238281 185.734375 C 102.660156 187.4375 102.035156 189.125 101.308594 190.792969 C 100.949219 191.683594 100.539062 192.558594 100.101562 193.421875 C 99.695312 194.285156 99.257812 195.140625 98.777344 195.988281 C 98.101562 197.230469 97.351562 198.390625 96.558594 199.5 C 94.746094 202.011719 92.746094 204.28125 90.886719 206.835938 C 89.851562 208.289062 89.730469 210.152344 89.054688 211.789062 C 88.835938 212.335938 88.546875 212.859375 88.210938 213.359375 C 87.558594 214.351562 86.546875 215.136719 85.699219 216.023438 C 85.484375 216.261719 85.265625 216.507812 85.121094 216.789062 C 84.878906 217.285156 84.6875 217.820312 84.566406 218.375 C 84.15625 219.976562 83.988281 221.699219 83.503906 223.226562 C 83.070312 224.542969 82.46875 225.757812 81.742188 226.902344 C 81.042969 227.992188 80.25 229.015625 79.378906 229.996094 C 77.980469 231.566406 76.484375 233.398438 74.890625 235.039062 C 73.757812 236.222656 72.527344 237.3125 71.25 238.160156 C 69.535156 239.3125 67.679688 239.355469 65.894531 240.0625 C 65.410156 240.253906 64.929688 240.519531 64.46875 240.945312 C 63.289062 242.050781 62.273438 243.359375 61.359375 244.746094 C 60.417969 246.175781 59.597656 247.695312 58.921875 249.191406 C 58.535156 250 58.125 251.96875 57.472656 253.167969 C 57.160156 253.769531 56.773438 254.226562 56.363281 254.5 C 56.003906 254.761719 55.617188 254.808594 55.304688 254.761719 C 54.964844 254.714844 54.601562 254.570312 54.3125 254.203125 C 54.21875 254.066406 53.953125 253.636719 53.953125 252.941406 C 53.953125 251.910156 54.3125 249.164062 54.3125 249.144531 C 54.652344 247.535156 55.085938 245.925781 55.617188 244.359375 C 56.171875 242.765625 56.847656 241.214844 57.667969 239.753906 C 58.488281 238.332031 59.476562 237.078125 60.5625 235.9375 C 64.664062 231.707031 70.429688 229.097656 73.398438 223.914062 C 73.589844 223.582031 73.78125 223.214844 73.925781 222.835938 C 74.074219 222.46875 74.191406 222.089844 74.289062 221.722656 L 74.410156 220.75 C 74.410156 220.46875 74.335938 220.121094 74.335938 220.03125 Z M 106.691406 169.203125 C 106.714844 169.191406 106.738281 169.179688 106.761719 169.167969 C 106.808594 169.148438 106.90625 169.140625 106.882812 169.101562 C 106.835938 169.035156 106.761719 169.09375 106.691406 169.203125 Z M 70.671875 209.949219 C 70.671875 209.9375 70.695312 209.929688 70.695312 209.925781 C 70.742188 209.890625 70.910156 209.808594 70.839844 209.789062 C 70.71875 209.753906 70.671875 209.824219 70.671875 209.949219 Z M 74.363281 220.023438 C 74.386719 220.054688 74.457031 220.105469 74.480469 220.066406 C 74.480469 220.003906 74.433594 220 74.363281 220.023438 Z M 74.363281 220.023438 " fill-opacity="1" fill-rule="evenodd"/><path fill="#000000" d="M 134.796875 187.214844 C 134.507812 186.894531 134.964844 188.042969 135.0625 188.457031 C 135.277344 189.566406 135.351562 190.085938 135.421875 191.265625 C 135.617188 194.371094 134.097656 196.976562 131.492188 198.628906 C 123.070312 203.988281 110.742188 210.398438 108.570312 221.246094 C 108.066406 223.738281 107.824219 226.191406 108.066406 228.726562 C 108.113281 229.359375 108.136719 231.289062 108.8125 231.753906 C 109.078125 231.941406 110.429688 227.71875 110.453125 227.640625 C 111.707031 224.625 113.394531 221.738281 115.496094 219.234375 C 120.441406 213.320312 127.605469 210.71875 132.914062 205.429688 C 134.820312 203.523438 135.882812 201.109375 137.449219 198.964844 C 137.835938 198.453125 139.765625 196.109375 139.789062 198.046875 C 139.839844 201.199219 138.292969 204.496094 137.351562 207.441406 C 133.082031 220.828125 124.640625 230.816406 114.867188 240.789062 C 112.527344 243.164062 108.234375 245.960938 106.714844 248.996094 C 106.398438 249.636719 106.808594 251.21875 106.714844 251.953125 C 106.640625 252.480469 105.796875 255.054688 106.207031 255.460938 C 106.398438 255.648438 106.691406 255.238281 106.882812 255.050781 C 107.558594 254.394531 108.1875 253.628906 108.789062 252.921875 C 111.441406 249.816406 114.070312 246.679688 116.824219 243.671875 C 120.5625 239.589844 124.398438 235.332031 128.859375 231.996094 C 132.578125 229.214844 136.53125 228.480469 138.824219 224.078125 C 142.25 217.488281 141.550781 208.996094 145.605469 202.839844 C 146.425781 201.566406 147.171875 202.304688 148.257812 201.605469 C 151.054688 199.796875 154.023438 197.253906 156.074219 194.632812 C 158.148438 191.980469 159.644531 188.957031 161.550781 186.203125 C 162.082031 185.46875 163.09375 183.699219 164.109375 183.417969 C 165.144531 183.128906 165.265625 186.15625 165.3125 186.542969 C 165.628906 189.472656 165.820312 192.433594 165.917969 195.382812 C 165.941406 196.066406 165.578125 198.320312 166.132812 198.917969 C 166.472656 199.285156 167.363281 198.226562 167.460938 198.117188 C 169.875 195.496094 171.199219 191.769531 172.503906 188.53125 C 175.808594 180.195312 179.234375 171.65625 180.367188 162.714844 C 180.875 158.664062 178.898438 156.144531 176.53125 153.269531 C 175.324219 151.792969 173.734375 150.578125 171.804688 151.648438 C 168.667969 153.371094 167.871094 158.871094 166.421875 161.816406 C 163.144531 168.523438 159.136719 175.011719 154.359375 180.777344 " fill-opacity="1" fill-rule="nonzero"/><g clip-path="url(#e212439dc1)"><path fill="#000000" d="M 137.980469 200.75 C 137.160156 201.972656 136.4375 203.242188 135.59375 204.429688 C 135.085938 205.128906 134.53125 205.800781 133.902344 206.421875 C 130.117188 210.160156 125.386719 212.566406 121.164062 215.722656 C 119.476562 216.984375 117.859375 218.367188 116.460938 220.035156 C 115.449219 221.230469 114.53125 222.519531 113.710938 223.867188 C 112.890625 225.21875 112.164062 226.640625 111.5625 228.085938 C 111.515625 228.152344 110.597656 230.933594 110.117188 231.929688 C 109.851562 232.421875 109.5625 232.675781 109.414062 232.757812 C 108.933594 233.019531 108.5 232.945312 108.136719 232.691406 C 107.75 232.417969 107.4375 231.910156 107.246094 231.253906 C 107.003906 230.414062 106.980469 229.296875 106.929688 228.828125 C 106.835938 227.496094 106.835938 226.1875 106.957031 224.886719 C 107.050781 223.601562 107.246094 222.324219 107.511719 221.035156 C 108.476562 216.453125 111.128906 212.628906 114.578125 209.351562 C 119.476562 204.6875 125.964844 201.136719 131.082031 197.949219 C 132.261719 197.210938 133.203125 196.257812 133.832031 195.128906 C 134.457031 194.007812 134.769531 192.714844 134.675781 191.3125 C 134.652344 190.75 134.625 190.34375 134.578125 189.945312 C 134.53125 189.535156 134.457031 189.136719 134.363281 188.59375 C 134.289062 188.25 134 187.4375 134 187.230469 C 134 186.929688 134.121094 186.753906 134.214844 186.664062 C 134.363281 186.53125 134.820312 186.195312 135.300781 186.761719 C 135.519531 186.992188 135.519531 187.3125 135.398438 187.5625 C 135.496094 187.828125 135.710938 188.160156 135.738281 188.316406 C 135.855469 188.898438 135.953125 189.324219 136 189.761719 C 136.074219 190.1875 136.097656 190.621094 136.148438 191.21875 C 136.265625 192.921875 135.90625 194.484375 135.179688 195.859375 C 134.457031 197.222656 133.347656 198.390625 131.925781 199.304688 C 126.980469 202.511719 120.65625 206.089844 115.929688 210.738281 C 112.839844 213.773438 110.429688 217.269531 109.609375 221.457031 C 109.390625 222.65625 109.222656 223.851562 109.125 225.050781 C 109.054688 226.011719 109.054688 226.972656 109.125 227.945312 C 109.269531 227.515625 109.367188 227.214844 109.367188 227.191406 C 109.996094 225.625 110.742188 224.09375 111.609375 222.625 C 112.480469 221.148438 113.445312 219.742188 114.53125 218.433594 C 116.050781 216.59375 117.761719 215.054688 119.597656 213.65625 C 123.671875 210.519531 128.257812 208.136719 131.925781 204.441406 C 132.429688 203.925781 132.867188 203.367188 133.277344 202.792969 C 134.335938 201.277344 135.179688 199.628906 136.292969 198.113281 C 136.484375 197.828125 137.085938 197.070312 137.691406 196.570312 C 138.125 196.203125 138.582031 195.96875 138.945312 195.882812 C 139.523438 195.742188 140.054688 195.871094 140.464844 196.191406 C 140.828125 196.453125 141.238281 196.972656 141.261719 198.019531 C 141.285156 199.425781 141.042969 200.859375 140.65625 202.285156 C 140.152344 204.210938 139.378906 206.125 138.824219 207.90625 C 137.085938 213.390625 134.675781 218.328125 131.78125 222.929688 C 128.910156 227.4375 125.578125 231.621094 121.960938 235.691406 C 122.152344 235.5 122.347656 235.308594 122.539062 235.117188 C 124.203125 233.507812 125.964844 231.976562 127.800781 230.601562 C 130.066406 228.914062 132.40625 227.976562 134.410156 226.519531 C 135.519531 225.71875 136.507812 224.746094 137.28125 223.28125 C 139.984375 218.105469 140.078125 211.734375 142.03125 206.289062 C 142.589844 204.75 143.261719 203.273438 144.15625 201.910156 C 144.566406 201.296875 144.976562 200.949219 145.363281 200.726562 C 145.773438 200.496094 146.160156 200.386719 146.59375 200.324219 C 146.808594 200.292969 147.050781 200.359375 147.316406 200.179688 C 148.667969 199.324219 150.019531 198.289062 151.320312 197.164062 C 152.601562 196.046875 153.78125 194.832031 154.746094 193.601562 C 155.328125 192.847656 155.882812 192.058594 156.386719 191.257812 C 157.691406 189.273438 158.847656 187.199219 160.199219 185.261719 C 160.585938 184.703125 161.238281 183.621094 161.984375 182.890625 C 162.515625 182.355469 163.09375 181.980469 163.671875 181.828125 C 164.636719 181.558594 165.484375 181.882812 166.085938 182.804688 C 166.714844 183.738281 166.90625 185.988281 166.929688 186.359375 C 167.097656 187.847656 167.246094 189.347656 167.339844 190.847656 C 167.4375 192.34375 167.484375 193.835938 167.535156 195.328125 C 167.535156 195.351562 167.535156 195.378906 167.535156 195.410156 C 167.894531 194.890625 168.210938 194.34375 168.5 193.785156 C 169.488281 191.890625 170.261719 189.835938 171.03125 187.945312 C 173.011719 182.996094 175.035156 177.976562 176.582031 172.839844 C 177.617188 169.457031 178.414062 166.023438 178.871094 162.527344 C 179.089844 160.84375 178.800781 159.476562 178.195312 158.230469 C 177.523438 156.820312 176.484375 155.554688 175.398438 154.199219 C 174.941406 153.640625 174.433594 153.105469 173.832031 152.835938 C 173.445312 152.65625 172.984375 152.648438 172.503906 152.917969 C 171.464844 153.484375 170.789062 154.601562 170.210938 155.839844 C 169.199219 158.0625 168.570312 160.695312 167.703125 162.441406 C 166.015625 165.828125 164.15625 169.164062 162.105469 172.378906 C 160.078125 175.601562 157.835938 178.707031 155.398438 181.628906 C 154.941406 182.203125 154.097656 182.285156 153.515625 181.816406 C 152.9375 181.34375 152.867188 180.5 153.324219 179.925781 C 155.664062 177.082031 157.8125 174.058594 159.789062 170.917969 C 161.742188 167.769531 163.527344 164.507812 165.144531 161.195312 C 166.132812 159.152344 166.835938 155.902344 168.183594 153.492188 C 168.933594 152.148438 169.875 151.046875 171.105469 150.375 C 172.238281 149.742188 173.300781 149.667969 174.289062 149.910156 C 175.566406 150.230469 176.726562 151.199219 177.667969 152.34375 C 179.234375 154.230469 180.609375 155.992188 181.359375 158.0625 C 181.863281 159.488281 182.082031 161.058594 181.863281 162.902344 C 181.40625 166.566406 180.585938 170.167969 179.546875 173.710938 C 177.980469 178.945312 175.953125 184.066406 173.976562 189.113281 C 173.179688 191.101562 172.382812 193.269531 171.34375 195.265625 C 170.574219 196.699219 169.703125 198.046875 168.667969 199.203125 C 168.546875 199.339844 167.582031 200.296875 166.929688 200.507812 C 166.160156 200.753906 165.484375 200.566406 164.953125 200.023438 C 164.636719 199.699219 164.375 199.179688 164.277344 198.515625 C 164.109375 197.535156 164.300781 195.996094 164.300781 195.433594 C 164.230469 193.980469 164.15625 192.519531 164.058594 191.0625 C 163.964844 189.613281 163.84375 188.167969 163.671875 186.726562 C 163.671875 186.660156 163.625 186.441406 163.578125 186.167969 C 163.3125 186.542969 163.09375 186.90625 162.925781 187.148438 C 161.597656 189.0625 160.488281 191.109375 159.210938 193.070312 C 158.65625 193.957031 158.050781 194.828125 157.402344 195.660156 C 156.316406 197.054688 154.988281 198.429688 153.566406 199.691406 C 152.140625 200.941406 150.644531 202.082031 149.175781 203.03125 C 148.835938 203.253906 148.5 203.394531 148.183594 203.488281 C 147.945312 203.566406 147.679688 203.613281 147.4375 203.644531 C 147.316406 203.660156 147.148438 203.578125 147.027344 203.773438 C 146.277344 204.917969 145.722656 206.148438 145.265625 207.4375 C 143.261719 213.035156 143.117188 219.5625 140.367188 224.878906 C 139.597656 226.359375 138.65625 227.484375 137.617188 228.414062 C 135.375 230.410156 132.578125 231.382812 129.898438 233.394531 C 128.183594 234.6875 126.570312 236.128906 125 237.636719 C 122.589844 239.949219 120.34375 242.433594 118.125 244.851562 C 117.015625 246.042969 115.953125 247.253906 114.890625 248.476562 C 113.277344 250.324219 111.707031 252.191406 110.117188 254.050781 L 108.113281 256.292969 C 107.800781 256.609375 107.21875 257.074219 106.835938 257.183594 C 106.160156 257.367188 105.507812 257.242188 104.976562 256.695312 C 104.6875 256.40625 104.398438 255.929688 104.347656 255.238281 C 104.300781 254.324219 104.929688 252.222656 105 251.734375 C 105.050781 251.203125 104.832031 250.207031 104.855469 249.496094 C 104.878906 248.992188 105 248.554688 105.167969 248.226562 C 105.726562 247.132812 106.570312 246.0625 107.582031 245.035156 C 109.488281 243.0625 112.019531 241.238281 113.636719 239.605469 C 119.453125 233.722656 124.785156 227.832031 129.054688 221.210938 C 131.875 216.859375 134.214844 212.183594 135.90625 206.980469 C 136.484375 205.242188 137.257812 203.382812 137.785156 201.5 C 137.859375 201.25 137.90625 201 137.980469 200.75 Z M 115.421875 242.605469 C 113.855469 244.078125 111.707031 245.695312 110.042969 247.421875 C 109.34375 248.140625 108.742188 248.878906 108.332031 249.636719 C 108.332031 249.796875 108.378906 250.339844 108.402344 250.679688 C 109.679688 249.179688 110.960938 247.675781 112.238281 246.191406 C 113.277344 244.984375 114.335938 243.785156 115.421875 242.605469 Z M 107.65625 254.4375 C 107.582031 254.785156 107.605469 255.03125 107.847656 255.015625 C 108.136719 255 107.871094 254.671875 107.65625 254.4375 Z M 135.351562 187.449219 C 135.398438 187.351562 135.542969 187.144531 135.398438 187.179688 C 135.300781 187.207031 135.300781 187.3125 135.351562 187.449219 Z M 135.351562 187.449219 " fill-opacity="1" fill-rule="evenodd"/></g><path fill="#000000" d="M 176.121094 164.277344 C 175.953125 163.828125 176.726562 163.527344 177.015625 163.402344 C 178.511719 162.765625 180.296875 162.433594 181.9375 162.628906 C 185.097656 163 186.761719 165.679688 187.605469 168.484375 C 188.667969 172.007812 188.570312 175.683594 188.28125 179.308594 C 188.160156 181.011719 187.847656 182.734375 187.847656 184.449219 C 187.847656 184.511719 187.75 185.910156 188.328125 185.621094 C 189.847656 184.871094 190.839844 180.859375 191.371094 179.535156 C 192.984375 175.523438 194.144531 169.648438 197.328125 166.503906 C 198.460938 165.367188 200.753906 165.589844 202.203125 165.28125 C 205.894531 164.488281 209.4375 162.886719 212.863281 161.371094 C 213.46875 161.101562 215.132812 160.621094 215.589844 160.007812 C 215.761719 159.804688 215.132812 159.75 214.890625 159.734375 C 213.347656 159.621094 211.78125 159.675781 210.234375 159.695312 C 209.511719 159.707031 208.765625 159.71875 208.015625 159.734375 C 206.160156 159.761719 199.886719 160.753906 200.535156 157.09375 C 201.355469 152.515625 205.941406 148.578125 208.328125 144.769531 C 211.464844 139.761719 212.648438 134.253906 212.839844 128.398438 C 212.914062 126.351562 213.011719 124.21875 212.9375 122.175781 C 212.914062 121.65625 212.984375 120.792969 212.503906 120.433594 C 211.441406 119.648438 209.65625 122.570312 209.269531 123.054688 C 206.160156 126.890625 203.023438 130.703125 199.835938 134.464844 C 191.007812 144.832031 182.175781 154.941406 170.667969 162.4375 " fill-opacity="1" fill-rule="nonzero"/><path fill="#000000" d="M 176.796875 164.210938 C 176.847656 164.523438 176.652344 164.824219 176.339844 164.933594 C 175.976562 165.058594 175.589844 164.867188 175.445312 164.507812 C 175.300781 164.121094 175.398438 163.765625 175.664062 163.453125 C 175.90625 163.125 176.460938 162.863281 176.726562 162.742188 C 177.546875 162.390625 178.414062 162.121094 179.308594 161.957031 C 180.222656 161.789062 181.140625 161.746094 182.03125 161.832031 C 183.480469 161.980469 184.664062 162.5625 185.628906 163.402344 C 187.003906 164.605469 187.917969 166.378906 188.5 168.21875 C 188.980469 169.683594 189.246094 171.179688 189.390625 172.691406 C 189.609375 174.910156 189.535156 177.160156 189.390625 179.394531 C 189.34375 180.285156 189.222656 181.183594 189.148438 182.082031 C 189.585938 180.890625 189.921875 179.671875 190.164062 179.050781 C 191.25 176.234375 192.117188 172.523438 193.589844 169.4375 C 194.335938 167.921875 195.207031 166.550781 196.265625 165.460938 C 196.796875 164.929688 197.472656 164.578125 198.246094 164.347656 C 199.425781 163.996094 200.851562 164.015625 201.863281 163.785156 C 203.289062 163.46875 204.664062 163.019531 206.011719 162.515625 C 206.929688 162.175781 207.824219 161.808594 208.714844 161.425781 L 208.039062 161.441406 C 206.640625 161.46875 202.902344 161.886719 200.898438 160.925781 C 199.355469 160.191406 198.4375 158.925781 198.824219 156.785156 C 199.113281 155.171875 199.789062 153.617188 200.707031 152.125 C 202.492188 149.191406 205.191406 146.488281 206.859375 143.84375 C 208.328125 141.496094 209.34375 139.027344 210.019531 136.460938 C 210.695312 133.847656 211.03125 131.136719 211.152344 128.339844 L 211.222656 123.175781 C 210.910156 123.589844 210.695312 123.949219 210.574219 124.09375 L 201.042969 135.492188 C 195.664062 141.726562 190.308594 147.867188 184.347656 153.398438 C 180.34375 157.113281 176.097656 160.546875 171.394531 163.558594 C 170.789062 163.964844 169.945312 163.789062 169.535156 163.171875 C 169.125 162.550781 169.320312 161.722656 169.921875 161.3125 C 174.433594 158.335938 178.511719 154.945312 182.347656 151.296875 C 188.160156 145.769531 193.394531 139.648438 198.605469 133.4375 L 207.96875 122.011719 C 208.328125 121.566406 209.753906 119.5 210.910156 118.917969 C 211.851562 118.457031 212.746094 118.523438 213.515625 119.09375 C 213.925781 119.40625 214.214844 119.835938 214.410156 120.347656 C 214.601562 120.90625 214.601562 121.621094 214.625 122.117188 C 214.652344 122.960938 214.652344 123.824219 214.652344 124.6875 C 214.652344 125.949219 214.601562 127.21875 214.554688 128.457031 C 214.457031 131.507812 214.121094 134.472656 213.371094 137.328125 C 212.625 140.238281 211.488281 143.03125 209.824219 145.695312 C 208.183594 148.328125 205.484375 151.019531 203.699219 153.941406 C 203.023438 155.054688 202.46875 156.199219 202.25 157.402344 C 202.25 157.515625 202.203125 157.605469 202.226562 157.675781 C 202.320312 157.792969 202.46875 157.828125 202.636719 157.882812 C 202.925781 157.980469 203.261719 158.042969 203.625 158.085938 C 205.242188 158.269531 207.125 158.03125 207.992188 158.023438 L 210.210938 158 L 215.011719 158.066406 C 215.421875 158.101562 216.21875 158.289062 216.507812 158.496094 C 216.917969 158.769531 217.109375 159.117188 217.230469 159.457031 C 217.351562 159.910156 217.375 160.445312 216.917969 161.011719 C 216.652344 161.359375 216.195312 161.722656 215.640625 162.015625 C 214.914062 162.382812 213.976562 162.675781 213.539062 162.863281 C 211.441406 163.769531 209.292969 164.710938 207.097656 165.476562 C 205.601562 166.011719 204.058594 166.460938 202.515625 166.777344 C 201.671875 166.953125 200.488281 166.9375 199.453125 167.132812 C 199.042969 167.210938 198.632812 167.285156 198.367188 167.550781 C 197.183594 168.6875 196.316406 170.25 195.589844 171.929688 C 194.410156 174.636719 193.566406 177.65625 192.574219 180.019531 C 192.191406 180.929688 191.585938 183.082031 190.742188 184.621094 C 190.210938 185.613281 189.558594 186.371094 188.882812 186.695312 C 188.183594 187.023438 187.679688 186.863281 187.292969 186.527344 C 187.050781 186.324219 186.832031 185.992188 186.738281 185.5625 C 186.640625 185.109375 186.664062 184.496094 186.664062 184.449219 C 186.664062 183.898438 186.714844 183.351562 186.761719 182.804688 C 186.882812 181.609375 187.074219 180.414062 187.195312 179.226562 C 187.390625 177.105469 187.507812 174.96875 187.363281 172.855469 C 187.292969 171.472656 187.074219 170.105469 186.6875 168.757812 C 186.328125 167.472656 185.796875 166.207031 184.976562 165.222656 C 184.226562 164.289062 183.214844 163.601562 181.839844 163.421875 C 181.117188 163.320312 180.320312 163.335938 179.546875 163.453125 C 178.777344 163.566406 178.003906 163.777344 177.304688 164.0625 C 177.207031 164.097656 176.941406 164.148438 176.796875 164.210938 Z M 176.796875 164.214844 C 176.726562 164.25 176.699219 164.289062 176.75 164.335938 C 176.796875 164.378906 176.796875 164.304688 176.796875 164.214844 Z M 176.796875 164.214844 " fill-opacity="1" fill-rule="evenodd"/><path fill="#000000" d="M 181.261719 151.5 C 180.921875 150.160156 179.886719 151.136719 179.1875 151.785156 C 178.847656 152.109375 178.488281 152.4375 178.171875 152.785156 C 177.761719 153.226562 177.351562 153.679688 176.992188 154.148438 C 176.242188 155.066406 173.203125 158.597656 174.84375 159.949219 C 176.292969 161.140625 179.257812 158.988281 180.390625 158.265625 C 181.261719 157.710938 182.128906 157.148438 182.972656 156.578125 C 183.9375 155.945312 184.855469 155.289062 185.796875 154.648438 " fill-opacity="1" fill-rule="nonzero"/><path fill="#000000" d="M 180.585938 151.671875 C 180.65625 151.707031 180.730469 151.71875 180.707031 151.671875 C 180.65625 151.605469 180.632812 151.597656 180.5625 151.625 C 180.539062 151.546875 180.488281 151.472656 180.464844 151.503906 C 180.417969 151.542969 180.464844 151.601562 180.539062 151.644531 C 180.34375 151.785156 180.078125 152.316406 179.886719 152.535156 L 179.042969 153.59375 L 178.050781 155.003906 C 177.785156 155.386719 177.230469 156.230469 176.726562 157.148438 C 176.507812 157.550781 176.027344 158.21875 175.953125 158.585938 C 175.929688 158.558594 175.882812 158.511719 175.882812 158.542969 C 175.855469 158.59375 175.882812 158.613281 175.929688 158.613281 C 175.929688 158.753906 175.953125 158.84375 176.097656 158.847656 C 176.195312 158.851562 176.050781 158.683594 175.976562 158.609375 C 176.097656 158.59375 176.316406 158.507812 176.4375 158.46875 C 176.796875 158.367188 177.160156 158.214844 177.496094 158.042969 C 178.316406 157.640625 179.066406 157.164062 179.5 156.898438 L 182.128906 155.332031 L 185.046875 153.542969 C 185.652344 153.125 186.496094 153.277344 186.90625 153.886719 C 187.339844 154.5 187.171875 155.332031 186.570312 155.75 L 183.816406 157.824219 L 181.261719 159.636719 C 180.417969 160.21875 178.582031 161.535156 176.992188 161.914062 C 175.738281 162.214844 174.601562 162.007812 173.734375 161.296875 C 172.671875 160.390625 172.359375 159.078125 172.839844 157.613281 C 173.128906 156.792969 173.636719 155.90625 174.242188 155.136719 C 174.890625 154.3125 175.589844 153.625 175.90625 153.285156 L 177.304688 151.980469 L 178.488281 151.035156 C 179.066406 150.609375 179.8125 150.074219 180.367188 150.027344 C 181.042969 149.980469 181.769531 150.113281 181.9375 151.324219 C 182.03125 151.691406 181.816406 152.074219 181.429688 152.167969 C 181.066406 152.265625 180.683594 152.042969 180.585938 151.671875 Z M 175.953125 158.585938 C 175.953125 158.589844 175.953125 158.59375 175.953125 158.601562 C 175.976562 158.601562 175.976562 158.605469 175.976562 158.609375 C 175.953125 158.613281 175.953125 158.613281 175.929688 158.613281 C 175.953125 158.605469 175.953125 158.59375 175.953125 158.585938 Z M 180.585938 151.671875 C 180.585938 151.667969 180.5625 151.65625 180.539062 151.644531 C 180.5625 151.636719 180.5625 151.628906 180.5625 151.625 C 180.585938 151.640625 180.585938 151.660156 180.585938 151.671875 Z M 180.585938 151.671875 " fill-opacity="1" fill-rule="evenodd"/><path fill="#000000" d="M 248.425781 170.46875 C 248.449219 169.894531 249.367188 171.167969 249.703125 171.632812 C 250.765625 173.105469 251.5625 174.683594 252.308594 176.335938 C 252.769531 177.359375 253.445312 179.042969 253.757812 180.136719 C 254.964844 184.390625 252.695312 186.347656 249.703125 189.277344 C 237.304688 201.519531 224.855469 213.183594 215.46875 228.03125 C 212.671875 232.433594 209.996094 236.949219 207.871094 241.714844 C 206.90625 243.851562 206.039062 246.058594 205.410156 248.308594 C 205.265625 248.765625 205.167969 249.222656 205.074219 249.6875 C 205 250.046875 204.710938 250.878906 205.074219 250.785156 C 206.0625 250.519531 207.773438 246.851562 208.207031 246.207031 C 211.222656 241.570312 214.265625 236.429688 218.4375 232.714844 C 220.488281 230.898438 220.511719 233.136719 220.152344 234.730469 C 219.957031 235.597656 219.765625 236.238281 219.546875 237.082031 C 219.453125 237.390625 219.066406 238.160156 219.355469 238.019531 C 220.222656 237.578125 221.429688 234.558594 221.886719 233.8125 C 224.613281 229.457031 226.953125 224.882812 229.679688 220.554688 C 231.152344 218.21875 232.839844 215.410156 235.203125 213.851562 C 236.628906 212.910156 238.460938 212.945312 240.007812 212.332031 C 242.78125 211.253906 244.953125 209.144531 247.050781 207.132812 C 249.582031 204.710938 251.949219 202.105469 254.457031 199.65625 C 255.445312 198.691406 257.015625 196.71875 258.390625 196.257812 C 258.484375 196.230469 256.363281 199.792969 256.21875 200.011719 C 255.132812 201.691406 254.070312 203.394531 253.082031 205.136719 C 252.863281 205.535156 252.648438 205.929688 252.429688 206.335938 C 252.308594 206.59375 251.925781 207.273438 252.1875 207.152344 C 252.792969 206.867188 253.613281 205.53125 253.949219 205.101562 C 255.785156 202.746094 257.519531 200.300781 259.332031 197.921875 C 259.886719 197.183594 261.597656 194.246094 262.875 194.300781 C 263.527344 194.324219 263.480469 195.8125 263.480469 196.066406 C 263.527344 198.773438 263.140625 201.480469 263.046875 204.179688 C 263.046875 204.1875 263.117188 207.203125 263.167969 207.152344 C 263.839844 206.574219 264.035156 204 264.226562 203.28125 C 264.832031 201.082031 265.554688 198.90625 266.398438 196.792969 C 269.367188 189.460938 274.820312 183.941406 278.628906 177.167969 C 279.570312 175.511719 280.367188 173.804688 281.1875 172.09375 C 281.40625 171.648438 281.910156 171.25 281.839844 170.769531 C 281.765625 170.378906 281.089844 171.066406 280.730469 171.226562 C 279.089844 171.949219 277.664062 172.929688 276.265625 174.019531 C 272.742188 176.746094 269.078125 181.597656 264.589844 182.628906 " fill-opacity="1" fill-rule="nonzero"/><path fill="#000000" d="M 248.59375 171.140625 C 248.523438 171.15625 248.449219 171.164062 248.378906 171.160156 C 247.992188 171.140625 247.703125 170.8125 247.726562 170.429688 C 247.75 169.730469 248.183594 169.609375 248.570312 169.625 C 248.738281 169.636719 249.027344 169.746094 249.292969 170.019531 C 249.632812 170.335938 250.066406 170.925781 250.285156 171.21875 C 250.839844 171.972656 251.320312 172.757812 251.777344 173.5625 C 252.238281 174.363281 252.625 175.183594 253.007812 176.023438 C 253.300781 176.640625 253.660156 177.488281 254 178.316406 C 254.214844 178.890625 254.410156 179.453125 254.554688 179.914062 C 255.109375 181.816406 255.011719 183.316406 254.53125 184.640625 C 253.828125 186.519531 252.238281 188.050781 250.378906 189.9375 C 242.996094 197.34375 235.613281 204.542969 228.910156 212.335938 C 224.46875 217.480469 220.320312 222.882812 216.652344 228.78125 C 215.277344 230.972656 213.949219 233.191406 212.695312 235.453125 C 211.925781 236.835938 211.199219 238.230469 210.5 239.648438 C 211.175781 238.664062 211.851562 237.691406 212.550781 236.746094 C 214 234.824219 215.566406 233.023438 217.304688 231.453125 C 219.113281 229.824219 220.441406 230.304688 221.089844 230.847656 C 221.210938 230.941406 221.308594 231.054688 221.429688 231.183594 L 228.207031 219.621094 C 229.125 218.167969 230.113281 216.535156 231.296875 215.113281 C 232.164062 214.054688 233.15625 213.109375 234.238281 212.390625 C 234.820312 212.019531 235.421875 211.753906 236.050781 211.554688 C 237.136719 211.214844 238.316406 211.121094 239.378906 210.707031 C 240.34375 210.332031 241.210938 209.808594 242.058594 209.207031 C 243.40625 208.21875 244.636719 207.03125 245.84375 205.882812 L 253.25 198.429688 C 253.949219 197.742188 254.941406 196.570312 255.976562 195.746094 C 256.605469 195.234375 257.253906 194.839844 257.859375 194.640625 C 258.558594 194.40625 259.089844 194.605469 259.476562 194.925781 C 259.933594 194.34375 260.441406 193.769531 260.945312 193.394531 C 261.621094 192.875 262.320312 192.644531 262.949219 192.675781 C 263.625 192.703125 264.15625 193.007812 264.542969 193.566406 C 264.976562 194.164062 265.070312 195.402344 265.097656 195.894531 C 266.011719 193.75 267.097656 191.753906 268.328125 189.835938 C 271.199219 185.285156 274.675781 181.179688 277.351562 176.457031 L 278.558594 174.078125 C 278.074219 174.410156 277.59375 174.761719 277.132812 175.125 C 274.675781 177.011719 272.140625 179.910156 269.316406 181.863281 C 267.917969 182.835938 266.449219 183.585938 264.878906 183.9375 C 264.15625 184.105469 263.433594 183.652344 263.285156 182.933594 C 263.117188 182.210938 263.550781 181.492188 264.277344 181.324219 C 265.507812 181.039062 266.664062 180.421875 267.75 179.644531 C 270.523438 177.695312 272.984375 174.796875 275.398438 172.914062 C 276.121094 172.339844 276.871094 171.792969 277.640625 171.296875 C 278.4375 170.78125 279.257812 170.320312 280.152344 169.925781 C 280.441406 169.789062 280.972656 169.367188 281.234375 169.285156 C 281.695312 169.160156 282.054688 169.226562 282.347656 169.359375 C 282.757812 169.535156 283.117188 169.855469 283.238281 170.53125 C 283.285156 170.851562 283.285156 171.15625 283.191406 171.457031 C 283.070312 171.886719 282.683594 172.292969 282.492188 172.710938 L 279.910156 177.878906 C 277.253906 182.664062 273.757812 186.832031 270.910156 191.441406 C 269.753906 193.316406 268.691406 195.265625 267.847656 197.371094 C 267.4375 198.398438 267.050781 199.445312 266.710938 200.496094 C 266.351562 201.554688 266.039062 202.621094 265.746094 203.695312 C 265.601562 204.265625 265.433594 205.957031 265.070312 206.992188 C 264.832031 207.613281 264.515625 208.074219 264.203125 208.351562 C 263.550781 208.914062 262.902344 208.902344 262.25 208.457031 C 262.128906 208.371094 261.71875 208.101562 261.597656 207.425781 C 261.574219 207.351562 261.550781 207.1875 261.550781 206.960938 C 261.476562 206.164062 261.453125 204.117188 261.453125 204.117188 C 261.527344 202.21875 261.71875 200.316406 261.816406 198.417969 C 261.839844 198.003906 261.839844 197.589844 261.863281 197.179688 C 261.332031 197.890625 260.875 198.605469 260.632812 198.917969 L 255.253906 206.128906 C 255.011719 206.4375 254.53125 207.1875 254.070312 207.730469 C 253.660156 208.171875 253.25 208.5 252.914062 208.664062 C 252.261719 208.972656 251.777344 208.835938 251.464844 208.710938 C 251.03125 208.523438 250.667969 208.191406 250.5 207.664062 C 250.429688 207.441406 250.378906 207.101562 250.476562 206.671875 C 250.523438 206.453125 250.695312 206.058594 250.839844 205.773438 L 248.257812 208.386719 C 246.953125 209.644531 245.601562 210.9375 244.105469 212.019531 C 243.046875 212.796875 241.886719 213.46875 240.65625 213.957031 C 239.523438 214.398438 238.269531 214.527344 237.109375 214.890625 C 236.773438 214.996094 236.460938 215.121094 236.171875 215.3125 C 235.375 215.847656 234.648438 216.5625 234 217.34375 C 232.9375 218.652344 232.019531 220.152344 231.175781 221.488281 L 223.382812 234.726562 C 223.023438 235.304688 222.226562 237.210938 221.453125 238.296875 C 221.019531 238.929688 220.511719 239.363281 220.125 239.5625 C 219.5 239.871094 219.015625 239.769531 218.703125 239.660156 C 218.222656 239.496094 217.859375 239.1875 217.667969 238.679688 C 217.570312 238.449219 217.472656 238.085938 217.546875 237.625 C 217.59375 237.375 217.8125 236.875 217.882812 236.628906 L 218.246094 235.234375 C 217.183594 236.328125 216.171875 237.519531 215.230469 238.757812 C 213.179688 241.4375 211.371094 244.351562 209.558594 247.085938 C 209.222656 247.585938 208.113281 249.839844 207.148438 251.046875 C 206.566406 251.773438 205.941406 252.191406 205.484375 252.3125 C 204.78125 252.496094 204.300781 252.289062 203.9375 251.992188 C 203.671875 251.769531 203.433594 251.441406 203.335938 250.964844 C 203.261719 250.597656 203.433594 249.792969 203.503906 249.382812 L 203.890625 247.878906 C 204.226562 246.714844 204.636719 245.5625 205.074219 244.425781 C 205.507812 243.300781 205.988281 242.1875 206.472656 241.097656 C 207.582031 238.679688 208.8125 236.328125 210.140625 234.019531 C 211.441406 231.734375 212.839844 229.492188 214.265625 227.28125 C 218.101562 221.324219 222.417969 215.882812 227.050781 210.71875 C 233.949219 203.007812 241.5 195.917969 249.054688 188.617188 C 250.765625 186.972656 252.261719 185.6875 252.914062 184.027344 C 253.324219 183.003906 253.371094 181.847656 252.984375 180.359375 C 252.863281 179.933594 252.671875 179.410156 252.480469 178.878906 C 252.1875 178.078125 251.851562 177.25 251.609375 176.652344 C 251.25 175.839844 250.886719 175.042969 250.476562 174.273438 C 250.066406 173.507812 249.632812 172.769531 249.125 172.050781 C 249.003906 171.882812 248.789062 171.417969 248.59375 171.140625 Z M 248.496094 171.035156 C 248.402344 170.921875 248.328125 170.875 248.257812 170.957031 C 248.160156 171.082031 248.328125 171.070312 248.496094 171.035156 Z M 262.371094 205.960938 C 262.25 205.929688 262.152344 205.925781 262.128906 205.953125 C 262.082031 205.988281 261.9375 206.050781 262.007812 206.082031 C 262.175781 206.175781 262.296875 206.113281 262.371094 205.960938 Z M 262.371094 205.960938 " fill-opacity="1" fill-rule="evenodd"/><path fill="#000000" d="M 279.523438 170.785156 C 278.316406 170.800781 279.59375 174.617188 279.667969 175.15625 C 280.390625 180.179688 280.753906 185.449219 282.683594 190.203125 C 282.875 190.679688 283.09375 191.136719 283.335938 191.59375 C 283.480469 191.914062 283.722656 192.285156 283.960938 192.558594 C 285.578125 194.484375 286.664062 190.542969 287.917969 191.410156 C 288.640625 191.917969 288.933594 193.179688 289.222656 193.921875 C 289.753906 195.261719 290.257812 196.796875 291.296875 197.851562 C 292.261719 198.855469 293.734375 198.898438 294.964844 199.464844 C 296.675781 200.265625 298.074219 201.667969 299.183594 203.171875 C 302.949219 208.277344 303.578125 214.765625 305.363281 220.660156 C 305.964844 222.65625 306.664062 226 308.257812 227.527344 C 308.835938 228.089844 308.738281 225.945312 308.667969 225.136719 C 308.402344 222.445312 307.96875 219.773438 307.628906 217.089844 C 307.605469 216.90625 307.316406 214.566406 307.292969 214.191406 C 307.242188 213.839844 307.027344 213.246094 307.363281 213.128906 C 307.824219 212.976562 308.933594 214.476562 309.027344 214.59375 C 310.28125 216.019531 311.464844 217.511719 312.648438 219.011719 C 316.023438 223.382812 319.066406 228.027344 322.464844 232.398438 C 323.457031 233.691406 324.492188 234.953125 325.578125 236.171875 C 325.746094 236.359375 326.496094 237.414062 326.832031 237.519531 C 327.027344 237.578125 326.6875 237.160156 326.589844 236.988281 C 326.179688 236.253906 326.085938 236.042969 325.652344 235.238281 C 324.804688 233.636719 324.832031 233.679688 324.011719 232.039062 C 321.789062 227.636719 319.59375 223.214844 317.039062 219 C 312.671875 211.789062 306.375 206.246094 301.71875 199.242188 C 299.621094 196.089844 298.800781 192.558594 297.039062 189.273438 C 295.902344 187.117188 294.144531 185.472656 292.453125 183.734375 " fill-opacity="1" fill-rule="nonzero"/><path fill="#000000" d="M 279.644531 171.46875 C 279.644531 171.699219 279.765625 172.214844 279.8125 172.5625 C 280.003906 173.617188 280.390625 174.765625 280.441406 175.042969 C 280.921875 178.035156 281.285156 181.113281 281.910156 184.113281 C 282.320312 186.066406 282.851562 187.984375 283.648438 189.820312 L 284.277344 191.128906 L 284.78125 191.867188 C 284.808594 191.902344 284.855469 191.933594 284.878906 191.964844 C 284.925781 191.925781 285 191.875 285.046875 191.832031 C 285.242188 191.65625 285.433594 191.449219 285.601562 191.25 C 286.15625 190.664062 286.761719 190.238281 287.316406 190.15625 C 287.726562 190.101562 288.136719 190.179688 288.570312 190.46875 C 288.933594 190.710938 289.246094 191.0625 289.488281 191.46875 C 289.871094 192.105469 290.113281 192.929688 290.332031 193.484375 C 290.644531 194.246094 290.957031 195.070312 291.367188 195.828125 C 291.585938 196.246094 291.851562 196.640625 292.1875 196.972656 C 292.453125 197.234375 292.792969 197.371094 293.105469 197.492188 C 293.902344 197.773438 294.746094 197.929688 295.519531 198.273438 C 296.507812 198.714844 297.398438 199.335938 298.21875 200.054688 C 298.992188 200.746094 299.691406 201.535156 300.320312 202.351562 C 301.9375 204.5 303.019531 206.890625 303.890625 209.386719 C 304.636719 211.558594 305.167969 213.816406 305.746094 216.054688 L 305.53125 214.351562 C 305.507812 213.859375 305.410156 213.105469 305.578125 212.679688 C 305.769531 212.121094 306.15625 211.703125 306.785156 211.484375 C 307.195312 211.339844 307.703125 211.3125 308.257812 211.546875 C 308.980469 211.839844 310.210938 213.300781 310.332031 213.441406 L 314.023438 217.941406 L 316.652344 221.550781 C 316.339844 220.972656 316 220.398438 315.664062 219.828125 C 314.820312 218.4375 313.902344 217.105469 312.960938 215.8125 C 308.957031 210.425781 304.203125 205.703125 300.488281 200.046875 C 299.835938 199.042969 299.304688 198.007812 298.824219 196.949219 C 297.761719 194.628906 297.015625 192.214844 295.808594 189.921875 C 295.398438 189.140625 294.914062 188.433594 294.359375 187.765625 C 293.46875 186.679688 292.453125 185.6875 291.488281 184.660156 C 290.984375 184.121094 291.007812 183.273438 291.539062 182.765625 C 292.070312 182.253906 292.9375 182.273438 293.445312 182.808594 C 294.480469 183.871094 295.519531 184.898438 296.484375 186.023438 C 297.160156 186.828125 297.761719 187.679688 298.269531 188.625 C 299.523438 190.945312 300.34375 193.390625 301.453125 195.738281 C 301.886719 196.660156 302.371094 197.566406 302.949219 198.4375 C 306.6875 204 311.488281 208.617188 315.492188 213.914062 C 316.53125 215.28125 317.519531 216.691406 318.414062 218.167969 C 319.476562 219.871094 320.464844 221.613281 321.40625 223.367188 C 322.828125 225.980469 324.179688 228.640625 325.507812 231.289062 L 327.148438 234.449219 L 328.085938 236.175781 C 328.160156 236.324219 328.375 236.625 328.449219 236.777344 C 328.59375 237.15625 328.59375 237.484375 328.570312 237.699219 C 328.523438 238.292969 328.207031 238.699219 327.773438 238.96875 C 327.484375 239.140625 327.027344 239.363281 326.328125 239.148438 C 326.0625 239.070312 325.699219 238.875 325.359375 238.539062 C 324.953125 238.160156 324.445312 237.464844 324.300781 237.308594 L 321.089844 233.453125 L 311.246094 220.085938 L 309.488281 217.917969 L 310.355469 224.980469 C 310.402344 225.695312 310.429688 227.226562 310.210938 227.875 C 310.042969 228.433594 309.726562 228.777344 309.4375 228.96875 C 308.859375 229.375 308.015625 229.640625 307.074219 228.726562 C 306.472656 228.113281 305.941406 227.296875 305.507812 226.359375 C 304.734375 224.660156 304.25 222.5625 303.816406 221.128906 C 302.78125 217.589844 302.175781 213.847656 301.066406 210.308594 C 300.34375 208.082031 299.449219 205.933594 298.074219 203.996094 C 297.570312 203.308594 297.015625 202.640625 296.386719 202.054688 C 295.785156 201.5 295.132812 201.011719 294.410156 200.65625 C 293.5625 200.246094 292.574219 200.097656 291.753906 199.695312 C 291.25 199.457031 290.789062 199.15625 290.378906 198.734375 C 289.898438 198.214844 289.488281 197.613281 289.171875 196.960938 C 288.738281 196.117188 288.425781 195.203125 288.113281 194.355469 C 287.96875 193.988281 287.847656 193.496094 287.652344 193.027344 C 287.582031 192.878906 287.53125 192.726562 287.460938 192.597656 C 287.339844 192.714844 287.171875 192.855469 287.074219 192.96875 C 286.617188 193.4375 286.109375 193.871094 285.601562 194.050781 C 284.855469 194.328125 283.988281 194.308594 283.140625 193.246094 L 282.371094 192.0625 L 281.71875 190.585938 C 280.945312 188.613281 280.441406 186.558594 280.078125 184.46875 C 279.523438 181.417969 279.28125 178.296875 278.894531 175.261719 C 278.847656 174.847656 278.171875 172.566406 278.316406 171.394531 C 278.414062 170.550781 278.847656 170.089844 279.523438 170.09375 C 279.910156 170.085938 280.222656 170.394531 280.222656 170.777344 C 280.222656 171.125 279.980469 171.414062 279.644531 171.46875 Z M 307.171875 226.402344 C 306.855469 226.601562 306.664062 226.808594 307 226.902344 C 307.171875 226.949219 307.195312 226.714844 307.171875 226.402344 Z M 279.644531 171.460938 C 279.742188 171.4375 279.8125 171.394531 279.742188 171.367188 C 279.691406 171.328125 279.644531 171.367188 279.644531 171.460938 Z M 279.644531 171.460938 " fill-opacity="1" fill-rule="evenodd"/><path fill="#000000" d="M 62.734375 205.527344 C 62.515625 205.273438 61.914062 208.542969 61.839844 208.800781 C 61.238281 211.257812 60.03125 214.023438 60.199219 216.589844 C 60.222656 217.335938 61.359375 217.769531 61.117188 218.445312 C 60.515625 220.128906 58.101562 221.59375 56.847656 222.78125 C 56.339844 223.277344 55.617188 223.972656 55.6875 224.769531 C 55.832031 226.359375 58.898438 226.976562 59.984375 227.738281 C 60.34375 228.011719 61.261719 228.730469 60.804688 229.308594 C 60.394531 229.851562 59.332031 229.980469 58.753906 230.117188 C 56.824219 230.585938 54.894531 231.007812 53.011719 231.6875 C 48.789062 233.210938 44.90625 235.578125 41.359375 238.296875 C 39.378906 239.804688 37.425781 241.410156 35.714844 243.210938 C 35.0625 243.890625 34.457031 244.589844 33.929688 245.359375 C 33.78125 245.566406 33.566406 245.894531 33.421875 246.113281 C 33.347656 246.242188 33.082031 246.621094 33.203125 246.519531 C 34.144531 245.734375 34.722656 243.613281 35.230469 242.59375 C 36.703125 239.695312 38.320312 236.910156 40.078125 234.167969 C 46.0625 224.800781 52.792969 215.738281 60.128906 207.378906 " fill-opacity="1" fill-rule="nonzero"/><g clip-path="url(#6fa53f7778)"><path fill="#000000" d="M 32.792969 243.9375 C 33.132812 243.15625 33.421875 242.34375 33.6875 241.820312 C 34.433594 240.34375 35.230469 238.898438 36.074219 237.472656 C 36.894531 236.054688 37.765625 234.660156 38.65625 233.273438 C 41.71875 228.582031 44.953125 223.96875 48.355469 219.484375 C 51.78125 215.007812 55.375 210.664062 59.113281 206.496094 C 59.597656 205.9375 60.441406 205.882812 60.996094 206.371094 C 61.238281 206.570312 61.382812 206.824219 61.429688 207.097656 C 61.574219 206.503906 61.746094 205.882812 61.890625 205.542969 C 62.25 204.613281 63.046875 204.824219 63.265625 205.078125 C 63.480469 205.332031 63.480469 205.695312 63.289062 205.945312 C 63.265625 205.9375 63.265625 205.929688 63.238281 205.925781 C 63.214844 205.914062 63.214844 205.976562 63.214844 206.011719 C 63.214844 206.019531 63.214844 206.023438 63.214844 206.027344 C 63.191406 206.039062 63.191406 206.046875 63.167969 206.054688 C 63.144531 206.082031 63.121094 206.101562 63.09375 206.121094 C 63.121094 206.109375 63.167969 206.09375 63.191406 206.078125 C 62.949219 206.863281 62.660156 208.792969 62.613281 208.988281 C 62.300781 210.464844 61.769531 212.046875 61.429688 213.632812 C 61.238281 214.589844 61.117188 215.546875 61.1875 216.46875 C 61.1875 216.46875 61.261719 216.546875 61.285156 216.585938 C 61.382812 216.699219 61.503906 216.804688 61.597656 216.910156 C 61.816406 217.140625 61.984375 217.386719 62.082031 217.628906 C 62.25 217.996094 62.273438 218.382812 62.128906 218.8125 C 61.914062 219.472656 61.453125 220.113281 60.925781 220.726562 C 59.933594 221.824219 58.558594 222.820312 57.691406 223.667969 C 57.523438 223.835938 57.328125 224.03125 57.160156 224.25 C 57.0625 224.378906 56.96875 224.503906 56.96875 224.65625 C 56.992188 224.757812 57.113281 224.789062 57.183594 224.859375 C 57.328125 224.980469 57.523438 225.082031 57.714844 225.183594 C 58.777344 225.75 60.128906 226.152344 60.78125 226.601562 C 61.238281 226.902344 62.007812 227.609375 62.25 228.292969 C 62.492188 228.925781 62.417969 229.574219 61.9375 230.195312 C 61.695312 230.535156 61.308594 230.8125 60.875 231.023438 C 60.296875 231.304688 59.574219 231.4375 59.089844 231.558594 C 57.957031 231.855469 56.824219 232.140625 55.6875 232.472656 C 54.964844 232.683594 54.265625 232.914062 53.542969 233.179688 C 51.539062 233.9375 49.632812 234.90625 47.777344 236 C 45.917969 237.105469 44.132812 238.347656 42.421875 239.675781 C 41.453125 240.414062 40.515625 241.175781 39.574219 241.96875 C 38.679688 242.746094 37.8125 243.558594 36.992188 244.414062 L 35.6875 245.976562 C 35.640625 246.074219 35.59375 246.171875 35.542969 246.269531 C 35.183594 246.925781 34.773438 247.484375 34.3125 247.859375 C 33.808594 248.289062 33.371094 248.277344 33.179688 248.277344 C 32.457031 248.285156 31.972656 247.945312 31.660156 247.414062 C 31.539062 247.179688 31.273438 246.683594 31.515625 245.976562 C 31.5625 245.847656 31.828125 245.363281 31.949219 245.171875 L 32.480469 244.371094 C 32.578125 244.226562 32.699219 244.078125 32.792969 243.9375 Z M 63.289062 205.945312 C 63.335938 205.992188 63.289062 206.039062 63.191406 206.078125 C 63.191406 206.0625 63.214844 206.042969 63.214844 206.027344 C 63.238281 206 63.265625 205.976562 63.289062 205.945312 Z M 62.539062 206.195312 C 62.46875 206.175781 62.417969 206.144531 62.347656 206.105469 C 62.417969 206.148438 62.492188 206.179688 62.539062 206.195312 Z M 61.164062 208.222656 C 61.164062 208.234375 61.140625 208.25 61.140625 208.261719 C 57.523438 212.453125 54.097656 216.816406 50.816406 221.300781 C 47.535156 225.78125 44.421875 230.382812 41.480469 235.0625 C 41.117188 235.652344 40.753906 236.246094 40.394531 236.84375 C 42.203125 235.480469 44.109375 234.203125 46.085938 233.089844 C 48.113281 231.941406 50.261719 230.960938 52.457031 230.195312 C 53.253906 229.921875 54.074219 229.691406 54.867188 229.484375 C 56.027344 229.183594 57.207031 228.941406 58.390625 228.675781 C 58.488281 228.660156 58.582031 228.632812 58.703125 228.605469 C 57.910156 228.175781 56.652344 227.742188 55.832031 227.128906 C 55.011719 226.519531 54.484375 225.761719 54.410156 224.886719 C 54.386719 224.300781 54.53125 223.742188 54.820312 223.238281 C 55.132812 222.722656 55.617188 222.257812 56.003906 221.894531 C 56.773438 221.210938 57.933594 220.441406 58.898438 219.582031 C 59.355469 219.167969 59.789062 218.75 60.03125 218.289062 C 59.765625 217.972656 59.1875 217.183594 59.1875 216.65625 C 59.136719 215.792969 59.234375 214.914062 59.429688 214.03125 C 59.839844 212.183594 60.609375 210.328125 61.070312 208.613281 C 61.09375 208.566406 61.117188 208.421875 61.164062 208.222656 Z M 59.429688 229.042969 C 59.402344 229.226562 59.429688 229.351562 59.574219 229.277344 C 59.667969 229.226562 59.550781 229.128906 59.429688 229.042969 Z M 59.429688 229.042969 " fill-opacity="1" fill-rule="evenodd"/></g></svg>