<?xml version="1.0" encoding="UTF-8"?>
<svg version="1.1" xmlns="http://www.w3.org/2000/svg" width="1200" height="1200" viewBox="0 0 1200 1200" preserveAspectRatio="xMidYMid meet">
<g transform="translate(0.000000,1200.000000) scale(0.100000,-0.100000)"
fill="#B1801D" stroke="none">
<path d="M5637 9605 c-25 -27 -119 -55 -230 -69 -33 -4 -90 -23 -130 -42 -39
-19 -83 -34 -97 -34 -49 0 -88 -18 -128 -61 -23 -24 -42 -50 -42 -57 0 -7 -12
-24 -26 -37 -15 -14 -30 -43 -35 -67 -6 -24 -21 -59 -34 -78 -13 -19 -28 -53
-34 -75 -6 -22 -18 -49 -26 -59 -9 -11 -15 -42 -15 -70 -1 -35 -7 -58 -19 -73
-24 -29 -28 -29 -84 7 -44 28 -152 53 -227 52 -36 0 -124 -21 -205 -47 -38
-13 -97 -29 -130 -36 -33 -7 -85 -25 -115 -39 -30 -15 -75 -31 -100 -35 -25
-4 -54 -15 -65 -25 -11 -9 -42 -23 -70 -29 -109 -27 -208 -96 -221 -155 -4
-17 -14 -42 -23 -55 -26 -40 -39 -144 -41 -316 0 -88 -5 -179 -9 -203 -5 -23
-5 -99 0 -168 4 -69 6 -131 3 -139 -8 -19 -33 -23 -97 -15 -31 5 -150 9 -264
11 -236 3 -230 5 -340 -90 l-53 -45 0 -248 c0 -276 0 -277 67 -339 65 -61 103
-79 170 -79 87 0 94 -11 98 -147 2 -59 10 -142 19 -183 33 -158 27 -165 -137
-154 -118 7 -123 7 -203 3 -28 -2 -64 3 -80 9 -20 8 -43 10 -69 4 l-40 -8 0
-64 0 -65 65 1 c328 7 429 12 452 22 22 9 29 8 44 -9 14 -15 18 -41 20 -128 2
-100 30 -339 54 -472 5 -30 10 -73 10 -95 0 -21 7 -79 15 -129 8 -49 24 -182
35 -294 11 -112 27 -227 34 -255 8 -28 20 -107 26 -176 6 -69 20 -177 30 -240
22 -129 37 -258 44 -371 3 -41 12 -91 21 -111 8 -21 21 -112 30 -209 8 -95 22
-207 31 -248 9 -42 20 -128 24 -191 11 -144 18 -190 66 -456 2 -11 15 -33 29
-48 14 -15 37 -51 52 -79 17 -34 63 -89 137 -160 96 -93 124 -114 211 -157 55
-27 127 -56 161 -63 33 -8 76 -22 96 -31 41 -20 -107 -18 1923 -17 743 0 1379
-2 1415 -4 47 -4 72 -2 90 9 44 27 63 34 162 61 107 29 173 61 231 112 21 19
49 39 63 45 13 6 24 14 24 18 0 3 24 32 53 63 29 31 66 83 82 114 17 32 37 67
46 78 9 11 22 36 29 55 7 19 20 43 28 52 8 10 17 41 19 70 11 148 25 270 38
328 7 36 19 134 25 218 6 85 15 177 21 205 19 99 30 193 39 324 5 75 15 147
24 168 9 20 20 94 26 163 6 70 17 170 26 222 8 52 19 138 24 190 19 202 39
360 49 379 6 11 11 41 11 68 0 61 26 283 45 388 17 94 42 326 51 478 6 87 10
110 24 117 10 6 102 6 233 0 218 -9 286 -6 299 14 4 6 8 30 8 53 0 56 -21 68
-104 59 -34 -4 -134 -9 -224 -12 -222 -8 -223 -6 -182 187 22 100 26 171 15
231 -6 32 -4 38 21 55 21 13 43 17 83 15 51 -3 61 0 111 35 39 27 62 52 80 88
24 49 24 52 22 295 l-3 245 -54 50 c-93 86 -116 91 -372 83 -120 -4 -231 -8
-246 -9 -17 -1 -37 7 -49 19 -20 19 -20 21 -3 72 15 45 17 81 13 259 -4 156
-9 215 -21 241 -8 20 -19 84 -23 145 l-7 109 -71 68 c-50 48 -85 72 -121 84
-27 9 -79 37 -115 62 -35 25 -82 49 -104 54 -22 5 -58 22 -80 38 -22 17 -46
30 -54 30 -8 0 -58 22 -111 49 -152 77 -180 84 -254 66 -34 -9 -71 -20 -82
-25 -11 -5 -47 -21 -80 -35 -33 -15 -105 -49 -161 -76 -56 -27 -107 -49 -114
-49 -22 0 -182 -101 -202 -128 -7 -9 -27 -24 -43 -33 -25 -13 -30 -21 -28 -48
0 -18 11 -43 23 -56 20 -21 21 -27 10 -61 -7 -20 -27 -53 -46 -73 -18 -21 -45
-66 -59 -102 -54 -131 -53 -129 -80 -129 -14 0 -56 16 -94 35 -94 47 -102 80
-37 156 53 63 86 125 86 161 0 21 9 47 23 64 20 25 22 42 25 156 3 112 1 132
-18 175 -12 26 -24 77 -27 113 -5 63 -37 145 -69 181 -8 9 -28 19 -43 22 -15
3 -59 32 -98 64 -122 101 -234 173 -271 173 -7 0 -23 11 -35 23 -12 13 -55 36
-95 51 -52 20 -81 38 -100 62 l-27 34 -122 0 c-118 0 -123 -1 -146 -25z m239
-122 c33 -15 77 -39 98 -55 21 -15 44 -28 51 -28 6 0 29 -13 51 -29 21 -16 68
-44 104 -63 36 -18 81 -45 101 -60 20 -15 51 -31 70 -34 39 -7 83 -45 104 -88
8 -16 15 -31 15 -32 0 -14 -74 -36 -133 -41 -40 -3 -91 -11 -115 -19 -23 -8
-57 -14 -74 -14 -17 0 -59 -11 -92 -24 -34 -13 -83 -28 -111 -31 -27 -4 -67
-16 -88 -27 -21 -10 -60 -22 -87 -25 -41 -5 -59 -1 -102 21 -29 14 -71 40 -93
57 -22 16 -51 34 -65 40 -14 5 -54 27 -90 48 -36 22 -82 42 -103 46 -55 9
-124 82 -148 154 -10 30 -16 59 -13 63 3 4 18 5 33 2 20 -4 39 1 67 20 24 15
65 29 106 36 36 5 95 19 130 29 34 11 78 22 96 26 18 4 59 17 90 30 75 32 126
31 198 -2z m-771 -249 c10 -19 34 -48 52 -64 18 -16 33 -31 33 -34 0 -4 28
-36 88 -99 15 -15 68 -50 117 -78 50 -28 108 -63 130 -79 22 -16 53 -31 68
-34 15 -3 44 -18 64 -33 34 -26 35 -29 30 -74 -3 -27 -19 -67 -37 -95 -17 -27
-35 -67 -41 -89 -6 -22 -22 -52 -35 -68 -13 -16 -24 -34 -24 -42 0 -7 -15 -44
-34 -81 -19 -38 -55 -116 -81 -174 -26 -58 -55 -123 -66 -146 -10 -22 -19 -46
-19 -53 0 -8 -16 -31 -35 -52 -34 -38 -44 -75 -29 -113 13 -33 54 -7 69 44 4
14 20 41 35 60 16 19 31 45 35 58 7 24 32 66 72 125 156 223 258 437 276 578
10 84 13 91 42 108 16 10 50 21 75 25 48 6 144 34 250 72 36 13 107 31 158 40
50 9 92 21 92 26 0 5 20 18 46 29 27 13 49 30 54 45 7 17 17 24 36 24 25 0 26
-1 19 -47 -8 -53 -9 -205 -1 -320 4 -78 -10 -140 -39 -173 -8 -9 -19 -37 -23
-62 -5 -25 -20 -61 -34 -79 -46 -62 -45 -109 3 -109 13 0 19 -7 19 -24 0 -37
-21 -37 -60 -1 -44 40 -152 78 -186 65 -25 -10 -43 -55 -28 -70 5 -5 33 -15
62 -23 48 -12 85 -37 120 -81 20 -25 67 -20 86 9 22 34 40 31 71 -9 16 -21 39
-37 58 -42 86 -18 184 -96 218 -174 11 -25 30 -56 43 -70 29 -32 82 -113 90
-137 11 -35 -7 -46 -65 -39 -95 11 -161 12 -809 15 -391 1 -658 -2 -695 -9
-33 -5 -70 -8 -82 -5 -13 2 -35 -3 -51 -11 -25 -12 -35 -12 -73 1 -63 20 -441
32 -934 29 -225 -2 -456 -5 -512 -8 -128 -6 -133 -2 -110 87 20 79 28 138 32
257 10 228 15 298 24 345 6 28 13 66 16 86 3 20 22 57 41 82 38 49 98 79 196
97 26 5 58 16 70 24 13 8 61 24 107 36 46 11 93 27 105 35 11 7 49 19 84 25
34 6 84 21 110 33 41 19 65 21 192 22 207 0 200 2 200 -52 0 -32 -6 -51 -24
-70 -28 -30 -116 -198 -116 -221 0 -20 -77 -179 -90 -187 -35 -22 20 -145 75
-166 16 -7 44 -25 60 -41 30 -30 190 -138 203 -138 8 0 69 -41 122 -82 38 -29
97 -44 118 -30 24 16 -20 85 -72 116 -24 14 -53 37 -63 50 -10 13 -34 31 -53
41 -19 9 -46 28 -60 41 -14 12 -41 30 -61 38 -42 17 -135 99 -144 125 -7 24 8
64 44 109 16 20 32 50 35 66 4 15 15 40 25 55 13 17 21 52 25 101 8 97 19 134
38 138 19 4 77 -71 132 -170 21 -37 42 -70 47 -74 5 -3 44 -49 87 -102 l77
-97 0 -152 c0 -173 8 -199 49 -151 17 19 25 45 31 95 8 73 15 93 47 125 24 24
19 67 -12 98 -11 11 -20 25 -20 32 0 7 -11 23 -24 37 -13 15 -39 51 -59 81
-37 57 -47 70 -147 184 -33 37 -60 72 -60 77 0 4 -20 22 -45 39 -56 39 -68 83
-38 138 12 21 26 55 33 77 7 22 20 54 30 70 16 26 41 107 58 185 6 28 31 70
41 70 3 0 15 -16 26 -36z m2530 -388 c11 -7 34 -17 52 -20 18 -4 49 -19 70
-33 21 -14 54 -30 73 -36 19 -5 45 -17 58 -28 13 -10 40 -23 60 -30 20 -6 82
-33 137 -59 55 -27 121 -57 147 -68 31 -13 57 -35 77 -63 17 -23 41 -47 54
-54 16 -8 21 -18 18 -36 -9 -57 -2 -471 9 -544 25 -166 25 -161 -5 -181 -24
-16 -39 -16 -148 -7 -122 10 -958 8 -1094 -2 -102 -8 -133 9 -133 76 0 22 -11
53 -31 83 -16 27 -37 67 -46 90 -21 52 -64 108 -97 126 -15 7 -29 25 -33 38
-8 32 14 100 44 137 37 45 93 133 93 145 0 6 11 32 25 58 14 26 25 54 25 63 0
9 7 23 17 30 9 8 25 34 36 59 22 50 32 60 64 60 12 0 34 11 49 25 15 14 31 25
35 25 5 0 37 13 71 29 35 16 77 33 93 37 17 3 45 16 63 26 41 25 150 66 177
67 11 1 29 -5 40 -13z m-1268 -1267 l2671 1 29 -24 c16 -14 34 -42 40 -63 16
-55 8 -404 -9 -433 -27 -45 -164 -91 -243 -82 -22 3 -1266 6 -2765 8 -1499 2
-2745 5 -2769 7 -24 3 -62 -1 -84 -9 -21 -8 -43 -12 -47 -9 -4 2 -52 9 -106
15 -126 14 -124 13 -158 56 -29 36 -29 38 -33 198 -3 126 0 176 12 228 27 109
5 103 389 106 182 1 336 4 341 6 6 3 21 2 35 -1 14 -3 1227 -4 2697 -4z m-377
-705 c1712 -1 2684 1 2719 8 63 11 97 5 110 -20 9 -18 4 -52 -35 -237 -8 -38
-13 -101 -12 -140 1 -45 -6 -99 -20 -151 -12 -44 -26 -129 -32 -189 -5 -60
-16 -156 -24 -214 -8 -58 -20 -149 -26 -201 -6 -52 -20 -159 -31 -236 -10 -78
-26 -197 -34 -265 -29 -247 -64 -503 -89 -674 -24 -155 -60 -454 -76 -620 -9
-97 -22 -204 -56 -452 -8 -65 -19 -174 -23 -243 -4 -69 -13 -135 -19 -147 -7
-12 -12 -30 -12 -40 -1 -61 -143 -288 -224 -359 -114 -99 -160 -122 -321 -166
-67 -18 -139 -18 -1781 -18 -1426 0 -1718 2 -1755 14 -170 53 -295 128 -378
226 -23 27 -41 52 -41 55 0 4 -14 25 -31 46 -17 22 -37 60 -45 86 -8 26 -20
54 -28 62 -20 23 -28 56 -27 114 0 81 -17 229 -29 241 -5 5 -10 24 -10 41 0
16 -9 79 -20 139 -11 60 -20 141 -20 180 0 39 -6 91 -14 116 -16 48 -46 304
-46 383 0 27 -5 57 -11 68 -6 11 -17 86 -25 167 -8 81 -21 183 -30 227 -8 44
-21 134 -30 200 -19 149 -42 306 -54 365 -5 25 -12 95 -16 155 -3 61 -12 135
-19 165 -8 30 -19 116 -25 190 -6 74 -18 176 -25 225 -8 50 -19 140 -25 200
-6 61 -17 144 -24 185 -8 41 -17 110 -20 154 -3 43 -17 134 -31 203 -21 103
-23 128 -13 142 23 29 32 32 73 25 22 -4 1239 -8 2705 -10z"/>
<path d="M5924 8209 c-23 -5 -50 -19 -59 -29 -20 -22 -14 -39 7 -23 19 15 116
23 171 14 42 -7 49 -5 58 11 6 11 8 22 5 25 -10 11 -141 12 -182 2z"/>
<path d="M5738 8152 c-44 -5 -32 -22 15 -22 52 0 82 16 41 21 -16 2 -41 3 -56
1z"/>
<path d="M5170 7850 c-14 -26 43 -140 70 -140 41 0 40 75 -1 123 -36 42 -53
46 -69 17z"/>
<path d="M7191 8584 c-31 -22 -26 -48 22 -97 127 -131 244 -270 261 -311 16
-38 60 -86 78 -86 8 0 31 15 53 33 37 30 65 41 230 88 83 24 112 41 128 76 10
22 8 28 -12 44 -30 25 -48 24 -123 -5 -168 -65 -223 -82 -245 -78 -14 3 -36
21 -51 45 -14 22 -39 54 -56 71 -16 17 -46 54 -66 81 -92 121 -171 172 -219
139z"/>
<path d="M8170 8449 c-105 -30 -141 -69 -104 -110 21 -24 70 -25 105 -1 15 9
46 30 70 46 58 37 72 55 58 73 -15 17 -51 15 -129 -8z"/>
</g>
</svg>
