<?xml version="1.0" encoding="UTF-8"?>
<svg version="1.1" xmlns="http://www.w3.org/2000/svg" width="1200" height="1200" viewBox="0 0 1200 1200" preserveAspectRatio="xMidYMid meet">
<g transform="translate(0.000000,1200.000000) scale(0.100000,-0.100000)"
fill="#B1801D" stroke="none">
<path d="M2907 9623 c-42 -3 -71 -12 -105 -33 -26 -16 -64 -38 -84 -50 -45
-24 -47 -28 -75 -115 -19 -59 -21 -78 -13 -120 6 -30 9 -334 8 -765 -1 -393
-1 -1475 0 -2405 0 -929 -2 -1725 -5 -1768 -7 -95 12 -217 41 -260 39 -58 64
-65 246 -71 103 -3 186 -1 221 6 100 20 150 -17 130 -96 -5 -22 -13 -104 -17
-182 -8 -162 -3 -177 59 -203 38 -16 75 -17 412 -11 401 6 412 8 439 62 8 16
19 52 25 81 33 160 41 214 41 263 0 45 4 56 22 68 20 13 253 15 1768 14 960
-1 1754 -5 1766 -9 19 -7 21 -15 22 -136 1 -79 8 -161 19 -213 18 -83 19 -85
58 -105 45 -22 43 -22 517 -26 268 -1 289 0 320 18 l33 19 0 225 0 224 236 -3
235 -2 48 31 c50 34 90 99 86 141 -1 13 -4 1192 -6 2621 -3 1842 -7 2611 -15
2640 -11 43 -53 90 -121 134 l-42 28 -3105 1 c-1708 0 -3132 -1 -3164 -3z
m6276 -134 c21 -11 42 -31 47 -45 11 -28 15 -5230 4 -5258 -15 -39 -31 -40
-679 -44 -346 -3 -670 -5 -720 -5 -49 0 -877 1 -1840 1 -962 0 -1779 1 -1815
2 -99 3 -757 5 -825 2 -151 -6 -514 0 -546 8 -23 7 -40 19 -48 36 -17 39 -16
5206 2 5243 7 15 34 37 62 51 l50 26 3135 1 c3082 1 3136 1 3173 -18z m-5045
-5453 c15 -9 10 -64 -18 -176 -11 -41 -24 -101 -30 -133 -13 -67 -29 -80 -92
-72 -89 11 -331 12 -464 3 -181 -12 -174 -19 -172 170 1 75 -2 152 -6 170 -6
27 -4 33 13 40 27 10 753 8 769 -2z m4514 -7 c15 -8 17 -17 12 -51 -8 -47 -10
-147 -4 -231 6 -97 22 -94 -362 -89 -396 5 -368 -6 -386 147 -22 189 -23 213
-8 227 11 12 78 13 372 10 200 -2 366 -8 376 -13z"/>
<path d="M3273 9004 c-12 -19 -14 -63 -10 -266 2 -134 7 -254 11 -268 7 -22 3
-28 -29 -43 -28 -13 -41 -15 -57 -6 -22 12 -73 5 -95 -12 -18 -16 -20 -858 -1
-877 16 -16 73 -15 106 2 15 7 36 10 46 6 19 -6 20 -19 16 -546 -4 -608 -2
-727 11 -762 12 -32 1 -90 -20 -101 -9 -5 -37 -5 -66 1 -34 6 -59 6 -77 -1
-33 -12 -31 30 -28 -510 1 -209 5 -362 11 -373 5 -10 20 -25 33 -33 20 -13 28
-13 62 -2 52 19 99 5 89 -27 -9 -33 -23 -273 -20 -356 1 -41 3 -100 4 -130 1
-37 8 -63 20 -79 l19 -24 2708 1 c1490 0 2713 1 2717 1 4 1 15 18 24 38 15 35
16 227 16 2180 -1 1984 -2 2145 -17 2168 -10 14 -29 30 -44 36 -18 7 -903 10
-2720 8 l-2694 -3 -15 -22z m5382 -107 c11 -19 15 -39 11 -61 -9 -45 -9 -3979
-1 -4041 6 -41 4 -55 -12 -73 l-18 -22 -2624 0 c-1617 0 -2628 3 -2635 9 -18
15 -13 490 5 502 18 11 50 11 68 0 24 -15 49 6 62 51 7 28 11 177 10 447 0
403 0 406 -21 420 -18 12 -28 12 -56 2 -30 -11 -39 -10 -60 4 l-25 16 8 112
c13 191 8 1112 -7 1185 -11 56 -11 66 4 80 14 14 22 14 66 3 45 -12 53 -11 70
4 28 26 44 104 30 154 -7 28 -10 153 -9 371 1 292 0 332 -15 355 -19 28 -33
31 -60 10 -25 -19 -66 -19 -90 -2 -17 12 -17 16 -3 43 13 24 15 62 13 195 -2
90 -7 173 -10 185 -5 15 0 29 17 50 l25 29 2620 0 2621 0 16 -28z m-5310 -561
c75 -6 88 -21 78 -91 -13 -81 -8 -484 6 -533 15 -54 8 -78 -30 -97 -23 -12
-34 -13 -50 -4 -13 6 -42 8 -77 4 -101 -11 -96 -31 -95 360 2 303 3 339 19
356 13 14 26 18 53 14 20 -3 63 -7 96 -9z m76 -2318 c7 -13 7 -41 1 -86 -5
-37 -8 -192 -7 -345 1 -265 0 -279 -18 -288 -13 -8 -28 -7 -50 2 -18 8 -57 12
-88 11 -40 -2 -59 1 -68 12 -9 11 -13 99 -16 333 -2 175 -4 327 -5 338 -2 34
28 47 96 39 34 -3 70 -2 79 3 24 14 64 4 76 -19z"/>
<path d="M4851 7700 c-146 -50 -270 -113 -329 -168 -26 -24 -75 -69 -109 -100
-34 -31 -62 -62 -62 -69 -1 -7 -14 -27 -29 -45 -28 -32 -87 -156 -112 -232
-31 -99 -49 -339 -30 -406 6 -19 15 -64 21 -100 5 -35 14 -70 20 -76 5 -6 20
-39 33 -72 26 -66 64 -125 128 -199 37 -43 67 -71 178 -163 139 -116 515 -220
650 -180 19 6 71 17 115 24 44 8 105 25 135 39 30 13 72 30 93 37 21 6 49 27
65 46 15 19 32 34 38 34 5 0 23 14 39 30 16 17 36 30 46 30 15 0 39 24 112
115 89 109 148 239 187 414 19 80 6 306 -20 363 -11 24 -20 55 -20 70 0 14
-13 55 -30 90 -16 34 -30 68 -30 74 0 6 -10 19 -21 30 -12 10 -28 33 -35 49
-28 63 -120 165 -208 230 -49 36 -93 65 -98 65 -4 0 -26 11 -48 25 -21 14 -60
29 -85 35 -26 6 -58 18 -72 27 -21 14 -58 18 -217 20 l-191 3 -114 -40z m319
-70 c63 -5 137 -17 163 -25 62 -19 274 -129 307 -160 14 -13 42 -30 63 -39 20
-8 37 -21 37 -29 0 -8 3 -28 6 -45 6 -28 3 -32 -29 -45 -36 -15 -125 -98 -188
-175 -28 -34 -42 -44 -68 -45 -28 -2 -37 3 -50 26 -9 16 -41 47 -72 68 -53 38
-61 40 -170 51 -107 11 -118 10 -187 -11 -62 -19 -81 -30 -134 -82 -41 -41
-67 -59 -81 -57 -24 3 -82 109 -93 168 -4 19 -14 43 -23 52 -9 9 -21 23 -27
30 -6 7 -23 23 -38 35 -19 17 -26 32 -26 58 0 33 4 37 54 63 30 15 79 41 108
58 72 42 216 92 328 113 3 0 57 -4 120 -9z m-656 -291 c22 -13 38 -31 42 -48
3 -14 14 -42 25 -63 11 -20 26 -54 33 -76 13 -36 38 -80 81 -139 15 -19 15
-26 -1 -79 -22 -76 -14 -152 27 -269 31 -90 71 -155 93 -155 7 0 23 -12 37
-26 26 -29 149 -89 216 -105 62 -16 67 -27 65 -138 -1 -53 3 -108 9 -123 16
-40 43 -35 63 11 15 31 16 45 7 77 -15 53 -14 177 1 192 7 7 20 12 30 12 10 0
50 16 88 35 113 57 188 168 209 311 9 61 8 80 -9 140 -11 38 -20 76 -20 85 0
9 31 42 68 72 96 79 153 149 159 198 4 27 11 39 22 39 17 0 90 -46 92 -58 1
-4 3 -26 3 -49 1 -23 9 -50 18 -60 9 -10 19 -40 22 -66 4 -26 14 -64 22 -84
12 -28 15 -65 11 -167 -6 -180 -39 -307 -103 -392 -13 -18 -30 -49 -39 -70 -8
-22 -30 -49 -49 -62 -18 -12 -39 -33 -46 -46 -7 -13 -42 -44 -79 -68 -98 -66
-111 -73 -174 -96 -32 -12 -70 -30 -84 -39 -24 -16 -52 -18 -235 -17 -203 1
-210 2 -271 28 -153 67 -235 119 -339 216 -77 73 -127 159 -181 315 -31 88
-32 94 -30 255 1 157 2 169 31 248 17 46 42 100 56 120 14 20 31 53 37 72 11
33 46 90 54 90 2 0 20 -9 39 -21z m667 -224 c98 -21 129 -37 192 -104 54 -57
55 -58 62 -135 11 -119 -20 -217 -92 -292 -65 -66 -122 -89 -228 -89 -86 0
-92 1 -140 34 -145 100 -204 212 -183 352 11 72 23 90 99 152 64 52 111 78
159 88 52 10 53 10 131 -6z"/>
<path d="M6665 7687 l-32 -32 2 -265 c2 -153 7 -276 13 -292 17 -42 60 -46
194 -16 38 8 57 7 95 -6 42 -14 49 -14 70 -1 32 21 32 77 -1 110 -25 25 -50
26 -136 4 -62 -16 -107 -11 -124 13 -8 12 -13 25 -10 30 9 15 11 251 3 295 -5
23 -5 51 -1 63 l8 22 567 0 c311 0 572 -4 578 -7 8 -5 9 -33 5 -89 -9 -118 -9
-204 -1 -262 7 -47 6 -53 -15 -64 -13 -7 -38 -9 -59 -6 -78 13 -183 16 -202 6
-33 -18 -19 -104 19 -111 4 -1 75 -3 158 -4 214 -3 197 -27 202 276 6 337 8
310 -28 342 l-30 27 -621 0 -621 0 -33 -33z"/>
<path d="M7163 7200 c-47 -19 -54 -88 -11 -111 20 -11 103 -22 158 -20 14 0
52 0 84 1 76 0 106 18 106 64 0 19 -8 40 -18 49 -21 19 -88 23 -138 8 -21 -6
-49 -4 -85 5 -61 16 -66 16 -96 4z"/>
<path d="M6673 6860 c-37 -15 -41 -38 -34 -202 7 -183 7 -182 108 -193 79 -9
151 1 205 28 48 24 70 66 51 95 -12 20 -46 21 -155 2 -63 -11 -80 -11 -92 0
-19 15 -21 80 -4 163 10 49 10 63 -3 85 -16 29 -41 36 -76 22z"/>
<path d="M7886 6818 c-20 -28 -20 -75 -1 -108 19 -33 19 -84 0 -100 -12 -10
-39 -11 -130 -1 -97 10 -120 9 -157 -4 -55 -19 -77 -19 -124 1 -43 19 -169 29
-296 25 -38 -2 -52 -7 -68 -28 -27 -34 -35 -70 -20 -88 6 -8 33 -17 58 -20 26
-4 61 -17 77 -28 41 -30 109 -30 152 1 17 12 43 22 57 22 14 0 49 9 78 20 l52
19 54 -31 c45 -25 58 -29 73 -20 28 18 100 14 139 -6 53 -28 97 -34 129 -17
16 8 31 20 34 28 3 7 5 80 6 162 1 172 -6 195 -64 195 -24 0 -39 -7 -49 -22z
m-566 -283 c0 -8 -4 -15 -9 -15 -13 0 -22 16 -14 24 11 11 23 6 23 -9z"/>
<path d="M8263 6445 c-23 -16 -34 -89 -37 -246 -1 -103 13 -129 73 -129 44 0
54 6 86 50 21 28 25 43 20 75 -2 22 -7 81 -10 130 -5 80 -9 93 -31 113 -29 25
-70 29 -101 7z"/>
<path d="M6649 6329 c-19 -19 -21 -31 -18 -142 1 -67 -1 -144 -5 -172 -6 -44
-4 -54 18 -80 l24 -30 635 2 c350 0 645 4 657 8 33 11 39 41 41 226 1 156 0
174 -17 186 -25 18 -69 16 -89 -4 -18 -17 -17 -77 0 -228 3 -27 1 -57 -4 -65
-9 -13 -78 -14 -513 -11 -362 2 -511 -1 -533 -9 -38 -14 -92 -5 -104 19 -6 11
-6 68 1 156 10 129 9 139 -8 152 -26 19 -61 16 -85 -8z"/>
<path d="M6274 2389 c-6 -10 11 -29 26 -29 3 0 11 4 19 9 17 11 5 31 -19 31
-10 0 -22 -5 -26 -11z"/>
</g>
</svg>
