<?xml version="1.0" encoding="UTF-8"?>
<svg version="1.1" xmlns="http://www.w3.org/2000/svg" width="1200" height="1200" viewBox="0 0 1200 1200" preserveAspectRatio="xMidYMid meet">
<g transform="translate(0.000000,1200.000000) scale(0.100000,-0.100000)"
fill="#B1801D" stroke="none">
<path d="M4750 9129 c-70 -8 -202 -46 -274 -77 -56 -25 -163 -98 -225 -154
-99 -89 -194 -240 -247 -393 -26 -76 -28 -92 -32 -291 l-4 -211 -32 -14 c-31
-14 -31 -15 -34 -94 -2 -76 -4 -81 -35 -107 l-32 -27 2 -295 1 -295 -306 -3
-307 -3 -56 -26 c-79 -37 -130 -87 -170 -166 l-34 -67 0 -1730 0 -1731 28 -56
c31 -63 102 -135 168 -171 l44 -23 975 0 975 0 64 35 c82 44 154 133 170 209
8 36 11 565 11 1749 l1 1698 -21 57 c-28 75 -104 158 -178 194 l-57 28 -454 2
c-250 1 -456 5 -459 8 -3 3 -5 130 -3 283 3 290 -1 325 -40 335 -17 4 -19 15
-19 84 0 90 -9 108 -60 120 l-35 9 3 160 c3 179 6 201 33 297 59 201 205 378
392 470 132 65 205 82 362 82 151 0 214 -14 336 -74 159 -79 274 -195 354
-356 77 -157 78 -159 85 -615 l6 -405 26 -67 c74 -187 226 -317 406 -348 61
-10 68 -14 82 -43 14 -30 19 -32 70 -35 48 -2 58 -7 82 -35 l27 -32 226 0 226
0 27 31 c15 18 43 37 62 43 40 13 105 71 115 102 4 12 1 32 -6 45 -12 24 -99
84 -119 84 -6 0 -26 16 -46 35 l-35 35 -222 0 -223 0 -29 -30 c-23 -24 -37
-30 -84 -32 -52 -3 -57 -5 -70 -35 -18 -40 -30 -41 -116 -8 -146 54 -233 150
-278 303 -13 43 -16 117 -17 414 -1 408 -6 451 -69 598 -51 117 -100 189 -191
281 -203 205 -456 293 -740 258z m-683 -1221 c6 -7 11 -30 11 -50 2 -47 -33
-77 -67 -58 -17 8 -21 20 -21 59 0 26 3 51 7 54 11 12 60 8 70 -5z m48 -472
l0 -269 -79 -4 c-76 -3 -113 7 -100 28 3 5 5 124 6 264 l1 256 86 -3 86 -3 0
-269z m2631 -168 c12 -19 13 -132 2 -145 -8 -10 -55 -13 -175 -13 -160 0 -166
1 -194 24 -23 19 -36 23 -67 19 -56 -7 -84 10 -80 50 l3 32 59 -3 c48 -2 63 1
80 17 19 18 38 21 176 24 85 1 163 4 172 5 9 1 20 -3 24 -10z m141 -64 c8 -20
-21 -48 -41 -41 -16 6 -23 57 -10 70 9 9 44 -11 51 -29z m-1728 -174 c50 -25
107 -90 120 -137 8 -26 11 -564 11 -1715 0 -1536 -1 -1681 -17 -1720 -25 -67
-58 -104 -116 -133 l-53 -26 -935 3 -935 3 -41 27 c-23 15 -53 42 -67 61 -57
74 -54 -26 -54 1768 0 910 4 1675 9 1701 11 63 50 121 101 155 l42 28 435 5
c240 3 667 4 949 2 482 -2 516 -4 551 -22z"/>
<path d="M4169 6752 c-674 -2 -829 -5 -838 -15 -8 -10 -11 -233 -13 -762 -1
-719 -1 -748 17 -761 26 -19 1684 -21 1703 -2 9 9 12 192 12 764 0 782 1 764
-40 775 -8 2 -387 3 -841 1z m769 -774 l-3 -663 -753 0 -753 0 1 660 c0 363 0
661 0 663 0 1 340 2 755 2 l755 0 -2 -662z"/>
<path d="M4350 6419 c-85 -22 -198 -49 -250 -60 -52 -12 -101 -27 -108 -34
-10 -9 -13 -72 -12 -283 l1 -272 -59 0 c-74 0 -118 -27 -150 -92 -28 -56 -24
-93 16 -140 73 -86 222 -72 280 28 22 38 23 44 20 284 -2 135 1 251 5 258 5 6
18 12 30 12 12 0 83 16 157 36 74 19 150 38 168 41 l32 5 0 -155 0 -155 -53 1
c-69 1 -113 -24 -144 -83 -71 -132 71 -261 214 -196 22 10 51 32 64 50 24 31
24 32 29 391 6 400 5 406 -53 404 -17 0 -102 -19 -187 -40z m-11 -115 c25 -15
30 -15 59 0 17 9 33 12 36 7 7 -11 -4 -21 -22 -21 -9 0 -24 -7 -34 -16 -17
-16 -21 -15 -68 7 -39 19 -46 25 -33 31 27 10 33 9 62 -8z m-115 -53 c14 -5
16 -10 8 -15 -16 -9 -72 2 -72 15 0 11 37 11 64 0z m196 -496 c7 -8 8 -15 2
-15 -5 0 -15 7 -22 15 -7 8 -8 15 -2 15 5 0 15 -7 22 -15z"/>
<path d="M4080 4943 c-287 -50 -517 -269 -575 -548 -106 -513 384 -959 880
-801 114 36 219 101 295 183 81 86 124 159 162 271 26 76 30 102 31 202 1 137
-15 208 -76 325 -57 112 -181 235 -293 293 -129 66 -300 96 -424 75z m299
-142 c95 -38 129 -60 196 -123 124 -116 185 -257 185 -428 0 -81 -5 -112 -26
-172 -51 -143 -157 -269 -276 -329 -113 -57 -143 -64 -283 -64 -125 0 -133 2
-205 33 -79 35 -167 95 -213 146 -46 50 -107 160 -128 228 -24 81 -26 236 -3
316 56 195 213 353 405 407 81 22 276 14 348 -14z"/>
<path d="M4120 4541 c-60 -20 -122 -56 -146 -83 -62 -75 -92 -178 -72 -255 26
-105 88 -176 183 -212 143 -53 287 6 360 148 45 89 25 224 -45 304 -68 77
-202 124 -280 98z m160 -137 c54 -33 88 -113 75 -180 -7 -39 -54 -98 -96 -120
-73 -37 -182 -4 -228 69 -57 92 6 234 113 257 37 7 99 -5 136 -26z"/>
<path d="M8370 8881 c-65 -23 -110 -70 -136 -142 l-18 -49 -589 0 c-435 1
-593 -2 -603 -11 -39 -32 -21 -59 240 -359 12 -14 40 -47 61 -75 22 -27 50
-61 62 -75 140 -164 275 -323 301 -356 l32 -40 -2 -365 -3 -364 -76 -1 c-42
-1 -92 -4 -110 -8 -47 -9 -119 -68 -151 -124 l-28 -47 -745 -1 c-636 0 -747
-2 -760 -15 -18 -18 -19 -43 -17 -340 2 -194 5 -249 16 -265 13 -17 28 -19
171 -19 l156 0 2 -1397 2 -1398 -116 0 c-81 0 -121 -4 -134 -14 -25 -18 -25
-74 0 -92 15 -12 290 -14 1619 -13 1756 1 1646 -3 1646 59 0 49 -33 63 -147
60 -54 -2 -104 -2 -110 -1 -10 1 -13 288 -13 1401 l0 1399 78 -2 c97 -3 143
19 190 87 l32 48 0 175 c0 153 -2 178 -20 212 -25 51 -82 97 -134 109 -24 6
-211 9 -449 8 -225 -1 -411 1 -415 4 -4 3 -16 22 -26 43 -24 46 -76 94 -125
115 -23 10 -69 16 -126 16 l-90 1 -3 371 -2 372 43 48 c60 69 394 484 442 550
l40 55 66 -7 c82 -8 128 6 181 54 54 49 78 99 78 166 0 169 -154 282 -310 227z
m148 -118 c28 -18 62 -71 62 -98 -1 -38 -38 -103 -69 -119 -65 -34 -98 -5 -45
41 29 25 35 63 13 89 -11 13 -26 15 -76 11 -40 -3 -68 0 -79 7 -14 11 -12 16
17 44 53 52 120 61 177 25z m-137 -187 c13 -14 11 -36 -3 -36 -15 1 -58 35
-58 45 0 4 7 2 15 -5 8 -7 16 -9 16 -4 1 10 4 23 9 39 1 6 4 1 7 -10 3 -11 9
-24 14 -29z m-641 4 l489 0 25 -36 25 -37 -80 -96 c-147 -177 -360 -442 -386
-482 -14 -21 -31 -39 -38 -39 -7 0 -32 25 -55 56 -23 31 -72 91 -109 134 -36
42 -122 144 -191 226 -69 82 -149 173 -178 204 -47 50 -51 56 -35 68 10 7 24
10 31 7 8 -3 234 -5 502 -5z m277 -1652 c53 -24 85 -67 51 -69 -84 -3 -591 1
-596 5 -9 9 30 47 63 61 42 18 442 20 482 3z m1049 -189 c37 -19 44 -53 44
-205 0 -141 -1 -146 -25 -169 l-24 -25 -1393 0 c-766 -1 -1465 -1 -1553 -1
-88 -1 -165 -1 -170 0 -11 1 -14 389 -3 407 9 14 3097 7 3124 -7z m-260 -522
c5 -5 5 -2779 0 -2784 -2 -3 -424 -5 -553 -3 -6 0 -19 22 -28 49 -22 66 -72
121 -147 161 -63 34 -63 34 -203 35 l-140 0 -3 743 -2 744 232 -4 c279 -4 300
1 374 76 68 67 82 113 79 266 -2 102 -5 121 -28 167 -31 60 -92 115 -146 131
-27 9 -226 12 -695 12 -632 0 -658 -1 -695 -20 -57 -29 -99 -67 -124 -114 -20
-37 -22 -56 -22 -186 0 -80 3 -157 8 -173 10 -38 71 -103 126 -135 l46 -27
248 2 247 1 -2 -741 -3 -742 -142 -1 c-132 -1 -145 -2 -197 -28 -78 -38 -145
-117 -160 -188 l-6 -26 -287 -4 c-159 -2 -289 -2 -291 -2 -5 3 -3 2785 2 2793
4 6 2506 5 2512 -2z m-582 -531 c18 -7 43 -29 54 -49 19 -30 22 -49 22 -152 0
-127 -8 -152 -58 -190 -26 -19 -45 -20 -675 -23 -592 -2 -651 -1 -684 15 -54
25 -73 75 -73 198 0 115 14 156 69 192 l34 23 639 0 c522 0 645 -3 672 -14z
m-597 -1311 c0 -622 3 -787 13 -800 10 -12 42 -15 184 -15 145 0 177 -3 212
-19 43 -20 105 -86 98 -105 -3 -8 -163 -11 -580 -10 -316 1 -578 4 -581 7 -10
11 41 70 85 98 l46 29 175 0 c148 0 177 2 193 17 17 15 18 53 18 800 l0 783
68 0 69 0 0 -785z"/>
</g>
</svg>
