<svg xmlns="http://www.w3.org/2000/svg" xmlns:xlink="http://www.w3.org/1999/xlink" width="500" zoomAndPan="magnify" viewBox="0 0 375 374.999991" height="500" preserveAspectRatio="xMidYMid meet" version="1.0"><defs><clipPath id="449545771e"><path d="M 39.132812 62.5 L 336.132812 62.5 L 336.132812 312.25 L 39.132812 312.25 Z M 39.132812 62.5 " clip-rule="nonzero"/></clipPath></defs><rect x="-37.5" width="450" fill="#ffffff" y="-37.499999" height="449.999989" fill-opacity="1"/><rect x="-37.5" width="450" fill="#ffffff" y="-37.499999" height="449.999989" fill-opacity="1"/><g clip-path="url(#449545771e)"><path fill="#000000" d="M 152.867188 257.652344 C 145.722656 259.019531 138.070312 257.046875 132.40625 251.734375 L 131.785156 251.148438 C 126.460938 246.15625 118.164062 246.15625 112.839844 251.148438 L 112.21875 251.734375 C 103.207031 260.1875 89.164062 260.1875 80.152344 251.734375 L 79.839844 251.441406 C 74.339844 246.285156 65.773438 246.285156 60.273438 251.441406 L 47.210938 263.695312 C 45.28125 265.503906 42.25 265.410156 40.4375 263.488281 C 38.628906 261.5625 38.722656 258.535156 40.648438 256.730469 L 53.710938 244.472656 C 62.898438 235.855469 77.214844 235.855469 86.402344 244.472656 L 86.710938 244.765625 C 92.035156 249.757812 100.332031 249.757812 105.65625 244.765625 L 106.277344 244.183594 C 112.785156 238.078125 121.914062 236.382812 129.882812 239.09375 C 119.78125 226.476562 113.738281 210.484375 113.738281 193.097656 C 113.738281 152.390625 146.847656 119.34375 187.632812 119.34375 C 228.414062 119.34375 261.527344 152.390625 261.527344 193.097656 C 261.527344 212.457031 254.039062 230.082031 241.796875 243.246094 C 242.160156 243.546875 242.511719 243.855469 242.859375 244.183594 L 243.480469 244.765625 C 248.804688 249.757812 257.101562 249.757812 262.425781 244.765625 L 263.046875 244.183594 C 272.058594 235.726562 286.101562 235.726562 295.113281 244.183594 L 295.734375 244.765625 C 301.058594 249.757812 309.355469 249.757812 314.679688 244.765625 L 328.054688 232.21875 C 329.980469 230.410156 333.015625 230.503906 334.824219 232.429688 C 336.636719 234.351562 336.542969 237.378906 334.617188 239.1875 L 321.242188 251.734375 C 312.230469 260.1875 298.1875 260.1875 289.175781 251.734375 L 288.550781 251.148438 C 283.230469 246.15625 274.929688 246.15625 269.605469 251.148438 L 268.984375 251.734375 C 259.972656 260.1875 245.929688 260.1875 236.917969 251.734375 L 236.296875 251.148438 C 230.972656 246.15625 222.675781 246.15625 217.351562 251.148438 L 216.328125 252.109375 C 207.542969 260.351562 193.851562 260.351562 185.066406 252.109375 L 184.042969 251.148438 C 178.71875 246.15625 170.417969 246.15625 165.097656 251.148438 L 164.074219 252.109375 C 161.253906 254.753906 157.929688 256.550781 154.421875 257.496094 C 153.910156 257.636719 153.386719 257.6875 152.867188 257.652344 Z M 210.167969 244.765625 L 211.191406 243.804688 C 217.234375 238.140625 225.59375 236.367188 233.082031 238.496094 C 244.734375 226.875 251.945312 210.820312 251.945312 193.097656 C 251.945312 157.667969 223.128906 128.90625 187.632812 128.90625 C 152.136719 128.90625 123.320312 157.667969 123.320312 193.097656 C 123.320312 216.035156 135.402344 236.179688 153.554688 247.535156 C 155.128906 246.910156 156.609375 245.988281 157.914062 244.765625 L 158.9375 243.804688 C 167.722656 235.5625 181.414062 235.5625 190.199219 243.804688 L 191.222656 244.765625 C 196.546875 249.757812 204.84375 249.757812 210.167969 244.765625 Z M 187.632812 152.3125 C 184.988281 152.3125 182.84375 150.171875 182.84375 147.53125 C 182.84375 144.894531 184.988281 142.75 187.632812 142.75 C 190.410156 142.75 193.132812 142.976562 195.785156 143.40625 C 198.394531 143.832031 200.167969 146.292969 199.742188 148.894531 C 199.320312 151.5 196.855469 153.269531 194.246094 152.84375 C 192.09375 152.496094 189.882812 152.3125 187.632812 152.3125 Z M 207.359375 157.378906 C 205.046875 156.101562 204.207031 153.191406 205.484375 150.882812 C 206.765625 148.574219 209.683594 147.734375 211.996094 149.011719 C 227.539062 157.59375 238.074219 174.128906 238.074219 193.097656 C 238.074219 195.734375 235.925781 197.878906 233.285156 197.878906 C 230.640625 197.878906 228.492188 195.734375 228.492188 193.097656 C 228.492188 177.726562 219.953125 164.332031 207.359375 157.378906 Z M 47.210938 310.996094 C 45.28125 312.800781 42.25 312.707031 40.4375 310.785156 C 38.628906 308.863281 38.722656 305.835938 40.648438 304.027344 L 53.710938 291.773438 C 62.898438 283.15625 77.214844 283.15625 86.402344 291.773438 L 86.710938 292.0625 C 92.035156 297.058594 100.332031 297.058594 105.65625 292.0625 L 106.277344 291.480469 C 115.289062 283.027344 129.335938 283.027344 138.347656 291.480469 L 138.96875 292.0625 C 144.292969 297.058594 152.589844 297.058594 157.914062 292.0625 L 158.535156 291.480469 C 167.546875 283.027344 181.589844 283.027344 190.601562 291.480469 L 191.222656 292.0625 C 196.546875 297.058594 204.84375 297.058594 210.167969 292.0625 L 210.789062 291.480469 C 219.800781 283.027344 233.847656 283.027344 242.859375 291.480469 L 243.480469 292.0625 C 248.804688 297.058594 257.101562 297.058594 262.425781 292.0625 L 263.046875 291.480469 C 272.058594 283.027344 286.101562 283.027344 295.113281 291.480469 L 295.734375 292.0625 C 301.058594 297.058594 309.355469 297.058594 314.679688 292.0625 L 328.054688 279.515625 C 329.980469 277.710938 333.015625 277.804688 334.824219 279.726562 C 336.636719 281.648438 336.542969 284.679688 334.617188 286.484375 L 321.242188 299.03125 C 312.230469 307.484375 298.1875 307.484375 289.175781 299.03125 L 288.550781 298.449219 C 283.230469 293.453125 274.929688 293.453125 269.605469 298.449219 L 268.984375 299.03125 C 259.972656 307.484375 245.929688 307.484375 236.917969 299.03125 L 236.296875 298.449219 C 230.972656 293.453125 222.675781 293.453125 217.351562 298.449219 L 216.730469 299.03125 C 207.71875 307.484375 193.675781 307.484375 184.664062 299.03125 L 184.042969 298.449219 C 178.71875 293.453125 170.417969 293.453125 165.097656 298.449219 L 164.472656 299.03125 C 155.460938 307.484375 141.417969 307.484375 132.40625 299.03125 L 131.785156 298.449219 C 126.460938 293.453125 118.164062 293.453125 112.839844 298.449219 L 112.21875 299.03125 C 103.207031 307.484375 89.164062 307.484375 80.152344 299.03125 L 79.839844 298.742188 C 74.339844 293.582031 65.773438 293.582031 60.273438 298.742188 Z M 313.667969 188.316406 C 316.3125 188.316406 318.457031 190.457031 318.457031 193.097656 C 318.457031 195.734375 316.3125 197.878906 313.667969 197.878906 L 284.675781 197.878906 C 282.035156 197.878906 279.886719 195.734375 279.886719 193.097656 C 279.886719 190.457031 282.035156 188.316406 284.675781 188.316406 Z M 90.589844 188.316406 C 93.230469 188.316406 95.378906 190.457031 95.378906 193.097656 C 95.378906 195.734375 93.230469 197.878906 90.589844 197.878906 L 61.597656 197.878906 C 58.953125 197.878906 56.808594 195.734375 56.808594 193.097656 C 56.808594 190.457031 58.953125 188.316406 61.597656 188.316406 Z M 122.398438 121.226562 C 124.269531 123.089844 124.269531 126.121094 122.398438 127.988281 C 120.527344 129.851562 117.492188 129.851562 115.625 127.988281 L 95.125 107.527344 C 93.253906 105.660156 93.253906 102.628906 95.125 100.765625 C 96.992188 98.898438 100.03125 98.898438 101.898438 100.765625 Z M 192.421875 96.234375 C 192.421875 98.875 190.277344 101.015625 187.632812 101.015625 C 184.988281 101.015625 182.84375 98.875 182.84375 96.234375 L 182.84375 67.300781 C 182.84375 64.660156 184.988281 62.519531 187.632812 62.519531 C 190.277344 62.519531 192.421875 64.660156 192.421875 67.300781 Z M 259.640625 127.988281 C 257.769531 129.851562 254.734375 129.851562 252.867188 127.988281 C 250.996094 126.121094 250.996094 123.089844 252.867188 121.226562 L 273.367188 100.765625 C 275.234375 98.898438 278.269531 98.898438 280.140625 100.765625 C 282.007812 102.628906 282.007812 105.660156 280.140625 107.527344 Z M 259.640625 127.988281 " fill-opacity="1" fill-rule="evenodd"/></g></svg>