<?xml version="1.0" encoding="UTF-8"?>
<svg version="1.1" xmlns="http://www.w3.org/2000/svg" width="1200" height="1200" viewBox="0 0 1200 1200" preserveAspectRatio="xMidYMid meet">
<g transform="translate(0.000000,1200.000000) scale(0.100000,-0.100000)"
fill="#B1801D" stroke="none">
<path d="M5904 8663 c-14 -15 -16 -32 -11 -118 2 -55 2 -156 -3 -225 -8 -134
-3 -156 38 -167 16 -4 30 1 45 15 21 20 22 26 21 253 l-1 232 -24 13 c-32 18
-44 17 -65 -3z"/>
<path d="M4915 8277 c-25 -19 -15 -53 28 -97 66 -68 156 -150 164 -150 4 -1
30 -30 58 -65 43 -56 54 -65 82 -65 33 0 63 21 63 45 0 28 -14 46 -76 99 -36
31 -94 88 -129 128 -35 40 -73 83 -84 96 -23 25 -76 30 -106 9z"/>
<path d="M6872 8259 c-57 -68 -194 -207 -232 -235 -53 -39 -77 -83 -61 -112
13 -25 50 -37 81 -27 11 4 31 23 45 43 13 20 78 91 145 157 66 66 123 130 127
144 8 34 -8 55 -46 59 -25 3 -37 -3 -59 -29z"/>
<path d="M5794 7949 c-245 -51 -435 -229 -525 -494 -21 -61 -24 -88 -23 -205
0 -114 4 -146 23 -205 68 -203 172 -323 371 -427 43 -23 147 -46 254 -58 146
-16 331 36 476 135 113 78 229 269 250 412 14 100 12 231 -5 296 -8 32 -15 67
-15 78 0 43 -84 188 -152 260 -73 78 -209 161 -318 194 -88 26 -243 33 -336
14z m261 -99 c85 -14 227 -89 290 -154 99 -101 132 -160 164 -288 93 -379
-138 -707 -530 -753 -156 -19 -397 78 -480 193 -13 18 -38 51 -55 72 -19 24
-45 79 -64 136 -28 85 -32 111 -32 208 -1 96 3 120 26 179 65 170 136 259 272
339 43 26 87 50 96 53 59 23 218 31 313 15z"/>
<path d="M4543 7320 c-45 -18 -50 -79 -7 -106 18 -13 33 -13 80 -5 70 13 226
14 313 1 86 -12 121 5 121 61 0 45 -30 62 -97 55 -78 -9 -343 -11 -368 -4 -11
4 -30 3 -42 -2z"/>
<path d="M6849 7310 c-44 -39 -22 -101 36 -100 17 0 126 1 243 3 198 2 215 3
228 21 19 26 18 50 -3 68 -26 24 -479 30 -504 8z"/>
<path d="M5182 6579 c-68 -73 -213 -216 -262 -258 -34 -29 -35 -31 -20 -57 17
-31 61 -47 94 -34 12 4 34 26 50 48 15 22 84 95 152 161 100 98 124 126 124
149 0 36 -16 52 -52 52 -22 0 -42 -14 -86 -61z"/>
<path d="M6592 6607 c-12 -13 -22 -32 -22 -42 0 -10 52 -69 118 -134 65 -64
135 -137 156 -163 45 -56 65 -64 106 -43 24 13 30 22 30 49 0 27 -7 39 -37 62
-21 16 -98 88 -171 161 -73 73 -138 133 -145 133 -8 0 -23 -10 -35 -23z"/>
<path d="M5904 6339 c-17 -19 -18 -34 -15 -142 5 -188 5 -239 -3 -283 -7 -35
-5 -45 13 -63 24 -24 49 -27 76 -7 17 12 18 32 19 247 1 190 -1 237 -13 252
-19 23 -54 22 -77 -4z"/>
<path d="M9470 5179 c-47 -4 -1654 -7 -3571 -8 -3364 -1 -3486 -2 -3502 -19
-10 -10 -17 -28 -17 -39 0 -28 44 -67 66 -59 23 9 7049 10 7096 1 31 -6 38 -4
52 17 19 29 9 86 -19 102 -14 8 -47 10 -105 5z"/>
<path d="M7795 4470 c-22 -4 -78 -14 -125 -23 -86 -16 -265 -84 -397 -150
-108 -55 -199 -76 -348 -83 -220 -10 -302 9 -585 134 -278 122 -396 138 -650
86 -88 -19 -208 -64 -338 -128 -50 -25 -98 -46 -105 -46 -7 0 -18 -5 -24 -11
-28 -28 -316 -48 -432 -30 -99 16 -235 58 -326 101 -84 40 -253 103 -315 117
-187 41 -405 23 -583 -49 -113 -45 -236 -103 -251 -118 -6 -6 -20 -10 -33 -10
-12 0 -58 -10 -100 -22 -66 -20 -99 -23 -213 -21 -119 2 -147 6 -234 33 -54
16 -103 30 -108 30 -4 0 -43 16 -85 36 -84 40 -125 45 -154 18 -26 -24 -24
-46 9 -77 20 -19 39 -27 64 -27 19 0 57 -12 84 -26 27 -15 76 -33 109 -40 33
-8 85 -21 115 -29 77 -21 347 -21 444 1 68 16 170 56 341 134 166 76 254 94
416 87 103 -4 139 -10 214 -36 113 -38 145 -51 220 -85 33 -16 121 -48 195
-72 128 -42 142 -45 269 -48 74 -2 168 0 207 5 105 12 332 86 393 128 28 19
47 27 181 73 98 33 266 47 360 30 71 -13 212 -61 315 -107 244 -110 429 -144
675 -125 136 10 212 32 365 105 216 103 283 122 461 135 93 7 164 7 210 1 87
-13 222 -56 339 -109 50 -22 126 -52 170 -67 44 -15 98 -35 120 -45 79 -36
407 -42 547 -10 29 6 73 18 98 26 25 8 90 28 145 46 109 34 175 71 175 98 0
43 -82 67 -124 35 -10 -8 -49 -24 -85 -36 -36 -12 -78 -28 -93 -35 -48 -25
-275 -64 -368 -64 -90 0 -226 23 -270 45 -14 7 -41 16 -60 20 -39 8 -151 50
-190 71 -57 32 -215 84 -371 123 -88 21 -195 26 -274 11z"/>
<path d="M7390 3631 c-74 -9 -275 -63 -336 -92 -23 -10 -46 -19 -52 -19 -5 0
-67 -23 -137 -51 -167 -67 -243 -74 -450 -44 -48 7 -205 71 -349 142 -57 29
-83 35 -156 40 -78 5 -98 3 -196 -26 -60 -18 -118 -41 -129 -51 -23 -22 -145
-79 -219 -104 -75 -26 -125 -29 -221 -17 -106 15 -153 30 -270 88 -49 25 -135
63 -189 85 -100 40 -100 40 -210 36 -73 -3 -123 -10 -146 -21 -19 -9 -60 -23
-90 -32 -30 -9 -75 -27 -100 -40 -181 -97 -266 -120 -418 -112 -99 6 -123 11
-200 42 -48 20 -107 44 -132 52 -25 9 -49 19 -55 23 -17 13 -128 50 -150 50
-36 0 -65 -28 -65 -64 0 -52 45 -82 101 -66 31 9 79 -6 149 -49 8 -5 40 -16
70 -26 30 -9 64 -21 75 -25 58 -25 169 -44 255 -44 119 0 235 32 400 111 185
88 235 104 320 105 64 0 88 -5 160 -35 92 -38 161 -69 200 -92 94 -54 191 -80
330 -90 144 -10 275 28 490 140 137 71 250 85 338 41 198 -99 298 -140 382
-156 25 -4 58 -13 73 -19 53 -21 207 -13 303 14 49 14 98 29 109 34 37 15 130
49 155 56 14 4 30 12 37 17 6 5 56 22 110 38 54 15 118 37 143 47 36 14 71 18
180 17 155 0 207 -14 390 -102 134 -65 195 -89 245 -97 22 -3 70 -13 107 -22
123 -28 306 -4 518 67 128 42 130 44 130 89 0 53 -27 77 -70 62 -17 -5 -43
-19 -57 -31 -14 -11 -34 -20 -43 -20 -10 0 -47 -11 -83 -25 -37 -13 -112 -32
-169 -41 -100 -16 -107 -16 -225 5 -67 11 -139 30 -160 40 -130 66 -279 128
-370 155 -63 18 -234 27 -323 17z"/>
</g>
</svg>
