<svg xmlns="http://www.w3.org/2000/svg" xmlns:xlink="http://www.w3.org/1999/xlink" width="500" zoomAndPan="magnify" viewBox="0 0 375 374.999991" height="500" preserveAspectRatio="xMidYMid meet" version="1.0"><defs><clipPath id="d791f0550c"><path d="M 37.5 123 L 336 123 L 336 337.5 L 37.5 337.5 Z M 37.5 123 " clip-rule="nonzero"/></clipPath></defs><rect x="-37.5" width="450" fill="#ffffff" y="-37.499999" height="449.999989" fill-opacity="1"/><rect x="-37.5" width="450" fill="#ffffff" y="-37.499999" height="449.999989" fill-opacity="1"/><path fill="#000000" d="M 283.371094 221.164062 C 295.757812 221.164062 305.453125 211.46875 305.453125 199.078125 C 305.453125 186.691406 295.757812 176.996094 283.371094 176.996094 C 270.984375 176.996094 261.289062 186.691406 261.289062 199.078125 C 261.289062 211.46875 270.984375 221.164062 283.371094 221.164062 Z M 283.371094 221.164062 " fill-opacity="1" fill-rule="nonzero"/><path fill="#000000" d="M 283.371094 167.839844 C 286.601562 167.839844 288.757812 165.6875 288.757812 162.457031 L 288.757812 151.683594 C 288.757812 148.453125 286.601562 146.296875 283.371094 146.296875 C 280.140625 146.296875 277.984375 148.453125 277.984375 151.683594 L 277.984375 162.457031 C 277.984375 165.6875 280.140625 167.839844 283.371094 167.839844 Z M 283.371094 167.839844 " fill-opacity="1" fill-rule="nonzero"/><path fill="#000000" d="M 253.746094 176.996094 C 254.824219 178.074219 256.441406 178.613281 257.519531 178.613281 C 258.59375 178.613281 260.210938 178.074219 261.289062 176.996094 C 263.441406 174.84375 263.441406 171.609375 261.289062 169.457031 L 253.746094 161.917969 C 251.59375 159.761719 248.363281 159.761719 246.207031 161.917969 C 244.054688 164.070312 244.054688 167.300781 246.207031 169.457031 Z M 253.746094 176.996094 " fill-opacity="1" fill-rule="nonzero"/><path fill="#000000" d="M 246.746094 193.695312 L 235.972656 193.695312 C 232.742188 193.695312 230.589844 195.847656 230.589844 199.078125 C 230.589844 202.3125 232.742188 204.464844 235.972656 204.464844 L 246.746094 204.464844 C 249.976562 204.464844 252.132812 202.3125 252.132812 199.078125 C 252.132812 195.847656 249.4375 193.695312 246.746094 193.695312 Z M 246.746094 193.695312 " fill-opacity="1" fill-rule="nonzero"/><path fill="#000000" d="M 245.667969 236.78125 C 246.746094 237.859375 248.363281 238.398438 249.4375 238.398438 C 250.515625 238.398438 252.132812 237.859375 253.210938 236.78125 L 260.75 229.242188 C 262.902344 227.085938 262.902344 223.855469 260.75 221.699219 C 258.59375 219.546875 255.363281 219.546875 253.210938 221.699219 L 245.667969 229.242188 C 243.515625 231.394531 243.515625 234.628906 245.667969 236.78125 Z M 245.667969 236.78125 " fill-opacity="1" fill-rule="nonzero"/><path fill="#000000" d="M 288.757812 247.015625 L 288.757812 236.242188 C 288.757812 233.011719 286.601562 230.855469 283.371094 230.855469 C 280.140625 230.855469 277.984375 233.011719 277.984375 236.242188 L 277.984375 247.015625 C 277.984375 250.246094 280.140625 252.402344 283.371094 252.402344 C 286.601562 252.402344 288.757812 249.707031 288.757812 247.015625 Z M 288.757812 247.015625 " fill-opacity="1" fill-rule="nonzero"/><path fill="#000000" d="M 316.765625 238.398438 C 318.378906 238.398438 319.457031 237.859375 320.535156 236.78125 C 322.6875 234.628906 322.6875 231.394531 320.535156 229.242188 L 312.992188 221.699219 C 310.839844 219.546875 307.609375 219.546875 305.453125 221.699219 C 303.300781 223.855469 303.300781 227.085938 305.453125 229.242188 L 312.992188 236.78125 C 314.070312 237.859375 315.6875 238.398438 316.765625 238.398438 Z M 316.765625 238.398438 " fill-opacity="1" fill-rule="nonzero"/><path fill="#000000" d="M 314.609375 199.078125 C 314.609375 202.3125 316.765625 204.464844 319.996094 204.464844 L 330.765625 204.464844 C 334 204.464844 336.152344 202.3125 336.152344 199.078125 C 336.152344 195.847656 334 193.695312 330.765625 193.695312 L 319.996094 193.695312 C 316.765625 193.695312 314.609375 196.386719 314.609375 199.078125 Z M 314.609375 199.078125 " fill-opacity="1" fill-rule="nonzero"/><path fill="#000000" d="M 309.222656 178.613281 C 310.839844 178.613281 311.917969 178.074219 312.992188 176.996094 L 320.535156 169.457031 C 322.6875 167.300781 322.6875 164.070312 320.535156 161.917969 C 318.378906 159.761719 315.148438 159.761719 312.992188 161.917969 L 305.453125 169.457031 C 303.300781 171.609375 303.300781 174.84375 305.453125 176.996094 C 306.53125 178.074219 307.609375 178.613281 309.222656 178.613281 Z M 309.222656 178.613281 " fill-opacity="1" fill-rule="nonzero"/><path fill="#000000" d="M 122.867188 104.824219 C 125.023438 104.824219 126.636719 105.363281 128.792969 105.902344 C 123.40625 98.898438 112.097656 90.28125 85.703125 90.28125 C 52.851562 90.28125 42.617188 103.210938 39.921875 111.289062 L 96.476562 111.289062 C 105.632812 105.902344 114.25 103.746094 122.867188 104.824219 Z M 122.867188 104.824219 " fill-opacity="1" fill-rule="nonzero"/><path fill="#000000" d="M 138.488281 101.054688 C 139.027344 100.515625 139.027344 99.976562 139.566406 99.4375 C 140.101562 90.820312 136.332031 77.894531 119.636719 61.199219 C 95.9375 37.5 79.78125 39.65625 72.238281 43.425781 L 112.097656 82.742188 C 126.101562 86.511719 134.179688 94.054688 138.488281 101.054688 Z M 138.488281 101.054688 " fill-opacity="1" fill-rule="nonzero"/><path fill="#000000" d="M 82.472656 134.988281 C 59.3125 158.144531 61.46875 174.304688 64.699219 182.382812 L 129.332031 117.75 C 126.636719 116.675781 123.40625 115.597656 119.097656 115.597656 C 111.019531 115.058594 98.632812 119.367188 82.472656 134.988281 Z M 82.472656 134.988281 " fill-opacity="1" fill-rule="nonzero"/><path fill="#000000" d="M 193.964844 134.988281 C 170.265625 111.289062 154.105469 113.980469 146.566406 117.210938 L 211.199219 182.382812 C 215.507812 174.84375 217.121094 158.683594 193.964844 134.988281 Z M 193.964844 134.988281 " fill-opacity="1" fill-rule="nonzero"/><path fill="#000000" d="M 180.5 111.289062 L 237.050781 111.289062 C 234.359375 103.210938 224.125 90.28125 191.269531 90.28125 C 167.570312 90.28125 156.261719 96.746094 150.335938 103.210938 C 150.335938 103.746094 150.335938 104.824219 149.796875 105.363281 C 157.339844 103.746094 167.570312 104.285156 180.5 111.289062 Z M 180.5 111.289062 " fill-opacity="1" fill-rule="nonzero"/><g clip-path="url(#d791f0550c)"><path fill="#000000" d="M 330.765625 326.726562 L 207.964844 326.726562 C 198.273438 312.722656 179.421875 291.179688 148.183594 280.410156 C 140.101562 277.714844 131.484375 275.5625 122.328125 273.40625 C 109.941406 290.640625 98.632812 300.875 98.09375 301.414062 C 97.015625 302.492188 95.9375 302.492188 94.320312 302.492188 C 92.707031 302.492188 91.089844 301.953125 90.011719 300.875 C 87.859375 298.722656 88.398438 295.488281 90.550781 293.335938 C 91.089844 292.796875 131.484375 257.25 141.179688 201.234375 C 144.410156 184.539062 146.027344 160.300781 146.566406 132.292969 L 137.949219 123.675781 L 132.023438 130.140625 C 130.945312 154.375 129.332031 174.84375 126.101562 191.539062 C 115.867188 251.324219 73.316406 288.488281 71.699219 290.101562 C 70.625 291.179688 69.546875 291.179688 67.929688 291.179688 C 66.316406 291.179688 64.699219 290.640625 63.621094 289.566406 C 61.46875 287.410156 62.007812 284.179688 64.160156 282.023438 C 64.160156 282.023438 69.546875 277.175781 76.546875 269.097656 C 64.160156 268.558594 53.925781 269.097656 45.847656 269.097656 C 41 269.097656 37.769531 272.867188 37.769531 277.714844 L 37.769531 332.113281 C 37.769531 335.34375 39.921875 337.5 43.15625 337.5 L 330.230469 337.5 C 332.921875 337.5 335.613281 334.808594 335.613281 332.113281 C 335.613281 329.421875 334 326.726562 330.765625 326.726562 Z M 330.765625 326.726562 " fill-opacity="1" fill-rule="nonzero"/></g><path fill="#000000" d="M 332.921875 280.945312 L 313.53125 273.40625 C 300.066406 268.019531 284.988281 268.019531 270.984375 273.40625 C 259.671875 277.714844 247.285156 277.714844 236.511719 273.40625 C 223.046875 268.019531 207.964844 268.019531 193.964844 273.40625 C 184.269531 277.175781 173.496094 277.714844 163.261719 274.484375 C 170.804688 278.253906 177.804688 282.023438 184.269531 286.871094 C 189.117188 286.332031 193.425781 285.253906 197.734375 283.640625 C 209.042969 279.332031 221.433594 279.332031 232.203125 283.640625 C 245.667969 289.027344 260.75 289.027344 274.753906 283.640625 C 286.0625 279.332031 298.453125 279.332031 309.222656 283.640625 L 328.613281 291.179688 C 329.152344 291.179688 329.691406 291.71875 330.765625 291.71875 C 332.921875 291.71875 335.078125 290.101562 335.613281 288.488281 C 337.230469 285.253906 335.613281 282.023438 332.921875 280.945312 Z M 332.921875 280.945312 " fill-opacity="1" fill-rule="nonzero"/><path fill="#000000" d="M 332.921875 307.878906 L 313.53125 300.335938 C 300.066406 294.949219 284.988281 294.949219 270.984375 300.335938 C 259.671875 304.644531 247.285156 304.644531 236.511719 300.335938 C 224.125 295.488281 211.199219 294.949219 198.8125 298.722656 C 202.042969 301.953125 204.734375 304.644531 207.429688 307.878906 C 216.046875 306.261719 224.664062 307.339844 232.742188 310.570312 C 246.207031 315.957031 261.289062 315.957031 275.292969 310.570312 C 286.601562 306.261719 298.988281 306.261719 309.761719 310.570312 L 323.226562 315.957031 L 329.152344 318.109375 C 329.691406 318.109375 330.230469 318.648438 331.304688 318.648438 C 332.921875 318.648438 334.539062 318.109375 335.613281 316.496094 C 336.152344 315.957031 336.152344 315.417969 336.691406 314.878906 C 337.230469 312.1875 335.613281 308.953125 332.921875 307.878906 Z M 332.921875 307.878906 " fill-opacity="1" fill-rule="nonzero"/></svg>