<?xml version="1.0" encoding="UTF-8"?>
<svg version="1.1" xmlns="http://www.w3.org/2000/svg" width="1200" height="1200" viewBox="0 0 1200 1200" preserveAspectRatio="xMidYMid meet">
<g transform="translate(0.000000,1200.000000) scale(0.100000,-0.100000)"
fill="#B1801D" stroke="none">
<path d="M4705 9569 c-109 -12 -174 -29 -248 -65 -38 -19 -74 -34 -80 -34 -7
0 -28 -16 -47 -35 -19 -19 -37 -35 -42 -35 -13 0 -126 -118 -133 -139 -3 -11
-14 -30 -24 -43 -11 -13 -39 -62 -63 -108 -41 -78 -46 -97 -63 -222 -18 -131
-18 -143 -2 -257 19 -136 15 -161 -33 -186 -25 -13 -41 -14 -78 -6 -26 5 -51
6 -57 2 -5 -5 -41 -14 -79 -20 -75 -13 -251 -98 -316 -152 -19 -16 -54 -39
-77 -50 -24 -12 -43 -27 -43 -35 0 -7 -16 -30 -36 -50 -44 -44 -97 -112 -117
-151 -8 -15 -24 -36 -35 -46 -13 -12 -27 -48 -37 -95 -10 -42 -23 -85 -30 -97
-8 -11 -17 -38 -21 -60 -4 -22 -15 -57 -25 -77 -11 -21 -19 -58 -19 -86 0 -43
4 -52 26 -67 21 -13 37 -16 73 -10 77 12 1844 15 1891 3 36 -9 45 -8 68 9 47
35 58 65 45 120 -41 168 -69 261 -90 291 -12 19 -23 39 -23 44 0 17 -72 131
-106 168 -86 94 -203 200 -221 200 -5 0 -27 13 -49 29 -21 15 -57 34 -79 41
-22 7 -56 23 -77 36 -42 27 -149 54 -212 54 -65 0 -106 11 -116 30 -5 10 -6
110 -1 246 7 210 9 232 29 264 12 19 27 51 32 71 6 20 21 51 34 70 14 19 42
58 62 87 20 30 46 57 58 62 12 4 38 24 59 44 50 47 186 111 262 125 38 6 279
9 655 7 l595 -3 95 -30 c142 -45 250 -99 280 -139 14 -19 35 -37 47 -40 13 -3
33 -22 45 -43 12 -20 34 -51 49 -68 16 -18 35 -54 42 -80 8 -27 25 -65 37 -86
19 -33 23 -57 29 -200 4 -89 6 -985 5 -1992 -1 -1255 1 -1834 9 -1843 7 -9 6
-25 -3 -52 -10 -30 -11 -54 -4 -93 6 -31 6 -71 0 -101 -6 -33 -5 -65 4 -100 9
-38 10 -67 2 -107 -14 -79 -9 -1675 6 -1804 12 -94 11 -100 -8 -119 -14 -14
-31 -19 -57 -18 -21 2 -87 4 -148 5 -60 2 -126 9 -146 15 -53 18 -108 -2 -131
-47 -18 -37 -12 -58 31 -108 26 -31 101 -33 101 -4 0 22 52 47 72 35 7 -5 176
-9 375 -9 276 0 365 -3 374 -12 22 -22 72 -15 102 12 21 20 27 35 27 65 0 64
-23 73 -172 65 -201 -10 -307 -24 -335 -42 -25 -16 -26 -16 -44 6 -25 31 -24
41 5 41 32 0 53 35 70 117 19 96 12 959 -9 1048 -22 93 -28 291 -9 326 22 43
34 35 34 -20 0 -59 13 -97 44 -131 13 -14 30 -45 38 -70 30 -85 71 -175 97
-210 70 -95 183 -200 246 -226 36 -15 160 -110 240 -184 28 -26 73 -61 102
-80 44 -27 53 -38 58 -71 4 -22 2 -46 -5 -59 -33 -62 -61 -192 -71 -330 -7
-97 -16 -153 -26 -171 -18 -31 -13 -64 18 -102 29 -38 62 -35 96 10 28 36 28
37 29 207 1 94 7 187 13 206 32 107 42 150 46 195 5 48 4 51 -27 70 -21 13
-35 32 -41 54 -6 24 -34 59 -89 113 l-80 78 7 47 c4 27 8 122 10 213 1 91 8
181 14 200 6 19 11 95 11 168 0 152 -30 309 -75 396 -14 27 -25 55 -25 61 0 7
-9 20 -21 31 -12 10 -28 35 -36 55 -13 32 -80 98 -170 165 -48 35 -170 84
-241 96 -59 10 -73 9 -102 -5 -29 -15 -36 -15 -55 -3 -29 19 -38 67 -22 114 9
29 12 471 11 2008 -1 1953 -1 1971 -21 2025 -12 29 -24 78 -28 106 -4 29 -15
63 -24 75 -10 13 -27 43 -38 69 -11 25 -34 61 -52 81 -17 20 -31 40 -31 46 0
5 -19 21 -42 35 -24 14 -58 41 -76 61 -18 20 -41 36 -51 36 -10 0 -32 16 -50
35 -17 19 -37 35 -45 35 -7 0 -46 15 -87 34 -141 64 -205 70 -819 71 -300 1
-576 -2 -615 -6z m-540 -1223 c22 -8 60 -15 85 -16 67 -1 241 -70 305 -122 30
-24 73 -54 96 -68 23 -14 52 -41 65 -60 13 -19 42 -49 66 -66 32 -23 46 -41
55 -74 7 -24 22 -53 33 -65 11 -12 20 -27 20 -34 0 -7 25 -58 56 -112 87 -154
68 -181 -114 -160 -129 16 -1582 7 -1613 -9 -28 -16 -79 -12 -86 6 -9 23 15
92 48 140 16 23 32 59 37 80 5 22 21 57 35 78 15 21 27 43 27 49 0 5 12 24 28
42 15 18 54 66 87 105 56 68 116 117 221 182 60 38 236 95 314 104 36 4 74 10
85 15 28 10 102 3 150 -15z m2653 -3685 c53 -28 109 -53 123 -56 14 -4 48 -25
75 -47 27 -22 73 -58 101 -80 34 -25 62 -56 78 -88 13 -27 29 -51 35 -55 5 -3
16 -27 24 -53 9 -26 24 -72 35 -102 17 -47 20 -80 20 -215 0 -88 -3 -191 -7
-230 -7 -66 -5 -99 13 -251 8 -61 -3 -104 -27 -104 -10 0 -52 34 -119 94 -14
13 -43 33 -65 44 -37 19 -114 98 -175 182 -32 43 -109 187 -109 204 0 6 -8 22
-17 36 -10 13 -29 51 -43 84 -21 50 -30 61 -48 59 l-22 -3 2 228 c1 163 -3
234 -11 251 -27 50 -7 151 31 151 4 0 52 -22 106 -49z"/>
<path d="M4025 7023 c-27 -26 -35 -59 -24 -95 5 -18 8 -97 7 -176 -3 -132 -1
-145 16 -158 27 -19 70 -18 88 4 25 27 29 56 18 107 -7 33 -8 82 0 164 l10
116 -30 28 c-35 31 -61 34 -85 10z"/>
<path d="M3285 6998 c-29 -26 -28 -18 -72 -406 -7 -58 17 -96 55 -87 52 12 71
43 77 125 13 202 17 229 36 251 28 33 25 85 -7 114 -33 31 -55 31 -89 3z"/>
<path d="M4713 7008 c-16 -8 -23 -20 -23 -41 0 -42 19 -153 36 -214 10 -36 13
-72 8 -116 -9 -85 11 -127 60 -127 43 0 70 30 70 78 0 20 -10 86 -22 146 -12
61 -22 139 -22 176 0 99 -36 132 -107 98z"/>
<path d="M3648 6383 c-15 -16 -18 -42 -19 -159 -1 -76 -2 -157 -3 -180 -2 -84
55 -120 108 -68 29 29 32 53 15 120 -9 33 -8 73 0 156 13 126 10 134 -50 144
-26 4 -38 1 -51 -13z"/>
<path d="M4358 6383 c-17 -4 -25 -22 -31 -68 -1 -11 4 -68 12 -128 12 -89 12
-114 1 -147 -16 -47 -5 -80 34 -105 33 -22 59 -12 92 31 l27 35 -17 73 c-11
46 -17 104 -15 157 4 130 -25 173 -103 152z"/>
<path d="M9146 6111 c-7 -11 -76 -44 -96 -46 -38 -5 -139 -40 -178 -62 -23
-14 -61 -29 -84 -35 -23 -5 -54 -19 -69 -32 -15 -13 -48 -27 -73 -30 -25 -4
-48 -11 -51 -17 -7 -11 -129 -96 -219 -152 -106 -67 -243 -195 -311 -293 -126
-178 -167 -257 -219 -426 -46 -150 -49 -256 -10 -417 14 -58 27 -117 30 -130
3 -13 25 -43 50 -67 24 -24 44 -47 44 -52 0 -14 -23 -37 -62 -62 -22 -15 -44
-41 -54 -65 -10 -22 -26 -59 -36 -82 -10 -23 -18 -52 -18 -64 0 -12 -16 -56
-35 -99 -19 -43 -35 -82 -35 -87 0 -6 -14 -40 -30 -77 -17 -36 -42 -122 -56
-191 -13 -68 -34 -145 -45 -171 -17 -38 -20 -58 -14 -109 8 -78 37 -113 77
-94 28 12 43 64 32 107 -9 31 12 55 37 41 28 -15 53 -3 85 39 46 60 241 252
256 252 8 0 35 13 61 30 26 16 52 30 58 30 6 0 24 9 40 20 36 26 107 46 236
67 90 15 127 15 315 5 117 -7 224 -13 238 -13 79 -2 110 -10 110 -29 0 -23
-36 -77 -95 -145 -24 -27 -55 -66 -68 -85 -13 -19 -36 -53 -51 -75 -31 -44
-109 -121 -194 -189 -31 -25 -64 -53 -73 -61 -9 -8 -43 -26 -75 -39 -32 -13
-72 -31 -89 -40 -16 -9 -46 -19 -65 -22 -19 -3 -60 -15 -90 -26 -47 -17 -83
-20 -257 -21 -177 -2 -204 0 -219 15 -16 15 -15 19 17 48 19 17 57 43 84 57
80 41 105 62 105 88 0 29 -34 55 -73 55 -31 0 -44 -12 -125 -113 -40 -50 -67
-74 -110 -94 -32 -16 -57 -35 -57 -43 0 -9 18 -21 45 -30 25 -9 56 -22 70 -30
98 -56 129 -63 306 -67 l172 -5 126 42 c69 23 128 45 131 49 2 4 32 16 67 26
35 10 77 30 93 45 17 15 64 54 106 86 42 33 105 93 139 133 81 93 213 281 247
349 15 31 36 57 48 62 25 10 35 29 35 68 0 43 -11 50 -81 55 -37 3 -80 12 -96
20 -52 27 -330 53 -538 51 -186 -3 -348 -54 -555 -176 -45 -27 -90 -75 -143
-155 -16 -23 -46 -53 -67 -67 -26 -17 -39 -34 -44 -58 -4 -18 -15 -44 -25 -57
l-19 -25 -13 43 c-12 39 -11 47 8 85 12 22 27 67 33 98 6 31 17 62 25 68 8 7
23 35 34 63 10 29 33 79 49 112 16 33 46 105 66 160 20 55 45 117 56 137 11
20 20 43 20 50 1 46 80 73 163 57 37 -7 55 -3 142 33 111 44 236 104 306 146
63 37 254 217 289 272 16 25 38 59 50 75 69 101 88 135 95 165 4 19 15 49 25
65 18 30 82 212 94 270 4 17 10 68 15 115 5 47 16 103 24 125 9 24 19 103 25
197 7 117 13 163 25 182 10 15 17 46 17 75 0 43 -4 53 -31 75 -31 26 -63 34
-73 17z m-22 -181 c-1 -19 -7 -55 -13 -79 -7 -24 -16 -87 -22 -140 -28 -272
-20 -235 -94 -461 -21 -63 -52 -146 -70 -185 -18 -38 -35 -82 -38 -96 -4 -14
-27 -52 -52 -84 -25 -32 -45 -62 -45 -67 0 -13 -172 -179 -203 -195 -16 -8
-55 -35 -87 -61 -32 -26 -80 -56 -107 -66 -26 -11 -60 -28 -75 -38 -14 -10
-32 -18 -40 -18 -7 0 -38 -13 -68 -30 -57 -30 -85 -34 -164 -24 -58 8 -60 29
-5 46 32 9 45 20 55 44 7 18 21 40 31 50 10 9 29 36 43 59 44 74 122 189 151
223 16 18 29 38 29 45 0 7 16 34 35 61 19 27 35 54 35 58 0 10 24 37 107 124
62 66 76 109 43 136 -23 18 -55 23 -85 12 -13 -5 -51 -58 -120 -169 -7 -11
-24 -32 -39 -46 -14 -14 -32 -41 -40 -60 -8 -19 -24 -43 -35 -53 -12 -11 -21
-24 -21 -30 0 -6 -16 -33 -35 -60 -19 -27 -35 -53 -35 -57 0 -3 -16 -32 -35
-64 -19 -32 -43 -85 -55 -119 -35 -105 -66 -129 -111 -87 -17 16 -21 40 -31
189 -13 185 -4 275 32 337 10 17 23 48 30 70 7 22 18 47 25 55 6 8 28 44 48
80 19 36 45 74 57 85 12 11 28 32 36 48 18 34 198 216 240 243 59 36 119 78
164 115 25 20 68 47 95 61 28 14 75 37 105 53 30 15 62 33 70 40 8 7 37 18 64
24 27 7 62 21 78 33 37 26 75 37 118 35 33 -2 35 -4 34 -37z"/>
<path d="M3150 6058 c-12 -20 -20 -51 -20 -78 0 -47 -23 -185 -40 -252 -12
-43 1 -108 25 -128 20 -17 70 -4 88 23 9 14 16 65 21 135 4 72 14 135 26 170
26 73 25 88 -6 129 -33 44 -67 44 -94 1z"/>
<path d="M4863 6035 c-15 -31 -15 -42 -3 -97 7 -35 15 -109 17 -165 4 -92 7
-104 26 -118 57 -40 115 1 103 72 -3 21 -12 92 -19 159 -10 102 -16 125 -37
152 -34 43 -66 42 -87 -3z"/>
<path d="M4020 5960 c-13 -7 -16 -41 -15 -231 1 -219 1 -222 24 -240 30 -25
32 -24 66 11 l29 30 3 183 c1 106 -2 193 -8 208 -15 39 -66 59 -99 39z"/>
<path d="M3593 5338 c-31 -15 -37 -39 -39 -153 0 -55 -7 -143 -14 -195 -19
-139 -18 -181 5 -207 24 -29 66 -30 91 -2 16 18 19 41 21 200 2 126 8 192 18
222 23 65 19 102 -11 126 -30 23 -39 24 -71 9z"/>
<path d="M4020 5291 c-14 -27 -13 -114 2 -129 29 -29 104 1 108 43 5 50 -1 66
-32 85 -42 25 -64 25 -78 1z"/>
<path d="M4991 5236 c-25 -26 -25 -27 -12 -104 8 -42 17 -123 20 -179 6 -88
11 -106 30 -127 34 -36 58 -38 81 -8 30 37 33 64 16 116 -11 32 -16 83 -16
160 0 127 -10 151 -65 162 -24 4 -35 0 -54 -20z"/>
<path d="M3050 5225 c-6 -8 -16 -49 -21 -92 -9 -78 -44 -257 -55 -286 -3 -8 1
-30 9 -49 16 -38 56 -55 88 -37 23 12 42 64 35 94 -8 31 8 126 36 217 21 69
20 126 -3 154 -15 18 -73 18 -89 -1z"/>
<path d="M4459 5223 c-15 -18 -16 -70 -5 -203 5 -47 9 -121 10 -166 1 -92 13
-114 60 -114 41 1 62 18 74 62 8 29 7 43 -6 65 -11 20 -17 71 -21 184 -4 110
-10 161 -20 173 -17 21 -75 21 -92 -1z"/>
<path d="M4022 4438 c-6 -8 -9 -104 -8 -256 1 -229 2 -244 20 -258 32 -23 83
-18 101 9 13 20 14 38 5 123 -6 56 -8 156 -4 232 5 98 3 136 -6 147 -15 18
-93 20 -108 3z"/>
<path d="M5092 4424 c-29 -20 -29 -71 -1 -150 15 -42 23 -95 28 -186 7 -141
16 -161 70 -161 65 0 70 21 46 179 -9 54 -20 135 -26 179 -16 130 -29 155 -78
155 -9 0 -27 -7 -39 -16z"/>
<path d="M2938 4393 c-29 -31 -42 -108 -39 -224 1 -52 -2 -71 -18 -91 -29 -37
-38 -100 -16 -121 22 -22 67 -22 96 2 21 17 23 28 29 148 3 80 10 136 17 145
7 8 19 34 28 57 32 91 -36 149 -97 84z"/>
<path d="M4560 4375 c-16 -19 -9 -170 9 -203 16 -30 47 -28 67 4 15 22 16 36
7 107 -8 57 -16 85 -29 94 -23 17 -39 16 -54 -2z"/>
<path d="M3516 4263 l-38 -38 6 -83 c4 -58 1 -105 -10 -159 -23 -112 -8 -163
46 -163 52 0 64 28 72 173 3 73 10 159 13 192 7 57 6 61 -22 88 l-29 27 -38
-37z"/>
<path d="M4603 3989 c-44 -13 -47 -32 -34 -207 6 -81 13 -198 16 -260 5 -135
22 -177 70 -177 51 0 59 34 46 189 -6 72 -11 196 -11 276 0 186 -8 202 -87
179z"/>
<path d="M3445 3469 c-25 -20 -26 -26 -21 -73 5 -45 0 -126 -21 -339 -7 -69 5
-87 57 -87 64 0 71 17 75 181 4 129 12 200 31 266 4 16 -1 29 -20 47 -31 32
-64 33 -101 5z"/>
<path d="M5230 3468 c-24 -25 -23 -37 4 -164 9 -40 17 -124 18 -189 2 -104 4
-118 22 -131 27 -18 66 -18 94 2 26 18 28 55 8 146 -8 35 -18 118 -22 185 -4
67 -9 126 -13 131 -7 11 -66 42 -80 42 -6 0 -20 -10 -31 -22z"/>
<path d="M2823 3465 c-29 -12 -33 -19 -33 -54 0 -57 -20 -146 -30 -131 -6 9
-9 8 -13 -6 -10 -34 -18 -289 -10 -300 11 -16 102 -2 114 17 5 8 9 42 9 77 0
85 16 193 41 273 11 36 19 81 17 100 -3 30 -7 34 -33 36 -16 2 -45 -4 -62 -12z"/>
<path d="M4031 3466 c-16 -19 -23 -465 -9 -483 6 -7 30 -13 53 -13 23 0 47 6
53 13 6 7 10 104 10 242 0 138 -4 235 -10 243 -14 17 -83 15 -97 -2z"/>
<path d="M4675 3082 c-30 -6 -45 -22 -45 -47 0 -44 10 -55 49 -55 43 0 61 14
61 50 0 42 -24 61 -65 52z"/>
</g>
</svg>
