<?xml version="1.0" encoding="UTF-8"?>
<svg version="1.1" xmlns="http://www.w3.org/2000/svg" width="1200" height="1200" viewBox="0 0 1200 1200" preserveAspectRatio="xMidYMid meet">
<g transform="translate(0.000000,1200.000000) scale(0.100000,-0.100000)"
fill="#B1801D" stroke="none">
<path d="M5944 9861 c-100 -46 -133 -167 -69 -262 l26 -40 -58 -25 c-32 -14
-101 -46 -153 -71 -52 -25 -178 -85 -280 -133 -102 -48 -255 -121 -340 -162
-85 -42 -243 -117 -350 -168 -107 -51 -251 -120 -320 -153 -69 -33 -208 -99
-310 -147 -102 -48 -234 -111 -295 -140 -60 -29 -157 -75 -215 -102 -58 -28
-132 -63 -165 -78 -33 -15 -118 -56 -190 -90 -71 -34 -195 -93 -275 -130 -167
-78 -650 -311 -759 -367 -115 -58 -113 -54 -112 -289 l1 -199 31 -28 30 -28
271 1 c149 1 274 -2 277 -7 3 -4 4 -969 1 -2143 l-5 -2135 -128 0 -129 0 -29
-33 -30 -34 2 -131 3 -132 -100 -5 c-108 -6 -140 -18 -154 -56 -6 -14 -10 -88
-10 -165 0 -135 1 -141 25 -164 23 -24 28 -25 177 -25 218 0 6805 0 7206 0
l333 0 25 25 c25 25 25 27 22 175 -3 148 -3 150 -31 177 -26 27 -32 28 -130
29 l-102 1 -5 139 c-3 83 -10 148 -17 161 -20 33 -71 44 -188 41 l-105 -3 0
1420 c0 781 2 1744 5 2140 l4 720 286 5 286 5 19 25 c16 22 19 47 22 205 2 99
1 192 -1 207 -4 33 -46 78 -73 78 -10 0 -116 48 -236 106 -119 59 -323 157
-452 219 -129 62 -298 143 -375 180 -77 37 -171 82 -210 100 -38 18 -135 64
-215 103 -184 88 -372 179 -525 252 -66 32 -201 97 -300 145 -99 48 -247 119
-330 157 -82 39 -256 122 -385 185 -265 130 -628 303 -677 322 -29 12 -47 41
-25 41 5 0 19 19 31 41 48 84 8 199 -83 240 -52 23 -90 24 -142 0z m112 -99
c24 -19 44 -53 44 -76 0 -8 -12 -28 -26 -45 -37 -44 -84 -43 -118 2 -34 45
-33 62 8 103 38 38 61 42 92 16z m207 -386 c213 -104 411 -196 532 -249 44
-20 81 -40 83 -46 5 -14 -1734 -16 -1743 -1 -5 8 93 60 114 60 4 0 45 18 90
40 45 22 83 40 86 40 5 0 134 61 365 172 173 83 188 89 233 83 31 -4 114 -38
240 -99z m-1343 -411 c0 -8 -14 -27 -31 -42 -102 -90 -285 -267 -694 -675
-253 -252 -462 -460 -465 -462 -8 -7 -1321 -13 -1325 -6 -3 5 54 34 145 73 74
32 302 138 454 211 87 42 160 76 161 76 2 0 87 41 189 90 103 50 189 90 191
90 1 0 92 43 201 96 110 53 260 125 334 160 248 116 273 128 545 265 148 75
276 137 283 138 6 0 12 -6 12 -14z m2458 -123 c152 -75 360 -177 462 -226 102
-48 316 -151 475 -229 160 -77 331 -159 380 -182 50 -23 144 -68 210 -100 312
-149 501 -237 592 -275 46 -19 83 -40 83 -45 0 -7 -217 -9 -652 -7 -359 1
-658 3 -665 2 -12 0 -1193 1179 -1193 1192 0 20 47 0 308 -130z m-1758 123 c0
-3 -10 -25 -21 -48 -28 -54 -361 -825 -429 -992 -29 -72 -56 -133 -59 -137 -8
-10 -1237 -14 -1233 -5 2 6 599 598 1052 1045 l145 142 272 0 c150 0 273 -2
273 -5z m657 -12 c3 -10 48 -119 101 -243 52 -124 114 -272 137 -330 51 -123
187 -443 220 -516 13 -28 25 -59 27 -68 3 -15 -56 -17 -765 -17 -423 0 -771 2
-774 4 -2 3 10 36 27 74 29 61 76 169 280 643 90 209 129 300 156 358 13 29
24 56 24 60 0 4 7 18 16 30 15 22 18 22 280 22 243 0 265 -1 271 -17z m1235
-578 c326 -327 591 -595 588 -596 -4 0 -1149 0 -1222 1 -5 0 -8 6 -8 14 0 8
-23 68 -51 133 -80 189 -85 200 -154 368 -37 88 -70 169 -75 180 -5 11 -48
112 -96 225 -48 113 -91 209 -95 215 -5 5 -9 19 -9 32 l0 23 264 0 264 0 594
-595z m2323 -862 l0 -158 -3823 -1 c-3513 -1 -3823 0 -3831 15 -11 23 -5 293
7 300 6 3 1728 5 3829 4 l3818 -3 0 -157z m-6743 -2403 l-2 -2143 -148 -1
-147 0 3 2139 3 2140 137 5 c75 3 142 5 147 4 7 0 9 -721 7 -2144z m838 2135
c7 -8 10 -25 6 -39 -6 -24 -30 -36 -79 -36 -53 0 -183 -41 -272 -85 -151 -74
-254 -183 -331 -351 -33 -72 -48 -92 -57 -77 -2 5 -1 139 2 298 l6 290 330 5
c182 3 342 6 356 8 15 1 32 -5 39 -13z m4886 -340 c2 -216 0 -346 -6 -350 -6
-4 -12 0 -14 7 -69 246 -96 299 -210 414 -118 118 -210 159 -446 201 -37 7
-46 12 -48 31 -7 48 -15 47 363 45 l357 -3 4 -345z m402 -1798 l-3 -2140 -150
-1 -150 -1 3 2140 2 2140 138 5 c75 3 143 3 150 1 10 -3 12 -406 10 -2144z
m-1220 2088 c5 -80 30 -105 122 -116 160 -19 263 -61 369 -149 103 -86 182
-227 215 -386 15 -69 22 -79 79 -99 l28 -10 -1 -1730 c0 -951 -2 -1731 -5
-1733 -8 -9 -497 -4 -505 4 -4 5 -15 43 -24 84 -8 41 -36 158 -61 260 -25 102
-58 241 -74 310 -16 69 -34 138 -40 153 -20 51 -15 67 22 67 58 0 50 -26 133
420 46 247 84 451 144 765 30 159 31 172 17 206 -17 42 -82 79 -137 79 -45 0
-111 -33 -137 -69 -38 -50 -40 -60 -164 -756 -16 -88 -34 -195 -40 -237 -7
-43 -15 -78 -18 -78 -3 0 -194 -1 -423 -3 -405 -2 -417 -3 -445 -23 -64 -48
-92 -156 -62 -243 12 -33 58 -65 81 -56 7 3 19 1 26 -4 10 -6 5 -38 -26 -157
-22 -82 -63 -248 -92 -369 -29 -121 -60 -251 -69 -288 l-16 -68 -148 -4 c-88
-2 -149 1 -153 7 -3 5 -7 34 -7 63 -3 85 -6 86 -327 174 l-105 28 0 569 0 569
679 3 680 2 23 22 c21 20 23 29 23 138 0 104 -2 120 -21 144 l-21 27 -600 -1
c-330 -1 -603 1 -606 5 -3 3 10 22 30 43 51 53 94 135 114 219 16 68 16 73 -1
99 -15 24 -21 26 -61 20 -24 -3 -46 -2 -49 3 -3 5 24 37 59 70 66 64 100 119
132 209 14 39 16 57 8 70 -30 47 -222 39 -317 -14 -32 -18 -30 -22 -46 90 -13
91 -35 147 -93 233 -67 100 -99 100 -167 3 -51 -72 -78 -141 -92 -233 -6 -39
-12 -77 -14 -83 -2 -7 -26 -3 -72 12 -73 25 -180 32 -214 14 -55 -30 19 -213
128 -317 25 -23 42 -47 39 -52 -4 -6 -32 -8 -69 -4 -51 4 -66 2 -80 -11 -21
-21 -21 -43 -2 -124 18 -77 41 -122 95 -191 23 -29 40 -55 37 -57 -2 -3 -270
-4 -594 -4 -568 0 -591 0 -614 -19 -23 -18 -24 -25 -24 -145 0 -113 2 -127 21
-146 20 -21 26 -21 697 -20 l677 0 0 -570 c0 -448 -3 -572 -12 -575 -7 -2 -89
-25 -183 -51 -93 -26 -182 -53 -197 -60 -31 -16 -53 -72 -44 -110 12 -46 -1
-50 -161 -47 -172 3 -151 -14 -187 153 -14 63 -58 241 -97 395 -39 154 -72
293 -73 309 -1 28 1 30 43 31 34 1 49 7 67 29 20 23 24 38 24 96 0 77 -11 114
-43 148 -49 52 -60 54 -494 51 -222 -2 -405 0 -409 3 -3 4 -14 64 -25 135 -11
70 -35 214 -53 318 -19 105 -47 260 -61 345 -35 198 -40 220 -68 261 -26 40
-98 79 -145 79 -50 0 -110 -35 -129 -76 -20 -40 -29 25 82 -589 36 -203 70
-388 75 -410 5 -22 21 -110 35 -195 34 -196 35 -200 80 -200 19 0 35 -3 35 -7
0 -4 -29 -122 -64 -263 -79 -314 -123 -502 -132 -558 -4 -23 -10 -45 -15 -48
-17 -10 -489 -10 -491 1 -2 5 -1 787 2 1738 l5 1727 32 20 c20 12 35 30 38 47
32 146 106 284 205 379 96 93 218 154 365 181 143 27 151 30 169 67 9 19 16
52 16 75 l0 41 1983 -2 1982 -3 3 -50z m-1949 -1555 c35 -81 53 -178 46 -240
-7 -58 -57 -205 -79 -236 -12 -16 -16 -13 -39 37 -79 172 -84 267 -25 419 40
104 59 108 97 20z m-284 -289 c54 -25 67 -36 81 -68 8 -21 29 -65 45 -98 31
-64 26 -91 -11 -67 -11 6 -25 12 -30 12 -21 0 -125 78 -156 116 -36 46 -64 97
-64 119 0 25 63 18 135 -14z m659 21 c10 -17 -42 -97 -98 -149 -57 -53 -101
-78 -177 -102 -70 -22 -76 -8 -30 65 17 25 33 58 36 73 6 30 76 82 140 105 44
16 121 21 129 8z m-2652 -175 c26 -24 38 -77 94 -402 38 -225 61 -361 78 -455
9 -47 20 -114 26 -150 20 -121 12 -110 88 -111 37 0 234 0 439 0 358 0 373 -1
397 -20 21 -17 26 -29 26 -65 l0 -44 -504 0 c-278 0 -507 3 -509 8 -3 4 -15
63 -27 132 -11 69 -27 157 -35 195 -7 39 -18 99 -24 135 -6 36 -23 126 -37
200 -15 74 -30 160 -35 190 -8 52 -35 196 -61 322 -9 45 -9 60 2 73 18 22 53
19 82 -8z m4546 6 c6 -12 -2 -74 -23 -183 -18 -91 -47 -241 -64 -335 -18 -93
-36 -190 -41 -215 -5 -25 -19 -99 -31 -165 -11 -66 -31 -172 -43 -235 l-22
-115 -507 -3 -507 -2 0 42 c0 91 -10 89 485 87 303 -1 429 2 439 10 8 6 17 42
21 79 3 37 10 85 15 107 5 22 16 81 25 130 9 50 27 149 40 220 29 152 81 442
90 502 4 25 17 52 32 67 30 31 78 35 91 9z m-1960 -216 c10 -48 -105 -207
-181 -251 -39 -23 -53 -25 -179 -25 -153 -1 -177 6 -251 77 -39 38 -107 160
-107 193 0 23 12 24 400 23 281 -1 315 -2 318 -17z m1097 -442 l0 -60 -1457
-3 c-1163 -2 -1458 0 -1459 10 -2 28 3 103 8 110 2 5 658 7 1456 6 l1452 -3 0
-60z m-1404 -771 c-2 -484 0 -603 11 -611 13 -11 121 -42 303 -88 129 -33 127
-32 123 -73 l-3 -36 -490 1 -490 2 -3 35 c-4 40 -36 27 258 107 85 23 161 49
168 58 10 12 12 139 9 614 l-4 598 60 -3 59 -3 -1 -601z m-1942 77 c17 -11 21
7 -93 -446 -53 -209 -96 -389 -96 -400 0 -33 -20 -45 -78 -45 -63 0 -61 -12
-22 140 21 85 85 346 140 575 16 66 30 131 32 145 3 21 9 26 48 31 25 3 47 7
50 7 3 1 11 -2 19 -7z m667 -3 c1 -2 8 -24 14 -48 6 -25 53 -218 105 -430 52
-212 95 -391 95 -397 0 -14 -87 -18 -106 -5 -6 4 -14 23 -17 42 -15 77 -190
780 -204 817 -7 18 35 34 76 28 18 -2 35 -6 37 -7z m2541 -4 c5 -14 -190 -831
-207 -864 -5 -11 -23 -15 -61 -15 -48 0 -54 2 -52 20 1 11 29 124 61 250 59
228 125 500 137 563 4 18 13 39 22 47 20 20 92 20 100 -1z m639 6 c27 0 35 -4
38 -22 19 -91 98 -420 163 -683 48 -191 49 -180 -16 -180 -38 0 -56 5 -62 15
-4 8 -36 132 -70 275 -34 143 -77 321 -97 395 -19 74 -37 148 -40 164 -5 30
12 50 36 41 8 -3 29 -5 48 -5z m-3399 -12 c8 -14 214 -821 216 -851 2 -18 -15
-19 -378 -19 -228 0 -380 3 -382 9 -2 5 15 79 37 164 49 187 155 620 164 672
l7 37 164 0 c120 0 166 -3 172 -12z m3217 -4 c3 -9 6 -25 6 -37 0 -12 45 -202
100 -422 54 -219 97 -401 95 -403 -2 -3 -174 -4 -382 -4 -264 0 -378 3 -381
11 -2 6 3 32 12 58 19 61 138 531 172 683 14 63 31 118 38 122 6 4 84 8 172 8
139 0 163 -2 168 -16z m1751 -1092 l0 -112 -3525 0 -3525 0 -3 102 c-1 56 0
108 2 115 5 11 619 13 3528 11 l3523 -3 0 -113z m263 -227 c9 -3 12 -29 10
-97 l-3 -93 -3792 -3 -3793 -2 0 93 c0 51 4 97 9 103 10 9 7543 9 7569 -1z"/>
</g>
</svg>
