<?xml version="1.0" encoding="UTF-8"?>
<svg version="1.1" xmlns="http://www.w3.org/2000/svg" width="1200" height="1200" viewBox="0 0 1200 1200" preserveAspectRatio="xMidYMid meet">
<g transform="translate(0.000000,1200.000000) scale(0.100000,-0.100000)"
fill="#B1801D" stroke="none">
<path d="M4185 9600 c-165 -3 -308 -9 -317 -13 -10 -5 -32 -4 -52 3 -22 7 -62
8 -111 4 -70 -6 -80 -10 -109 -40 -18 -19 -38 -34 -45 -34 -8 0 -11 -886 -11
-3563 l0 -3564 55 5 c43 3 56 1 61 -11 5 -14 12 -13 62 4 56 20 83 20 1542 18
817 -1 1796 -2 2175 -2 747 1 892 -1 902 -11 14 -13 41 -5 66 22 29 30 33 52
17 82 -7 13 -10 1181 -10 3526 -1 2315 -4 3513 -11 3525 -5 11 -14 19 -20 19
-5 0 -22 9 -37 20 -24 18 -32 19 -61 9 -20 -7 -60 -9 -104 -6 -91 8 -3588 14
-3992 7z m4109 -126 c23 -22 27 -31 21 -58 -23 -99 -27 -6693 -5 -6831 5 -32
8 -61 5 -65 -2 -3 -109 -5 -236 -3 -174 2 -235 6 -241 15 -5 7 -6 36 -3 65 4
38 5 5827 1 6326 -1 71 -3 81 -26 99 -20 16 -33 19 -70 13 -25 -4 -52 -6 -60
-6 -62 5 -3225 1 -3240 -4 -10 -3 -29 -1 -41 6 -17 9 -34 8 -76 -2 -49 -11
-58 -11 -87 5 -44 23 -84 17 -109 -16 -19 -25 -19 -31 -7 -87 7 -33 10 -70 6
-83 -7 -29 -8 -6178 -1 -6250 3 -29 2 -59 -3 -66 -7 -10 -61 -14 -225 -16
-244 -4 -244 -4 -233 64 3 22 6 1268 6 2768 -1 1500 -1 3006 0 3347 0 366 -4
645 -10 680 -5 33 -7 67 -5 76 8 24 60 43 98 35 55 -11 4480 -7 4491 4 14 14
18 13 50 -16z m-568 -556 c4 -6 7 -1337 7 -2957 -1 -1620 3 -3054 7 -3186 5
-132 6 -243 2 -247 -8 -8 -3501 -12 -3509 -4 -3 2 -4 1441 -4 3197 1 2470 4
3195 13 3207 9 10 24 12 58 7 63 -9 3322 -6 3357 4 29 8 56 0 69 -21z"/>
<path d="M5440 8235 c-67 -21 -144 -93 -164 -154 -23 -71 -20 -99 17 -161 60
-100 191 -142 268 -85 19 13 44 29 56 34 30 14 84 130 76 162 -14 52 -95 169
-117 169 -5 0 -19 8 -30 19 -31 27 -56 31 -106 16z m101 -133 c30 -28 42 -47
46 -77 4 -36 1 -44 -35 -82 -30 -33 -46 -43 -71 -43 -77 0 -117 52 -109 140
10 104 92 134 169 62z"/>
<path d="M6383 8219 c-18 -12 -33 -25 -33 -30 0 -4 -15 -23 -34 -42 -27 -27
-35 -44 -40 -89 -11 -83 0 -116 54 -176 l47 -53 84 -5 c78 -5 87 -3 133 23 64
36 84 65 97 139 14 79 0 132 -48 185 -51 56 -81 69 -160 69 -52 0 -76 -5 -100
-21z m160 -90 c56 -29 72 -93 39 -159 -20 -42 -53 -60 -108 -60 -51 0 -83 31
-91 89 -7 50 20 119 51 131 30 13 84 12 109 -1z"/>
<path d="M5242 7680 c-32 -40 -41 -61 -46 -107 -4 -32 -20 -116 -36 -188 -15
-71 -31 -155 -35 -185 -4 -30 -16 -73 -27 -95 -12 -23 -21 -61 -22 -93 -1 -73
16 -86 104 -78 56 4 69 2 90 -16 l25 -20 -3 -227 c-2 -124 -8 -249 -14 -277
-12 -57 -6 -94 18 -118 26 -26 60 -19 88 17 23 30 25 41 21 93 -3 32 -7 178
-8 324 -3 236 -5 268 -21 293 -18 26 -58 37 -70 18 -9 -14 -66 -21 -87 -11
-10 6 -26 24 -35 41 -15 30 -15 32 9 58 38 39 106 291 107 391 0 35 6 64 17
79 16 23 18 24 138 17 89 -5 130 -3 150 6 25 11 29 10 51 -15 15 -17 24 -41
24 -60 0 -18 9 -56 20 -85 11 -29 20 -65 20 -80 0 -27 38 -179 60 -239 6 -17
10 -48 8 -70 l-3 -38 -60 0 c-33 1 -84 5 -112 9 -50 8 -53 7 -62 -17 -6 -15
-7 -70 -3 -134 4 -59 4 -209 1 -333 -7 -245 -4 -263 45 -272 54 -11 80 41 65
129 -5 32 -9 139 -9 238 0 99 -2 197 -6 218 -5 28 -2 43 10 56 15 16 28 18
101 14 73 -5 87 -3 118 16 44 27 50 61 25 154 -10 39 -18 81 -18 93 0 13 -16
87 -35 165 -19 79 -35 159 -35 178 -1 55 -57 150 -103 174 l-38 19 -59 -22
c-32 -12 -63 -19 -68 -16 -6 3 -50 9 -98 12 -48 3 -100 12 -115 20 -15 8 -32
14 -38 14 -5 0 -27 -22 -49 -50z"/>
<path d="M6241 7692 c-37 -20 -50 -55 -71 -199 -5 -35 -14 -71 -19 -82 -6 -10
-20 -72 -31 -137 -11 -66 -25 -134 -31 -152 -13 -40 -3 -138 16 -169 19 -28
82 -39 131 -21 35 12 37 12 61 -16 21 -24 24 -36 19 -70 -3 -23 -10 -158 -16
-301 -10 -259 -10 -260 11 -277 12 -10 31 -18 44 -18 13 0 32 8 44 18 20 17
20 22 12 207 -4 105 -6 260 -3 347 4 141 3 159 -14 182 -21 29 -50 33 -78 11
-27 -21 -68 -19 -88 4 -36 42 -40 60 -25 99 8 20 18 57 22 81 4 24 16 63 26
87 14 30 22 76 25 146 6 113 17 154 45 169 10 5 67 9 126 9 59 0 124 3 145 6
28 5 40 2 56 -14 24 -24 26 -33 76 -287 28 -143 42 -195 58 -212 15 -16 19
-29 14 -48 -9 -34 -42 -46 -96 -34 -52 12 -92 4 -115 -22 -16 -17 -18 -49 -21
-296 -2 -153 -7 -306 -10 -341 -5 -51 -3 -66 11 -82 27 -30 74 -36 97 -12 19
19 20 27 11 193 -5 96 -8 200 -5 231 2 32 -1 80 -7 108 -9 43 -8 57 5 86 18
38 51 52 84 34 28 -15 79 2 120 40 25 24 30 35 30 76 0 29 -6 54 -16 65 -8 9
-20 48 -25 85 -5 38 -14 84 -20 102 -15 45 -49 212 -49 242 0 14 -11 54 -23
90 -28 79 -49 93 -127 86 -78 -8 -256 -8 -315 -1 -39 5 -58 2 -84 -13z"/>
<path d="M7159 5629 c-16 -17 -29 -35 -29 -39 0 -20 -58 -25 -285 -25 -228 0
-242 -1 -281 -22 -53 -28 -91 -74 -100 -119 -9 -47 11 -132 39 -166 43 -53 53
-54 344 -51 l270 3 44 -35 c28 -22 55 -35 73 -35 46 0 148 57 202 112 42 44
48 55 52 103 6 75 -29 188 -71 230 -20 20 -57 40 -99 53 -94 31 -124 29 -159
-9z m156 -108 c46 -31 64 -71 64 -147 1 -61 -15 -87 -55 -86 -16 0 -41 -7 -56
-16 -28 -16 -31 -16 -94 21 -16 9 -93 12 -294 11 -313 -1 -310 -2 -310 81 0
74 7 76 284 75 289 0 312 3 336 44 39 65 52 67 125 17z"/>
</g>
</svg>
