<?xml version="1.0" encoding="UTF-8"?>
<svg version="1.1" xmlns="http://www.w3.org/2000/svg" width="1200" height="1200" viewBox="0 0 1200 1200" preserveAspectRatio="xMidYMid meet">
<g transform="translate(0.000000,1200.000000) scale(0.100000,-0.100000)"
fill="#B1801D" stroke="none">
<path d="M4830 8971 c-59 -63 -114 -173 -141 -281 -18 -70 -21 -102 -15 -180
10 -165 44 -248 190 -469 103 -155 120 -189 147 -288 47 -170 -1 -364 -132
-540 -24 -31 -30 -48 -25 -67 9 -37 33 -56 72 -56 29 0 40 8 79 57 52 67 93
147 131 258 24 70 28 95 28 205 1 195 -34 296 -181 515 -45 66 -95 147 -112
180 -100 194 -74 413 65 569 48 52 54 81 28 121 -12 19 -25 25 -52 25 -30 0
-44 -8 -82 -49z"/>
<path d="M5753 8975 c-59 -70 -108 -157 -134 -237 -20 -61 -24 -92 -23 -193 0
-76 6 -140 16 -176 23 -80 86 -200 171 -326 137 -201 160 -263 161 -423 0 -87
-4 -128 -18 -170 -27 -79 -68 -157 -115 -220 -23 -30 -41 -64 -41 -75 0 -34
36 -65 75 -65 45 0 91 54 155 180 58 117 80 197 87 320 10 177 -33 306 -171
513 -106 160 -144 231 -166 311 -46 165 -8 330 103 452 35 38 47 60 47 83 0
42 -31 71 -75 71 -28 0 -40 -8 -72 -45z"/>
<path d="M6695 8998 c-45 -35 -121 -162 -150 -249 -50 -150 -44 -308 19 -463
18 -45 75 -147 127 -227 131 -199 125 -189 151 -265 18 -54 22 -91 22 -174 0
-147 -26 -226 -120 -367 -43 -64 -54 -90 -50 -108 9 -36 34 -55 71 -55 46 0
92 56 155 185 60 122 79 192 87 310 11 179 -40 330 -182 536 -126 182 -175
300 -175 423 0 126 44 240 126 328 48 51 56 87 28 126 -20 29 -72 29 -109 0z"/>
<path d="M8080 7326 c-152 -41 -296 -187 -362 -369 l-23 -62 -2 -860 -3 -860
-37 -3 c-77 -7 -180 22 -353 99 -137 61 -242 82 -385 76 -135 -5 -200 -22
-358 -93 -229 -103 -411 -110 -612 -22 -49 21 -108 46 -130 54 -22 9 -47 19
-56 24 -50 26 -176 42 -288 37 -130 -6 -195 -23 -358 -93 -256 -111 -421 -111
-662 0 -269 125 -435 128 -668 14 -81 -40 -115 -51 -158 -53 -69 -2 -95 -23
-95 -76 0 -94 126 -92 311 3 111 56 191 73 306 63 85 -7 114 -16 244 -78 143
-68 216 -87 349 -94 146 -6 256 17 418 88 174 77 199 83 347 83 155 0 144 3
400 -110 105 -46 178 -59 325 -58 135 1 151 3 238 32 52 18 121 45 155 61 133
64 182 75 322 75 143 1 194 -11 342 -81 217 -102 443 -119 643 -49 111 39 210
34 317 -15 56 -25 79 -24 108 6 54 54 18 101 -109 145 -69 23 -107 30 -165 30
-76 0 -187 -22 -206 -41 -5 -5 -18 -9 -30 -9 -20 0 -20 4 -18 202 1 112 2 206
3 211 0 11 18 9 53 -7 34 -15 56 -23 307 -113 202 -72 520 -180 544 -184 18
-4 19 -17 17 -292 -2 -261 -1 -291 15 -308 23 -25 69 -24 95 2 18 18 20 28 15
87 -7 67 4 112 18 77 3 -10 12 -15 21 -11 11 4 13 -1 9 -24 -4 -20 13 -89 55
-223 64 -205 73 -265 46 -317 -34 -65 220 -60 -3025 -60 -3264 0 -3003 -6
-3037 65 -16 34 -16 41 0 118 15 74 81 267 195 567 21 58 83 222 136 365 53
143 110 294 126 336 17 41 30 80 30 85 0 13 68 78 100 95 21 12 350 14 1990
16 l1965 3 17 22 c21 27 23 66 4 91 -13 17 -98 18 -1976 18 -1079 0 -1979 -3
-1999 -7 -59 -11 -126 -50 -169 -99 -37 -42 -71 -116 -142 -310 -10 -27 -83
-221 -161 -430 -244 -652 -259 -699 -262 -810 -2 -56 3 -80 21 -117 27 -55 71
-100 121 -125 34 -17 171 -18 3006 -21 2009 -2 2986 1 3019 8 67 14 133 64
164 125 21 41 26 64 26 131 0 45 -6 101 -13 125 -20 66 -137 410 -151 444 -7
17 -37 100 -66 185 l-54 154 0 589 c0 389 4 604 11 635 20 88 73 184 130 238
102 96 225 118 342 60 66 -32 97 -64 139 -146 33 -64 33 -67 36 -218 4 -142 5
-153 25 -167 30 -21 69 -19 96 7 23 21 24 24 18 167 -8 220 -43 310 -166 423
-82 76 -157 103 -282 103 -92 0 -98 -1 -181 -42 -134 -67 -218 -170 -276 -338
l-27 -80 -2 -528 c-1 -291 -3 -531 -6 -533 -4 -5 -19 0 -102 36 -46 19 -380
137 -639 224 l-180 61 2 540 c2 583 3 588 58 697 38 75 129 161 197 186 127
48 250 20 340 -77 76 -82 97 -153 97 -322 0 -138 6 -155 55 -165 22 -4 38 0
59 17 l29 22 -6 161 c-7 207 -31 279 -131 384 -60 64 -100 91 -179 120 -66 25
-191 29 -267 8z"/>
<path d="M3495 6380 c-110 -11 -175 -27 -270 -66 -157 -66 -221 -142 -320
-378 -38 -89 -78 -183 -90 -211 -27 -59 -127 -294 -258 -605 -192 -455 -286
-686 -297 -730 -8 -31 -10 -172 -8 -450 l3 -405 47 -95 c55 -112 127 -190 230
-251 127 -75 204 -99 383 -119 72 -8 943 -10 3150 -8 2792 3 3056 5 3117 20
204 51 350 136 445 259 40 52 81 142 102 224 13 51 14 735 1 804 -9 47 -117
335 -275 736 -35 88 -93 237 -128 330 -159 416 -248 651 -252 663 -3 8 -10 12
-17 10 -8 -3 -11 -50 -9 -173 l3 -170 44 -112 c78 -199 135 -346 161 -413 13
-36 28 -74 33 -85 27 -64 272 -701 296 -770 7 -22 14 -65 14 -95 0 -218 -187
-374 -490 -409 -116 -13 -6089 -13 -6225 0 -153 15 -237 43 -338 113 -116 80
-187 238 -159 351 12 48 64 176 133 332 18 40 42 97 124 298 20 50 48 115 62
145 14 30 47 107 73 170 26 63 76 180 110 260 34 80 75 177 91 215 16 39 39
89 49 112 11 24 20 45 20 48 0 2 14 34 30 70 55 120 160 196 321 232 68 16
245 17 2094 20 1883 3 2021 4 2033 20 17 23 15 69 -4 98 l-16 25 -1967 -1
c-1081 -1 -2002 -5 -2046 -9z m-1095 -2440 c4 0 25 -16 46 -36 73 -67 181
-118 313 -148 64 -15 376 -16 3228 -17 2806 0 3166 1 3230 15 138 30 280 99
335 164 51 61 56 49 51 -130 -2 -90 -9 -185 -15 -213 -28 -131 -149 -256 -308
-316 -135 -52 43 -49 -3295 -49 -3078 0 -3111 1 -3190 20 -43 11 -102 31 -130
44 -68 31 -157 102 -198 156 -60 80 -69 118 -82 320 -11 165 -10 239 3 202 2
-7 7 -12 12 -12z"/>
<path d="M7937 6272 c-24 -26 -21 -77 5 -101 12 -11 46 -27 77 -36 31 -8 79
-24 106 -35 28 -10 84 -30 125 -44 41 -14 118 -41 170 -62 156 -60 165 -61
197 -37 31 22 38 42 29 79 -7 28 -31 41 -156 84 -116 39 -220 76 -367 129
-125 45 -162 50 -186 23z"/>
<path d="M3952 4785 c-34 -7 -110 -37 -169 -66 -96 -47 -115 -52 -193 -58 -48
-3 -94 -12 -103 -19 -32 -27 -28 -91 7 -114 18 -13 158 -9 211 6 28 7 91 33
140 58 116 58 176 72 279 65 94 -6 164 -28 296 -91 126 -60 193 -77 325 -83
135 -6 233 11 350 63 173 77 272 106 379 111 124 7 217 -15 379 -89 161 -73
207 -83 377 -83 132 1 152 3 225 28 44 15 94 34 110 41 302 137 459 142 716
22 138 -64 224 -88 339 -93 149 -8 230 8 381 72 137 58 232 80 308 70 68 -10
151 -34 193 -57 47 -26 79 -19 103 25 16 30 16 37 4 62 -30 63 -268 126 -409
110 -68 -8 -171 -42 -273 -90 -95 -45 -183 -59 -307 -52 -100 7 -160 25 -301
90 -166 78 -370 106 -525 72 -72 -16 -225 -68 -249 -85 -5 -4 -48 -22 -95 -41
-82 -32 -90 -34 -220 -34 -147 0 -209 14 -329 74 -248 125 -495 132 -752 21
-41 -17 -96 -41 -124 -52 -27 -11 -61 -25 -74 -32 -15 -7 -80 -11 -170 -11
-160 1 -187 7 -346 87 -152 77 -342 106 -483 73z"/>
</g>
</svg>
