<?xml version="1.0" encoding="UTF-8"?>
<svg version="1.1" xmlns="http://www.w3.org/2000/svg" width="1200" height="1200" viewBox="0 0 1200 1200" preserveAspectRatio="xMidYMid meet">
<g transform="translate(0.000000,1200.000000) scale(0.100000,-0.100000)"
fill="#B1801D" stroke="none">
<path d="M5984 9473 c3 -54 9 -127 13 -163 12 -90 8 -104 -25 -93 -41 13 -196
7 -312 -12 -58 -9 -118 -19 -135 -22 -30 -4 -105 -20 -300 -64 -55 -13 -111
-29 -125 -36 -14 -7 -34 -13 -45 -13 -26 0 -252 -78 -280 -96 -11 -7 -38 -17
-60 -22 -66 -16 -188 -68 -350 -150 -49 -25 -97 -48 -105 -52 -67 -31 -101
-49 -142 -77 -27 -17 -64 -37 -83 -44 -19 -7 -35 -16 -35 -20 0 -4 -26 -22
-57 -40 -64 -37 -187 -121 -218 -150 -11 -10 -51 -42 -89 -70 -37 -28 -91 -73
-118 -100 -28 -27 -54 -49 -59 -49 -5 0 -25 -22 -45 -50 -20 -27 -42 -50 -49
-50 -8 0 -27 -17 -42 -37 -15 -21 -34 -42 -42 -47 -22 -13 -131 -129 -131
-138 0 -8 -68 -88 -140 -166 -34 -37 -40 -50 -40 -86 0 -51 14 -66 61 -68 47
-1 77 10 84 31 4 15 21 19 88 24 45 4 116 18 157 32 41 13 94 25 118 25 24 0
98 7 165 16 222 29 568 7 789 -51 73 -19 144 -37 158 -41 14 -3 39 -12 55 -19
17 -7 46 -16 65 -20 19 -4 46 -17 61 -28 15 -11 50 -22 77 -25 43 -4 53 -1 83
26 25 22 47 31 84 35 28 3 86 14 130 26 68 18 214 43 480 82 33 5 134 10 223
11 l164 3 -9 -65 c-4 -36 -8 -433 -8 -883 0 -808 0 -817 -20 -824 -11 -3 -76
-5 -145 -3 -99 3 -2913 3 -3308 1 l-93 -1 -15 -37 c-12 -28 -14 -49 -6 -97 5
-34 7 -108 4 -166 -10 -225 -16 -216 130 -213 57 1 134 6 171 12 51 7 77 6
105 -3 44 -15 50 -38 28 -99 -15 -37 -17 -188 -20 -1387 -2 -740 -7 -1365 -11
-1388 -5 -28 -3 -48 4 -55 6 -6 11 -21 11 -34 0 -22 3 -23 93 -23 50 0 99 5
107 10 11 7 6 10 -20 10 -65 2 -1 17 78 19 86 2 150 -8 131 -20 -9 -5 -6 -9
12 -14 32 -8 109 -3 109 8 0 4 11 20 25 35 30 32 32 72 5 97 -18 17 -35 18
-205 12 -115 -4 -194 -3 -211 3 -24 9 -26 14 -19 48 20 99 13 2474 -7 2752
l-3 35 85 -5 c82 -5 5885 -5 6002 0 31 1 66 -1 78 -5 29 -9 42 -48 29 -82 -17
-44 -19 -152 -21 -1429 -1 -949 1 -1207 11 -1232 30 -73 -7 -107 -104 -96 -33
4 -100 8 -150 9 -49 1 -104 5 -122 9 -64 15 -98 -69 -52 -128 16 -21 29 -26
62 -25 32 0 37 2 22 8 -37 15 62 23 248 18 183 -4 207 0 207 36 0 7 0 639 0
1406 0 887 -4 1400 -10 1411 -16 31 -11 76 10 95 19 17 26 18 79 7 31 -7 100
-12 152 -12 89 0 96 1 108 23 14 26 22 450 10 477 -7 14 -180 16 -1636 14
-895 -1 -1668 -4 -1718 -8 -49 -4 -95 -3 -101 1 -28 20 -33 49 -18 99 13 42
15 161 14 844 -1 437 -1 801 -1 808 2 27 51 32 244 21 105 -6 215 -16 242 -24
28 -7 106 -21 175 -30 69 -10 140 -24 158 -32 17 -7 65 -18 105 -22 45 -5 92
-18 124 -35 69 -34 127 -35 173 -1 19 14 42 25 52 25 10 0 51 11 91 25 39 14
101 33 137 41 36 8 83 19 105 25 92 21 259 41 385 46 165 6 519 -21 585 -45
67 -24 139 -42 171 -42 21 0 42 -8 54 -20 11 -11 32 -20 46 -20 32 0 104 -20
122 -33 8 -6 17 -5 28 3 50 43 36 112 -42 196 -30 33 -54 65 -54 73 0 7 -26
38 -58 70 -32 31 -71 73 -86 94 -16 21 -47 52 -70 68 -22 17 -57 50 -76 74
-19 24 -66 72 -105 105 -38 34 -96 84 -129 113 -32 29 -65 56 -75 61 -9 5 -25
17 -37 28 -11 10 -44 31 -71 46 -28 15 -89 52 -134 83 -147 97 -319 199 -337
199 -8 0 -27 11 -44 25 -16 14 -36 25 -44 25 -8 0 -31 11 -52 24 -20 13 -55
29 -77 36 -22 7 -45 17 -51 21 -6 5 -31 15 -55 23 -42 13 -121 44 -184 71 -73
32 -192 76 -239 89 -204 57 -250 69 -331 87 -91 20 -179 34 -315 49 -41 5
-100 11 -130 15 -30 3 -90 2 -134 -3 -62 -7 -79 -6 -83 5 -3 7 2 57 11 111 9
53 16 130 15 170 l-1 72 -69 0 -69 0 4 -97z m-111 -322 c16 -15 -5 -39 -54
-62 -28 -13 -55 -31 -60 -41 -5 -10 -24 -25 -42 -34 -70 -36 -176 -125 -231
-196 -31 -40 -82 -102 -112 -138 -30 -36 -71 -87 -89 -115 -18 -27 -46 -63
-60 -80 -15 -16 -36 -49 -47 -72 -11 -23 -26 -47 -33 -53 -14 -12 -96 -175
-110 -218 -3 -13 -21 -49 -39 -80 -78 -136 -136 -267 -147 -330 -10 -67 -32
-94 -68 -86 -45 10 -103 34 -129 55 -14 10 -36 19 -51 19 -14 0 -69 12 -121
26 -99 26 -142 33 -375 60 -141 16 -223 15 -471 -5 -163 -14 -201 -21 -277
-52 -109 -45 -133 -50 -172 -33 -19 8 -35 18 -35 23 0 26 15 41 41 41 23 0 37
11 70 55 23 30 45 55 50 55 9 0 66 52 193 175 176 170 170 165 319 264 37 25
67 48 67 51 0 4 37 29 83 55 45 26 96 60 112 75 17 15 46 33 65 41 19 7 54 26
77 42 58 39 227 123 284 142 26 9 59 25 72 35 25 20 92 46 317 124 207 72 476
148 605 171 22 4 66 18 97 31 34 14 77 24 106 24 39 0 53 5 72 25 19 21 30 24
55 19 16 -3 34 -9 38 -13z m247 -57 c25 -25 90 -81 145 -124 55 -43 123 -102
150 -131 150 -158 233 -252 275 -313 14 -20 38 -54 54 -74 26 -34 75 -106 149
-216 15 -22 36 -60 47 -83 11 -23 25 -45 30 -48 6 -3 26 -38 46 -78 19 -40 47
-95 62 -123 15 -27 32 -59 37 -70 6 -11 22 -45 37 -74 30 -60 35 -89 16 -108
-19 -19 -52 -14 -120 18 -34 16 -72 30 -83 30 -11 0 -40 6 -65 14 -196 61
-334 74 -845 80 -311 3 -502 -9 -700 -45 -60 -11 -137 -25 -170 -31 -33 -6
-71 -19 -85 -30 -29 -21 -129 -44 -153 -35 -32 12 -14 88 33 142 9 11 62 108
118 215 55 107 116 222 136 255 19 33 48 82 63 109 15 27 38 60 51 73 12 13
31 41 41 61 10 20 29 46 41 57 13 11 38 43 56 70 49 75 335 359 387 385 15 8
43 35 62 61 33 47 49 55 110 58 24 1 40 -9 75 -45z m250 26 c30 -7 87 -21 125
-32 39 -12 104 -24 145 -29 70 -7 168 -32 250 -64 19 -8 51 -17 70 -21 39 -7
238 -69 285 -89 17 -6 55 -23 85 -37 30 -14 84 -39 120 -56 36 -16 83 -35 105
-42 22 -7 54 -23 72 -36 17 -13 35 -24 38 -24 7 0 74 -30 187 -84 40 -19 102
-56 138 -83 36 -26 100 -69 143 -94 42 -25 99 -66 126 -90 27 -24 71 -60 97
-79 26 -19 59 -46 73 -59 15 -13 44 -37 66 -53 79 -57 181 -152 225 -208 23
-29 134 -110 151 -110 4 0 18 -18 30 -40 13 -22 38 -49 57 -61 l35 -20 -24
-25 -23 -24 -25 24 c-19 17 -42 25 -81 29 -30 3 -80 16 -110 29 -34 15 -94 29
-155 37 -55 6 -131 15 -170 20 -216 26 -597 3 -742 -45 -23 -7 -71 -18 -107
-24 -76 -12 -269 -99 -288 -129 -16 -27 -22 -26 -36 3 -8 18 -7 27 5 39 9 9
18 38 20 66 3 39 -2 61 -22 100 -14 28 -25 61 -25 73 0 13 -7 34 -14 48 -8 14
-49 93 -91 175 -42 83 -94 175 -116 205 -21 30 -48 71 -60 90 -11 19 -30 52
-42 72 -25 42 -96 133 -147 188 -19 21 -55 62 -80 91 -79 93 -153 163 -229
214 -40 28 -79 59 -87 70 -8 11 -36 27 -62 36 -39 13 -48 20 -50 43 -3 28 -3
28 40 23 24 -3 68 -11 98 -17z m-1450 -1515 c0 -18 -5 -25 -20 -25 -15 0 -20
7 -20 25 0 18 5 25 20 25 15 0 20 -7 20 -25z m2836 -1798 c931 0 1696 -2 1702
-6 5 -3 12 -63 15 -132 4 -96 2 -131 -7 -145 -13 -17 -28 -19 -182 -18 -619 5
-6289 3 -6325 -2 -24 -3 -86 -1 -137 5 -67 8 -116 9 -179 1 -82 -10 -88 -10
-107 10 -19 19 -21 30 -18 148 2 70 8 131 12 136 5 5 111 8 242 6 665 -9 3118
-4 3183 6 47 7 76 8 89 1 13 -6 617 -10 1712 -10z"/>
<path d="M5263 4810 c-12 -5 -318 -8 -680 -8 l-658 1 -43 -21 c-44 -23 -87
-80 -97 -129 -4 -15 -9 -55 -12 -88 -5 -56 -3 -63 26 -103 18 -24 39 -46 49
-49 9 -4 28 -15 41 -25 31 -24 82 -23 131 2 45 23 73 25 88 8 7 -9 -1 -71 -28
-208 -21 -107 -40 -229 -44 -270 -3 -41 -15 -118 -26 -170 -11 -52 -25 -149
-31 -215 -5 -66 -15 -140 -21 -165 -5 -25 -14 -76 -18 -115 -5 -38 -24 -164
-44 -280 -20 -115 -36 -233 -36 -262 0 -28 -5 -64 -11 -80 -6 -15 -17 -51 -24
-80 -12 -47 -12 -57 3 -93 16 -37 20 -40 57 -40 38 0 41 2 57 43 9 23 22 98
28 167 7 69 19 166 28 215 8 50 17 127 20 172 4 95 15 111 62 94 34 -12 989
-14 1075 -3 42 6 52 12 64 36 20 42 30 17 35 -86 7 -137 24 -282 37 -313 6
-17 14 -84 16 -150 4 -91 9 -124 22 -139 9 -10 14 -21 11 -25 -3 -3 14 -7 38
-9 41 -3 43 -2 60 39 18 42 18 45 0 91 -10 27 -18 65 -18 85 0 20 -6 73 -14
117 -8 45 -19 131 -26 191 -7 61 -19 130 -28 155 -9 26 -17 86 -18 140 -1 52
-10 133 -19 180 -9 47 -21 121 -26 165 -6 44 -17 125 -25 180 -8 55 -25 188
-39 296 -14 108 -32 215 -40 239 -20 58 -19 63 14 83 23 13 35 15 56 7 49 -19
112 -12 173 19 52 26 59 34 76 80 34 97 -2 248 -66 276 -18 8 -46 23 -63 35
-31 21 -75 25 -112 10z m106 -134 c12 -11 27 -40 35 -65 15 -54 5 -95 -28
-113 -15 -9 -210 -12 -729 -12 -696 -1 -709 -1 -726 19 -10 11 -21 29 -25 39
-12 33 4 102 31 130 l25 27 698 -3 c672 -3 699 -4 719 -22z m-306 -290 c37 -9
48 -40 34 -99 -11 -48 -7 -94 29 -367 8 -63 21 -171 30 -240 19 -157 40 -272
61 -330 9 -25 18 -71 21 -104 l4 -59 -29 7 c-47 12 -625 25 -848 19 -352 -10
-320 -11 -323 15 -2 12 8 62 22 110 15 51 29 127 32 182 3 52 15 133 25 180
10 47 23 144 29 215 5 72 14 144 20 160 12 37 30 184 30 242 0 65 10 68 215
61 105 -4 555 6 570 12 11 5 27 7 35 5 8 -2 28 -6 43 -9z"/>
<path d="M6750 4800 c-41 -11 -104 -46 -127 -72 -31 -33 -41 -66 -44 -144 -2
-55 2 -78 19 -111 12 -24 26 -43 31 -43 4 0 26 -14 47 -31 38 -30 41 -30 109
-23 65 7 125 7 132 1 4 -4 -25 -161 -47 -257 -11 -47 -24 -134 -30 -195 -6
-60 -19 -153 -30 -205 -10 -52 -21 -126 -25 -165 -3 -38 -14 -104 -25 -145
-23 -92 -43 -250 -35 -272 4 -9 0 -29 -8 -45 -8 -15 -17 -46 -21 -68 -12 -71
-47 -288 -55 -350 -5 -33 -16 -87 -26 -119 -15 -50 -15 -64 -4 -98 12 -38 13
-39 58 -36 37 2 47 7 49 23 2 11 10 27 17 35 7 9 15 58 18 120 4 58 18 161 32
230 18 87 25 148 23 199 l-3 74 591 -2 591 -2 30 25 c17 14 33 23 37 19 3 -3
6 -58 6 -122 0 -102 27 -312 44 -339 3 -5 6 -52 7 -106 1 -53 5 -99 10 -102 5
-3 9 -16 9 -30 0 -24 3 -25 48 -22 26 2 46 8 46 13 -1 6 7 22 18 38 23 32 17
77 -14 117 -17 21 -19 34 -13 92 5 48 3 81 -8 115 -8 26 -23 116 -32 198 -9
83 -23 174 -31 204 -9 29 -13 59 -11 66 3 6 -1 45 -9 86 -8 41 -17 119 -19
174 -3 55 -9 120 -14 145 -12 58 -41 211 -51 275 -5 28 -9 76 -9 107 -1 31 -6
69 -12 85 -18 47 -38 226 -27 240 7 9 37 10 106 6 l97 -5 35 31 c19 18 43 39
53 48 15 15 22 42 19 83 0 8 -2 40 -3 70 -4 110 -57 176 -153 192 -60 9 -1360
7 -1396 -2z m770 -101 c444 -1 603 -5 625 -14 26 -10 33 -21 43 -64 31 -134 8
-148 -213 -139 -16 1 -304 2 -638 2 l-608 1 -19 25 c-38 51 -31 131 14 169 23
20 89 30 151 25 28 -2 318 -5 645 -5z m387 -323 c-22 -33 -31 -114 -18 -161 5
-22 13 -89 17 -150 3 -62 15 -139 26 -175 12 -42 22 -115 27 -205 4 -77 12
-149 18 -160 6 -11 13 -45 17 -77 3 -31 15 -85 26 -120 22 -69 25 -105 11
-127 -8 -13 -19 -13 -78 -1 -53 10 -172 13 -530 11 -254 -1 -485 -6 -513 -10
-50 -8 -51 -7 -66 22 -18 34 -14 66 17 134 21 46 30 98 48 268 5 44 18 123 30
175 11 52 21 111 21 131 0 20 10 90 22 155 12 66 22 157 22 204 l1 85 442 5
c243 3 445 8 449 13 17 17 25 5 11 -17z"/>
<path d="M9108 2427 c31 -7 46 -7 54 1 9 9 -1 12 -42 11 l-55 -1 43 -11z"/>
</g>
</svg>
