<?xml version="1.0" encoding="UTF-8"?>
<svg version="1.1" xmlns="http://www.w3.org/2000/svg" width="1200" height="1200" viewBox="0 0 1200 1200" preserveAspectRatio="xMidYMid meet">
<g transform="translate(0.000000,1200.000000) scale(0.100000,-0.100000)"
fill="#B1801D" stroke="none">
<path d="M3405 7714 c-8 -20 -15 -51 -15 -69 0 -25 -8 -40 -31 -59 -17 -14
-36 -26 -43 -26 -14 0 -104 -65 -123 -90 -78 -98 -75 -262 5 -345 21 -21 54
-48 74 -61 61 -39 64 -56 19 -108 -21 -25 -51 -70 -66 -100 l-27 -56 -128 0
c-100 0 -130 -3 -140 -15 -7 -9 -13 -55 -15 -118 l-3 -104 34 -37 c18 -20 42
-36 54 -36 11 0 23 -6 25 -12 2 -7 7 -420 10 -918 4 -498 7 -929 7 -959 1 -47
-2 -56 -25 -73 -15 -11 -27 -28 -27 -37 0 -21 -33 -54 -43 -44 -4 3 -7 17 -7
30 0 23 -23 32 -35 13 -11 -17 -50 -11 -125 19 -149 61 -214 127 -299 304 -32
66 -20 77 52 48 129 -53 211 -118 268 -213 48 -82 86 -128 106 -128 16 0 16 4
2 55 -6 22 -22 54 -35 72 -13 17 -24 35 -24 40 0 4 -16 31 -36 60 -59 85 -215
173 -346 195 -65 10 -71 10 -89 -9 l-21 -20 32 -69 c91 -196 112 -232 167
-287 65 -65 170 -115 265 -127 69 -8 103 -35 119 -93 19 -70 18 -70 -154 -62
-156 7 -222 -1 -182 -22 24 -12 3269 -12 3281 0 4 4 4 10 0 15 -4 4 -455 7
-1002 7 -638 0 -997 4 -1002 10 -13 13 -22 144 -11 150 4 3 478 6 1051 6
l1043 -1 -3 -77 c-1 -42 -8 -83 -14 -91 -9 -10 -8 -16 2 -22 19 -12 2081 -8
2099 4 12 8 11 11 -6 17 -11 4 -463 8 -1003 8 -540 0 -985 3 -988 6 -10 9 -21
139 -13 147 9 10 2082 11 2092 1 4 -4 5 -42 1 -83 -6 -68 -9 -75 -29 -78 -41
-6 -24 -20 30 -25 28 -3 239 -4 467 -2 228 3 442 3 475 2 118 -4 345 0 352 6
17 18 -24 22 -208 21 -225 -2 -214 -8 -180 81 21 56 23 57 140 76 79 14 188
62 231 101 46 43 117 133 139 175 11 23 32 75 46 117 21 64 23 79 13 96 -19
31 -49 34 -125 11 -37 -11 -86 -25 -108 -30 -64 -17 -163 -87 -193 -136 -52
-84 -67 -108 -85 -139 l-18 -31 6 55 c3 30 21 98 39 150 18 52 37 113 42 135
l9 40 69 3 c37 1 82 9 100 18 68 33 97 51 128 80 40 38 98 149 98 186 0 39
-26 61 -65 54 -42 -8 -51 12 -28 62 15 31 17 68 16 245 -1 182 -4 211 -19 228
-9 10 -24 19 -32 19 -32 0 -222 -179 -298 -280 -51 -68 -104 -196 -111 -270
-3 -30 -10 -63 -15 -73 -7 -14 -5 -22 7 -31 10 -7 21 -35 25 -63 5 -28 20 -76
34 -105 28 -59 31 -84 17 -120 -11 -27 -67 -266 -76 -323 -12 -79 -20 -89 -48
-61 -12 13 -14 62 -10 313 3 164 8 312 12 328 5 19 2 43 -7 65 -10 25 -12 53
-8 98 4 34 7 300 6 589 0 474 2 529 17 545 9 10 22 18 30 18 8 0 25 11 38 25
24 23 25 31 25 133 0 71 -4 114 -12 125 -11 14 -35 17 -142 19 -103 2 -130 6
-136 18 -35 75 -48 95 -77 129 -41 48 -42 76 -5 95 46 24 102 87 129 146 32
72 33 138 4 218 -26 70 -69 113 -140 145 -65 28 -91 54 -91 92 0 53 -19 94
-47 101 -37 10 -56 -16 -61 -83 -5 -69 -10 -76 -61 -93 -47 -15 -135 -90 -158
-134 -32 -60 -42 -129 -29 -193 20 -95 59 -150 134 -187 45 -23 46 -50 2 -106
-15 -19 -41 -60 -57 -90 l-30 -55 -116 -5 c-150 -6 -149 -6 -148 -134 1 -112
13 -143 66 -175 l36 -21 -3 -162 -3 -163 -85 -3 c-47 -2 -113 0 -147 3 l-63 7
0 47 c0 50 -13 71 -42 71 -25 0 -37 -30 -31 -78 5 -38 4 -42 -15 -42 -46 0
-260 74 -278 96 -8 10 -8 25 -1 54 9 33 8 42 -8 60 -10 11 -29 20 -42 20 -21
0 -23 -4 -23 -50 0 -41 -3 -50 -18 -50 -20 0 -52 20 -104 67 -21 18 -63 47
-94 64 -63 36 -85 69 -66 100 17 27 15 53 -9 83 -28 35 -47 33 -65 -9 -16 -40
-27 -43 -51 -15 -10 11 -36 36 -58 57 -118 110 -151 149 -160 188 -8 31 -17
42 -39 50 -20 7 -30 7 -33 0 -13 -37 -20 -36 -121 16 -56 28 -116 54 -134 58
-27 6 -34 13 -43 43 -18 66 -55 76 -75 22 -8 -21 -15 -25 -33 -20 -39 11 -191
36 -224 36 -26 0 -32 5 -38 29 -7 31 2 79 18 99 6 8 38 26 72 41 71 32 139
105 156 165 8 31 7 47 -5 81 -19 49 -54 77 -133 106 -77 28 -93 44 -93 88 0
62 -45 102 -78 69 -7 -7 -12 -30 -12 -53 0 -61 -32 -95 -100 -106 -46 -7 -61
-15 -92 -48 -33 -34 -38 -47 -38 -86 0 -53 34 -126 77 -167 15 -15 53 -38 84
-52 62 -27 66 -33 75 -110 l6 -53 -101 -7 c-55 -4 -116 -13 -135 -21 -32 -14
-35 -13 -60 10 -22 20 -31 23 -47 14 -11 -5 -25 -22 -30 -37 -12 -31 -26 -42
-56 -42 -28 0 -85 -26 -141 -63 -49 -33 -74 -32 -82 3 -4 16 -14 26 -27 28
-26 4 -53 -41 -53 -88 0 -19 -8 -38 -22 -50 -13 -11 -72 -67 -131 -126 -59
-58 -113 -104 -120 -101 -7 2 -14 21 -17 43 -4 34 -8 39 -30 39 -37 0 -53 -54
-33 -110 13 -38 13 -41 -7 -55 -11 -8 -50 -38 -88 -66 -37 -28 -77 -54 -88
-58 -12 -4 -29 -15 -39 -26 -10 -11 -29 -20 -42 -20 -21 0 -23 4 -23 44 0 50
-10 61 -45 52 -30 -8 -40 -41 -27 -89 8 -29 7 -38 -7 -51 -30 -28 -267 -104
-280 -90 -3 3 -6 29 -6 56 0 37 -5 53 -17 62 -31 19 -53 -4 -54 -60 -1 -27 -2
-53 -3 -59 -1 -9 -278 -11 -287 -2 -3 3 -8 291 -5 323 1 6 19 16 41 23 22 6
44 20 49 30 6 9 11 66 12 124 3 147 3 147 -152 147 -110 0 -119 1 -133 22 -9
12 -16 30 -16 38 0 9 -22 44 -50 78 -27 34 -50 68 -50 76 0 7 13 19 29 25 38
16 94 76 123 131 19 37 23 60 23 130 -1 132 -44 196 -172 260 -67 33 -67 34
-77 124 -6 53 -17 66 -53 66 -17 0 -27 -10 -38 -36z m64 -178 c9 -8 45 -29 81
-48 55 -28 68 -41 92 -87 64 -122 18 -244 -115 -306 -47 -22 -81 -24 -155 -9
-32 6 -110 80 -133 126 -52 101 -2 220 116 280 22 12 51 29 64 39 28 23 30 23
50 5z m2563 -26 c18 -11 41 -20 51 -20 27 0 94 -37 111 -62 27 -37 19 -63 -36
-121 -59 -62 -95 -79 -104 -50 -11 35 -21 47 -46 54 -32 8 -47 0 -50 -31 -3
-21 2 -25 35 -31 43 -7 51 -13 44 -32 -11 -29 -49 -27 -78 4 -15 16 -33 29
-41 29 -33 0 -108 106 -108 152 0 36 10 45 79 68 77 26 95 22 86 -19 -5 -23
-2 -32 12 -40 28 -14 44 1 50 47 5 38 3 41 -21 48 -14 3 -26 10 -26 15 0 13 6
11 42 -11z m2597 -7 c101 -52 151 -122 151 -210 -1 -77 -39 -137 -118 -187
-34 -21 -53 -26 -110 -26 -58 0 -75 4 -115 29 -96 62 -133 176 -88 273 28 57
51 79 126 117 74 38 87 38 154 4z m-5133 -510 c15 -16 33 -41 41 -56 8 -16 30
-49 49 -74 24 -31 32 -49 25 -57 -7 -8 -53 -11 -153 -9 -79 1 -148 3 -154 3
-25 0 -22 31 5 63 15 17 34 43 41 57 42 79 60 100 91 100 20 0 38 -9 55 -27z
m5080 19 c26 -8 144 -180 137 -199 -4 -10 -38 -13 -139 -15 -74 -1 -146 -2
-161 -2 -40 -1 -38 15 9 76 24 31 55 77 70 102 28 46 39 51 84 38z m-2614
-480 c0 -227 -3 -416 -6 -421 -4 -5 -15 -7 -26 -4 -11 3 -32 1 -48 -5 -15 -6
-39 -13 -54 -16 -14 -3 -52 -31 -84 -62 -54 -53 -58 -55 -71 -38 -10 13 -12
31 -7 59 4 22 8 223 9 447 1 225 4 410 7 413 10 10 203 43 242 42 l39 -2 -1
-413z m248 397 c63 -12 116 -22 117 -24 7 -5 5 -937 -2 -943 -4 -4 -26 14 -48
40 -47 52 -107 86 -182 103 l-50 12 -5 406 c-3 224 -3 412 -2 417 5 15 45 12
172 -11z m-607 -74 c-1 -11 -3 -469 -3 -1017 0 -549 -4 -998 -8 -998 -71 -4
-263 -2 -267 2 -10 10 -5 1879 5 1898 17 32 221 141 255 137 13 -1 19 -9 18
-22z m955 -46 c64 -33 121 -64 125 -68 4 -5 9 -435 10 -957 l2 -949 -139 2
c-151 2 -161 6 -151 56 5 29 6 654 2 1480 -2 474 -1 497 16 497 10 0 71 -27
135 -61z m-2669 -98 c5 -8 7 -39 4 -70 -6 -69 -31 -96 -78 -87 -16 4 -176 6
-355 4 -179 -1 -353 -2 -388 -3 -45 0 -65 4 -72 15 -16 25 -12 138 4 147 8 4
209 8 446 8 360 0 432 -2 439 -14z m5112 -1 c5 -8 8 -41 6 -74 -4 -72 -22 -90
-82 -82 -60 9 -660 9 -732 1 -55 -7 -62 -5 -72 13 -17 31 -14 139 3 149 8 4
206 8 441 8 367 0 427 -2 436 -15z m-3751 -150 c-11 -141 -12 -1585 0 -1655 5
-28 4 -54 -1 -59 -9 -10 -267 -11 -277 -2 -2 3 -5 363 -5 801 l1 795 34 28
c19 15 63 56 98 92 87 89 141 133 151 123 5 -5 4 -60 -1 -123z m1670 -22 c97
-98 133 -140 133 -158 1 -14 0 -367 -1 -785 l-2 -760 -135 2 c-74 2 -138 3
-142 3 -5 0 -8 412 -8 915 0 661 3 915 11 915 6 0 71 -60 144 -132z m-3134
-60 c6 -6 6 -2189 0 -2196 -3 -2 -678 -5 -737 -2 -9 0 -39 94 -39 122 0 15 17
39 49 68 l48 45 1 977 c0 537 2 981 5 985 5 9 664 9 673 1z m5108 -980 c3
-1022 3 -1018 42 -1018 23 0 26 -43 10 -119 -8 -40 -16 -75 -19 -77 -2 -2
-163 -5 -358 -6 l-354 -1 -8 94 c-4 52 -5 130 -2 174 7 114 8 379 6 1203 -1
397 0 726 3 730 2 4 155 7 340 7 l336 0 4 -987z m-4004 182 c-3 -366 -2 -701
1 -745 4 -44 4 -83 0 -87 -7 -8 -279 -13 -287 -6 -2 3 -4 310 -5 683 l0 679
53 21 c60 23 91 42 167 103 43 34 56 40 65 30 8 -9 10 -206 6 -678z m2348 600
c46 -33 99 -62 118 -66 19 -3 36 -10 39 -14 2 -4 5 -310 5 -681 l1 -674 -128
-5 c-70 -3 -131 -3 -135 0 -6 4 -14 1453 -9 1493 2 17 31 3 109 -53z m-2716
-780 c0 -355 -1 -649 -1 -655 -1 -8 -199 -12 -276 -6 -10 1 -11 1212 -1 1237
2 6 32 14 67 17 34 4 85 18 113 31 28 14 62 24 75 23 l23 -2 0 -645z m3050
624 c34 -14 92 -29 128 -33 l65 -6 0 -380 c0 -209 2 -490 4 -624 l4 -244 -142
0 c-77 0 -143 2 -146 5 -4 4 -10 1275 -6 1301 2 13 31 7 93 -19z m-3419 -50
c9 -3 11 -159 10 -616 -2 -336 -5 -613 -8 -616 -6 -6 -274 -6 -281 0 -3 3 -7
1139 -4 1225 0 9 36 12 136 12 75 0 141 -2 147 -5z m3981 -614 c1 -336 -2
-614 -6 -616 -13 -8 -288 -9 -288 -1 -3 124 1 1220 4 1225 2 4 68 6 146 6
l142 -1 2 -613z m-2176 578 c14 -18 13 -266 -1 -275 -6 -4 -51 -6 -98 -4 -80
2 -88 1 -99 -18 -7 -14 -8 -27 -1 -39 8 -14 25 -17 113 -17 l103 0 -3 -25 c-2
-14 -3 -71 -3 -127 0 -57 -5 -105 -10 -108 -12 -8 -98 19 -137 42 -39 24 -92
84 -117 133 -15 29 -18 56 -17 149 l1 113 49 57 c35 41 69 66 123 93 85 43 83
42 97 26z m184 -27 c116 -52 188 -167 188 -299 0 -73 -11 -98 -78 -180 -26
-30 -59 -55 -109 -79 -108 -52 -109 -51 -104 92 1 66 7 125 13 130 5 6 44 10
86 10 42 0 83 4 90 8 20 13 14 45 -13 63 -22 15 -35 15 -93 6 -37 -6 -70 -8
-75 -3 -10 10 -22 243 -14 265 9 23 36 20 109 -13z m3276 -453 c-4 -225 -7
-233 -108 -339 -48 -51 -62 -61 -70 -50 -11 18 7 64 50 126 39 56 39 100 0
100 -22 0 -28 -9 -52 -75 -14 -41 -35 -99 -47 -128 -12 -29 -21 -61 -21 -71 0
-29 -23 -43 -45 -27 -20 14 -39 103 -37 174 1 56 59 195 111 268 55 77 188
214 207 214 14 0 15 -24 12 -192z m-3644 -139 c38 -36 96 -59 150 -59 14 0 28
-5 31 -11 4 -5 8 -122 10 -259 2 -182 0 -250 -8 -253 -7 -2 -74 -2 -150 1
l-138 5 7 206 c3 121 1 255 -5 325 -8 92 -8 123 2 134 10 12 16 10 37 -19 14
-18 43 -50 64 -70z m561 -249 c0 -181 -2 -330 -5 -331 -3 0 -69 -1 -147 -2
l-143 -2 1 256 c0 257 0 257 22 263 12 3 36 6 52 6 41 0 117 47 161 98 19 23
41 42 47 42 9 0 12 -84 12 -330z m3149 63 c-4 -79 -119 -182 -214 -191 -45 -4
-50 -2 -50 15 0 22 24 46 91 91 25 16 58 48 73 71 28 40 45 50 81 48 16 -2 20
-9 19 -34z m46 -383 c0 -29 -61 -134 -114 -195 -66 -77 -134 -120 -267 -170
-90 -33 -127 -2 -59 50 21 17 54 56 72 89 64 114 138 176 261 222 79 29 107
30 107 4z m-2129 -93 c1 -7 3 -63 4 -125 1 -82 -2 -115 -11 -120 -7 -4 -70 -5
-141 -2 l-128 5 -3 124 c-1 69 1 127 7 130 18 12 271 0 272 -12z m367 -116
l-3 -126 -134 -3 c-85 -2 -138 1 -145 8 -6 6 -11 58 -11 126 -1 107 1 115 20
119 25 6 246 11 263 6 10 -2 12 -34 10 -130z m-3607 119 c3 -65 0 -231 -5
-239 -8 -13 -282 -16 -290 -3 -2 4 -2 62 1 130 l6 122 143 0 c89 0 144 -4 145
-10z m367 -118 l-3 -127 -145 0 -145 0 -1 110 c-1 61 0 118 3 127 4 15 21 17
149 17 l144 0 -2 -127z m362 3 c0 -115 -2 -126 -19 -133 -11 -4 -76 -6 -145
-4 l-126 3 0 123 c0 67 3 126 7 129 3 4 69 7 145 7 l138 0 0 -125z m361 0 c-1
-66 -6 -124 -10 -128 -4 -4 -68 -6 -142 -5 l-134 3 -3 127 -3 128 147 -3 146
-2 -1 -120z m344 -10 l0 -130 -130 4 c-71 1 -133 5 -137 8 -10 5 -10 237 -1
247 4 3 66 5 137 4 l131 -3 0 -130z m370 1 l0 -128 -136 -1 c-74 0 -141 3
-147 7 -13 8 -18 237 -6 249 4 4 70 6 148 4 l141 -2 0 -129z m369 112 c9 -37
7 -226 -3 -233 -14 -8 -274 -10 -287 -2 -11 6 -10 230 1 247 4 6 67 10 144 10
135 0 139 -1 145 -22z m364 -98 c1 -63 -1 -120 -5 -127 -10 -14 -259 -21 -273
-7 -11 11 -16 227 -5 244 4 7 53 10 143 8 l137 -3 3 -115z m353 103 c3 -71 -4
-230 -11 -237 -12 -12 -252 -8 -264 4 -9 9 -16 215 -8 238 3 9 41 12 143 12
125 0 139 -2 140 -17z m1086 -110 c2 -86 -1 -124 -10 -130 -7 -5 -73 -6 -147
-3 l-135 5 -5 115 c-3 63 -4 121 -2 127 3 10 40 12 151 10 l146 -2 2 -122z"/>
<path d="M2534 5862 c-29 -19 -34 -56 -34 -232 0 -138 4 -189 15 -217 30 -70
17 -103 -39 -103 -54 0 -61 -64 -16 -143 75 -130 178 -193 303 -185 l51 3 36
-105 c20 -58 44 -127 53 -153 9 -26 17 -64 17 -85 0 -20 7 -46 15 -56 8 -11
15 -30 15 -43 0 -14 6 -23 16 -23 13 0 15 8 11 43 -19 153 -29 211 -47 282
-46 171 -45 169 -23 211 26 51 48 197 40 271 -7 67 -43 176 -82 248 -31 58
-119 151 -222 236 -72 58 -88 66 -109 51z m88 -124 c8 -7 51 -52 96 -100 81
-88 114 -142 152 -253 27 -77 27 -197 2 -245 -19 -34 -42 -51 -42 -31 0 6 -8
11 -17 11 -13 0 -14 3 -5 12 24 24 9 96 -42 211 -19 42 -31 57 -46 57 -39 0
-35 -31 18 -135 56 -110 60 -125 37 -125 -16 0 -26 9 -95 91 -76 89 -80 96
-89 146 -12 65 -25 348 -17 362 9 15 29 14 48 -1z m-47 -478 c3 -5 51 -48 106
-95 54 -48 99 -92 99 -99 0 -8 -7 -19 -16 -26 -12 -11 -25 -10 -72 4 -43 14
-69 30 -107 70 -57 59 -91 116 -82 140 7 18 62 23 72 6z"/>
</g>
</svg>
