<?xml version="1.0" encoding="UTF-8"?>
<svg version="1.1" xmlns="http://www.w3.org/2000/svg" width="1200" height="1200" viewBox="0 0 1200 1200" preserveAspectRatio="xMidYMid meet">
<g transform="translate(0.000000,1200.000000) scale(0.100000,-0.100000)"
fill="#B1801D" stroke="none">
<path d="M5355 8774 c-162 -12 -302 -74 -410 -182 -85 -85 -120 -129 -130
-162 -4 -14 -16 -36 -26 -49 -12 -15 -19 -40 -19 -68 0 -24 -6 -58 -13 -76
-11 -26 -13 -255 -10 -1247 2 -668 3 -1226 3 -1240 -7 -275 -8 -740 -2 -970 8
-248 12 -301 26 -332 10 -20 15 -42 11 -47 -9 -16 -96 -13 -125 4 -14 8 -36
15 -50 15 -14 1 -39 9 -56 18 -17 9 -53 29 -80 43 -52 27 -191 110 -235 140
-53 36 -157 76 -253 99 -88 20 -115 22 -245 17 -80 -3 -159 -11 -176 -17 -16
-7 -54 -18 -82 -26 -29 -7 -72 -26 -95 -41 -24 -15 -59 -36 -78 -46 -19 -11
-64 -38 -100 -61 -36 -24 -81 -49 -100 -56 -19 -7 -40 -17 -46 -22 -7 -5 -58
-20 -114 -33 -171 -42 -332 -30 -459 34 -50 26 -60 27 -91 17 -31 -10 -35 -16
-38 -47 -3 -33 1 -39 33 -59 70 -43 232 -75 377 -73 168 3 390 67 487 141 74
58 229 139 306 163 69 21 98 24 215 23 122 -2 143 -4 220 -32 119 -41 191 -74
224 -100 16 -12 34 -22 40 -22 6 0 36 -16 66 -36 190 -126 416 -172 660 -135
99 16 154 34 280 93 120 57 113 53 171 93 67 45 146 84 229 113 67 23 90 26
215 26 127 0 147 -2 220 -28 44 -15 85 -31 91 -37 6 -5 32 -15 57 -23 25 -7
59 -23 75 -35 17 -11 33 -21 36 -21 3 0 34 -17 69 -39 85 -52 230 -112 297
-122 194 -31 368 -37 427 -15 21 8 61 20 88 26 53 13 219 91 246 116 8 8 23
14 32 14 8 0 28 11 44 24 46 38 199 107 287 128 101 25 268 19 374 -13 60 -19
214 -89 267 -121 11 -7 45 -29 76 -49 78 -50 252 -116 341 -130 99 -16 365 -6
438 16 30 9 69 25 85 36 17 10 51 21 75 25 50 8 106 54 116 96 5 22 1 29 -25
42 -43 23 -62 20 -109 -14 -102 -73 -233 -109 -405 -110 -172 0 -266 28 -472
143 -308 172 -415 204 -642 194 -158 -7 -306 -49 -401 -115 -15 -10 -42 -24
-60 -30 -19 -6 -48 -23 -65 -38 -40 -33 -202 -111 -260 -124 -24 -5 -57 -14
-73 -20 -37 -15 -116 -22 -131 -12 -9 6 -10 89 -3 352 8 309 13 1847 8 2510
-3 362 -3 420 0 650 1 113 -1 226 -4 252 -5 38 -1 57 20 105 51 110 81 165
101 184 76 74 125 113 161 128 23 11 45 24 49 30 11 19 47 29 156 46 115 17
122 16 238 -28 63 -24 88 -39 100 -59 9 -15 27 -32 41 -37 50 -19 157 -143
166 -192 4 -19 17 -53 31 -77 20 -35 24 -54 21 -107 -3 -81 19 -118 75 -123
46 -4 93 36 83 71 -3 12 -13 58 -22 102 -9 44 -23 94 -29 110 -7 17 -18 48
-25 70 -19 60 -27 75 -64 127 -82 113 -249 216 -396 244 -92 18 -261 17 -316
-2 -23 -8 -62 -17 -85 -20 -82 -11 -180 -78 -276 -188 -18 -20 -33 -43 -33
-51 0 -8 -9 -19 -19 -25 -11 -5 -22 -24 -26 -41 -4 -17 -15 -46 -25 -63 -29
-51 -63 -213 -56 -265 3 -25 6 -242 7 -482 0 -340 3 -446 14 -482 7 -25 11
-55 8 -66 -8 -30 -62 -45 -110 -31 -27 8 -297 11 -971 8 -1062 -3 -949 -14
-937 91 4 32 8 276 10 542 3 511 6 553 50 639 13 25 26 55 30 68 3 12 11 22
16 22 6 0 19 20 30 45 11 25 24 45 29 45 6 0 27 17 49 38 21 20 70 54 109 74
61 32 85 38 161 44 110 8 211 -8 263 -43 20 -14 50 -32 66 -42 91 -51 134 -88
171 -145 56 -85 56 -85 76 -141 25 -70 29 -108 15 -149 -9 -28 -8 -40 4 -64
25 -48 60 -54 106 -20 26 19 30 28 30 69 0 25 -6 62 -14 80 -7 19 -16 58 -20
87 -7 51 -69 192 -85 192 -4 0 -16 17 -25 38 -19 43 -135 144 -191 168 -21 8
-51 25 -67 37 -40 29 -221 58 -323 51z m1555 -1813 c0 -23 -16 -36 -25 -21 -9
14 1 40 15 40 5 0 10 -9 10 -19z m-1999 -28 c32 -17 92 -18 849 -18 448 0 875
2 949 4 159 5 164 2 155 -88 -6 -76 -8 -912 -1 -931 3 -8 8 -38 11 -67 6 -45
3 -56 -16 -78 -23 -26 -56 -33 -75 -14 -15 15 -1794 15 -1822 -1 -32 -17 -58
-12 -80 16 -17 22 -20 36 -16 78 9 87 12 927 3 991 -6 50 -3 125 7 125 1 0 17
-8 36 -17z m2004 -1214 c11 -16 -4 -59 -20 -59 -7 0 -21 10 -29 22 -14 19 -14
23 2 34 21 16 39 17 47 3z m-37 -97 c6 -19 5 -47 -4 -91 -16 -78 -13 -989 4
-1061 14 -59 2 -74 -53 -66 -51 7 -213 72 -240 96 -11 10 -31 21 -45 25 -14 4
-43 19 -65 33 -75 48 -204 109 -277 132 -40 12 -86 26 -103 32 -49 16 -255 27
-305 16 -207 -45 -267 -67 -435 -164 -164 -94 -217 -119 -315 -150 -88 -28
-163 -36 -179 -19 -5 6 -4 41 4 90 11 69 12 512 3 1083 -1 58 8 64 72 52 64
-12 1812 -16 1831 -4 12 7 63 21 86 23 6 1 15 -12 21 -27z"/>
<path d="M3590 4160 c-47 -11 -111 -29 -143 -41 -53 -19 -87 -36 -261 -133
-28 -15 -64 -35 -81 -44 -16 -8 -41 -23 -55 -32 -54 -36 -187 -70 -277 -70
-101 0 -121 5 -296 78 -34 14 -40 14 -72 -4 -19 -10 -37 -24 -39 -30 -8 -22
39 -64 94 -84 129 -48 202 -63 305 -61 201 3 257 23 564 199 117 67 173 89
316 127 186 48 415 -17 755 -215 70 -41 112 -60 205 -93 85 -30 333 -29 446 1
64 17 212 84 269 122 8 6 26 15 40 21 14 6 46 22 71 37 90 53 105 60 199 90
131 42 219 56 293 47 87 -9 238 -41 278 -58 87 -37 195 -93 284 -147 17 -10
77 -38 135 -63 137 -60 301 -86 419 -69 154 23 218 39 286 71 39 19 102 48
140 66 39 18 101 54 138 79 38 25 76 46 85 46 9 0 40 12 67 25 28 14 62 25 76
25 14 0 47 7 74 16 76 27 215 15 346 -29 88 -30 259 -109 294 -138 44 -35 253
-120 365 -149 188 -49 384 -16 625 105 90 45 104 69 64 111 -29 31 -55 30
-102 -2 -47 -32 -159 -79 -252 -107 -50 -14 -99 -20 -170 -21 -87 0 -113 4
-200 33 -55 18 -118 44 -140 56 -22 13 -51 26 -65 30 -14 5 -38 18 -55 30 -56
42 -264 135 -357 161 -236 64 -491 29 -706 -97 -45 -27 -86 -49 -90 -49 -5 0
-33 -15 -63 -33 -61 -37 -234 -100 -323 -117 -75 -15 -157 -15 -232 0 -73 14
-156 39 -168 51 -6 5 -18 9 -27 9 -16 0 -121 51 -144 70 -18 15 -165 88 -260
129 -165 71 -383 92 -548 51 -108 -27 -244 -78 -282 -106 -51 -37 -286 -151
-365 -177 -205 -67 -350 -56 -555 43 -66 32 -136 69 -155 82 -20 14 -51 30
-68 36 -18 6 -45 20 -60 30 -28 19 -64 32 -217 77 -123 36 -285 42 -405 15z"/>
<path d="M3510 3586 c-136 -48 -230 -93 -270 -130 -14 -13 -45 -34 -70 -46
-25 -13 -65 -33 -90 -45 -92 -47 -142 -58 -265 -63 -136 -5 -202 6 -287 49
-65 33 -94 36 -126 13 -28 -19 -28 -47 -1 -85 15 -21 29 -29 50 -29 17 0 43
-7 59 -15 74 -38 329 -49 471 -20 62 13 226 88 279 128 14 10 63 41 110 69
138 81 224 108 365 115 146 7 248 -13 382 -77 59 -29 115 -58 123 -65 31 -27
297 -153 345 -164 145 -30 229 -43 262 -38 170 21 260 40 335 71 77 32 247
114 258 126 9 9 45 30 122 69 57 30 108 46 193 63 102 20 124 21 203 11 161
-20 336 -88 457 -177 66 -48 215 -115 292 -130 115 -22 216 -36 266 -36 60 0
231 36 289 60 26 11 53 20 60 20 12 0 52 21 176 90 152 86 199 108 272 133
140 47 234 53 391 27 145 -24 180 -37 386 -148 235 -127 265 -141 338 -151 39
-5 112 -15 162 -22 83 -12 98 -11 140 4 27 9 68 19 93 23 56 7 120 30 230 81
123 58 149 98 78 122 -47 17 -71 13 -108 -14 -19 -14 -56 -32 -81 -39 -26 -8
-59 -21 -75 -29 -16 -8 -80 -23 -142 -33 -108 -17 -118 -18 -228 -2 -64 10
-121 22 -128 27 -6 5 -31 17 -56 27 -25 10 -56 25 -70 35 -86 57 -172 109
-215 129 -184 85 -237 98 -418 106 -235 10 -362 -30 -667 -204 -69 -40 -225
-104 -300 -123 -102 -26 -309 -10 -408 33 -24 10 -52 18 -61 18 -10 0 -35 14
-56 30 -21 17 -42 30 -47 30 -5 0 -28 13 -51 28 -51 35 -199 107 -247 120 -19
6 -66 23 -105 37 -59 23 -90 28 -200 32 -110 4 -143 2 -210 -15 -126 -33 -212
-67 -320 -127 -314 -175 -457 -213 -685 -186 -93 11 -225 57 -277 97 -17 13
-34 24 -38 24 -3 0 -22 11 -43 23 -66 43 -206 114 -247 127 -22 7 -50 19 -63
26 -31 20 -145 33 -287 34 -116 0 -124 -2 -245 -44z"/>
</g>
</svg>
