<?xml version="1.0" encoding="UTF-8"?>
<svg version="1.1" xmlns="http://www.w3.org/2000/svg" width="1200" height="1200" viewBox="0 0 1200 1200" preserveAspectRatio="xMidYMid meet">
<g transform="translate(0.000000,1200.000000) scale(0.100000,-0.100000)"
fill="#B1801D" stroke="none">
<path d="M5880 9587 c-3 -3 -59 -7 -125 -10 -201 -9 -495 -56 -635 -100 -25
-8 -67 -22 -95 -31 -120 -38 -227 -76 -264 -95 -22 -12 -47 -21 -54 -21 -8 0
-30 -11 -50 -24 -19 -13 -49 -27 -65 -31 -17 -3 -42 -15 -56 -26 -14 -11 -44
-26 -68 -35 -23 -8 -52 -23 -63 -33 -11 -10 -31 -22 -45 -26 -35 -11 -142 -77
-158 -97 -7 -10 -17 -18 -21 -18 -11 0 -144 -91 -206 -140 -27 -22 -72 -57
-100 -79 -83 -64 -298 -282 -351 -356 -15 -22 -52 -65 -81 -95 -28 -30 -73
-84 -100 -120 -49 -66 -143 -224 -143 -239 0 -4 -19 -37 -42 -72 -23 -35 -50
-86 -60 -113 -11 -27 -27 -60 -37 -72 -10 -13 -24 -45 -30 -71 -7 -26 -23 -70
-36 -98 -44 -93 -75 -172 -75 -191 0 -11 -13 -62 -29 -114 -35 -109 -71 -289
-82 -405 -10 -108 -12 -4443 -1 -4478 l7 -28 3208 -1 c1764 -1 3210 2 3214 6
5 4 8 1028 8 2276 l0 2268 -23 31 c-22 30 -33 80 -51 236 -4 33 -15 75 -24 93
-10 18 -21 56 -24 85 -3 29 -16 73 -29 99 -13 26 -24 56 -24 66 0 10 -11 33
-25 52 -14 19 -25 43 -25 54 0 12 -27 76 -60 144 -33 67 -60 128 -60 136 0 8
-11 27 -24 43 -13 15 -31 46 -40 68 -9 21 -23 46 -32 54 -26 28 -63 85 -83
129 -11 23 -25 42 -31 42 -5 0 -32 31 -60 69 -27 38 -60 75 -73 84 -12 8 -31
30 -41 49 -10 19 -31 41 -47 50 -16 10 -36 34 -45 57 -12 30 -22 41 -42 43
-19 2 -28 11 -34 33 -4 18 -20 38 -37 48 -16 9 -65 53 -110 97 -45 44 -86 80
-92 80 -5 0 -21 12 -34 26 -13 14 -37 34 -53 43 -50 28 -92 55 -169 106 -42
28 -84 55 -94 61 -10 6 -27 18 -36 26 -10 8 -66 39 -125 68 -59 28 -112 58
-119 66 -6 8 -19 14 -28 14 -9 0 -43 14 -76 30 -33 16 -67 30 -76 30 -8 0 -38
11 -65 25 -27 14 -53 25 -57 25 -5 0 -42 13 -83 30 -165 66 -511 142 -719 159
-174 14 -488 25 -495 18z m416 -127 c60 -6 135 -10 165 -10 29 0 66 -6 80 -14
14 -7 73 -21 130 -31 57 -9 142 -30 188 -46 46 -16 92 -29 102 -29 10 0 33 -8
52 -19 18 -10 47 -22 65 -25 17 -4 42 -16 56 -27 13 -10 48 -24 76 -29 28 -5
64 -19 79 -29 15 -11 56 -31 92 -44 100 -38 282 -138 376 -206 23 -17 46 -31
50 -31 17 0 142 -90 228 -164 183 -159 243 -214 268 -248 16 -21 32 -38 37
-38 4 0 16 -13 27 -29 10 -16 52 -66 93 -112 41 -45 81 -90 88 -101 8 -10 25
-30 38 -43 13 -13 24 -30 24 -38 0 -8 14 -28 30 -45 17 -18 30 -36 30 -42 0
-6 16 -33 35 -61 19 -28 35 -58 35 -66 0 -8 11 -28 25 -45 14 -16 25 -35 25
-42 0 -7 11 -27 24 -45 13 -18 27 -49 31 -69 4 -20 18 -52 32 -71 14 -18 29
-47 34 -65 9 -34 68 -202 89 -251 6 -16 19 -68 27 -115 8 -47 23 -101 33 -120
11 -23 22 -79 29 -163 7 -71 17 -141 24 -155 9 -21 13 -511 14 -2062 1 -1119
4 -2072 5 -2117 4 -97 -9 -118 -69 -116 -101 3 -238 2 -330 -2 -98 -5 -103 -4
-117 18 -11 17 -12 34 -5 77 5 30 9 107 9 170 0 63 0 175 0 249 1 73 -4 148
-10 166 -8 25 -8 45 1 77 8 28 11 119 10 263 -4 533 -4 1239 0 2145 2 536 0
980 -4 987 -4 6 -9 35 -12 65 -11 119 -26 218 -39 264 -8 27 -17 67 -20 89 -9
51 -62 214 -91 280 -13 28 -26 65 -30 82 -4 18 -11 36 -17 39 -6 4 -21 31 -34
60 -13 29 -33 63 -44 74 -11 11 -20 31 -20 44 0 14 -11 38 -25 54 -14 17 -32
46 -40 65 -8 19 -18 37 -23 39 -12 4 -143 178 -150 198 -3 8 -15 26 -28 40
-58 62 -236 238 -269 265 -20 17 -47 41 -58 53 -12 13 -35 31 -51 39 -16 8
-57 36 -90 62 -89 68 -140 101 -158 101 -8 0 -34 14 -57 31 -131 95 -589 273
-736 286 -33 3 -65 10 -72 15 -6 5 -38 13 -70 18 -32 5 -85 14 -119 19 -147
26 -620 20 -759 -9 -27 -6 -108 -22 -179 -36 -71 -14 -137 -29 -147 -35 -10
-5 -44 -15 -76 -23 -90 -23 -233 -73 -288 -100 -27 -14 -86 -42 -130 -61 -44
-20 -89 -45 -101 -56 -20 -19 -57 -41 -161 -94 -29 -15 -59 -38 -68 -51 -8
-13 -22 -24 -30 -24 -8 0 -30 -13 -48 -30 -19 -16 -37 -30 -39 -30 -8 0 -156
-139 -256 -240 -92 -94 -168 -185 -192 -231 -7 -13 -28 -43 -47 -67 -33 -41
-45 -60 -115 -192 -16 -30 -35 -66 -42 -80 -28 -51 -105 -227 -121 -275 -9
-27 -22 -63 -29 -80 -16 -37 -34 -104 -46 -169 -5 -26 -16 -69 -24 -95 -8 -25
-17 -73 -21 -106 -3 -33 -12 -94 -20 -135 -12 -63 -14 -251 -11 -1160 2 -597
7 -1101 11 -1120 4 -22 2 -47 -7 -66 -10 -25 -11 -81 -6 -270 4 -131 4 -279
-1 -329 -7 -71 -6 -96 5 -117 12 -22 12 -45 3 -127 -7 -64 -7 -106 -1 -118 6
-11 7 -56 1 -118 -9 -118 -6 -623 6 -711 10 -85 -2 -91 -134 -75 -72 9 -127
10 -220 2 -106 -10 -127 -9 -147 4 -31 20 -38 48 -25 103 6 26 10 67 9 92 0
25 0 929 1 2010 2 2057 3 2127 45 2335 41 199 73 317 107 392 10 24 19 47 19
53 0 5 16 43 35 84 19 41 35 78 35 82 0 14 132 274 142 280 6 4 19 27 31 53
11 25 40 68 63 96 24 27 51 65 60 85 9 19 33 55 52 79 20 24 55 69 77 100 47
63 65 82 226 234 63 59 130 123 149 141 19 18 60 51 90 73 30 22 61 47 69 56
7 10 20 17 27 17 8 0 14 5 14 11 0 5 24 21 53 35 30 13 62 33 71 43 10 11 32
25 49 32 18 8 67 37 110 66 43 29 89 53 101 53 13 0 40 14 61 30 21 17 43 30
50 30 7 0 18 7 25 15 7 8 31 20 54 26 22 6 55 17 71 25 37 16 167 71 215 90
19 7 48 13 63 14 15 0 44 7 65 16 39 16 328 77 422 89 103 12 455 30 540 27
47 -1 135 -7 196 -12z m-151 -620 c55 -5 143 -15 195 -24 52 -9 112 -16 133
-16 21 0 57 -8 80 -19 23 -10 68 -21 101 -25 32 -4 79 -15 105 -25 25 -11 73
-28 106 -39 83 -28 248 -92 260 -102 6 -5 46 -27 90 -49 95 -49 242 -139 270
-164 11 -10 36 -29 55 -42 19 -14 51 -35 70 -49 63 -44 354 -340 408 -416 88
-124 101 -143 124 -187 12 -24 25 -43 29 -43 12 0 76 -122 88 -166 6 -22 20
-49 31 -59 11 -10 28 -44 36 -74 9 -31 23 -66 31 -79 8 -13 18 -47 23 -77 5
-30 17 -62 28 -73 13 -13 22 -41 27 -87 4 -37 13 -86 21 -109 38 -106 43 -267
45 -1295 0 -814 3 -1008 15 -1069 8 -40 14 -77 14 -82 0 -11 -77 8 -105 26
-21 14 -131 15 -1037 10 -557 -4 -1038 -7 -1068 -7 -30 0 -76 -7 -102 -15 -26
-8 -68 -14 -95 -12 l-48 3 2 44 c2 32 9 51 28 71 21 22 25 36 25 82 0 46 -6
64 -32 106 -18 27 -46 57 -63 66 -16 9 -44 25 -61 36 -46 30 -110 40 -314 49
-161 8 -194 12 -254 34 -39 14 -83 39 -100 57 l-31 30 -5 358 -5 357 -27 58
c-32 67 -98 149 -142 175 -63 37 -153 63 -227 67 -41 2 -96 6 -124 10 -56 8
-222 -23 -275 -50 -45 -23 -120 -107 -160 -178 l-35 -62 -2 -645 c-3 -720 1
-683 -68 -654 -49 20 -528 23 -604 4 -52 -14 -54 -14 -73 10 -16 19 -18 32
-13 65 4 22 9 494 11 1048 2 621 7 1027 13 1055 5 26 17 103 26 172 9 69 21
143 26 165 21 81 51 180 59 197 5 9 25 58 45 110 20 51 52 121 71 155 19 34
34 68 34 76 0 8 24 52 54 98 30 46 58 97 61 112 4 15 25 42 47 60 21 17 47 49
57 72 23 50 249 281 349 355 39 29 72 57 72 61 0 4 27 26 61 50 33 24 80 59
103 77 24 18 98 59 165 92 66 33 138 70 158 83 21 12 70 33 108 46 39 13 86
32 105 41 19 10 58 23 85 30 28 7 86 23 130 35 129 36 165 44 255 55 47 5 132
16 190 24 126 16 212 18 345 6z m-1267 -2877 c81 -17 172 -70 220 -129 56 -68
63 -123 61 -469 l-1 -312 37 -67 c38 -69 71 -100 121 -112 16 -4 49 -16 73
-27 24 -11 65 -21 90 -23 25 -2 89 -8 141 -14 52 -5 136 -12 185 -14 99 -4
152 -17 185 -44 42 -34 46 -178 7 -211 -29 -23 -356 -8 -407 19 -11 6 -89 13
-173 16 -220 9 -281 31 -359 134 -55 72 -126 193 -144 241 -8 23 -23 56 -33
73 -10 17 -24 49 -31 71 -7 22 -25 67 -40 100 -45 94 -90 202 -90 214 0 6 -9
26 -19 45 -27 47 -51 132 -51 177 0 21 -5 49 -11 63 -10 22 -7 32 23 78 51 78
51 78 38 93 -16 19 -74 19 -90 0 -6 -8 -28 -40 -47 -72 -30 -49 -36 -66 -34
-111 3 -117 44 -240 182 -553 16 -36 29 -72 29 -81 0 -8 11 -31 25 -51 13 -20
29 -54 35 -76 5 -21 17 -45 26 -52 9 -8 25 -32 34 -54 38 -85 124 -213 183
-272 109 -107 177 -121 632 -127 284 -4 345 -7 370 -20 17 -9 55 -16 90 -16
33 0 70 -6 82 -13 25 -13 59 -71 129 -217 70 -147 81 -172 95 -214 6 -22 20
-53 30 -70 9 -17 21 -48 24 -69 4 -21 18 -53 31 -73 13 -19 24 -43 24 -53 0
-10 13 -45 29 -77 48 -98 91 -200 91 -215 0 -8 14 -41 30 -74 16 -33 30 -67
30 -75 0 -9 11 -32 24 -51 14 -20 28 -49 32 -65 4 -16 17 -49 30 -74 44 -84
104 -237 104 -266 0 -62 -97 -173 -153 -175 -17 -1 -67 -2 -111 -3 l-78 -1
-28 40 c-15 22 -40 51 -54 64 -14 14 -26 28 -26 32 0 4 -20 50 -44 101 -24 51
-47 112 -51 135 -4 24 -17 58 -30 78 -13 19 -29 54 -35 77 -7 24 -18 50 -25
58 -20 23 -81 163 -89 201 -3 19 -20 54 -36 79 -16 25 -30 51 -30 58 0 7 -11
28 -24 45 -13 18 -29 49 -34 70 -6 21 -24 53 -41 73 -18 20 -31 46 -31 62 0
20 -14 39 -53 73 -67 58 -78 62 -148 48 -44 -9 -74 -9 -116 -1 -35 7 -257 14
-548 17 -543 7 -558 8 -637 70 -69 54 -115 181 -106 293 3 31 0 81 -7 110 -9
39 -10 105 -4 260 5 114 8 417 6 673 l-2 465 39 56 c49 71 79 99 141 132 47
24 56 26 145 20 52 -3 128 -12 168 -21z m1557 -1560 c53 -14 161 -17 930 -20
561 -2 914 0 995 7 123 10 125 10 143 -12 14 -16 17 -31 12 -53 -14 -63 -17
-288 -5 -348 10 -50 9 -62 -3 -74 -12 -12 -141 -14 -888 -14 -481 0 -908 -4
-949 -8 -93 -10 -102 -3 -119 90 -10 60 -36 121 -113 261 -9 17 -33 48 -53 68
-19 19 -35 43 -35 51 0 8 -6 21 -12 28 -11 10 -9 15 6 27 24 17 18 17 91 -3z
m-2765 -9 c111 -8 388 -10 478 -5 107 7 122 3 142 -33 11 -22 12 -31 1 -47
-25 -41 -25 -116 -1 -197 20 -64 32 -86 77 -132 29 -31 53 -61 53 -68 0 -30
-47 -35 -192 -23 -136 12 -459 9 -619 -5 -85 -7 -103 7 -95 75 9 76 10 292 1
358 -11 88 -6 97 53 88 26 -4 72 -9 102 -11z m4833 -622 c18 -30 19 -41 9
-100 -7 -46 -8 -106 -1 -192 16 -194 16 -190 -16 -217 -17 -15 -33 -22 -44
-17 -32 14 -605 24 -996 18 -391 -6 -592 -15 -627 -29 -27 -11 -33 21 -12 60
18 33 18 34 -9 74 -15 22 -31 61 -37 87 -6 26 -22 60 -35 76 -14 17 -25 42
-25 59 0 17 -8 36 -20 47 -11 9 -30 36 -42 60 l-21 44 20 26 c17 23 27 27 64
24 24 -1 413 -3 864 -4 617 -1 825 1 840 10 34 20 67 10 88 -26z m-3963 13
c520 0 992 3 1050 6 142 8 174 -6 148 -69 -6 -15 -11 -75 -10 -136 2 -150 2
-150 -111 -142 -126 9 -1926 10 -2008 1 -65 -7 -67 -7 -84 19 -16 24 -17 34
-7 77 16 68 15 107 -4 162 -15 44 -15 49 1 73 15 23 21 25 48 18 18 -5 457 -9
977 -9z m1345 -7 c9 -13 23 -48 31 -78 9 -30 22 -64 28 -75 7 -11 20 -42 29
-70 10 -27 28 -72 42 -99 14 -27 25 -56 25 -63 0 -7 7 -16 15 -19 8 -4 22 -32
31 -63 9 -31 27 -69 40 -84 13 -16 24 -33 24 -37 0 -5 11 -33 24 -62 13 -29
29 -70 35 -90 7 -20 18 -41 25 -48 8 -6 17 -27 21 -48 4 -20 15 -46 25 -57 10
-11 21 -36 25 -55 16 -75 72 -163 139 -218 69 -57 100 -107 75 -123 -22 -14
-117 -10 -189 7 -51 12 -100 14 -230 9 -91 -3 -183 -8 -206 -11 -34 -5 -46 -2
-69 19 l-29 24 15 64 c13 52 16 129 14 424 0 198 -5 451 -9 562 -8 191 -7 201
10 206 35 9 43 7 59 -15z m-1900 -429 c226 -4 707 -7 1070 -6 l660 1 6 -48 c3
-27 2 -72 -1 -100 -11 -90 -4 -568 9 -609 10 -29 10 -42 -1 -64 -13 -26 -17
-28 -68 -26 -211 9 -1865 12 -1969 3 -183 -15 -169 -42 -169 328 0 163 -2 341
-5 394 -8 116 2 154 36 143 12 -4 207 -11 432 -16z m2980 -185 c21 -14 56 -15
282 -9 142 4 463 8 713 9 250 0 471 5 490 9 33 8 37 7 50 -19 10 -17 13 -45
11 -78 -8 -87 -6 -428 2 -488 6 -51 5 -60 -14 -79 -18 -18 -27 -20 -63 -13
-64 14 -1362 9 -1412 -5 -56 -15 -215 -22 -271 -12 -26 5 -59 5 -79 -1 -45
-12 -118 2 -122 24 -4 22 50 32 137 25 117 -9 152 1 220 63 33 30 72 63 87 74
26 18 26 18 23 136 -3 91 -8 122 -20 136 -9 11 -26 38 -38 61 -11 23 -37 54
-57 69 -29 23 -34 32 -29 53 8 31 33 61 52 61 7 0 25 -7 38 -16z"/>
<path d="M4770 7170 c-37 -3 -84 -15 -109 -28 -25 -12 -53 -22 -64 -22 -24 0
-50 -14 -113 -61 -73 -56 -149 -195 -162 -299 -16 -126 21 -293 82 -371 34
-44 144 -129 194 -151 41 -19 67 -21 217 -22 155 0 174 2 219 22 27 12 55 22
62 22 18 0 78 61 111 113 75 118 94 161 103 234 12 96 5 150 -33 253 -29 76
-40 93 -112 166 -58 58 -91 84 -116 89 -19 4 -56 18 -84 30 -59 26 -107 33
-195 25z m161 -126 c91 -27 178 -105 234 -211 37 -68 37 -69 32 -163 -5 -85
-9 -103 -43 -170 -21 -41 -42 -76 -46 -78 -4 -2 -29 -21 -55 -43 -26 -21 -56
-39 -65 -39 -10 0 -41 -9 -70 -20 -64 -24 -76 -24 -190 -4 -69 13 -95 23 -116
43 -15 14 -46 39 -70 55 -56 38 -87 99 -112 220 -10 49 19 197 48 245 23 38
95 100 158 137 75 44 201 56 295 28z"/>
<path d="M7028 7053 c-9 -10 -28 -42 -43 -72 -30 -61 -36 -153 -13 -196 7 -12
32 -61 56 -107 58 -115 57 -136 -17 -284 -77 -156 -91 -199 -91 -291 0 -85 33
-242 60 -288 10 -16 30 -61 45 -100 15 -38 33 -76 39 -84 6 -8 11 -50 11 -95
0 -69 -4 -88 -28 -131 -15 -27 -27 -55 -27 -61 0 -6 -16 -27 -35 -47 -28 -29
-35 -44 -35 -75 0 -51 25 -74 76 -70 34 3 43 9 71 53 18 27 33 60 33 72 0 12
12 53 26 90 22 55 28 90 31 184 5 114 5 116 -21 144 -14 15 -26 36 -26 45 0 9
-11 39 -25 66 -61 118 -77 168 -82 256 -5 77 -3 95 20 150 14 35 41 90 61 123
56 93 66 121 72 188 6 79 -9 138 -54 201 -73 104 -80 157 -27 199 28 22 35 35
35 63 0 65 -75 109 -112 67z"/>
<path d="M7645 6785 c-36 -35 -33 -93 7 -175 44 -91 47 -144 13 -195 -15 -22
-34 -57 -41 -79 -8 -22 -25 -54 -39 -71 -27 -36 -55 -143 -55 -209 0 -54 21
-116 55 -160 14 -18 25 -38 25 -43 0 -6 16 -30 35 -53 19 -23 35 -47 35 -53 0
-6 12 -24 28 -40 38 -40 38 -123 0 -187 -14 -25 -31 -61 -36 -80 -6 -19 -17
-53 -25 -75 -8 -22 -18 -75 -22 -118 -7 -73 -6 -80 16 -103 29 -31 69 -31 98
0 27 29 29 56 7 115 -16 43 -16 44 15 115 17 39 42 93 56 120 34 64 36 176 5
234 -11 20 -32 60 -46 87 -14 28 -42 70 -61 95 -55 70 -68 106 -63 175 4 61 9
73 87 193 13 20 30 64 37 97 7 33 18 79 25 102 12 39 11 45 -19 101 -35 65
-38 87 -21 126 21 46 -22 106 -77 106 -8 0 -26 -11 -39 -25z"/>
<path d="M6450 6280 c-11 -11 -20 -32 -20 -46 0 -26 -35 -97 -83 -167 -34 -49
-41 -98 -32 -223 7 -110 3 -100 83 -204 11 -14 27 -41 35 -60 8 -19 24 -44 36
-54 16 -14 21 -31 21 -67 0 -26 -5 -51 -10 -54 -6 -4 -21 -27 -34 -53 -14 -26
-34 -53 -45 -60 -17 -10 -21 -22 -21 -61 0 -42 4 -53 26 -70 15 -12 35 -21 45
-21 22 0 88 75 96 110 3 14 16 43 29 66 20 34 24 55 24 125 0 77 -3 88 -30
129 -18 27 -30 58 -30 78 0 25 -6 35 -25 44 -45 20 -78 93 -83 180 -4 76 -4
78 33 135 21 32 46 66 56 75 19 19 39 78 39 116 0 36 -30 80 -62 91 -24 8 -32
7 -48 -9z"/>
</g>
</svg>
