<?xml version="1.0" encoding="UTF-8"?>
<svg version="1.1" xmlns="http://www.w3.org/2000/svg" width="1200" height="1200" viewBox="0 0 1200 1200" preserveAspectRatio="xMidYMid meet">
<g transform="translate(0.000000,1200.000000) scale(0.100000,-0.100000)"
fill="#B1801D" stroke="none">
<path d="M7345 8655 c-38 -24 -91 -49 -117 -55 -26 -7 -58 -20 -71 -30 -13
-11 -55 -31 -92 -45 -38 -14 -73 -29 -79 -34 -6 -5 -69 -34 -141 -66 -71 -31
-170 -76 -220 -100 -49 -24 -100 -46 -112 -50 -13 -3 -63 -26 -112 -51 -49
-24 -95 -44 -101 -44 -6 0 -35 -11 -63 -24 -29 -13 -90 -41 -137 -61 -47 -21
-103 -46 -125 -56 -22 -10 -78 -35 -125 -55 -47 -20 -126 -57 -177 -80 -51
-24 -96 -44 -102 -44 -5 0 -56 -22 -113 -49 -57 -26 -119 -54 -138 -61 -43
-17 -189 -83 -250 -115 -25 -12 -56 -26 -70 -30 -29 -8 -127 -48 -185 -75 -99
-46 -176 -80 -250 -111 -44 -18 -89 -38 -100 -45 -11 -7 -39 -20 -63 -28 -23
-9 -57 -22 -75 -30 -141 -63 -311 -141 -352 -162 -28 -13 -58 -24 -66 -24 -9
0 -22 -6 -28 -14 -6 -7 -32 -19 -57 -26 -25 -7 -55 -21 -67 -30 -13 -10 -42
-23 -66 -30 -23 -6 -71 -27 -105 -45 -34 -19 -87 -43 -117 -54 -65 -23 -117
-45 -274 -118 -172 -80 -217 -100 -244 -108 -13 -4 -49 -22 -80 -40 -31 -18
-74 -38 -96 -44 -22 -6 -49 -17 -60 -24 -11 -8 -38 -20 -60 -27 -22 -7 -58
-23 -80 -35 -22 -13 -63 -31 -92 -40 -28 -9 -61 -27 -73 -40 -21 -22 -22 -27
-10 -55 15 -36 59 -62 111 -66 20 -1 51 -10 69 -19 51 -26 249 -96 305 -107
28 -5 66 -18 85 -29 19 -10 64 -23 99 -29 82 -12 89 -20 62 -63 -16 -26 -45
-46 -115 -81 -59 -30 -111 -64 -141 -94 l-47 -47 4 -65 c3 -53 10 -76 41 -128
20 -34 40 -75 44 -90 3 -14 21 -51 38 -82 18 -30 36 -66 40 -80 4 -14 36 -85
71 -158 35 -73 64 -138 64 -145 0 -24 149 -301 174 -324 39 -36 97 -73 115
-73 9 0 65 25 124 55 60 30 114 55 121 55 6 0 59 25 118 55 58 30 111 55 116
55 11 0 28 -40 38 -90 12 -65 50 -135 87 -163 36 -27 38 -27 68 -12 17 9 49
23 70 30 22 8 56 28 77 44 20 17 62 39 92 50 94 32 164 62 180 76 8 7 40 20
70 30 30 10 67 26 81 36 14 10 61 31 105 48 112 42 187 74 215 92 13 9 35 19
49 23 14 4 66 27 115 51 217 105 323 153 360 165 22 7 51 21 64 31 13 11 31
19 40 19 10 0 21 4 27 9 5 5 26 14 46 20 20 7 54 26 74 42 31 24 46 29 78 27
l41 -3 16 -62 c10 -34 29 -78 44 -98 16 -19 35 -49 44 -65 9 -17 46 -63 82
-102 90 -100 166 -138 273 -138 56 0 93 6 142 25 55 21 70 23 83 13 26 -21 39
-41 51 -82 6 -21 25 -56 41 -79 16 -22 29 -46 29 -54 0 -18 61 -113 89 -137
31 -28 28 -74 -9 -116 l-29 -35 -1 -138 c0 -119 3 -143 20 -177 11 -22 20 -44
20 -51 0 -18 71 -131 104 -166 50 -52 199 -124 276 -133 151 -17 290 26 387
120 65 64 80 69 117 45 20 -13 103 -16 579 -19 305 -2 560 -7 566 -10 7 -4 8
-51 4 -141 l-6 -134 34 -34 c39 -39 120 -67 196 -67 75 0 87 -18 78 -117 -4
-43 -11 -98 -16 -122 -5 -24 -7 -52 -4 -62 9 -27 57 -49 107 -49 25 0 54 -7
68 -17 21 -15 53 -19 198 -21 l172 -4 0 1050 c0 578 -3 1053 -7 1055 -13 6
-262 -10 -358 -23 -154 -21 -171 -43 -162 -205 7 -124 0 -135 -81 -135 -117 0
-222 -109 -222 -232 0 -29 4 -69 10 -88 8 -29 7 -38 -9 -53 -18 -18 -45 -19
-582 -18 -310 0 -567 1 -570 1 -4 0 -18 24 -33 53 -32 67 -114 149 -180 181
-108 52 -159 67 -195 56 -73 -21 -82 -12 -160 149 -39 80 -81 158 -93 173 -19
24 -20 30 -8 58 7 17 25 39 40 50 15 11 38 41 50 67 12 27 31 61 42 76 18 25
21 46 22 165 1 117 -2 141 -17 162 -10 14 -22 41 -27 60 -5 20 -25 53 -45 74
-19 21 -35 47 -35 57 0 23 42 56 83 64 18 4 55 18 82 31 28 13 84 37 125 54
41 17 89 37 105 45 106 49 190 86 260 115 44 18 112 47 150 66 39 18 95 42
125 54 43 17 148 70 168 86 2 1 8 20 13 41 10 43 -4 98 -27 111 -9 5 -20 28
-25 52 -5 24 -31 88 -58 144 -26 56 -77 162 -111 236 -35 74 -76 150 -92 168
-15 18 -28 41 -28 52 0 25 37 50 76 50 17 0 48 11 68 25 20 14 43 25 50 25 29
0 56 40 56 83 0 38 -7 59 -47 132 -29 55 -122 253 -128 275 -4 14 -15 41 -25
60 -10 19 -33 67 -50 105 -45 99 -89 184 -117 225 -12 19 -23 47 -23 62 0 15
-4 29 -9 33 -5 3 -17 27 -26 54 -9 27 -23 55 -30 61 -8 7 -19 29 -25 50 -16
60 -60 130 -94 151 -17 10 -33 19 -36 18 -3 0 -36 -20 -75 -44z m82 -100 c13
-9 24 -31 28 -57 4 -24 15 -52 25 -63 10 -11 24 -40 30 -65 7 -25 15 -49 20
-55 4 -5 15 -32 24 -59 9 -27 22 -56 30 -65 7 -9 19 -34 26 -56 7 -22 21 -51
31 -64 10 -12 21 -38 25 -56 3 -19 15 -41 25 -51 10 -9 19 -25 19 -34 0 -9 11
-31 24 -48 13 -18 26 -50 30 -71 3 -21 15 -50 26 -64 12 -14 26 -41 33 -59 13
-34 36 -76 75 -135 12 -18 22 -40 22 -47 0 -20 -67 -63 -134 -86 -33 -11 -67
-27 -76 -35 -9 -8 -41 -22 -71 -31 -50 -14 -111 -42 -293 -130 -37 -19 -73
-34 -80 -34 -6 0 -29 -9 -50 -19 -21 -11 -79 -36 -129 -57 -51 -20 -122 -52
-160 -70 -37 -18 -84 -38 -105 -44 -20 -7 -54 -23 -74 -36 -21 -13 -43 -24
-49 -24 -7 0 -45 -18 -85 -40 -40 -22 -80 -40 -88 -40 -8 0 -45 -15 -83 -34
-90 -46 -191 -91 -250 -115 -27 -11 -79 -35 -116 -55 -36 -20 -72 -36 -79 -36
-7 0 -73 -29 -148 -64 -214 -102 -268 -126 -280 -126 -7 0 -46 -18 -88 -39
-42 -22 -104 -51 -137 -64 -33 -14 -116 -51 -185 -82 -252 -114 -436 -195
-444 -195 -5 0 -43 -17 -283 -131 -46 -22 -88 -39 -95 -39 -7 0 -53 -18 -103
-40 -109 -49 -148 -50 -230 -10 -33 16 -64 30 -70 30 -5 0 -55 22 -110 49
-127 63 -214 101 -230 101 -6 0 -22 11 -34 24 -13 13 -33 27 -46 30 -13 3 -55
29 -93 57 -77 57 -127 78 -187 79 -22 1 -56 7 -75 14 -185 72 -373 137 -410
142 -93 13 -170 47 -170 74 0 14 46 35 140 64 88 28 123 42 200 81 25 12 77
35 115 50 67 26 115 48 259 115 36 17 69 30 74 30 5 0 33 13 63 30 30 16 60
30 66 30 7 0 54 20 105 44 51 24 104 47 118 51 14 4 36 15 50 25 14 9 38 20
53 24 15 4 65 24 111 46 46 22 89 40 94 40 6 0 44 17 84 38 40 20 96 46 123
57 28 11 79 34 114 52 35 18 70 33 77 33 7 0 48 19 91 41 43 23 94 47 113 54
19 8 73 30 120 50 47 20 101 41 120 47 19 5 40 13 45 17 6 5 42 20 80 35 39
15 75 31 80 36 6 4 57 29 115 55 58 26 123 56 146 66 22 10 44 19 48 19 4 0
44 17 89 39 45 21 129 58 187 81 58 23 115 48 126 55 12 8 66 33 120 55 55 23
117 51 140 61 22 10 46 19 52 19 6 0 60 25 118 55 59 30 111 55 116 55 5 0 45
18 91 39 45 22 116 53 157 71 41 18 98 42 125 55 28 13 90 40 138 60 76 31
119 50 187 84 8 4 29 15 45 24 58 30 165 77 179 77 8 0 36 15 62 33 44 30 69
44 84 46 3 1 15 -6 27 -14z m302 -1360 c16 -35 32 -75 36 -87 4 -13 26 -63 50
-113 24 -49 59 -126 79 -170 50 -109 85 -176 107 -201 11 -11 19 -28 19 -37 0
-23 -48 -65 -90 -78 -69 -21 -166 -61 -207 -85 -23 -13 -47 -24 -53 -24 -6 0
-62 -24 -123 -54 -155 -74 -267 -124 -297 -132 -14 -3 -89 -37 -166 -75 -78
-38 -145 -69 -150 -69 -5 0 -40 -13 -79 -29 -75 -30 -153 -66 -390 -176 -86
-40 -408 -181 -445 -195 -19 -8 -53 -25 -75 -40 -22 -14 -67 -34 -100 -44 -33
-10 -107 -40 -165 -68 -58 -28 -123 -59 -145 -68 -22 -10 -65 -29 -95 -43 -30
-14 -120 -55 -200 -92 -80 -36 -156 -72 -170 -79 -14 -8 -43 -19 -65 -26 -22
-7 -60 -23 -85 -36 -25 -13 -61 -30 -80 -38 -78 -32 -321 -141 -417 -187 -56
-27 -105 -49 -109 -49 -5 0 -52 -22 -106 -50 -54 -27 -106 -50 -116 -50 -23 0
-47 26 -57 60 -4 14 -22 54 -40 90 -18 36 -46 94 -61 130 -15 36 -53 119 -85
185 -31 66 -61 134 -65 150 -4 17 -14 41 -24 55 -9 14 -29 54 -44 90 -15 36
-33 72 -40 80 -7 8 -28 42 -46 75 -18 33 -41 69 -50 80 -10 11 -20 36 -24 56
-3 20 -15 44 -26 54 -21 19 -26 50 -11 60 5 3 12 1 16 -5 4 -6 30 -22 58 -36
29 -15 59 -32 67 -39 23 -20 251 -135 267 -135 7 0 24 -7 36 -15 35 -22 117
-45 165 -45 26 0 62 10 94 26 29 15 78 35 109 45 32 11 86 32 121 48 35 16
126 57 203 91 170 76 221 99 305 138 144 67 318 142 328 142 6 0 65 27 131 60
66 33 124 60 128 60 5 0 35 14 68 30 33 16 63 30 67 30 4 0 76 33 160 74 84
40 164 77 178 81 25 8 172 73 385 172 66 30 138 64 160 73 22 10 88 41 147 69
60 28 111 51 114 51 7 0 58 22 150 66 39 19 73 34 77 34 7 0 183 81 232 107
17 8 57 24 90 35 33 11 71 27 85 36 25 16 161 84 190 95 39 14 50 6 79 -58z
m-4418 -1126 c39 -20 98 -85 105 -115 3 -16 15 -42 24 -59 10 -16 31 -64 48
-105 16 -41 49 -111 74 -156 25 -44 62 -121 83 -170 72 -171 128 -288 158
-333 17 -25 39 -58 49 -74 23 -34 17 -44 -30 -53 -59 -10 -232 -84 -340 -146
-68 -39 -112 -5 -166 127 -12 28 -31 66 -44 86 -12 20 -22 41 -22 47 0 10 -40
96 -212 452 -34 69 -69 137 -79 152 -12 16 -19 43 -19 73 0 37 5 51 26 70 15
14 34 25 43 25 27 0 79 37 144 102 86 85 116 100 158 77z m3626 -131 c24 -28
40 -68 49 -128 3 -25 16 -63 27 -85 40 -80 17 -207 -62 -335 -44 -72 -76 -109
-95 -110 -14 0 -157 -69 -186 -89 -14 -10 -54 -24 -90 -30 -36 -7 -84 -21
-106 -31 -102 -44 -235 -34 -268 21 -9 16 -34 38 -55 49 -22 11 -43 31 -50 48
-7 17 -24 41 -38 54 -14 12 -39 50 -55 83 -17 33 -39 70 -50 82 -11 11 -18 29
-16 39 3 19 68 55 132 74 23 6 82 31 131 55 91 44 160 75 250 112 115 48 236
104 335 156 58 30 110 56 116 56 6 1 20 -9 31 -21z m2591 -716 c14 -19 15 -34
2 -87 -11 -45 -15 -1597 -4 -1707 6 -59 4 -67 -13 -76 -14 -8 -30 -7 -59 3
-22 8 -79 14 -130 15 -127 0 -130 4 -115 145 7 58 9 109 6 114 -3 5 -6 361 -7
790 -2 586 1 784 10 793 6 6 62 15 123 19 61 5 114 11 117 14 9 9 57 -7 70
-23z m-2616 -49 c9 -10 19 -36 23 -58 4 -22 12 -46 18 -54 7 -7 23 -35 37 -61
14 -26 36 -69 50 -95 l25 -47 -24 -19 c-13 -10 -34 -19 -46 -19 -14 0 -46 -21
-80 -52 -66 -60 -81 -58 -105 13 -8 24 -30 69 -47 99 -18 30 -33 60 -33 67 0
7 -13 27 -30 46 -33 38 -52 79 -42 93 4 5 25 15 47 23 22 7 65 29 95 47 61 38
90 42 112 17z m2192 -290 c4 -15 2 -271 -3 -295 0 -5 -43 -8 -94 -8 -80 0 -97
3 -111 19 -15 16 -16 25 -7 58 6 21 11 55 11 76 0 59 32 104 104 148 40 24 93
25 100 2z m-1779 -125 c53 -24 139 -85 162 -115 62 -80 73 -99 73 -126 0 -16
9 -67 20 -113 19 -78 19 -86 5 -121 -9 -21 -21 -60 -26 -88 -7 -39 -19 -60
-57 -98 -56 -58 -112 -88 -207 -112 -66 -17 -74 -17 -146 -1 -88 19 -163 63
-230 136 -61 67 -84 140 -84 275 0 90 3 106 29 160 38 76 82 127 160 180 l61
43 105 -4 c58 -1 119 -9 135 -16z m1783 -280 c9 -20 10 -38 1 -79 -7 -31 -9
-88 -5 -143 8 -126 8 -128 -4 -136 -19 -12 -251 -20 -315 -11 -33 5 -301 9
-595 10 -294 1 -538 5 -542 7 -14 9 -8 39 18 92 27 55 29 101 6 202 -7 29 -7
48 -1 55 9 8 637 17 1206 16 62 0 123 4 135 9 41 17 82 8 96 -22z m-18 -458
c18 -10 20 -22 20 -149 0 -152 -3 -162 -59 -163 -16 -1 -56 12 -88 28 l-58 29
-3 115 c-3 105 -1 116 17 131 24 19 141 25 171 9z"/>
</g>
</svg>
