<?xml version="1.0" encoding="UTF-8"?>
<svg version="1.1" xmlns="http://www.w3.org/2000/svg" width="1200" height="1200" viewBox="0 0 1200 1200" preserveAspectRatio="xMidYMid meet">
<g transform="translate(0.000000,1200.000000) scale(0.100000,-0.100000)"
fill="#B1801D" stroke="none">
<path d="M5025 10410 c-193 -14 -492 -95 -681 -185 -216 -103 -514 -322 -514
-378 0 -23 40 -57 66 -57 15 0 41 15 67 39 66 62 115 99 218 166 375 246 836
350 1287 290 353 -46 739 -219 973 -435 57 -52 85 -66 117 -56 23 8 45 52 37
76 -6 19 -177 157 -270 219 -368 245 -816 356 -1300 321z"/>
<path d="M4989 9850 c-209 -33 -429 -118 -604 -236 -121 -81 -177 -134 -177
-167 0 -64 67 -79 118 -26 16 17 79 64 139 104 441 293 1041 297 1485 10 52
-34 117 -80 143 -103 71 -62 127 -56 127 15 0 27 -9 40 -62 84 -173 144 -384
246 -623 299 -81 19 -137 23 -295 26 -107 1 -220 -1 -251 -6z"/>
<path d="M5045 9305 c-149 -27 -300 -92 -412 -176 -42 -31 -53 -46 -53 -68 0
-33 27 -61 59 -61 13 0 40 13 60 28 153 119 320 175 521 175 179 0 350 -55
486 -157 76 -56 94 -62 122 -36 35 33 29 73 -15 107 -212 165 -505 237 -768
188z"/>
<path d="M3102 8751 c-119 -35 -223 -141 -262 -270 -20 -65 -20 -88 -18 -2691
l3 -2625 32 -68 c60 -127 163 -210 293 -236 39 -8 638 -11 2092 -9 l2036 1 94
-87 c172 -162 451 -358 690 -486 90 -48 142 -61 163 -41 6 5 46 28 90 52 44
23 134 76 200 118 708 445 1173 1083 1334 1831 63 294 63 292 70 1070 4 393 3
726 -2 740 -12 35 -20 38 -116 45 -215 16 -500 71 -676 130 -329 111 -629 281
-869 492 -73 64 -80 62 -242 -72 -76 -64 -144 -114 -152 -113 -11 3 -14 162
-15 998 l-2 995 -22 47 c-31 67 -96 133 -162 165 l-56 28 -2220 2 c-2111 2
-2223 1 -2283 -16z m4504 -115 c52 -24 94 -68 113 -118 6 -17 11 -384 12
-1049 l1 -1023 -108 -56 c-295 -153 -631 -251 -996 -290 -59 -7 -111 -10 -115
-7 -17 11 -72 -22 -78 -46 -12 -45 1 -1408 13 -1467 6 -30 18 -104 27 -165 75
-511 324 -1045 649 -1393 23 -24 41 -48 41 -53 0 -12 -3945 -12 -3997 0 -93
21 -182 102 -217 195 l-21 57 0 2579 c0 1761 3 2594 10 2627 22 99 107 188
210 220 25 8 666 11 2220 12 l2185 1 51 -24z m599 -2026 c12 -20 158 -132 256
-196 342 -225 786 -379 1227 -425 l122 -13 0 -585 c0 -723 -10 -854 -90 -1186
-139 -576 -445 -1053 -935 -1459 -143 -119 -375 -274 -537 -360 l-73 -38 -110
63 c-583 331 -984 745 -1248 1284 -89 181 -178 458 -217 670 -42 228 -42 236
-49 920 -3 369 -5 675 -3 681 2 7 38 14 85 18 268 23 625 113 872 221 225 98
468 247 625 384 35 31 64 39 75 21z"/>
<path d="M3820 8100 c-218 -6 -234 -10 -289 -77 -17 -21 -36 -54 -41 -73 -6
-20 -10 -216 -10 -463 0 -462 0 -461 55 -533 13 -17 44 -41 69 -53 l46 -21
1656 0 1656 -1 43 21 c48 23 92 74 111 129 10 27 13 141 14 457 0 462 -1 475
-60 546 -62 75 43 70 -1593 72 -804 0 -1550 -1 -1657 -4z m3143 -123 c55 -36
57 -52 57 -494 0 -437 -1 -441 -54 -477 -23 -15 -158 -16 -1661 -16 -1503 0
-1638 1 -1661 16 -54 36 -54 40 -54 484 0 450 0 449 59 486 28 18 84 19 1658
19 1541 0 1630 -1 1656 -18z"/>
<path d="M3644 6350 c-51 -11 -103 -49 -132 -94 -26 -39 -27 -47 -30 -201 -4
-180 3 -217 51 -272 57 -65 88 -73 297 -73 169 0 189 2 225 21 56 29 81 55
104 105 18 38 21 63 21 196 0 140 -2 157 -24 204 -25 54 -55 81 -120 108 -30
13 -72 16 -200 15 -88 -1 -175 -4 -192 -9z m371 -114 c49 -32 57 -57 60 -190
3 -138 -6 -172 -58 -210 -26 -19 -42 -21 -185 -21 -176 0 -202 7 -234 66 -23
43 -26 241 -4 292 27 64 44 71 190 78 163 8 200 5 231 -15z"/>
<path d="M4552 6334 c-106 -52 -137 -131 -130 -334 3 -111 7 -130 30 -175 28
-53 73 -89 129 -105 19 -6 113 -10 209 -10 172 0 176 1 225 28 30 16 61 44 80
72 l30 45 0 180 c0 179 0 180 -27 219 -15 22 -49 53 -75 70 l-48 31 -185 3
c-182 2 -186 2 -238 -24z m406 -97 c56 -27 63 -51 63 -202 -1 -209 -11 -218
-234 -220 -239 -2 -257 13 -257 224 0 126 1 130 27 162 15 17 40 37 55 44 37
15 311 9 346 -8z"/>
<path d="M5548 6350 c-53 -16 -108 -54 -135 -94 -27 -40 -28 -45 -31 -200 -5
-215 17 -273 122 -322 48 -22 63 -24 229 -24 194 0 226 7 280 58 64 60 72 91
72 272 0 163 0 166 -27 207 -34 52 -81 88 -133 102 -46 12 -336 13 -377 1z
m364 -108 c55 -22 68 -62 68 -207 0 -110 -3 -135 -19 -161 -38 -62 -108 -74
-330 -55 -77 6 -85 9 -112 39 l-29 32 0 143 c0 134 1 144 24 171 13 17 39 35
57 42 42 15 302 12 341 -4z"/>
<path d="M3655 5421 c-70 -18 -127 -64 -160 -129 -14 -28 -16 -60 -13 -201 3
-166 3 -168 33 -217 22 -36 44 -56 80 -74 47 -23 62 -25 224 -28 194 -4 229 4
290 61 61 58 71 94 71 258 0 205 -22 259 -129 310 -41 20 -65 23 -206 25 -88
2 -173 0 -190 -5z m360 -121 c50 -31 60 -67 59 -210 0 -138 -7 -160 -57 -190
-28 -18 -51 -20 -187 -20 -167 0 -188 5 -223 52 -17 23 -21 47 -25 140 -5 144
6 189 56 223 35 24 43 25 191 25 136 0 157 -2 186 -20z"/>
<path d="M4594 5417 c-141 -47 -181 -128 -172 -354 6 -144 27 -199 94 -246 57
-40 97 -47 279 -47 180 0 213 9 272 71 54 58 63 92 63 251 0 79 -5 160 -11
182 -14 50 -78 119 -126 135 -57 19 -347 24 -399 8z m377 -120 c45 -31 52 -56
52 -202 0 -121 -2 -139 -20 -163 -36 -49 -54 -53 -236 -50 l-169 3 -34 37 -34
38 0 130 c0 147 9 177 63 211 29 18 46 20 192 17 133 -3 164 -6 186 -21z"/>
<path d="M5555 5419 c-62 -15 -116 -58 -147 -118 -27 -51 -28 -58 -28 -204 0
-143 1 -155 26 -202 26 -52 75 -94 133 -113 42 -15 332 -16 380 -2 54 15 110
59 139 109 25 43 27 56 30 183 6 203 -23 281 -121 326 -35 17 -71 21 -207 25
-93 3 -182 1 -205 -4z m355 -112 c13 -7 35 -28 47 -46 21 -31 23 -45 23 -168
l0 -133 -34 -38 -34 -37 -169 -3 c-258 -4 -259 -3 -254 300 1 46 6 62 28 88
14 18 36 36 47 40 34 14 317 12 346 -3z"/>
<path d="M3625 4479 c-47 -13 -111 -74 -130 -122 -13 -36 -16 -74 -13 -208 3
-159 4 -165 30 -206 15 -23 49 -54 75 -70 l48 -28 195 0 c217 0 230 3 289 70
54 62 61 92 61 256 0 131 -3 155 -21 194 -24 50 -82 101 -131 116 -41 11 -362
10 -403 -2z m396 -112 c42 -28 52 -62 54 -188 3 -136 -8 -175 -54 -206 -32
-22 -44 -23 -197 -23 l-163 0 -34 33 c-43 40 -52 86 -45 227 5 107 16 133 71
162 46 26 328 22 368 -5z"/>
<path d="M4590 4483 c-73 -24 -124 -71 -150 -140 -16 -43 -20 -78 -20 -172 0
-176 32 -255 123 -304 39 -20 55 -22 227 -22 208 0 238 6 293 62 61 60 69 97
65 281 -3 160 -3 161 -33 204 -20 28 -49 53 -84 71 -54 27 -58 27 -230 26 -97
0 -183 -3 -191 -6z m396 -135 l34 -38 0 -143 c0 -211 -7 -217 -245 -217 -230
0 -245 13 -245 220 0 130 9 164 52 192 38 25 54 27 216 25 l154 -2 34 -37z"/>
<path d="M5528 4480 c-39 -12 -94 -57 -120 -98 -20 -33 -23 -52 -26 -188 -2
-92 1 -167 8 -192 15 -56 63 -110 125 -138 45 -22 64 -24 203 -24 188 0 245
13 303 71 57 57 72 118 67 287 -3 106 -7 144 -21 169 -26 48 -85 102 -126 113
-42 12 -374 12 -413 0z m364 -100 c20 -6 48 -24 62 -41 25 -30 26 -35 26 -170
l0 -139 -34 -38 -34 -37 -167 -3 c-164 -3 -168 -3 -205 22 -43 28 -47 40 -54
161 -10 143 15 219 79 245 29 12 283 12 327 0z"/>
<path d="M7995 5776 c-106 -36 -137 -51 -191 -94 -115 -91 -183 -185 -227
-312 -19 -58 -22 -86 -23 -259 l-1 -195 -62 -12 c-80 -17 -118 -39 -156 -93
l-30 -43 -3 -541 -3 -540 26 -52 c17 -35 40 -62 68 -81 l42 -29 717 -3 718 -3
42 22 c24 12 54 33 67 47 51 55 51 53 51 623 l1 532 -23 45 c-13 25 -40 59
-61 75 -31 26 -49 32 -102 35 -36 2 -65 7 -65 11 -1 3 -2 98 -3 211 -2 198 -3
208 -30 275 -54 136 -149 250 -267 319 -99 58 -168 77 -300 82 -102 4 -123 2
-185 -20z m279 -121 c147 -31 281 -145 335 -285 27 -71 29 -86 33 -263 3 -109
1 -190 -4 -193 -6 -4 -715 -7 -950 -4 -4 0 -5 86 -2 191 4 171 7 197 29 256
46 121 122 204 240 260 113 53 198 64 319 38z m613 -891 l34 -36 -3 -525 -3
-525 -28 -24 -28 -24 -691 0 -690 0 -34 34 -34 34 0 509 c0 491 1 509 20 541
11 18 30 37 43 42 12 5 322 9 701 9 l679 1 34 -36z"/>
<path d="M8065 4526 c-125 -59 -177 -193 -121 -311 29 -62 65 -102 111 -121
l35 -14 0 -125 c0 -117 1 -125 22 -139 31 -22 101 -21 121 2 14 15 17 41 17
141 0 120 0 122 24 131 44 16 103 79 126 132 40 93 11 201 -74 276 -65 57
-175 69 -261 28z m200 -126 c34 -35 39 -45 39 -88 0 -115 -124 -183 -211 -116
-64 49 -81 121 -41 177 39 55 59 66 118 67 52 0 59 -3 95 -40z"/>
</g>
</svg>
