<?xml version="1.0" encoding="UTF-8"?>
<svg version="1.1" xmlns="http://www.w3.org/2000/svg" width="1200" height="1200" viewBox="0 0 1200 1200" preserveAspectRatio="xMidYMid meet">
<g transform="translate(0.000000,1200.000000) scale(0.100000,-0.100000)"
fill="#B1801D" stroke="none">
<path d="M4515 8616 c-89 -28 -150 -80 -197 -168 l-23 -43 -3 -2040 c-2 -1403
1 -2056 8 -2090 22 -106 117 -203 219 -227 28 -6 51 -16 52 -22 0 -6 0 -48 -1
-93 -1 -90 12 -129 54 -157 21 -13 56 -16 227 -16 186 0 204 2 235 20 43 27
55 67 52 171 l-3 84 860 0 860 0 -3 -86 c-4 -95 7 -131 54 -168 25 -20 39 -21
231 -21 172 0 208 3 229 16 44 30 56 67 52 167 l-3 90 54 14 c92 23 179 103
209 192 17 47 18 4120 2 4180 -17 64 -85 141 -155 176 l-60 30 -1455 2 c-1155
1 -1463 -1 -1495 -11z m2965 -125 c19 -10 50 -39 68 -65 l32 -48 0 -2039 c0
-1578 -3 -2044 -12 -2066 -23 -52 -59 -91 -99 -107 -35 -14 -187 -16 -1480
-16 -1410 0 -1441 0 -1478 20 -22 11 -52 39 -70 66 l-31 47 -1 2021 c-1 1112
0 2035 1 2051 2 40 34 89 78 123 l35 27 1401 5 c771 3 1428 3 1461 1 33 -1 76
-11 95 -20z m-2448 -4458 c3 -5 2 -42 -1 -83 l-6 -75 -175 0 -175 0 -3 69 c-2
38 -1 75 2 83 4 10 43 13 180 13 96 0 176 -3 178 -7z m2281 -67 c-1 -37 -4
-74 -7 -82 -7 -19 -331 -21 -342 -2 -8 12 -6 137 3 150 2 5 82 7 176 6 l172
-3 -2 -69z"/>
<path d="M5873 7750 c-191 -20 -396 -97 -553 -208 -155 -110 -287 -265 -373
-437 -95 -190 -129 -336 -128 -555 0 -123 4 -160 26 -244 80 -307 252 -555
503 -725 213 -144 484 -213 751 -191 92 7 148 19 287 61 59 17 244 117 312
167 99 74 212 195 281 302 33 52 61 98 61 101 0 4 16 43 36 86 61 131 86 246
91 420 6 174 -9 280 -59 422 -84 237 -218 425 -407 567 -93 69 -240 149 -336
182 -138 47 -339 68 -492 52z m390 -144 c104 -27 272 -105 342 -159 166 -128
259 -239 342 -407 259 -525 49 -1154 -475 -1423 -364 -187 -787 -147 -1123
105 -212 160 -367 428 -409 707 -18 115 -8 281 24 403 106 413 433 716 856
794 117 21 321 12 443 -20z"/>
<path d="M5825 7315 c-278 -75 -478 -267 -561 -540 -51 -168 -32 -383 47 -535
113 -217 287 -359 505 -411 75 -18 109 -20 214 -16 141 6 206 23 318 82 253
132 403 386 405 680 0 92 -4 125 -27 200 -31 103 -86 210 -134 263 -19 21 -40
47 -49 59 -25 37 -153 127 -233 165 -41 20 -107 43 -147 52 -87 20 -267 20
-338 1z m356 -124 c189 -54 339 -198 421 -405 29 -75 32 -90 32 -201 1 -145
-18 -230 -75 -326 -72 -124 -152 -202 -269 -263 -100 -53 -177 -70 -310 -68
-107 1 -121 3 -203 36 -117 46 -174 84 -255 171 -83 89 -123 162 -152 280 -87
348 124 695 476 785 95 24 232 21 335 -9z"/>
<path d="M5905 6900 c-150 -47 -255 -201 -243 -354 10 -121 101 -243 214 -286
77 -29 185 -25 259 11 123 58 203 193 192 325 -9 119 -87 234 -192 283 -55 26
-178 37 -230 21z m191 -131 c194 -98 134 -390 -86 -416 -41 -5 -59 -1 -105 21
-62 31 -98 72 -121 139 -28 83 12 195 86 242 79 50 145 54 226 14z"/>
<path d="M5948 5010 c-197 -59 -244 -310 -79 -424 149 -103 351 5 351 188 -1
108 -64 198 -161 230 -56 17 -70 18 -111 6z m121 -138 c69 -58 46 -178 -39
-203 -60 -18 -109 3 -138 62 -19 39 -21 50 -11 80 28 85 122 116 188 61z"/>
<path d="M9132 8463 c-18 -7 -32 -46 -25 -72 3 -12 36 -39 81 -67 132 -80 244
-176 336 -288 28 -34 53 -63 56 -66 4 -3 28 -40 54 -83 178 -287 229 -626 139
-920 -32 -107 -25 -137 32 -137 44 0 57 20 84 130 33 139 44 244 38 364 -22
431 -259 820 -663 1088 -70 47 -108 61 -132 51z"/>
<path d="M2830 8414 c-122 -75 -219 -152 -318 -252 -269 -272 -408 -613 -388
-957 5 -100 39 -281 64 -346 13 -34 55 -46 88 -24 29 19 30 44 4 121 -25 72
-50 231 -50 316 1 137 45 320 110 456 112 234 300 440 521 571 113 67 134 84
132 111 -5 65 -62 66 -163 4z"/>
<path d="M3078 7992 c-71 -42 -203 -149 -255 -206 -221 -246 -276 -541 -153
-819 26 -58 52 -81 85 -73 14 4 31 18 37 31 9 21 6 35 -20 92 -52 116 -67 269
-37 388 42 165 181 347 344 452 30 19 62 37 70 40 50 18 68 75 33 106 -26 24
-50 21 -104 -11z"/>
<path d="M8880 8000 c-41 -41 -26 -68 75 -130 181 -111 312 -280 365 -472 34
-124 21 -244 -42 -381 -26 -57 -29 -71 -20 -92 13 -28 57 -43 81 -28 22 14 78
156 97 249 28 133 2 310 -64 439 -30 59 -112 174 -159 222 -98 100 -256 213
-298 213 -8 0 -24 -9 -35 -20z"/>
<path d="M2585 6591 c-77 -19 -154 -85 -190 -163 l-25 -53 0 -1020 c0 -1004 1
-1021 21 -1065 37 -83 108 -141 199 -165 l45 -11 0 -100 c0 -114 11 -145 61
-169 28 -13 96 -15 498 -15 296 1 477 5 496 11 16 6 39 26 51 45 18 29 20 47
18 130 l-3 97 57 17 c102 32 171 99 196 190 9 34 11 291 9 1060 -3 977 -4
1016 -22 1054 -24 47 -76 99 -136 135 l-45 26 -600 2 c-330 1 -613 -2 -630 -6z
m1239 -135 c26 -13 48 -37 63 -65 l23 -44 0 -992 0 -992 -23 -43 c-16 -30 -37
-51 -67 -67 l-43 -23 -584 0 c-554 0 -586 1 -621 19 -20 10 -48 34 -62 53
l-25 33 0 1016 0 1016 29 42 c16 23 39 48 50 54 15 9 177 13 591 17 314 3 584
4 600 2 17 -2 48 -14 69 -26z m-172 -2421 c-2 -44 -5 -81 -6 -82 -5 -6 -887
-4 -896 2 -11 7 -14 148 -3 158 3 4 209 6 457 5 l451 -3 -3 -80z"/>
<path d="M3143 6179 c-92 -17 -164 -75 -207 -169 -62 -133 -4 -290 132 -357
48 -23 69 -28 132 -27 90 1 128 15 196 77 71 64 100 160 79 257 -32 145 -185
246 -332 219z m133 -130 c60 -28 89 -78 89 -151 0 -48 -5 -62 -31 -95 -44 -53
-113 -79 -173 -64 -101 27 -155 110 -131 202 29 107 145 158 246 108z"/>
<path d="M3070 5456 c-86 -24 -137 -54 -207 -120 -84 -79 -127 -159 -151 -278
-35 -178 33 -361 171 -466 105 -79 196 -112 311 -112 134 0 249 47 348 143
108 104 154 225 146 388 -4 84 -9 104 -41 170 -43 89 -138 191 -215 231 -107
55 -256 73 -362 44z m232 -115 c148 -51 240 -154 269 -300 25 -128 -19 -251
-122 -345 -82 -74 -149 -100 -254 -100 -103 1 -172 27 -247 94 -104 92 -148
206 -129 331 20 129 89 229 199 287 102 55 191 65 284 33z"/>
<path d="M3129 5117 c-24 -13 -55 -39 -67 -58 -20 -29 -23 -44 -20 -97 4 -58
7 -66 44 -103 52 -52 118 -63 182 -30 59 30 82 71 82 148 0 52 -4 66 -27 94
-29 34 -94 68 -129 69 -11 0 -41 -10 -65 -23z m101 -107 c24 -24 26 -53 4 -74
-32 -33 -94 -10 -94 35 0 23 34 59 55 59 8 0 24 -9 35 -20z"/>
<path d="M8172 6585 c-80 -25 -152 -93 -182 -173 -19 -51 -20 -80 -20 -1057 0
-985 0 -1005 20 -1059 28 -74 97 -138 176 -162 32 -10 61 -20 64 -22 3 -2 3
-46 2 -97 -4 -101 7 -137 52 -166 32 -21 968 -24 1008 -3 51 27 63 58 63 167
l0 100 68 22 c75 24 134 72 170 140 l22 40 0 1040 c0 1014 0 1041 -20 1080
-25 50 -82 108 -137 137 l-43 23 -600 2 c-481 2 -609 -1 -643 -12z m1248 -120
c16 -8 42 -32 57 -52 l28 -36 3 -991 c2 -545 0 -1006 -3 -1024 -7 -40 -59
-101 -102 -118 -42 -18 -1164 -21 -1210 -3 -44 16 -90 67 -102 112 -9 31 -11
313 -9 1032 l3 990 23 30 c13 17 40 40 60 52 l37 23 593 0 c507 0 597 -2 622
-15z m-175 -2430 l0 -80 -452 -3 c-249 -1 -453 1 -454 5 -4 28 -5 149 -2 156
3 4 208 6 456 5 l452 -3 0 -80z"/>
<path d="M8680 6159 c-55 -25 -115 -81 -142 -133 -12 -23 -22 -68 -25 -110 -5
-63 -2 -77 22 -129 105 -220 406 -219 519 2 63 122 5 285 -128 361 -44 26 -61
30 -126 30 -54 0 -88 -6 -120 -21z m210 -116 c48 -28 71 -74 71 -137 0 -87
-35 -135 -123 -166 -43 -16 -102 -3 -152 33 -41 29 -70 99 -62 151 8 49 55
112 100 132 40 18 125 12 166 -13z"/>
<path d="M8660 5451 c-157 -51 -267 -151 -329 -301 -32 -76 -39 -212 -17 -300
31 -121 128 -245 241 -310 109 -62 281 -77 400 -35 122 43 225 138 288 265
l42 85 0 120 0 120 -43 87 c-34 68 -59 101 -113 152 -38 36 -86 74 -107 85
-100 51 -260 65 -362 32z m237 -109 c146 -46 251 -166 274 -313 33 -214 -126
-412 -350 -435 -102 -11 -249 49 -317 129 -42 50 -87 155 -92 215 -9 109 37
233 115 308 102 100 241 136 370 96z"/>
<path d="M8747 5125 c-21 -7 -47 -21 -59 -32 -72 -65 -65 -195 15 -254 43 -32
132 -34 174 -3 49 36 73 82 73 138 0 110 -102 186 -203 151z m87 -111 c20 -20
20 -43 0 -72 -27 -38 -94 -20 -94 26 0 50 61 80 94 46z"/>
</g>
</svg>
