<?xml version="1.0" encoding="UTF-8"?>
<svg version="1.1" xmlns="http://www.w3.org/2000/svg" width="1200" height="1200" viewBox="0 0 1200 1200" preserveAspectRatio="xMidYMid meet">
<g transform="translate(0.000000,1200.000000) scale(0.100000,-0.100000)"
fill="#B1801D" stroke="none">
<path d="M6860 9023 c-19 -14 -20 -25 -20 -267 0 -183 3 -255 12 -264 7 -7 27
-12 45 -12 46 0 70 38 57 88 -5 21 -7 124 -3 232 6 211 3 223 -46 233 -14 2
-34 -2 -45 -10z"/>
<path d="M5852 8638 c-7 -7 -12 -28 -12 -47 0 -29 11 -44 78 -110 92 -91 156
-161 201 -218 37 -48 75 -57 104 -25 30 33 21 70 -25 110 -23 20 -60 57 -83
81 -22 24 -58 63 -80 86 -22 23 -59 63 -82 88 -43 48 -77 59 -101 35z"/>
<path d="M7875 8613 c-67 -78 -244 -256 -272 -274 -41 -26 -45 -68 -8 -104 34
-34 59 -31 92 11 15 20 47 56 71 81 23 24 61 67 83 95 22 28 59 63 83 78 24
15 46 35 49 45 30 77 -45 129 -98 68z"/>
<path d="M6735 8276 c-33 -7 -92 -29 -131 -49 -39 -20 -75 -37 -79 -37 -12 0
-125 -108 -183 -174 -58 -66 -122 -188 -122 -233 -1 -15 -8 -46 -17 -68 -25
-63 -26 -245 -2 -318 10 -31 19 -65 19 -76 0 -10 11 -39 25 -65 14 -26 25 -52
25 -57 0 -6 12 -27 27 -47 25 -34 47 -58 136 -150 41 -41 114 -83 197 -112 36
-12 79 -29 97 -36 48 -22 224 -18 330 6 222 52 377 172 483 375 42 81 59 156
70 305 8 117 7 130 -16 210 -13 47 -34 107 -45 134 -28 65 -124 190 -189 245
-75 63 -229 136 -317 150 -91 14 -231 13 -308 -3z m235 -95 c84 -8 107 -14
201 -59 92 -44 113 -59 160 -114 117 -135 155 -222 169 -387 15 -167 -8 -268
-94 -410 -50 -82 -105 -134 -197 -186 -178 -99 -398 -110 -564 -27 -63 31
-175 104 -175 114 0 4 -18 27 -40 53 -75 87 -159 315 -147 404 19 149 40 208
117 341 74 125 193 214 343 256 95 26 101 26 227 15z"/>
<path d="M5422 7605 c-28 -35 -28 -46 1 -73 25 -24 69 -28 144 -13 23 4 104 4
180 0 160 -10 199 -5 219 26 12 18 12 28 3 49 -15 32 -38 40 -92 31 -55 -10
-329 -9 -388 0 -42 7 -47 5 -67 -20z"/>
<path d="M7863 7615 c-40 -17 -49 -66 -17 -91 19 -15 523 -7 541 8 22 18 15
55 -14 78 -23 18 -35 21 -68 15 -45 -8 -346 -8 -385 -1 -14 3 -40 -1 -57 -9z"/>
<path d="M7592 6903 c-24 -9 -40 -56 -30 -90 5 -18 13 -33 19 -33 5 0 50 -39
99 -87 49 -49 94 -92 100 -98 5 -5 34 -38 62 -72 56 -66 77 -75 116 -47 15 10
22 25 22 49 0 30 -14 47 -119 152 -66 65 -125 123 -130 128 -6 6 -31 31 -56
58 -43 45 -55 51 -83 40z"/>
<path d="M6104 6828 c-38 -40 -83 -86 -100 -103 -116 -112 -174 -175 -174
-187 0 -26 45 -83 67 -86 15 -2 30 8 50 34 31 41 150 169 226 242 47 45 77 89
77 112 0 16 -47 60 -63 60 -8 0 -45 -33 -83 -72z"/>
<path d="M6851 6612 c-6 -11 -9 -119 -7 -266 2 -267 2 -266 57 -266 49 0 51
11 50 271 -1 211 -3 245 -17 261 -22 24 -70 24 -83 0z"/>
<path d="M2675 6470 c-174 -35 -269 -130 -269 -270 0 -80 14 -109 97 -194 101
-103 281 -306 295 -332 7 -13 16 -24 21 -24 4 0 29 -27 55 -60 26 -32 75 -90
109 -128 34 -38 83 -93 109 -123 84 -96 162 -176 186 -188 31 -17 28 -48 -13
-108 -19 -29 -35 -57 -35 -63 0 -11 -66 -161 -125 -285 -49 -100 -134 -291
-157 -350 -10 -27 -37 -86 -58 -131 -21 -45 -43 -99 -49 -122 -6 -22 -18 -53
-26 -69 -8 -15 -15 -49 -15 -75 0 -82 -7 -84 -219 -68 -106 8 -128 8 -148 -5
-34 -22 -32 -79 3 -101 22 -15 33 -16 87 -5 53 10 289 14 462 8 28 -1 134 1
237 3 114 3 191 1 197 -5 7 -7 -1 -32 -22 -73 -18 -34 -52 -102 -77 -150 -24
-48 -62 -116 -83 -151 -40 -66 -97 -182 -97 -198 0 -5 -11 -24 -25 -43 -14
-19 -25 -46 -25 -60 0 -32 -30 -62 -62 -62 -240 2 -319 4 -349 11 -44 10 -73
0 -95 -34 -16 -24 -16 -28 1 -59 l18 -34 3414 -1 3413 -1 10 25 c15 40 12 63
-11 86 -19 19 -27 20 -102 13 -86 -8 -286 -8 -294 0 -3 3 -5 21 -5 41 0 26 -8
46 -29 70 -16 18 -29 38 -29 44 0 6 -38 86 -85 178 -47 92 -85 170 -85 175 0
5 -27 56 -60 114 l-59 105 25 9 c16 7 74 6 162 0 198 -15 665 -8 689 10 64 49
73 63 73 114 0 40 -7 61 -30 95 -17 24 -30 50 -30 58 0 22 -49 101 -103 168
-129 158 -256 264 -357 300 -24 8 -48 19 -54 23 -18 14 -147 51 -216 62 -43 6
-721 10 -1993 10 l-1928 0 -26 28 c-14 15 -36 41 -49 58 -13 17 -50 59 -82 92
-31 34 -91 98 -132 143 -41 45 -107 116 -146 158 -39 42 -106 117 -148 166
-112 131 -134 156 -211 240 -38 41 -97 105 -130 141 -33 36 -77 83 -97 104
-21 21 -38 42 -38 47 0 5 -23 33 -51 63 -28 30 -92 100 -142 154 -51 54 -113
119 -139 144 -27 25 -48 50 -48 56 0 13 -93 106 -106 106 -5 0 -22 13 -37 29
-15 17 -38 33 -50 37 -12 3 -28 11 -36 17 -7 6 -43 24 -80 40 -64 28 -71 29
-261 32 -107 2 -213 -1 -235 -5z m339 -110 c15 -5 44 -10 64 -10 21 0 53 -9
72 -20 19 -11 46 -26 60 -32 50 -24 116 -80 179 -151 35 -40 113 -124 173
-187 60 -63 122 -129 139 -146 16 -17 29 -35 29 -40 0 -5 19 -28 43 -50 54
-54 149 -161 162 -184 6 -10 38 -46 71 -81 34 -35 92 -98 130 -139 38 -41 85
-91 104 -112 73 -77 169 -184 190 -210 12 -15 33 -40 48 -56 26 -27 81 -88
213 -237 34 -38 76 -87 92 -108 17 -21 45 -47 63 -57 31 -20 66 -20 2005 -22
l1974 -3 80 -23 c44 -13 84 -27 90 -31 5 -4 30 -15 54 -25 24 -9 58 -28 76
-41 17 -14 36 -25 41 -25 14 0 164 -149 212 -210 67 -86 143 -221 140 -250 -5
-40 -32 -46 -179 -37 -74 4 -262 5 -419 2 -157 -3 -296 -5 -310 -4 -14 1 -945
3 -2069 5 -1906 3 -2045 4 -2062 20 -11 9 -19 24 -19 32 0 8 -18 32 -39 52
-22 21 -52 57 -68 80 -15 23 -36 54 -45 69 -10 14 -35 42 -55 63 -21 20 -58
60 -83 89 -25 29 -61 69 -80 88 -19 20 -50 56 -69 81 -19 25 -62 72 -96 105
-34 33 -75 78 -91 100 -16 22 -38 50 -49 61 -11 12 -31 35 -45 51 -39 46 -141
162 -180 204 -19 21 -49 55 -67 76 -84 99 -128 150 -150 170 -12 12 -23 27
-23 33 0 6 -25 36 -56 68 -31 31 -90 98 -131 149 -40 50 -77 93 -81 95 -4 2
-31 32 -61 68 -53 64 -250 281 -357 392 -135 141 -154 190 -101 265 25 35 35
40 124 64 83 22 115 25 214 23 64 -2 128 -8 143 -14z m421 -1390 c4 -14 17
-36 29 -50 12 -14 29 -36 38 -50 14 -22 83 -102 184 -212 19 -21 34 -41 34
-44 0 -3 42 -52 93 -108 111 -120 252 -281 287 -327 14 -18 33 -39 42 -48 10
-9 49 -45 88 -81 38 -36 82 -77 99 -91 27 -24 52 -91 39 -104 -3 -3 -27 0 -54
6 -63 15 -1227 22 -1333 8 -119 -15 -124 -1 -52 152 62 134 76 165 92 214 7
22 21 52 31 66 9 14 27 51 38 82 12 31 26 59 31 62 5 4 9 14 9 24 0 9 21 57
46 107 51 100 127 286 144 354 6 25 15 56 20 70 4 14 11 33 14 42 4 14 10 12
39 -15 19 -18 38 -43 42 -57z m5143 -1208 c12 -7 22 -18 22 -25 0 -11 51 -117
212 -442 33 -66 70 -131 82 -145 47 -50 58 -77 46 -101 -11 -20 -17 -21 -72
-15 -33 3 -1300 6 -2816 6 -2056 0 -2763 -3 -2787 -11 -36 -13 -80 -6 -88 14
-8 22 20 88 51 121 30 31 52 68 94 160 12 27 34 72 50 100 47 88 110 219 133
276 12 32 30 60 43 66 34 17 4999 12 5030 -4z"/>
</g>
</svg>
