<?xml version="1.0" encoding="UTF-8"?>
<svg version="1.1" xmlns="http://www.w3.org/2000/svg" width="1200" height="1200" viewBox="0 0 1200 1200" preserveAspectRatio="xMidYMid meet">
<g transform="translate(0.000000,1200.000000) scale(0.100000,-0.100000)"
fill="#B1801D" stroke="none">
<path d="M5914 9202 c-17 -11 -41 -36 -53 -56 -13 -20 -26 -36 -31 -36 -5 0
-16 -20 -25 -44 -19 -49 -10 -80 24 -91 25 -7 44 -61 31 -85 -6 -11 -26 -19
-54 -23 -25 -4 -62 -16 -83 -27 -21 -11 -43 -20 -50 -20 -7 0 -48 -16 -90 -36
-43 -20 -121 -54 -173 -76 -188 -79 -226 -96 -290 -125 -36 -16 -108 -47 -160
-67 -52 -21 -102 -44 -110 -51 -8 -7 -34 -18 -58 -25 -24 -6 -97 -38 -162 -70
-66 -33 -122 -60 -125 -60 -9 0 -179 -68 -242 -96 -32 -15 -100 -46 -152 -70
-52 -24 -99 -44 -105 -44 -6 0 -24 -7 -41 -16 -16 -9 -62 -29 -101 -44 -38
-16 -94 -42 -123 -59 -28 -17 -57 -31 -64 -31 -7 0 -37 -13 -67 -28 -30 -16
-73 -34 -95 -41 -36 -11 -154 -61 -336 -142 -36 -16 -69 -29 -74 -29 -5 0 -16
-6 -24 -13 -9 -8 -43 -24 -76 -37 -33 -13 -82 -37 -108 -52 -26 -15 -69 -33
-95 -39 -26 -7 -78 -27 -116 -45 -37 -19 -75 -34 -84 -34 -8 0 -38 -11 -66
-24 -28 -13 -64 -28 -81 -33 -16 -4 -35 -18 -41 -31 -6 -12 -19 -31 -28 -41
-17 -18 -19 -39 -14 -141 1 -8 -2 -56 -7 -106 -6 -72 -4 -93 6 -103 8 -6 36
-28 62 -50 l49 -39 196 4 c109 2 230 6 270 9 51 3 84 0 107 -10 32 -13 34 -16
27 -47 -8 -35 -9 -3427 -2 -3615 4 -80 2 -115 -7 -124 -9 -9 -93 -12 -317 -13
l-305 -1 -27 -26 c-24 -25 -26 -33 -30 -149 -2 -68 -8 -128 -13 -134 -5 -6
-12 -30 -16 -53 l-7 -42 44 -6 c59 -8 7195 -2 7203 7 4 3 1 16 -5 28 -18 33
-25 209 -11 253 15 44 -2 83 -49 117 -30 21 -36 21 -330 17 -281 -4 -301 -3
-316 15 -15 15 -15 24 -5 58 9 30 12 469 11 1812 0 975 -3 1800 -6 1834 -4 36
-3 64 3 67 11 7 82 8 391 4 l214 -2 39 36 c39 36 39 36 40 115 1 149 -2 326
-7 339 -6 14 -144 72 -197 82 -17 3 -48 14 -67 24 -19 9 -69 31 -110 49 -41
17 -103 44 -137 60 -34 17 -66 30 -72 30 -6 0 -41 15 -78 34 -77 38 -208 96
-219 96 -3 0 -41 17 -83 39 -42 21 -94 44 -116 50 -39 12 -66 23 -270 114 -55
25 -111 48 -125 52 -14 4 -47 18 -74 31 -28 13 -53 24 -58 24 -4 0 -40 15 -80
34 -40 19 -131 60 -203 91 -71 31 -143 65 -160 75 -16 10 -46 21 -65 25 -19 4
-48 15 -65 25 -16 10 -48 23 -70 30 -37 12 -85 33 -281 126 -39 19 -76 34 -84
34 -11 0 -172 72 -325 145 -119 57 -238 105 -398 161 -44 15 -81 33 -84 40 -3
7 12 40 32 73 l36 61 -17 55 c-14 43 -28 64 -68 97 -47 40 -54 43 -121 46 -56
2 -76 -1 -101 -16z m170 -104 c50 -43 53 -88 10 -141 -23 -30 -36 -37 -64 -37
-92 0 -130 31 -130 105 0 51 9 66 54 86 59 27 87 24 130 -13z m3 -304 c12 -13
34 -24 48 -24 14 0 61 -18 105 -40 44 -22 86 -40 94 -40 8 0 54 -20 100 -45
47 -25 91 -45 98 -45 7 0 46 -15 88 -34 41 -18 100 -44 130 -56 89 -37 141
-60 205 -90 76 -36 128 -58 184 -77 24 -8 99 -41 165 -73 67 -32 139 -64 161
-70 22 -7 47 -18 55 -25 19 -16 154 -75 172 -75 7 0 51 -20 98 -43 48 -24 99
-47 115 -51 17 -4 59 -22 95 -40 36 -18 92 -43 125 -56 33 -13 76 -33 95 -45
19 -12 58 -29 85 -39 60 -22 154 -61 211 -87 23 -10 56 -22 75 -25 19 -4 63
-22 99 -40 80 -41 285 -117 363 -134 31 -7 57 -17 57 -21 0 -5 14 -15 30 -24
33 -17 39 -39 13 -50 -39 -15 -160 -16 -403 -3 -204 11 -785 13 -2880 12
-2332 -1 -2642 -3 -2775 -18 -103 -11 -179 -13 -245 -8 -86 6 -95 9 -95 27 0
17 7 20 45 20 32 0 62 10 100 31 30 17 82 40 115 52 205 71 241 85 275 102 21
11 68 31 105 45 37 14 83 33 104 44 20 10 74 35 121 56 91 41 191 86 255 115
22 11 94 42 160 71 66 28 147 64 180 80 33 16 65 29 72 29 7 0 53 18 102 40
49 22 92 40 95 40 6 0 124 55 270 126 28 13 57 24 65 24 9 0 34 12 56 25 22
14 46 25 54 25 7 0 57 20 110 44 53 24 146 65 206 91 61 25 128 54 150 64 22
10 56 24 75 32 19 7 51 22 70 32 19 11 73 35 120 53 47 18 104 42 127 53 23
12 49 21 58 21 23 0 58 20 74 42 12 17 21 19 80 12 51 -5 71 -12 88 -30z
m-3462 -1438 c29 -12 487 -15 3242 -15 2034 0 3250 4 3323 10 63 6 150 11 194
12 103 2 110 -7 101 -118 -3 -44 -2 -100 4 -125 8 -34 7 -50 -3 -65 -13 -19
-25 -20 -327 -20 -173 -1 -433 -2 -579 -3 -146 -2 -1442 -3 -2880 -2 -2273 0
-3049 -3 -3150 -10 -47 -4 -58 26 -58 168 0 131 5 148 43 170 27 15 49 15 90
-2z m1005 -440 c1 -6 1 -830 0 -1830 -1 -1426 2 -1830 12 -1868 21 -83 20 -83
-188 -83 -99 0 -191 -4 -205 -8 -22 -7 -33 -3 -59 21 -32 28 -33 30 -19 63 20
48 27 3468 8 3598 -9 58 -9 88 -2 100 9 14 39 17 209 21 215 5 244 4 244 -14z
m4618 -6 c4 -8 5 -800 2 -1760 -3 -960 -2 -1799 2 -1865 5 -98 4 -124 -9 -143
-12 -19 -20 -23 -41 -17 -15 4 -178 9 -362 11 -292 4 -342 3 -388 -12 -57 -18
-119 -14 -134 8 -21 32 -3 62 62 105 57 38 70 54 105 120 39 75 40 80 40 178
0 91 -3 105 -30 160 -44 86 -126 171 -183 189 -26 8 -65 22 -87 30 -50 18
-176 22 -230 8 -104 -27 -156 -35 -166 -25 -8 8 -4 15 11 26 11 8 34 35 50 61
17 26 45 56 64 66 36 22 59 66 75 147 15 73 -8 212 -55 344 -20 57 -48 135
-61 173 -13 38 -28 75 -34 82 -6 7 -17 36 -24 64 -8 29 -20 59 -28 69 -8 9
-33 50 -56 91 -84 150 -106 174 -247 259 -32 19 -88 39 -145 52 -85 20 -122
22 -389 21 -363 -1 -424 -7 -510 -49 -79 -39 -168 -105 -191 -141 -9 -15 -26
-35 -37 -46 -29 -25 -120 -214 -131 -269 -4 -24 -15 -55 -24 -68 -10 -13 -17
-30 -17 -39 0 -9 -9 -34 -21 -55 -11 -22 -29 -67 -39 -100 -10 -33 -32 -93
-49 -134 -46 -109 -64 -186 -56 -243 9 -63 58 -134 112 -162 28 -14 47 -34 62
-63 11 -23 32 -47 48 -55 15 -7 28 -17 28 -23 0 -17 -101 -18 -134 -1 -17 9
-46 16 -65 16 -19 0 -46 5 -58 11 -19 8 -45 3 -137 -27 -111 -36 -114 -37
-186 -111 -99 -100 -109 -123 -109 -253 -1 -97 1 -109 29 -165 21 -43 46 -72
85 -102 81 -62 140 -120 140 -138 0 -23 -44 -28 -133 -14 -83 13 -543 19 -739
9 -109 -5 -122 0 -121 52 4 307 1 3666 -3 3687 -4 17 -4 36 -1 43 4 11 435 13
2256 13 1992 0 2253 -2 2259 -15z m530 -4 c18 -19 19 -30 13 -151 -4 -71 -7
-742 -5 -1490 3 -1795 5 -2023 16 -2069 11 -47 -5 -70 -49 -67 -15 0 -109 2
-208 3 -175 3 -180 4 -191 25 -7 15 -8 40 -3 70 12 70 10 3554 -1 3615 -11 56
-3 74 33 80 12 2 102 4 199 5 168 1 177 0 196 -21z m-2531 -1664 c26 -14 61
-22 90 -22 29 0 62 -8 83 -19 19 -11 53 -29 75 -39 41 -20 116 -93 152 -147
11 -16 28 -51 38 -77 10 -26 24 -53 31 -59 8 -6 21 -35 30 -64 8 -30 21 -59
29 -65 8 -7 15 -20 15 -29 0 -9 13 -43 28 -76 68 -145 130 -374 118 -436 -7
-41 -83 -138 -186 -237 -54 -52 -98 -83 -157 -112 -44 -22 -84 -40 -89 -40 -4
0 -53 -22 -108 -49 -56 -27 -150 -72 -210 -99 -113 -51 -117 -55 -156 -142
-12 -26 -62 -23 -105 6 -22 15 -65 38 -95 51 -30 14 -64 33 -75 43 -11 10 -31
21 -45 25 -28 8 -262 138 -300 167 -14 10 -41 26 -60 36 -19 9 -53 37 -75 61
-22 24 -68 72 -101 106 -34 34 -80 86 -103 115 -35 44 -41 59 -41 100 0 27 6
61 14 77 15 29 44 113 76 222 11 35 26 74 34 86 9 13 18 43 22 67 3 24 15 56
26 71 10 15 25 44 32 65 33 92 125 252 145 252 4 0 32 23 62 50 29 28 65 53
79 57 14 3 50 19 80 34 80 41 140 48 385 45 203 -2 223 -4 262 -24z m-1152
-1433 c71 -12 155 -44 285 -108 87 -44 237 -122 285 -149 44 -24 255 -122 264
-122 6 0 54 -22 108 -49 130 -66 170 -81 206 -81 36 0 67 -25 67 -54 0 -44 13
-50 76 -35 41 11 63 22 78 42 26 36 14 58 -40 72 -21 6 -55 20 -75 33 -20 12
-42 22 -48 22 -7 0 -33 11 -59 25 -26 14 -63 25 -84 25 -91 0 -113 39 -50 87
35 28 129 73 150 73 6 0 58 23 117 51 58 28 129 59 158 69 29 10 102 37 162
60 101 38 122 42 258 52 129 9 157 8 220 -7 85 -20 132 -48 179 -107 53 -64
60 -84 66 -173 4 -79 4 -83 -29 -135 -31 -48 -52 -71 -161 -175 -25 -24 -50
-37 -80 -41 -24 -4 -54 -12 -68 -19 -36 -18 -156 -27 -407 -29 -136 -2 -229
-7 -246 -14 -40 -17 -83 -15 -101 4 -14 14 -86 15 -648 15 -718 -1 -782 3
-847 59 -20 16 -57 41 -84 55 -53 29 -82 58 -133 136 -34 52 -35 56 -32 134 6
108 30 157 112 223 97 79 198 94 401 61z m-854 -770 c272 1 528 1 569 2 41 1
354 0 695 -2 650 -3 702 -3 1250 2 187 2 392 3 455 1 63 -1 333 -2 600 -2 267
-1 499 -1 515 -1 17 0 280 -1 585 -2 305 -2 560 -6 567 -10 15 -9 13 -231 -3
-247 -7 -7 -1071 -10 -3479 -10 -3350 0 -3470 0 -3488 18 -15 16 -17 25 -8 65
7 31 8 55 1 72 -14 36 -12 67 5 89 14 19 34 19 556 19 297 0 564 3 592 7 29 4
62 5 73 3 12 -3 244 -4 515 -4z"/>
<path d="M5872 6435 c-87 -14 -121 -30 -211 -104 -93 -76 -184 -261 -185 -376
0 -59 40 -216 71 -280 40 -79 147 -159 280 -207 78 -28 92 -30 177 -25 128 7
234 43 310 104 105 85 146 165 167 328 13 101 5 182 -28 260 -75 179 -185 272
-358 301 -94 16 -113 16 -223 -1z m310 -139 c5 -9 21 -22 36 -30 152 -79 212
-388 104 -544 -90 -132 -190 -187 -338 -187 -83 0 -96 3 -160 34 -123 62 -194
154 -229 299 -17 73 -17 74 5 158 45 165 143 264 305 308 l79 22 95 -22 c57
-14 98 -29 103 -38z"/>
<path d="M6431 4734 c-26 -18 -26 -23 0 -224 6 -47 10 -109 9 -139 -1 -42 3
-58 20 -76 35 -38 23 -65 -52 -115 -36 -25 -75 -52 -85 -61 -10 -9 -40 -28
-68 -42 -56 -29 -89 -55 -174 -139 -87 -86 -86 -86 -281 79 -36 30 -181 133
-188 133 -4 0 -26 19 -49 43 l-42 42 0 90 c-1 199 4 250 27 283 34 48 28 83
-20 108 -16 9 -36 13 -44 10 -27 -10 -65 -109 -73 -189 -6 -52 -15 -88 -28
-105 -11 -15 -25 -44 -32 -64 -7 -20 -19 -42 -27 -48 -25 -22 -17 -67 21 -107
19 -20 35 -41 35 -45 0 -4 12 -11 26 -14 14 -4 46 -22 70 -40 42 -32 68 -51
199 -142 33 -24 85 -60 115 -83 120 -87 174 -119 202 -119 32 0 118 56 189
122 26 24 70 57 99 73 28 17 75 48 102 70 28 22 60 46 72 54 11 8 39 31 61 51
22 20 55 43 73 50 23 9 42 29 62 63 28 49 29 68 4 97 -6 8 -17 33 -23 55 -6
22 -18 50 -26 62 -9 13 -25 60 -37 105 -39 158 -77 204 -137 162z m128 -338
c7 -8 11 -34 9 -58 -2 -35 -7 -43 -23 -43 -15 0 -21 8 -23 34 -4 40 5 81 17
81 5 0 14 -6 20 -14z"/>
</g>
</svg>
