<?xml version="1.0" encoding="UTF-8"?>
<svg version="1.1" xmlns="http://www.w3.org/2000/svg" width="1200" height="1200" viewBox="0 0 1200 1200" preserveAspectRatio="xMidYMid meet">
<g transform="translate(0.000000,1200.000000) scale(0.100000,-0.100000)"
fill="#B1801D" stroke="none">
<path d="M5837 9855 c-412 -69 -733 -400 -802 -826 -26 -160 -16 -287 37 -457
36 -119 135 -292 216 -379 187 -200 487 -325 742 -310 108 7 210 27 290 58 30
12 68 26 85 32 54 20 199 123 266 188 212 209 321 513 291 816 -7 65 -18 138
-26 163 -24 76 -64 175 -86 216 -38 68 -148 209 -197 254 -59 53 -207 151
-253 169 -19 7 -55 21 -80 32 -68 29 -235 59 -325 58 -44 -1 -115 -7 -158 -14z
m249 -145 c109 -19 159 -33 229 -63 210 -89 383 -278 460 -502 22 -64 45 -205
45 -275 0 -132 -49 -302 -122 -422 -225 -371 -650 -510 -1035 -337 -136 61
-263 170 -346 297 -86 133 -122 237 -138 399 -11 109 -10 127 10 227 44 221
158 397 340 529 99 71 223 121 350 141 111 18 135 18 207 6z"/>
<path d="M5365 7614 c-249 -28 -276 -33 -416 -82 -151 -52 -253 -116 -366
-229 -152 -150 -248 -338 -289 -568 -7 -43 -23 -174 -34 -290 -40 -426 -67
-587 -132 -774 -73 -214 -208 -375 -514 -612 -67 -52 -146 -111 -175 -132
-290 -204 -354 -259 -396 -341 -71 -140 -20 -302 116 -373 41 -22 77 -33 104
-33 71 0 72 -7 24 -102 -85 -168 -90 -377 -13 -551 114 -259 390 -448 781
-536 268 -60 710 -44 1060 39 22 5 90 21 150 35 132 31 299 80 397 117 37 14
54 58 36 94 -7 16 -25 35 -40 43 -26 15 -35 13 -155 -26 -70 -23 -204 -60
-298 -83 -93 -22 -179 -43 -190 -45 -64 -16 -319 -47 -435 -54 -178 -11 -413
8 -550 44 -351 91 -590 281 -646 515 -24 99 -15 226 22 325 4 11 29 52 57 90
94 133 234 209 442 241 465 71 1019 -137 1921 -722 50 -32 111 -71 135 -85 24
-15 77 -48 117 -73 41 -25 97 -59 125 -75 29 -16 84 -46 122 -68 243 -135 528
-244 765 -292 131 -27 163 -31 300 -40 557 -36 1048 159 1245 496 70 120 90
195 90 338 -1 105 -4 130 -29 200 -15 44 -37 92 -47 107 -10 14 -19 35 -19 45
0 17 8 19 68 19 96 1 167 35 220 105 85 116 85 216 -1 351 -41 63 -52 72 -267
227 -405 290 -527 394 -641 544 -166 218 -213 394 -274 1012 -28 290 -52 422
-98 540 -64 167 -206 354 -334 439 -109 74 -128 85 -183 109 -155 67 -402 117
-585 117 -89 0 -115 -19 -115 -81 0 -61 32 -79 144 -79 90 -1 236 -18 331 -40
156 -35 340 -144 441 -258 134 -154 204 -328 228 -572 36 -362 54 -518 72
-630 60 -367 160 -575 382 -791 157 -153 202 -189 436 -356 292 -208 349 -257
372 -324 13 -39 2 -93 -24 -123 -39 -43 -132 -59 -240 -42 -66 11 -93 21 -153
59 -110 71 -325 146 -418 147 -38 0 -141 25 -186 45 -207 92 -268 127 -375
208 -274 208 -384 480 -351 863 6 65 15 187 21 269 6 83 18 224 26 314 8 90
12 172 9 182 -7 21 -54 49 -80 49 -9 0 -29 -12 -44 -28 -26 -26 -28 -33 -34
-149 -4 -67 -13 -198 -21 -290 -30 -351 -36 -486 -26 -598 16 -191 71 -350
173 -500 93 -137 280 -285 440 -349 26 -11 37 -21 37 -35 0 -12 4 -21 10 -21
16 0 60 23 60 32 0 4 4 8 9 8 5 0 3 -14 -6 -31 -12 -24 -20 -29 -37 -25 -92
23 -137 18 -296 -31 -266 -81 -595 -250 -1100 -566 -199 -124 -220 -141 -220
-175 0 -32 -1 -31 -161 76 -126 84 -345 222 -353 222 -2 0 -52 28 -112 63
-357 207 -739 359 -974 386 -41 4 -56 10 -58 23 -2 12 6 21 23 28 81 31 287
145 305 169 3 3 32 29 64 56 124 105 239 276 281 420 9 33 21 73 26 89 5 16
14 76 20 135 12 110 4 283 -37 811 -19 250 -18 246 -49 266 -33 21 -80 9 -107
-27 -20 -26 -20 -30 -4 -180 19 -190 44 -510 52 -684 6 -126 -2 -203 -35 -337
-27 -113 -118 -256 -228 -358 -103 -95 -197 -157 -368 -240 -158 -77 -264
-113 -410 -140 -129 -24 -246 -63 -315 -105 -84 -50 -174 -70 -259 -55 -49 8
-78 19 -102 40 -32 26 -34 32 -34 88 0 52 4 65 31 99 33 41 132 120 234 187
86 57 294 213 401 303 133 111 245 229 314 333 165 248 211 448 281 1215 31
346 183 601 441 742 149 82 368 133 569 133 81 0 87 1 115 29 16 16 29 37 29
46 0 24 -27 72 -45 79 -17 6 -113 6 -170 0z m-1085 -3130 c0 -11 -6 -15 -20
-11 -11 3 -23 1 -26 -4 -3 -5 12 -9 34 -9 49 0 59 -10 31 -30 -17 -13 -32 -15
-72 -9 -59 10 -83 27 -49 35 12 4 22 12 22 20 0 7 14 15 33 17 17 2 35 5 40 5
4 1 7 -5 7 -14z m3755 -116 c278 -57 466 -213 525 -434 58 -217 -23 -421 -229
-578 -140 -106 -269 -158 -546 -218 -79 -17 -456 -17 -545 0 -36 7 -90 18
-120 23 -78 15 -279 75 -369 111 -106 42 -290 130 -380 182 -143 82 -237 132
-263 140 -25 7 -24 46 1 46 10 0 88 42 172 94 85 51 186 112 224 135 39 24 83
52 98 63 54 38 397 217 520 271 206 92 431 159 587 176 80 9 258 3 325 -11z
m-4640 -137 c8 -14 -12 -23 -36 -16 -17 6 -19 9 -8 16 18 11 36 11 44 0z"/>
</g>
</svg>
